<?xml version="1.0" encoding="utf-8"?>
<!-- Generator: Adobe Illustrator 16.0.0, SVG Export Plug-In . SVG Version: 6.00 Build 0)  -->
<!DOCTYPE svg PUBLIC "-//W3C//DTD SVG 1.1//EN" "http://www.w3.org/Graphics/SVG/1.1/DTD/svg11.dtd">
<svg version="1.1" id="Слой_1" xmlns="http://www.w3.org/2000/svg" xmlns:xlink="http://www.w3.org/1999/xlink" x="0px" y="0px"
	 width="51px" height="51px" viewBox="15.833 -8.167 51 51" enable-background="new 15.833 -8.167 51 51" xml:space="preserve">
<g>
	<g>
		<path fill="#FFFFFF" d="M41.334,42.641c-13.955,0-25.309-11.353-25.309-25.308c0-13.955,11.354-25.308,25.309-25.308
			c13.954,0,25.307,11.353,25.307,25.308C66.641,31.289,55.289,42.641,41.334,42.641z M41.334-4.427
			c-12,0-21.761,9.762-21.761,21.76c0,11.998,9.762,21.76,21.761,21.76c11.998,0,21.759-9.762,21.759-21.76
			C63.093,5.335,53.333-4.427,41.334-4.427z"/>
	</g>
	<g>
		<path fill="#FFFFFF" d="M50.133,9.166h-4.529V8.359c0-0.713-0.291-1.366-0.762-1.833V6.521c-0.472-0.469-1.123-0.763-1.839-0.763
			h-3.342c-0.716,0-1.365,0.294-1.836,0.763v0.005c-0.471,0.467-0.771,1.12-0.771,1.833v0.806h-4.521
			c-1.694,0-3.099,1.399-3.099,3.101v12.378c0,1.704,1.405,3.104,3.099,3.104h17.601c1.692,0,3.1-1.4,3.1-3.104V12.266
			C53.233,10.567,51.837,9.166,50.133,9.166z M38.154,8.359c0-0.415,0.17-0.79,0.442-1.063c0.274-0.27,0.651-0.442,1.065-0.442
			h3.342c0.416,0,0.792,0.169,1.065,0.442c0.272,0.272,0.442,0.648,0.442,1.063v0.806h-6.357V8.359z M47.953,20.392
			c0,0.352-0.287,0.643-0.638,0.643h-3.432v3.43c0,0.354-0.288,0.639-0.647,0.639H39.43c-0.362,0-0.646-0.285-0.646-0.639v-3.43
			h-3.432c-0.351,0-0.638-0.291-0.638-0.643v-3.816c0-0.35,0.287-0.639,0.638-0.639h3.432v-3.43c0-0.355,0.284-0.64,0.646-0.64
			h3.806c0.359,0,0.647,0.285,0.647,0.64v3.43h3.432c0.351,0,0.638,0.289,0.638,0.639V20.392z"/>
		<path fill="#FFFFFF" d="M42.368,16.926v-2.803h-2.07v2.803c0,0.289-0.232,0.524-0.52,0.524h-2.805v2.072h2.805
			c0.288,0,0.52,0.233,0.52,0.522v2.801h2.07v-2.801c0-0.289,0.233-0.522,0.519-0.522h2.805V17.45h-2.805
			C42.601,17.45,42.368,17.215,42.368,16.926z"/>
	</g>
</g>
</svg>
