<?xml version="1.0" encoding="utf-8"?>
<!-- Generator: Adobe Illustrator 16.0.0, SVG Export Plug-In . SVG Version: 6.00 Build 0)  -->
<!DOCTYPE svg PUBLIC "-//W3C//DTD SVG 1.1//EN" "http://www.w3.org/Graphics/SVG/1.1/DTD/svg11.dtd">
<svg version="1.1" id="Слой_1" xmlns="http://www.w3.org/2000/svg" xmlns:xlink="http://www.w3.org/1999/xlink" x="0px" y="0px"
	 width="51px" height="51px" viewBox="15.833 -8.167 51 51" enable-background="new 15.833 -8.167 51 51" xml:space="preserve">
<g>
	<path fill="#FFFFFF" d="M41.334,42.641c-13.955,0-25.309-11.353-25.309-25.308c0-13.955,11.354-25.308,25.309-25.308
		c13.954,0,25.307,11.353,25.307,25.308C66.641,31.289,55.289,42.641,41.334,42.641z M41.334-4.427c-12,0-21.761,9.762-21.761,21.76
		c0,11.998,9.762,21.76,21.761,21.76c11.998,0,21.759-9.762,21.759-21.76C63.093,5.335,53.333-4.427,41.334-4.427z"/>
</g>
<g>
	<path fill="#FFFFFF" d="M35.19,13.2v0.092v0.018c-0.01,0.168-0.01,0.371-0.01,0.596c0,2.445,0.595,4.868,1.729,6.983l8.993-7.689
		H35.19z"/>
	<path fill="#FFFFFF" d="M41.33,25.775c1.882-1.21,3.362-2.901,4.408-4.837c1.077-2.017,1.682-4.308,1.739-6.632l-9.578,8.183
		C38.822,23.781,39.975,24.901,41.33,25.775z"/>
	<path fill="#FFFFFF" d="M52.352,11.259c-0.115-0.869-0.278-1.714-0.479-2.526c-0.087-0.432-0.471-0.763-0.922-0.763H31.726
		c-0.412,0-0.797,0.279-0.903,0.696c-0.221,0.836-0.393,1.701-0.509,2.594c-0.105,0.889-0.173,1.772-0.173,2.647
		c0,3.891,1.086,7.518,2.931,10.525c1.912,3.109,4.659,5.576,7.887,7.016c0.231,0.105,0.51,0.115,0.76,0
		c3.228-1.439,5.965-3.906,7.876-7.016c1.855-3.007,2.932-6.628,2.932-10.525C52.526,13.032,52.468,12.148,52.352,11.259z
		 M46.718,21.46c-1.182,2.211-2.901,4.122-5.092,5.449c-0.183,0.104-0.395,0.113-0.587,0c-2.189-1.327-3.91-3.238-5.101-5.449
		c-1.229-2.294-1.883-4.917-1.883-7.554c0-0.177,0.01-0.393,0.019-0.628v-0.024c0.01-0.231,0.02-0.447,0.038-0.635
		c0.01-0.296,0.251-0.542,0.558-0.542h13.316c0.297,0,0.537,0.227,0.567,0.519c0.008,0.188,0.028,0.413,0.028,0.644v0.004l0.01,0.01
		c0,0.245,0.019,0.465,0.019,0.653C48.611,16.543,47.949,19.167,46.718,21.46z"/>
</g>
</svg>
