<?xml version="1.0" encoding="utf-8"?>
<!-- Generator: Adobe Illustrator 16.0.0, SVG Export Plug-In . SVG Version: 6.00 Build 0)  -->
<!DOCTYPE svg PUBLIC "-//W3C//DTD SVG 1.1//EN" "http://www.w3.org/Graphics/SVG/1.1/DTD/svg11.dtd">
<svg version="1.1" id="Слой_1" xmlns="http://www.w3.org/2000/svg" xmlns:xlink="http://www.w3.org/1999/xlink" x="0px" y="0px"
	 width="51px" height="51px" viewBox="15.833 -8.167 51 51" enable-background="new 15.833 -8.167 51 51" xml:space="preserve">
<g>
	<path fill="#FFFFFF" d="M41.334,42.641c-13.955,0-25.309-11.353-25.309-25.308c0-13.955,11.354-25.308,25.309-25.308
		c13.954,0,25.307,11.353,25.307,25.308C66.641,31.289,55.289,42.641,41.334,42.641z M41.334-4.427c-12,0-21.761,9.762-21.761,21.76
		c0,11.998,9.762,21.76,21.761,21.76c11.998,0,21.759-9.762,21.759-21.76C63.093,5.335,53.333-4.427,41.334-4.427z"/>
</g>
<path fill="#FFFFFF" d="M52.123,10.729h-2.428V8.753c0-0.494-0.407-0.896-0.901-0.896H33.875c-0.5,0-0.896,0.402-0.896,0.896v1.976
	h-2.433c-0.5,0-0.903,0.407-0.903,0.902v4.954c0,1.434,0.58,2.733,1.512,3.682h0.01c0.824,0.828,1.919,1.387,3.146,1.521
	c1.351,2.096,3.617,3.529,6.125,3.803v2.252h-3.914c-0.494,0-0.896,0.402-0.896,0.902c0,0.496,0.402,0.898,0.896,0.898h9.62
	c0.497,0,0.898-0.402,0.898-0.898c0-0.5-0.401-0.902-0.898-0.902h-3.907v-2.252c2.513-0.273,4.773-1.707,6.13-3.803
	c1.191-0.129,2.27-0.67,3.089-1.471l0.056-0.051c0.934-0.949,1.517-2.248,1.517-3.682v-4.954
	C53.025,11.136,52.618,10.729,52.123,10.729z M32.44,19.003c-0.619-0.624-0.999-1.479-0.999-2.418v-4.057h1.537v4.894
	c0.019,0.759,0.125,1.503,0.342,2.229C32.997,19.48,32.701,19.263,32.44,19.003z M42.289,21.855c0,0.412-0.331,0.742-0.736,0.742
	c-0.412,0-0.74-0.33-0.74-0.742V13.04l-1.046,1.356c-0.253,0.316-0.722,0.379-1.04,0.125c-0.316-0.241-0.379-0.708-0.126-1.025
	l2.339-3.023c0.132-0.196,0.362-0.331,0.613-0.331c0.405,0,0.736,0.331,0.736,0.736V21.855z M51.222,16.585
	c0,0.939-0.38,1.794-0.991,2.418l-0.041,0.039c-0.25,0.244-0.532,0.447-0.843,0.609c0.218-0.727,0.319-1.471,0.337-2.229
	l0.011-0.042v-4.853h1.527V16.585z"/>
</svg>
