<?xml version="1.0" encoding="utf-8"?>
<!-- Generator: Adobe Illustrator 16.0.0, SVG Export Plug-In . SVG Version: 6.00 Build 0)  -->
<!DOCTYPE svg PUBLIC "-//W3C//DTD SVG 1.1//EN" "http://www.w3.org/Graphics/SVG/1.1/DTD/svg11.dtd">
<svg version="1.1" id="Слой_1" xmlns="http://www.w3.org/2000/svg" xmlns:xlink="http://www.w3.org/1999/xlink" x="0px" y="0px"
	 width="51px" height="51px" viewBox="15.833 -8.167 51 51" enable-background="new 15.833 -8.167 51 51" xml:space="preserve">
<g>
	<path fill="#FFFFFF" d="M41.334,42.641c-13.955,0-25.309-11.353-25.309-25.308c0-13.955,11.354-25.308,25.309-25.308
		c13.954,0,25.307,11.353,25.307,25.308C66.641,31.289,55.289,42.641,41.334,42.641z M41.334-4.427c-12,0-21.761,9.762-21.761,21.76
		c0,11.998,9.762,21.76,21.761,21.76c11.998,0,21.759-9.762,21.759-21.76C63.093,5.335,53.333-4.427,41.334-4.427z"/>
</g>
<path fill="#FFFFFF" d="M40.689,27.741l-9.077-9.077c-0.952-0.948-1.638-2.068-1.958-3.288c-0.312-1.165-0.302-2.413,0.121-3.679
	c0.368-1.106,1.008-2.107,1.837-2.915c0.829-0.814,1.845-1.44,2.966-1.796c1.298-0.412,2.58-0.419,3.785-0.103
	c1.074,0.285,2.081,0.823,2.975,1.563c0.886-0.741,1.895-1.276,2.968-1.561c1.205-0.315,2.494-0.309,3.795,0.108
	c1.11,0.353,2.127,0.981,2.955,1.791c0.83,0.808,1.47,1.811,1.837,2.913V11.7v-0.002c0.423,1.261,0.433,2.512,0.122,3.679
	c-0.321,1.219-1.008,2.34-1.959,3.288l-0.037,0.045l-9.039,9.032C41.62,28.097,41.046,28.093,40.689,27.741L40.689,27.741
	L40.689,27.741z"/>
</svg>
