<?xml version="1.0" encoding="utf-8"?>
<!-- Generator: Adobe Illustrator 16.0.0, SVG Export Plug-In . SVG Version: 6.00 Build 0)  -->
<!DOCTYPE svg PUBLIC "-//W3C//DTD SVG 1.1//EN" "http://www.w3.org/Graphics/SVG/1.1/DTD/svg11.dtd">
<svg version="1.1" id="Слой_1" xmlns="http://www.w3.org/2000/svg" xmlns:xlink="http://www.w3.org/1999/xlink" x="0px" y="0px"
	 width="71px" height="71px" viewBox="0 0 71 71" enable-background="new 0 0 71 71" xml:space="preserve">
<g>
	<g>
		<path fill="#FFFFFF" d="M35.5,70.938C15.96,70.938,0.063,55.04,0.063,35.5S15.96,0.063,35.5,0.063S70.938,15.96,70.938,35.5
			S55.04,70.938,35.5,70.938z M35.5,4.889C18.62,4.889,4.889,18.621,4.889,35.5c0,16.88,13.731,30.611,30.611,30.611
			S66.111,52.38,66.111,35.5C66.111,18.621,52.38,4.889,35.5,4.889z"/>
	</g>
	<g>
		<path fill="#FFFFFF" d="M50.57,50.341c-0.633-0.776-1.246-2.049-1.705-3.448c-0.443-1.371-0.738-2.836-0.738-4.068v-6.152
			c0-3.473-1.422-6.629-3.703-8.917c-1.233-1.229-2.615-2.134-4.091-2.736c-0.728-0.296-1.464-0.518-2.202-0.668l3.569-3.58
			c0.243-0.235,0.389-0.558,0.389-0.917c0-0.725-0.59-1.309-1.302-1.309h-10.56c-0.334,0-0.67,0.126-0.926,0.382
			c-0.494,0.507-0.494,1.334,0,1.843l3.583,3.579c-0.752,0.15-1.475,0.371-2.201,0.668c-1.476,0.603-2.869,1.508-4.092,2.736
			c-1.167,1.155-2.107,2.554-2.75,4.099c-0.616,1.49-0.966,3.122-0.966,4.818v6.152c0,1.232-0.283,2.697-0.726,4.068
			c-0.456,1.369-1.047,2.605-1.65,3.389c-0.214,0.23-0.349,0.537-0.349,0.873c0,0.72,0.59,1.301,1.314,1.301h28.086
			c0.28,0,0.577-0.094,0.818-0.286C50.919,51.717,51.014,50.9,50.57,50.341z M37.637,21.156l-2.136,2.123l-2.121-2.123H37.637z
			 M32.992,37.34c0.148,0.146,0.349,0.239,0.564,0.239h0.589h0.58h1.556h0.591h0.576l0.081,0.009c0.618,0.018,1.18,0.28,1.596,0.697
			c0.431,0.429,0.697,1.026,0.697,1.674v0.748v0.066v1.736c0,0.651-0.268,1.248-0.697,1.678c-0.428,0.431-1.02,0.697-1.677,0.697
			H36.28v0.678c0,0.431-0.35,0.785-0.779,0.785c-0.429,0-0.775-0.354-0.775-0.785v-0.678h-1.156c-0.657,0-1.246-0.268-1.677-0.697
			c-0.429-0.43-0.71-1.025-0.71-1.678c0-0.43,0.359-0.78,0.791-0.78c0.429,0,0.778,0.352,0.778,0.78
			c0,0.224,0.096,0.424,0.241,0.574c0.148,0.146,0.349,0.237,0.577,0.237h0.576h0.58h1.556h0.991h0.176
			c0.228,0,0.428-0.093,0.576-0.237c0.146-0.15,0.241-0.352,0.241-0.574c0-0.848,0-1.699,0-2.552c0-0.218-0.106-0.424-0.241-0.57
			c-0.148-0.147-0.36-0.241-0.576-0.241h-0.176H36.28h-1.556h-0.58h-0.589l-0.068-0.004c-0.617-0.02-1.193-0.285-1.61-0.697
			c-0.414-0.427-0.695-1.022-0.695-1.678v-0.792v-0.021v-0.93V35.01v-0.794c0-0.647,0.267-1.241,0.71-1.674
			c0.431-0.429,1.02-0.699,1.665-0.699h1.168v-0.681c0-0.432,0.348-0.781,0.775-0.781c0.43,0,0.779,0.35,0.779,0.781v0.681h1.167
			c0.643,0,1.249,0.271,1.677,0.699c0.431,0.433,0.697,1.026,0.697,1.674c0,0.43-0.348,0.785-0.776,0.785
			c-0.432,0-0.779-0.355-0.779-0.785c0-0.219-0.095-0.426-0.241-0.569c-0.148-0.148-0.35-0.241-0.576-0.241h-0.576H36.28h-1.556
			h-0.58h-0.589c-0.217,0-0.416,0.093-0.564,0.241c-0.146,0.144-0.241,0.351-0.241,0.569v0.794v0.018v0.93v0.021v0.792
			C32.75,36.989,32.847,37.191,32.992,37.34z"/>
	</g>
</g>
</svg>
