<?xml version="1.0" encoding="utf-8"?>
<!-- Generator: Adobe Illustrator 16.0.0, SVG Export Plug-In . SVG Version: 6.00 Build 0)  -->
<!DOCTYPE svg PUBLIC "-//W3C//DTD SVG 1.1//EN" "http://www.w3.org/Graphics/SVG/1.1/DTD/svg11.dtd">
<svg version="1.1" id="Слой_1" xmlns="http://www.w3.org/2000/svg" xmlns:xlink="http://www.w3.org/1999/xlink" x="0px" y="0px"
	 width="71px" height="71px" viewBox="0 0 71 71" enable-background="new 0 0 71 71" xml:space="preserve">
<g>
	<g>
		<path fill="#FFFFFF" d="M35.964,20.493c-8.506,0-15.428,6.919-15.428,15.426s6.922,15.429,15.428,15.429
			c8.509,0,15.429-6.922,15.429-15.429S44.473,20.493,35.964,20.493z M41.575,41.109c-0.866,1.271-2.474,1.998-4.427,2.125v2.41
			c0,0.652-0.531,1.185-1.186,1.185c-0.655,0-1.185-0.531-1.185-1.185v-2.527c-1.096-0.194-2.171-0.543-3.297-0.919l-0.246-0.081
			c-0.62-0.207-0.956-0.878-0.75-1.498c0.208-0.62,0.872-0.952,1.498-0.751l0.247,0.084c1.276,0.426,2.381,0.793,3.455,0.915
			c2.188,0.244,3.461-0.402,3.932-1.092c0.273-0.402,0.305-0.853,0.087-1.265c-0.364-0.687-1.556-1.493-3.699-1.409
			c-0.011,0-0.023,0-0.037,0c-2.818,0-4.948-0.967-5.844-2.654c-0.625-1.175-0.541-2.55,0.227-3.678
			c0.872-1.283,2.466-2.046,4.427-2.187v-2.39c0-0.653,0.53-1.183,1.185-1.183c0.653,0,1.186,0.53,1.186,1.183v2.518
			c1.121,0.19,2.221,0.546,3.373,0.929l0.246,0.082c0.621,0.206,0.959,0.877,0.754,1.498c-0.207,0.622-0.879,0.953-1.498,0.751
			l-0.248-0.081c-1.282-0.427-2.389-0.796-3.465-0.916c-2.212-0.254-3.517,0.42-4,1.129c-0.193,0.283-0.365,0.727-0.095,1.235
			c0.361,0.682,1.577,1.34,3.783,1.399c0.013,0,0.022,0,0.035,0c2.764,0,4.862,0.97,5.763,2.667
			C42.43,38.592,42.346,39.979,41.575,41.109z"/>
	</g>
	<g>
		<path fill="#FFFFFF" d="M35.5,70.917c-19.529,0-35.417-15.888-35.417-35.417c0-19.529,15.888-35.417,35.417-35.417
			c19.527,0,35.417,15.888,35.417,35.417C70.917,55.029,55.027,70.917,35.5,70.917z M35.5,4.906C18.63,4.906,4.906,18.63,4.906,35.5
			S18.63,66.095,35.5,66.095S66.094,52.37,66.094,35.5S52.37,4.906,35.5,4.906z"/>
	</g>
</g>
</svg>
