<?xml version="1.0" encoding="utf-8"?>
<!-- Generator: Adobe Illustrator 16.0.0, SVG Export Plug-In . SVG Version: 6.00 Build 0)  -->
<!DOCTYPE svg PUBLIC "-//W3C//DTD SVG 1.1//EN" "http://www.w3.org/Graphics/SVG/1.1/DTD/svg11.dtd">
<svg version="1.1" id="Слой_1" xmlns="http://www.w3.org/2000/svg" xmlns:xlink="http://www.w3.org/1999/xlink" x="0px" y="0px"
	 width="71px" height="71px" viewBox="0 0 71 71" enable-background="new 0 0 71 71" xml:space="preserve">
<g>
	<path fill="#FFFFFF" d="M35.5,0.094C15.977,0.094,0.094,15.977,0.094,35.5c0,19.521,15.883,35.406,35.406,35.406
		c19.521,0,35.406-15.885,35.406-35.406C70.906,15.977,55.021,0.094,35.5,0.094z M53.992,12.015c-0.1-0.146-0.2-0.29-0.303-0.435
		c0.226,0.067,0.426,0.002,0.666-0.134c0.265,0.208,0.526,0.417,0.785,0.633C54.814,12.023,54.416,12.008,53.992,12.015z
		 M56.602,18.029c-0.021-0.003-0.045-0.006-0.065-0.009l-0.071-0.009V17.94c0-0.306-0.02-0.232-0.199-0.479l-0.076-0.111
		l0.099-0.014C56.393,17.567,56.499,17.796,56.602,18.029z M56.107,17.14l-0.127,0.05c-0.198,0.08-0.395,0.154-0.608,0.143
		c-0.163-0.007-0.259-0.001-0.421,0.037l-0.189,0.044l0.102-0.166c0.158-0.255,0.207-0.4,0.445-0.602l0.043-0.036l0.049,0.026
		c0.254,0.134,0.386,0.231,0.604,0.415L56.107,17.14z M53.545,12.416c0.199,0.298,0.396,0.604,0.587,0.913
		c0.013,0.021,0.024,0.041,0.038,0.062h0.001c0.079,0.127,0.161,0.251,0.238,0.381c-0.325,0.077-0.606,0.081-0.993,0.168
		l-0.268,0.063l0.672-0.698l-0.078-0.208c-0.62-0.149-1.854,0.097-2.129,0.717l-0.016,0.036l-0.039,0.009
		c-0.063,0.014-0.127,0.031-0.189,0.045l0.041,0.435l-0.126-0.053c-0.075-0.032-0.151-0.063-0.229-0.097l-0.039-0.018l-0.008-0.041
		c-0.023-0.114-0.046-0.229-0.068-0.343l-0.008-0.04l0.026-0.029c0.317-0.354,0.972-0.477,1.327-0.705
		c-0.658,0.04-1.467,0.114-1.982,0.492c-0.344,0.25-0.592,0.49-0.957,0.717c0.354,0.011,0.404-0.028,0.762,0.145l0.341,0.164
		l-1.185-0.029c0.014,0.107,0.029,0.137,0.098,0.247l0.709,0.008l0.025,0.034c0.02,0.032,0.041,0.062,0.063,0.093
		c0.553,0.078,1.416-0.034,1.957,0.154c-0.003-0.002-0.003-0.006-0.003-0.006l-0.038-0.12l0.122,0.012
		c0.169,0.015,0.338,0.03,0.504,0.047l0.389,0.034l-0.017,0.007c0.052,0,0.104,0.005,0.151,0.01
		c-0.014-0.053-0.025-0.106-0.037-0.158l-0.021-0.097l0.1-0.003c0.185-0.007,0.324,0.022,0.502,0.063l0.099,0.022l-0.042,0.09
		c-0.014,0.031-0.028,0.06-0.04,0.092c0.038,0.001,0.077,0.005,0.116,0.006l0.119,0.008l-0.052,0.108
		c-0.006,0.014-0.012,0.028-0.019,0.043l0.297,0.149l0.011,0.036c0.013,0.048,0.025,0.095,0.037,0.144l0.026,0.101l-0.104,0.003
		c-0.016,0-0.033,0-0.055,0c0.287,0.057,0.422,0.249,0.88,0.389l0.072,0.023l-0.019,0.074c-0.174,0.738-0.884,0.889-1.492,1.132
		l0.181,0.431l-0.116,0.005c-0.463,0.02-0.541,0.006-0.993,0.158l-0.036,0.011l-0.031-0.019c-0.453-0.268-0.883-0.025-1.229,0.287
		c0.351,0.263,0.806-0.016,1.218-0.009c0.162-0.034,0.322-0.063,0.486-0.097l0.045-0.008l0.029,0.032
		c0.285,0.297,0.338,0.387,0.697,0.613l0.136,0.086l-0.148,0.06c-0.071,0.028-0.146,0.059-0.22,0.088
		c0.039,0.046,0.07,0.094,0.102,0.161c0.033,0.084,0.118,0.156,0.197,0.217c0.018-0.02,0.03-0.039,0.045-0.058l0.023-0.033h0.041
		c0.125,0.002,0.25,0.006,0.373,0.007l0.084,0.003l-0.004,0.083c0,0.009,0,0.019-0.002,0.028c0.43,0.155,0.845,0.34,1.272,0.496
		c0.007-0.094,0.013-0.188,0.019-0.285c-0.361-0.21-0.527-0.388-0.722-0.781l-0.071-0.146l0.16,0.032
		c0.58,0.112,0.922,0.573,1.479,0.673c0.048-0.234,0.151-0.383,0.274-0.553c2.043,4.953,3.215,10.673,3.215,16.769
		c0,8.352-2.193,16.004-5.822,21.928c-0.045-0.023-0.09-0.049-0.139-0.074c-0.231-0.123-0.429-0.269-0.676-0.355l-0.205,0.391
		l-0.08,0.309l0.078,0.359l0.225,0.215l-0.096,0.52l-0.006,0.023c-0.127,0.186-0.252,0.369-0.381,0.552l-0.308-0.169h-0.312
		l-0.168,0.074l0.168,0.241l-0.352,0.12l-0.389-0.109L51.41,59.63l-0.383,0.166l-0.273,0.183l-0.355,0.025l-0.297-0.111
		l-0.224-0.334l-0.153-0.289v-0.345c0-0.004-0.011-0.26-0.011-0.405c0-0.074,0.14-0.215,0.216-0.289l-0.027-0.203
		c-0.111-0.055-0.313-0.161-0.313-0.267c0-0.079,0.103-0.176,0.183-0.239l-0.069-0.108l-0.106,0.09L49.337,57.8l-0.651,0.298
		l-0.31,0.094l-0.169,0.373l-0.082-0.066c-0.023-0.02-0.158-0.104-0.218-0.193c-0.066-0.021-0.242-0.044-0.304-0.053l-0.01-0.001
		l-0.373-0.144l0.172,0.224l-0.055,0.194l0.137,0.257l0.012,0.241l0.223-0.012l0.191,0.312l-0.436,0.207l-0.126,0.354l-0.304,0.118
		l-0.285,0.266l-0.35-0.006L45.941,60.3l-0.201-0.178c0.021-0.056,0.047-0.104,0.068-0.159l0.188,0.168l0.399-0.031l0.289,0.006
		l0.262-0.244l0.264-0.103l0.122-0.348l0.331-0.158l-0.046-0.073l-0.289,0.012l-0.015-0.366l-0.152-0.279l0.051-0.181l-0.479-0.62
		l0.902,0.345c0.096,0.014,0.361,0.036,0.398,0.112c0.033,0.046,0.072,0.082,0.105,0.108l0.114-0.256l0.372-0.109l0.609-0.279
		l0.199-0.229l-0.373-0.582V56.83c0-0.148,0-0.296,0-0.441c0-0.1,0.271-0.271,0.406-0.354l-0.111-0.401l0.404-0.375l0.025-0.034
		c-0.202-0.082-0.416-0.121-0.633-0.135l-0.135-0.007l0.069-0.117c0.095-0.157,0.188-0.317,0.283-0.479
		c-0.438-0.299-0.271-0.266-0.864-0.293l-0.041-0.002l-0.021-0.031c-0.088-0.125-0.176-0.237-0.288-0.342l-0.101-0.092l0.014-0.006
		c-0.063,0.012-0.131,0.041-0.191,0.059c1.398-5.311,2.211-11.572,2.211-18.279c0-1.624-0.051-3.219-0.143-4.785
		c0.017-0.003,0.035-0.008,0.053-0.011l-0.023-0.167l0.051-0.027c0.031-0.019,0.064-0.036,0.099-0.053l-0.048-0.453l0.109-0.836
		l-0.207-0.104l-0.15-0.034c-0.004-0.057-0.008-0.113-0.012-0.169l0.215,0.048l0.33,0.166l-0.122,0.931l0.04,0.376
		c0.476-0.208,1.005-0.31,1.512-0.395l0.366-0.063c-0.177-0.142-0.304-0.359-0.343-0.633c-0.059-0.015-0.117-0.03-0.174-0.044
		l-0.148-0.04l0.113-0.102c0.146-0.132,0.293-0.262,0.44-0.394c-0.116,0.015-0.159,0.086-0.354,0.205l-0.074,0.047L51.58,28.88
		c-0.115-0.238-0.064-0.169-0.311-0.274l-0.211-0.089l0.221-0.063c0.369-0.105,0.759-0.184,1.14-0.231
		c0.009-0.079,0.017-0.156,0.026-0.233l0.002-0.041l0.02-0.012c-0.966-0.32-1.814,0.263-2.66,0.789
		c-0.015-0.17-0.029-0.338-0.045-0.508c0.223-0.164,0.463-0.314,0.701-0.375c0.262-0.066,0.416-0.132,0.652-0.268
		c0.144-0.083,0.275-0.172,0.402-0.282c0.076-0.064,0.147-0.138,0.229-0.196c0.358-0.25,1.599-0.157,2.011-0.145
		c0.17,0.005,1.398,0.072,1.526-0.073c0.073-0.085,0.09-0.135,0.19-0.215c0.192-0.149,0.498-0.255,0.727-0.327
		c0.543-0.174,1.006-0.22,1.529-0.441c-0.002-0.017-0.006-0.032-0.01-0.047l-0.007-0.037l0.022-0.028
		c0.025-0.031,0.048-0.059,0.068-0.088l-0.105-0.241l0.285-0.191c-0.026-0.112-0.061-0.21-0.116-0.313
		c-0.075-0.007-0.152-0.014-0.229-0.021c-0.049,0.066-0.099,0.134-0.148,0.2l-0.082,0.111l-0.057-0.125
		c-0.022-0.043-0.041-0.089-0.063-0.134l-0.025-0.054l0.045-0.042c0.043-0.04,0.09-0.079,0.133-0.12
		c-0.002-0.027-0.002-0.053-0.004-0.081c-0.059-0.025-0.117-0.048-0.176-0.072l-1.242,0.54l-0.037-0.059
		c-0.022-0.037-0.043-0.073-0.064-0.108l-0.047-0.078l0.082-0.039c0.48-0.231,1.016-0.503,1.564-0.471
		c0.006-0.006,0.015-0.012,0.021-0.019c-0.054-0.042-0.093-0.085-0.14-0.146c-0.276,0.057-0.346,0.047-0.523-0.186
		c-0.039,0.018-0.076,0.033-0.113,0.048l-0.049,0.021l-0.038-0.037c-0.165-0.149-0.118-0.099-0.344-0.092l-0.115,0.005l0.033-0.109
		c0.022-0.068,0.045-0.134,0.063-0.203c-0.188-0.083-0.147-0.126-0.287-0.298c-0.039-0.002-0.072-0.004-0.108-0.006l-0.155-0.009
		l0.098-0.123c0.013-0.02,0.025-0.037,0.041-0.054c-0.131-0.078-0.15-0.094-0.248-0.28l-0.073-0.136l0.151,0.016
		c0.179,0.019,0.381,0.078,0.531-0.025c-0.113-0.068-0.168-0.129-0.279-0.25l-0.127-0.134l0.185-0.002
		c0.056-0.002,0.106-0.002,0.161-0.003c0.016-0.043,0.029-0.088,0.046-0.134c-0.056-0.052-0.11-0.104-0.166-0.155l-0.063-0.063
		l0.065-0.058c0.007-0.003,0.009-0.008,0.017-0.012c-0.031-0.006-0.063-0.014-0.094-0.02l-0.213-0.045l0.189-0.107
		c0.051-0.026,0.098-0.054,0.146-0.083c0.003-0.022,0.008-0.046,0.008-0.069c-0.02-0.022-0.041-0.045-0.061-0.065l-0.025-0.028
		l0.004-0.036c0.002-0.027,0.006-0.054,0.008-0.08c-0.027-0.018-0.056-0.036-0.08-0.054l-0.088-0.057l0.065-0.063
		c-0.021-0.04-0.038-0.054-0.099-0.093l-0.063-0.04l0.181-0.352c-0.021-0.018-0.045-0.032-0.067-0.047
		c-0.206,0.137-0.296,0.243-0.548,0.341c-0.111,0.319-0.391,0.641-0.748,0.629c-0.301,0.245-0.643,0.41-1.029,0.25l-0.04-0.018
		l-0.009-0.042c-0.014-0.059-0.025-0.119-0.04-0.179c-0.117-0.018-0.231-0.036-0.349-0.052l-0.164-0.027l0.121-0.113
		c0.025-0.027,0.054-0.053,0.082-0.079c-0.03-0.013-0.062-0.023-0.09-0.036l-0.142-0.06l0.128-0.083
		c0.04-0.025,0.077-0.051,0.115-0.076c-0.006-0.036-0.012-0.074-0.016-0.11l-0.008-0.034l0.023-0.028
		c0.182-0.221,0.285-0.486,0.549-0.613c-0.002-0.001-0.002-0.001-0.002-0.003c-0.037,0.021-0.078,0.041-0.116,0.06l-0.036,0.019
		l-0.037-0.018c-0.219-0.104-0.428-0.133-0.654-0.25l-0.109-0.059l0.098-0.079c0.03-0.025,0.064-0.052,0.099-0.079
		c-0.39-0.293-0.486-0.512-1.063-0.383c-0.53,0.116-0.631,0.001-1.091-0.103c-0.208-0.046-0.375,0.009-0.555,0.107
		c-0.104,0.513-0.004,0.524-0.467,0.772c0.102,0.256,0.065,0.234,0.004,0.546l-0.01,0.042l-0.037,0.017
		c-0.28,0.118-0.658,0.361-0.922,0.605c-0.144-0.768-0.295-1.522-0.461-2.259c0.082-0.035,0.166-0.07,0.248-0.105
		c0.006-0.014,0.012-0.027,0.016-0.041c-0.104,0-0.2,0.001-0.293,0.008c-0.057-0.242-0.113-0.479-0.17-0.717
		c0.25-0.094,0.504-0.148,0.752-0.086l0.143,0.035l-0.104,0.103c-0.018,0.018-0.035,0.034-0.054,0.052
		c0.194,0.07,0.384,0.158,0.569,0.247c0.102-0.066,0.199-0.132,0.299-0.197c-0.023-0.04-0.051-0.08-0.077-0.12
		c-0.143-0.002-0.286-0.007-0.43-0.013l-0.199-0.007l0.146-0.134c0.061-0.057,0.123-0.115,0.184-0.172
		c-0.202-0.199-0.477-0.363-0.74-0.451c-0.082,0.058-0.162,0.112-0.242,0.17l-0.16,0.109l0.033-0.191
		c0.016-0.09,0.03-0.184,0.045-0.275l0.011-0.061c-0.136,0.08-0.249,0.159-0.356,0.242c-0.031-0.129-0.064-0.256-0.1-0.384
		c0.094-0.042,0.188-0.083,0.316-0.142c-0.024-0.009-0.053-0.019-0.08-0.028l-0.062-0.022l0.013-0.068
		c0.01-0.043,0.016-0.088,0.023-0.131l0.014-0.066l0.065-0.001c0.161-0.002,0.321-0.005,0.481-0.007l0.071-0.001l0.01,0.067
		c0.005,0.026,0.011,0.049,0.015,0.073c0.074,0.042,0.127,0.088,0.17,0.14c0.048-0.042,0.095-0.085,0.142-0.127l0.038-0.033
		l0.046,0.015c0.056,0.02,0.106,0.042,0.163,0.06c0.01-0.044,0.018-0.088,0.027-0.133l0.037-0.183l0.107,0.152
		c0.027,0.036,0.055,0.072,0.081,0.108c0.427-0.066,0.985-0.292,1.347-0.545c-0.144-0.168-0.146-0.326-0.115-0.564l0.008-0.061
		l0.689-0.103c-0.015-0.031-0.027-0.059-0.045-0.087l-0.039-0.073l0.074-0.039c0.014-0.006,0.027-0.013,0.039-0.02
		c-0.063-0.026-0.104-0.063-0.202-0.16l-0.063-0.063l0.037-0.03c-0.303-0.015-0.596-0.066-0.916-0.075
		c-0.065,0.083-0.133,0.167-0.201,0.25c0.018,0.048,0.031,0.098,0.048,0.146l0.026,0.079l-0.078,0.024
		c-0.399,0.127-0.695,0.345-1.057,0.537l-0.164,0.088l0.047-0.181c0.011-0.036,0.016-0.068,0.02-0.1
		c-0.135,0.13-0.189,0.258-0.247,0.48l-0.017,0.057l-0.059,0.005c-0.209,0.012-0.177,0.004-0.348,0.12l-0.098,0.066l-0.028-0.114
		c-0.042-0.179-0.075-0.162-0.207-0.281l-0.054-0.046l0.338-0.533l0.07,0.067c0.02,0.019,0.041,0.04,0.063,0.059
		c0.188-0.159,0.153-0.216,0.01-0.405c-0.332,0.105-0.565,0.421-0.93,0.472c-0.021-0.071-0.043-0.14-0.063-0.211
		c0.077-0.104,0.118-0.193,0.067-0.357l-0.013-0.042c-0.021,0.013-0.049,0.027-0.086,0.045L47.4,15.43l-0.035-0.024
		c-0.038-0.125-0.074-0.251-0.113-0.375c0.166-0.073,0.314-0.144,0.477-0.244l-0.19-0.33l0.082-0.036
		c0.049-0.023,0.099-0.046,0.147-0.068c0.008-0.125,0.006-0.108-0.08-0.209c-0.045,0-0.092,0.001-0.137,0.001l-0.188,0.003
		l0.125-0.139c0.199-0.22,0.447-0.355,0.709-0.48c-0.006-0.013-0.012-0.023-0.016-0.037l-0.05-0.113h0.122
		c0.176,0,0.352,0.006,0.523,0.032c0.061,0.007,0.143,0.029,0.201,0.029c0.098,0,0.726-0.304,1.105-0.491
		c-0.529-0.034-1.045-0.072-1.58-0.045c0,0.041-0.003,0.078-0.004,0.117l-0.009,0.104l-0.099-0.033
		c-0.057-0.017-0.109-0.034-0.162-0.053c-0.182,0.115-0.354,0.298-0.539,0.433c0.008,0.053,0.016,0.106,0.024,0.158l0.007,0.048
		l-0.039,0.028c-0.276,0.217-0.34,0.333-0.539,0.386h0.113l-0.26,0.147c-0.063-0.185-0.121-0.372-0.184-0.554
		c0.074-0.013,0.147-0.026,0.22-0.04c0.009-0.009,0.017-0.02,0.022-0.029c-0.063-0.005-0.123-0.008-0.187-0.013l-0.086-0.005
		c-0.009-0.02-0.015-0.041-0.021-0.061l0.045-0.062c0.012-0.014,0.021-0.029,0.032-0.043c-0.041-0.008-0.083-0.016-0.125-0.024
		c-0.024-0.071-0.051-0.139-0.075-0.208c0.414-0.058,0.455-0.06,0.85-0.258c-0.336-0.005-0.635,0.008-0.932,0.034
		c-1.014-2.797-2.21-5.21-3.548-7.124c2.864,0.726,5.568,1.861,8.05,3.333c0.252,0.286,0.5,0.582,0.742,0.882v0.006
		c0.004,0,0.004,0,0.006,0.001c0.272,0.333,0.537,0.674,0.797,1.022c-0.069-0.021-0.138-0.027-0.211-0.013l0.168,0.058l0.054-0.032
		c0.065,0.089,0.134,0.173,0.2,0.264c-0.166,0.029-0.316,0.069-0.371,0.143c0.041,0.001,0.101-0.017,0.242-0.072l0.092-0.036
		l0.027,0.159c0.053,0,0.104,0,0.153,0c0.108,0.154,0.215,0.313,0.323,0.47c-0.506,0.025-0.988,0.061-1.346,0.069l-0.203,0.272
		c-0.036,0.049-0.07,0.097-0.106,0.145C52.212,12.551,52.98,12.604,53.545,12.416z M13.27,20.933
		c0.288-0.098,0.558-0.205,0.663-0.356l0.021-0.032l0.039-0.003c0.684-0.063,1.191-0.619,1.958-0.619h0.043l0.022,0.039
		c0.027,0.04,0.052,0.081,0.078,0.122l0.066,0.104l-0.122,0.021c-0.688,0.109-1.221,0.271-1.794,0.658
		c0.018,0.042,0.034,0.083,0.053,0.124l0.02,0.048c0.621-0.141,1.23-0.325,1.872-0.399c0.066-0.233,0.246-0.29,0.317-0.5
		l0.018-0.054l0.059-0.001c0.381-0.008,0.636-0.049,0.997,0.113l0.104,0.047l-0.075,0.083c-0.012,0.012-0.021,0.022-0.031,0.034
		c0.021,0.026,0.043,0.054,0.065,0.083c0.29,0.005,0.274-0.039,0.559-0.169l0.384-0.178l-0.29,0.309
		c-0.063,0.064-0.122,0.129-0.185,0.194c0.369,0.188,0.902,0.031,1.318,0.258c0.239-0.063,0.444-0.055,0.69-0.063l0.219-0.007
		l-0.011-0.027l0.146-0.157l-0.301,0.038l-0.629-0.085l3.444-2.833c-0.021,0.086-0.042,0.175-0.063,0.262l-2.99,2.458l0.237,0.032
		l0.304-0.038h0.37L20.516,20.8l0.168,0.459l-0.001,0.005l0.152-0.072l0.286-0.075l0.568-0.284l0.481,0.024l-0.122,0.391
		l0.045,0.394l-0.021,0.334c-0.024,0.135-0.047,0.272-0.069,0.408l-0.129,0.38l0.053,0.079c-0.013,0.078-0.027,0.157-0.04,0.235
		l-0.193-0.289l0.2-0.596l0.037-0.548l-0.047-0.412l0.07-0.224l-0.229-0.012l-0.544,0.271l-0.29,0.078l-0.563,0.261
		c0.089,0.054,0.213,0.079,0.418,0.059c0.009-0.061,0.019-0.121,0.027-0.184l0.017-0.089l0.087,0.023
		c0.077,0.021,0.152,0.04,0.229,0.062l0.113,0.03l-0.066,0.097c-0.022,0.031-0.047,0.063-0.068,0.098L21.1,21.72
		c0.008,0.008,0.018,0.017,0.025,0.023c0.209-0.16,0.379-0.419,0.546-0.617l0.047-0.058l0.12,0.083l-0.032,0.064
		c-0.088,0.165-0.144,0.345-0.214,0.518l0.026-0.037l0.027,0.22c0.039,0.321-0.054,0.396-0.239,0.574
		c0.153,0.143,0.123,0.223,0.128,0.483l0.001,0.052l-0.048,0.023c-0.045,0.022-0.088,0.042-0.134,0.064l-0.013,0.006
		c0.021,0.024,0.042,0.05,0.063,0.073l0.047,0.052l-0.042,0.055c-0.147,0.182-0.164,0.173-0.334,0.208
		c0.009,0.081-0.004,0.148-0.021,0.218c0.014-0.013,0.033-0.027,0.052-0.042l0.08-0.063l0.042,0.092
		c0.026,0.048,0.047,0.099,0.069,0.148l0.019,0.038l-0.02,0.036c-0.007,0.011-0.013,0.023-0.021,0.034l0.506-0.227
		c-0.01,0.063-0.019,0.129-0.027,0.194l-0.416,0.186v0.094l-0.031,0.026c-0.158,0.132-0.005,0.231-0.252,0.397l-0.13,0.088
		l0.004-0.145c-0.038,0.015-0.075,0.032-0.113,0.048c0.016,0.019,0.029,0.04,0.043,0.06l0.071,0.093l-0.112,0.033
		c-0.019,0.007-0.038,0.013-0.057,0.018l0.023,0.129c0.005-0.003,0.007-0.007,0.01-0.009l0.049-0.047l0.055,0.039
		c0.012,0.008,0.023,0.015,0.033,0.022c0.146-0.129,0.21-0.116,0.415-0.173l0.293-0.082c-0.002,0.018-0.005,0.037-0.007,0.055
		l-0.212,0.169c-0.209,0.167-0.26,0.124-0.371,0.386l-0.014,0.032l-0.031,0.013c-0.046,0.017-0.09,0.034-0.134,0.053
		c-0.002,0.007-0.004,0.013-0.005,0.021c0.017,0.001,0.033,0.005,0.052,0.007l0.038,0.007l0.019,0.031
		c0.02,0.034,0.038,0.063,0.056,0.097c0.06,0,0.117,0,0.175,0h0.113l-0.039,0.108c-0.014,0.043-0.03,0.086-0.046,0.126l-0.021,0.063
		l-0.064-0.008c-0.022-0.001-0.047-0.005-0.071-0.008c-0.05,0.153-0.108,0.204-0.206,0.291c0.022,0.006,0.046,0.012,0.07,0.019
		l0.205,0.057l-0.191,0.095c-0.032,0.017-0.064,0.032-0.099,0.05c0.033,0.187,0.323,0.257,0.531,0.33
		c-0.01,0.099-0.021,0.199-0.033,0.299c-0.37,0.005-0.609-0.161-0.958-0.308c-0.038,0.022-0.071,0.042-0.107,0.063
		c0.01,0.29,0.084,0.396,0.359,0.537l0.06,0.029l-0.016,0.063c-0.008,0.032-0.018,0.065-0.024,0.097
		c0.077,0.031,0.151,0.063,0.229,0.093l0.174,0.07l-0.172,0.079c-0.015,0.007-0.032,0.015-0.047,0.021
		c0.071-0.002,0.146-0.006,0.218-0.007l0.146-0.007l-0.072,0.128c-0.021,0.039-0.046,0.08-0.068,0.12
		c0.068,0.036,0.126,0.067,0.175,0.095c-0.009,0.1-0.021,0.198-0.028,0.298c-0.074-0.037-0.15-0.082-0.271-0.148
		c-0.344,1.005-0.479,1.771-1.241,2.619c-0.421,0.466-0.896,1.016-1.202,1.566c-0.141,0.253-0.195,0.459-0.305,0.711
		c-0.081,0.188-0.195,0.326-0.341,0.461c0.038,0.096,0.075,0.19,0.116,0.283l0.032,0.077l-0.079,0.03
		c-0.054,0.022-0.106,0.044-0.161,0.066c-0.091,0.782-0.049,0.46,0.109,1.14c0.051-0.012,0.103-0.021,0.15-0.031l0.141-0.028
		l-0.047,0.134c-0.02,0.059-0.041,0.118-0.061,0.177l-0.013,0.047l-0.053,0.007c-0.047,0.005-0.095,0.009-0.142,0.014
		c0,0.053,0,0.104,0,0.159c0.056,0.028,0.11,0.057,0.164,0.085l0.079,0.041l-0.273,0.432c0.285,0.508,0.25,0.637,0.245,1.159
		c0.345,0.077,0.583,0.342,0.875,0.369l0.067,0.006l0.007,0.069c0,0.008,0,0.017,0.001,0.022c0.028,0,0.057,0,0.083,0h0.044
		l0.025,0.036c0.12,0.178,0.208,0.548,0.255,0.791l1.172-0.181l0.217,0.282l0.162,0.074c0.002,0.061,0.004,0.12,0.006,0.182
		l-0.271-0.125l-0.186-0.237l-1.07,0.166c0.078,0.44,0.193,1.353,0.064,1.729c0.418,0.444,1.01,0.932,0.41,1.521l-0.033,0.032
		l-0.042-0.009c-0.074-0.014-0.149-0.025-0.228-0.037l0.14,0.132l-0.007,0.042c-0.003,0.025-0.01,0.051-0.013,0.078
		c0.213,0.152,0.332,0.252,0.618,0.164l0.092-0.028l0.013,0.097c0.042,0.326,0.476,0.438,0.38,0.896
		c-0.052,0.245-0.092,0.524,0.051,0.745c0.089,0.136,0.239,0.264,0.351,0.383c0.086,0.094,0.139,0.206,0.207,0.309
		c1.017,8.551,3.385,15.771,6.523,20.266c-2.864-0.728-5.568-1.862-8.05-3.336c-5.516-6.242-9.043-15.719-9.043-26.314
		C10.892,30.289,11.748,25.351,13.27,20.933z M12.488,21.391l-0.236-0.006l0.221-0.143c0.02-0.013,0.054-0.023,0.076-0.035
		C12.528,21.269,12.509,21.329,12.488,21.391z M15.127,16.449c0.068,0.005,0.139,0.007,0.208,0.02l0.285,0.049l-0.363,0.144
		l0.521-0.029L15.71,16.76c-0.148,0.275-0.41,0.269-0.66,0.189l-0.005,0.01c-0.012,0.032-0.028,0.061-0.043,0.093l-0.029,0.063
		l-0.067-0.02c-0.026-0.007-0.052-0.001-0.078-0.005C14.927,16.876,15.023,16.66,15.127,16.449z M47.704,19.495
		c0.041-0.019,0.08-0.038,0.12-0.056c0.277,1.251,0.521,2.552,0.732,3.891c-0.508,0.44-1.248,0.691-1.877,0.919
		c0.01,0.488-0.253,0.87-0.212,1.337l0.003,0.037l-0.025,0.027c-0.188,0.202-0.397,0.4-0.534,0.644L45.88,26.35l-0.062-0.019
		c-0.057-0.014-0.11-0.029-0.166-0.046c-0.086,0.063-0.168,0.124-0.252,0.184l-0.039,0.028l-0.043-0.019
		c-0.076-0.035-0.152-0.069-0.229-0.104l-0.044-0.02l-0.004-0.049c-0.023-0.369-0.031-0.312-0.329-0.491l-0.043-0.026l0.004-0.048
		c0.027-0.652,0.312-1.16,0.552-1.74c-0.317-0.091-0.615-0.053-0.946-0.093c-0.482-0.058-0.488-0.438-1.089-0.466l-0.055-0.001
		l-0.169-0.484c-0.959-0.082-0.66-0.427-1.85-0.068l-0.27,0.082l0.183-0.214c0.272-0.313,0.409-0.684,0.563-1.061
		c-0.188-0.071-0.419,0.019-0.645-0.14l-0.063-0.043l0.04-0.065c0.519-0.869,1.479-1.749,2.475-2.015
		c0.002-0.008,0.004-0.017,0.008-0.023l0.011-0.042l0.438-0.159c-0.006-0.008-0.016-0.017-0.023-0.023l-0.142-0.144l0.201,0.004
		c0.403,0.008,0.503-0.003,0.879-0.089c0.01-0.021,0.019-0.041,0.025-0.063c-0.122-0.068-0.154-0.098-0.257-0.242l-0.112-0.164
		l0.194,0.036c0.515,0.097,0.603-0.035,1.037-0.247l0.039-0.019l0.036,0.021c0.021,0.015,0.086,0.055,0.111,0.06
		c0.1-0.006,0.206,0.042,0.299,0.086l1.199-0.633c0,0,0-0.002,0-0.003c-0.472-0.018-0.593,0.066-1.005-0.343l-0.032-0.033
		l0.012-0.046c0.009-0.031,0.015-0.063,0.023-0.092l0.018-0.073l0.074,0.011c0.75,0.119,0.754,0.31,0.93,0.312
		c0.062,0.237,0.123,0.477,0.182,0.719c-0.041,0.064-0.081,0.122-0.121,0.196l-0.02,0.034l-0.038,0.006
		c-0.282,0.049-0.304,0.036-0.414,0.129h0.512l-0.034,0.107c-0.015,0.042-0.027,0.083-0.041,0.126
		c0.086-0.04,0.178-0.086,0.266-0.132c0.054,0.223,0.107,0.444,0.158,0.67c-0.037,0.027-0.074,0.048-0.108,0.083
		C47.704,19.473,47.704,19.483,47.704,19.495z M48.893,21.782c0.07,0.044,0.144,0.087,0.213,0.131l0.039,0.022l0.002,0.042
		c0.015,0.253-0.033,0.466-0.104,0.663C48.991,22.354,48.943,22.066,48.893,21.782z M49.486,35.5c0,6.807-0.829,13.146-2.252,18.467
		c-0.047,0.012-0.09,0.033-0.143,0.041h-0.007H47.08c-0.075,0-0.413-0.088-0.506-0.105c-0.354-0.067-0.715-0.121-1.076-0.153
		c-0.137-0.013-0.271-0.019-0.408-0.021h-0.063l-0.016-0.063c-0.104-0.445-0.324-0.642-0.787-0.508l-0.104,0.028v-0.094
		l-0.006,0.001c-0.313,0.12-0.61,0.179-0.881,0.386c0.01,0.354,0.149,0.682,0.149,1.039v0.057l-0.052,0.021
		c-0.115,0.044-0.229,0.089-0.346,0.136l-0.148,0.057l0.041-0.154c0.01-0.031,0.017-0.068,0.024-0.101
		c-0.068-0.068-0.141-0.136-0.211-0.205l-0.034-0.033l0.014-0.047c0.121-0.417,0.339-0.67,0.229-1.075l-0.098,0.126l-0.166,0.132
		l-0.255,0.438l-0.126,0.449l-0.105,0.182l0.178-0.008l0.279,0.427l-0.021,0.36v0.332l0.05,0.18l0.194,0.186l0.28-0.041l0.2-0.011
		l0.368,0.011l0.509,0.321l0.12,0.233l0.12,0.051l0.144-0.029l0.262,0.006l0.389-0.132l0.301,0.252l-0.025,0.056
		c-0.021,0.049-0.084,0.209-0.126,0.259c-0.034,0.051-0.065,0.123-0.095,0.18l-0.036,0.272l0.004,0.558l0.192,0.324l0.131,0.299
		l-0.34,0.287l0.305,0.284c-0.047,0.117-0.092,0.24-0.139,0.355l-0.18,0.209l-0.285-0.027l-0.033-0.09l-0.078,0.065h-0.765v0.289
		h0.284l0.083,0.235l-0.052,0.343l-0.246-0.17L44.04,60.41h-0.177v0.428l0.305,0.248l0.05,0.262l0.07,0.291l-0.042,0.366
		c-0.07,0.138-0.142,0.272-0.212,0.405l0.087-0.762l-0.065-0.267l-0.037-0.209L43.7,60.916v-0.669h0.295l0.135-0.076l0.117,0.078
		l0.008-0.042l-0.033-0.09h-0.33v-0.614h0.866l0.211-0.183l0.081,0.218l0.099,0.01l0.252-0.296l-0.418-0.391l0.39-0.327
		l-0.078-0.177l-0.21-0.354l-0.005-0.614l0.041-0.312l0.007-0.013c0.014-0.026,0.074-0.166,0.116-0.217
		c0.028-0.047,0.057-0.111,0.083-0.17l-0.137-0.113l-0.33,0.115l-0.271-0.008l-0.177,0.036l-0.221-0.093l-0.129-0.247l-0.432-0.273
		l-0.318-0.009l-0.185,0.009l-0.354,0.056l-0.282-0.274l-0.066-0.245v-0.359l0.017-0.31l-0.198-0.304l-0.381,0.013l0.241-0.417
		l0.125-0.452l0.281-0.483l0.177-0.137l0.148-0.19l-0.037-0.079l0.081-0.032c0.146-0.057,0.296-0.114,0.445-0.173
		c0.008-0.172-0.001-0.218-0.049-0.361c-0.434,0.225-0.722,0.577-1.099,0.885l-0.027,0.022l-0.033-0.004
		c-0.152-0.021-0.305-0.039-0.455-0.058c-0.012,0.205-0.064,0.197-0.226,0.387l-0.14,0.165l-0.004-0.216
		c-0.003-0.055-0.003-0.11-0.005-0.164c-0.164,0.047-0.297,0.111-0.454,0.188c-0.077,0.371-0.076,0.479,0.002,0.869l0.022,0.123
		l-0.124-0.027c-0.063-0.016-0.128-0.031-0.191-0.048c-0.207,0.351-0.223,0.324-0.538,0.55c0.079,0.164,0.051,0.217,0.045,0.422
		l-0.007,0.259l-0.138-0.209c0.221-2.109,0.401-4.362,0.546-6.701c0.111-0.003,0.234-0.015,0.38-0.037
		c-0.042-0.097-0.086-0.194-0.129-0.291c-0.072-0.024-0.15-0.056-0.228-0.082c0.02-0.319,0.036-0.639,0.055-0.961
		c0.615,0.001,1.445,0.022,1.671-0.257c-0.064-0.016-0.13-0.031-0.19-0.046c-0.038-0.095-0.075-0.188-0.116-0.283l-0.597-0.067
		c-0.014-0.103-0.03-0.203-0.044-0.306c-0.233-0.021-0.451-0.129-0.659-0.271c0.055-1.16,0.101-2.336,0.139-3.521
		c0.067,0.015,0.136,0.026,0.202,0.04c0.139,0.324,0.12,0.227,0.022,0.568c0.022,0.007,0.047,0.013,0.069,0.02
		c0.116-0.398,0.122-0.271-0.038-0.652l-0.255-0.05c0.045-1.438,0.077-2.886,0.096-4.334c0.633-0.348,1.175-0.778,1.886-0.979
		c-0.012-0.012-0.028-0.023-0.04-0.035l-0.058-0.045l0.037-0.063c0.04-0.064,0.082-0.132,0.123-0.199l0.022-0.033l0.037-0.004
		c0.085-0.01,0.17-0.019,0.252-0.025c0.051-0.082,0.102-0.162,0.149-0.243l-0.619-0.183l0.367-0.053
		c0.321-0.051,0.264-0.02,0.451-0.201l-0.219-0.246l0.033-0.053c0.173-0.268,0.173-0.293,0.24-0.571l-0.749-0.702l0.392,0.153
		c0.114,0.043,0.229,0.088,0.344,0.132c-0.051-0.43,0.136-0.567,0.496-0.856l0.235-0.187l-0.107,0.28
		c-0.161,0.419-0.208,0.636-0.138,1.017c0.172-0.281,0.229-0.549,0.27-0.901l0.021-0.167l0.317,0.319l0.714-0.78l-0.343-0.303h0.215
		c0.279,0,0.542-0.048,0.802-0.118l-0.657,0.012l0.309-0.16c0.433-0.224,0.943-0.139,1.324-0.394l0.037-0.024l0.037,0.017
		c0.383,0.145,0.348,0.123,0.629,0.059c-0.185-0.156-0.136-0.173-0.217-0.517l-0.009-0.04l0.222-0.255
		c0.479-0.809,0.885-0.567,1.407-1.187l0.051-0.058l0.06,0.043c0.058,0.04,0.123,0.062,0.193,0.073
		C49.438,32.322,49.486,33.897,49.486,35.5z M20.494,41.17l-0.021-0.036l0.019-0.036c0.037-0.087,0.063-0.123,0.119-0.168
		c-0.003-0.005-0.007-0.01-0.009-0.016c-0.046,0-0.092-0.001-0.138-0.001l-0.042-0.002l-0.022-0.033
		c-0.369-0.526-0.293-1.021-0.104-1.598l0.019-0.06l0.063,0.004c0.318,0.016,0.47,0.056,0.628,0.168
		c0.063,1.334,0.159,2.643,0.285,3.926c-0.032-0.161-0.068-0.323-0.104-0.485c-0.013,0.022-0.025,0.046-0.039,0.067l-0.112,0.211
		l-0.038-0.235c-0.055-0.317-0.083-0.538-0.311-0.783l-0.025-0.028l0.004-0.039C20.729,41.586,20.703,41.552,20.494,41.17z
		 M21.297,27.576l0.005-0.016c-0.001,0.005-0.001,0.011-0.001,0.017L21.297,27.576z M24.923,15.023l-0.034,0.008l-0.028-0.021
		c-0.117-0.081-0.287-0.123-0.466-0.15c1.186-3.761,2.686-6.907,4.404-9.198c1.324-0.297,2.68-0.508,4.063-0.627
		c-0.703,2.48-1.275,5.924-1.71,9.922c-0.52,0.05-1.178,0.158-1.43,0.384l-0.032,0.027l-0.039-0.007
		c-0.206-0.041-0.248-0.022-0.398-0.153c-0.295,0.067-0.578,0.192-0.879,0.249l-0.214,0.4l-0.079-0.082
		c-0.251-0.264-1.294-0.53-1.713-0.622l-2.69,2.212c0.023-0.09,0.047-0.179,0.072-0.269l2.411-1.983
		C25.783,15.042,25.226,14.958,24.923,15.023z M35.027,13.91l0.057,0.011l0.042,0.345c1.328-0.272,2.593-0.743,3.887-1.127
		c0.012,0.097,0.024,0.193,0.036,0.291c-0.353,0.083-0.704,0.174-1.051,0.281c0.005,0.022,0.007,0.045,0.011,0.066l0.013,0.074
		l-0.072,0.019c-0.144,0.04-0.286,0.079-0.434,0.119c0.38,0.063,0.764,0.071,1.149,0.088l0.072,0.002l0.012,0.144l-0.069,0.013
		c-0.49,0.104-0.979,0.113-1.474,0.125c-0.019,0.039-0.034,0.079-0.052,0.118c0.665,0.122,1.355,0.004,2.029,0.077
		c0.015,0.126,0.028,0.257,0.042,0.385l-2.419,0.11c0.041,0.066,0.083,0.134,0.124,0.201c0.302,0.049,0.603,0.098,0.903,0.147
		l0.085,0.013l-0.02,0.086c-0.018,0.071-0.033,0.144-0.051,0.215c0.458-0.047,0.958-0.058,1.449-0.103
		c0.036,0.341,0.071,0.689,0.104,1.042c-0.094,0.147-0.187,0.306-0.347,0.484l-0.079,0.084l-0.054-0.1
		c-0.07-0.125-0.14-0.25-0.208-0.375l-0.041-0.076l0.079-0.037c0.093-0.045,0.174-0.074,0.249-0.126
		c-0.01-0.005-0.021-0.008-0.032-0.012l-0.079-0.028l0.03-0.077c0.005-0.016,0.011-0.032,0.018-0.046
		c-0.129-0.001-0.16-0.001-0.287-0.129c-0.633,0.071-1.875,0.452-2.385,0.026l-0.088-0.077l0.1-0.058
		c0.41-0.232,0.43-0.209,0.864-0.226c0.023-0.029,0.024-0.038,0.023-0.074c-0.217-0.152-0.157-0.145-0.433-0.212
		c-0.447,0.262-0.717-0.021-1.132-0.147c-0.273-0.083-0.936-0.31-1.228-0.225c-0.107,0.032-0.206,0.074-0.316,0.104
		c-0.22,0.057-0.46,0.078-0.688,0.087l-0.293,0.011l0.725-0.479c-0.322,0.091-0.637,0.291-0.945,0.417l-0.064,0.026l-0.037-0.061
		c-0.142-0.244-0.086-0.258-0.024-0.49c-0.031-0.046-0.062-0.092-0.093-0.135c-0.047,0.005-0.093,0.011-0.139,0.018
		c-0.015,0.043-0.025,0.088-0.039,0.132l-0.01,0.036l-0.638,0.289l-0.039-0.038c-0.008-0.007-0.013-0.013-0.021-0.02
		c0.478-4.333,1.089-7.786,1.754-10.131c0.66-0.043,1.323-0.072,1.993-0.072s1.332,0.029,1.993,0.072
		c0.535,1.892,1.038,4.503,1.462,7.715c-0.755-0.1-1.688-0.068-2.183-0.027c-0.022,0.077-0.049,0.154-0.073,0.231l-0.014,0.039
		l-0.038,0.012c-0.646,0.236-1.229,0.618-1.859,0.902C34.867,13.874,34.948,13.893,35.027,13.91z M41.289,28.448l0.387,0.12
		l-0.167,0.626l-0.103,0.152l0.199,0.233l0.058-0.136l0.618,0.212l0.567,0.019l0.438,0.175l0.097,0.424l0.099,0.379l-0.381,0.284
		l-0.43-0.216l-0.033-0.292l-0.077,0.023l-0.063,0.396l-0.367,0.417l-0.272,0.438l-0.415,0.072l-0.314,0.544l0.021-0.002l0.52-0.158
		l0.375-0.238l0.646,0.01l0.364-0.214l0.159,0.087l0.085-0.12L42.95,31.71l0.17-0.429l0.436-0.119l0.567-0.107l0.271,0.019
		l0.46-0.186l0.269,0.073l0.792-0.617h1.941l0.793-0.554l0.496-0.571l0.095-0.095c0.006,0.072,0.011,0.144,0.017,0.216l-0.497,0.574
		l-0.854,0.596h-1.934l-0.807,0.625l-0.126,0.371l-0.688,0.157l-0.639-0.011l-0.2,0.015l-0.153,0.214l0.205,0.112l-0.572,0.306
		l-0.952,0.266l-0.532,0.426l-0.375-0.061l-0.297-0.02c-0.001-0.188-0.003-0.376-0.006-0.564l0.102-0.01l0.429-0.74l0.064-0.384
		l-0.04-0.021l-0.245,0.246l-0.326-0.055c0-0.038-0.001-0.077-0.001-0.115l0.207-0.258l0.199-0.237l0.244-0.339l-0.069-0.114
		l-0.275-0.228l-0.219,0.083l-0.108,0.071c-0.004-0.19-0.01-0.381-0.014-0.57l0.208,0.104l0.234-0.019l0.279,0.042l0.041-0.057
		l-0.25-0.288l-0.104,0.047l-0.296-0.059l-0.12,0.026c-0.015-0.546-0.031-1.091-0.049-1.633l0.433,0.094v0.238L41.289,28.448z
		 M49.203,28.666c0.011,0.129,0.018,0.261,0.027,0.391c-0.269,0.143-0.539,0.265-0.814,0.322l-0.559,0.113l0.504-0.266
		c0.158-0.085,0.392-0.191,0.535-0.298C49,28.852,49.104,28.756,49.203,28.666z M39.333,60.148l0.132,0.196l0.204,0.099l0.268,0.019
		l0.293-0.021l0.186,0.14l0.178,0.202l0.203-0.078l0.405,0.208l0.283,0.385l0.259,0.237l0.129,0.324l0.14,0.01l0.109,0.324
		l0.123,0.154l0.337-0.048l0.147-0.108l0.334-0.012l0.293,0.079l0.274,0.021l0.337,0.259c-0.165,0.307-0.333,0.604-0.505,0.894
		h-0.013l0.01,0.004c-0.078,0.135-0.158,0.268-0.238,0.397l-0.502,0.032c-0.053,0.049-0.191,0.18-0.252,0.229
		c-0.043,0.04-0.101,0.109-0.144,0.161l-0.075,0.36l-0.156,0.277l0.189,0.314l-0.258,0.17c-0.109,0.023-0.219,0.053-0.331,0.076
		l0.009-0.063l0.358-0.234l-0.157-0.262l0.19-0.338l0.077-0.377l0.016-0.018c0.005-0.008,0.102-0.137,0.181-0.198
		c0.087-0.069,0.18-0.162,0.261-0.241l0.021-0.019l0.525-0.033l0.208-0.271l0.039,0.016l0.366-0.813l-0.219-0.166l-0.242-0.02
		l-0.283-0.074l-0.26,0.008l-0.142,0.104l-0.47,0.066l-0.2-0.25l-0.083-0.25l-0.132-0.01l-0.154-0.385l-0.244-0.225L41.09,61.04
		l-0.305-0.155l-0.11,0.042l0.106,0.284l0.095,0.292l-0.258,0.226l-0.297,0.619l-0.329,0.133l-0.725,0.437l-0.17,0.319l-0.183-0.026
		l-0.158,0.722l-0.135,0.348l-0.056-0.021c0.09-0.393,0.176-0.803,0.259-1.227l0.183,0.026l0.138-0.259l0.771-0.466L40.2,62.22
		l0.281-0.591l0.203-0.18l-0.06-0.186l-0.129-0.341l-0.195-0.222l-0.123-0.094l-0.243,0.02l-0.309-0.021l-0.274-0.131l-0.063-0.099
		c0.012-0.076,0.022-0.155,0.035-0.231L39.333,60.148z M38.244,65.585c0.089,0.117,0.167,0.235,0.234,0.353
		c-0.112,0.012-0.229,0.018-0.342,0.026C38.173,65.839,38.208,65.716,38.244,65.585z M40.085,44.083
		C40.084,44.083,40.084,44.084,40.085,44.083l-0.001,0.003c-0.021,0.551-0.044,1.096-0.068,1.632
		c-0.033-0.028-0.066-0.06-0.101-0.088c0.031,0.06,0.063,0.119,0.097,0.179c-0.002,0.039-0.004,0.077-0.006,0.115
		c-0.5-0.341-1.708-0.884-2.206-0.814c-0.844,0.115-1.011,0.578-1.726,0.898c0.453,0.166,0.945-0.229,1.326-0.479
		c0.37-0.031,0.341-0.08,0.644,0.048c-0.102,0.032-0.199,0.065-0.301,0.1c0.094,0.07,1.616,0.55,1.967,0.55
		c0.076,0.325,0.066,0.291,0.254,0.53c-0.026,0.519-0.055,1.028-0.085,1.53c-0.107,0.021-0.206,0.068-0.284,0.178
		c0.096,0.075,0.18,0.129,0.263,0.176c-0.137,2.213-0.305,4.287-0.5,6.202c-0.283-0.262-0.589-0.433-0.991-0.491
		c-0.451,0.377-1.146,0.775-1.699,0.379l-0.035-0.024v-0.041c0-0.063-0.1-0.185-0.166-0.258l-0.035,0.018l-0.023,0.103l0.133,0.205
		l-0.113,0.127l-0.009,0.205l-0.131,0.098h0.001c0.715-0.014,0.939,0.563,1.479,0.697c0.048-0.051,0.1-0.104,0.146-0.157
		c-0.048-0.127-0.099-0.253-0.147-0.382l-0.02-0.047l0.036-0.039c0.21-0.219,0.419-0.439,0.629-0.658l0.045-0.047l0.057,0.033
		c0.303,0.189,0.396,0.258,0.645,0.52l0.052,0.057l-0.049,0.057c-0.052,0.053-0.103,0.105-0.151,0.16
		c0.06,0.146,0.111,0.293,0.2,0.42l0.033-0.039l0.026-0.029c-0.135,1.232-0.277,2.396-0.433,3.482
		c-0.037,0.016-0.076,0.031-0.113,0.047c0.004,0.096,0.008,0.188,0.013,0.281l0.002,0.071l-0.131,0.022l0.151,0.125
		c-0.01,0.062-0.018,0.125-0.027,0.188l-0.18-0.148c0.019,0.047,0.037,0.097,0.056,0.144l0.038,0.095l-0.1,0.018
		c-0.166,0.027-0.332,0.056-0.497,0.082c-0.108,0.521-0.022,0.484-0.382,0.847c0.042,0.074,0.084,0.147,0.125,0.224l0.047,0.088
		l-0.096,0.03c-0.08,0.023-0.163,0.048-0.24,0.071c0.023,0.302,0.053,0.604,0.081,0.904c0.209,0.136,0.177,0.166,0.456,0.166h0.083
		v0.08c0,0.067,0,0.135,0,0.199v0.035l-0.024,0.024c-0.077,0.071-0.151,0.145-0.222,0.22c0.027,0.072,0.052,0.15,0.069,0.225
		l0.015,0.045l-0.246,0.236l0.021,0.207l0.229-0.113l0.112,0.023c-0.013,0.055-0.022,0.107-0.033,0.16l-0.059-0.012l-0.387,0.192
		l-0.056-0.522l0.234-0.223c-0.009-0.027-0.017-0.057-0.025-0.084c-0.001,0.004-0.005,0.008-0.007,0.012
		c-0.116,0.137-0.417,0.377-0.475,0.525c-0.109,0.281,0.153,0.649,0.275,0.896l0.019,0.035l-0.016,0.033
		c-0.027,0.063-0.055,0.125-0.083,0.188c0.106,0.083,0.19,0.162,0.282,0.242c-0.084,0.334-0.168,0.647-0.252,0.947
		c-0.661,0.043-1.323,0.071-1.993,0.071s-1.333-0.028-1.993-0.071c-0.898-3.166-1.699-8.352-2.201-14.99
		c0.083,0.102,0.168,0.205,0.254,0.306c0.256-0.017,0.508,0.063,0.746,0.157l0.26-0.365l0.278-0.249l-0.012-0.276l0.658-0.423
		c-0.009-0.007-0.018-0.012-0.026-0.018c-0.003,0.004-0.006,0.009-0.011,0.011l-0.061,0.061l-0.161-0.174l-0.355,0.107l0.28-1.371
		l-0.939-0.007l-0.116,0.335l-0.161,0.104l0.5,0.688l-0.914,0.022l-0.26,0.487l0.046,0.235l-0.029,0.07
		c-0.015-0.199-0.028-0.401-0.042-0.604l0.188-0.352l0.697-0.018l-0.419-0.579l0.259-0.165l0.134-0.394l1.106,0.009l0.257-0.114
		l0.215-0.364l0.328,0.135c0.085-0.219,0.169-0.438,0.264-0.655c-0.034-0.012-0.071-0.024-0.106-0.038l-0.123-0.043l0.092-0.092
		c0.274-0.271,0.604-0.736,0.569-1.154c-0.699-0.021-1.275,0.072-1.917,0.358c-0.089,1.146-0.787,1.524-1.659,1.715
		c-0.135-2.248-0.238-4.634-0.3-7.147c0.144-0.072,0.282-0.154,0.419-0.248c0.635-0.475,0.984-0.256,1.641-0.207l-0.019-0.049
		l0.053-0.037c0.051-0.037,0.101-0.069,0.153-0.106l0.069-0.05l0.046,0.072c0.079,0.121,0.159,0.243,0.239,0.364
		c0.227,0.019,0.344,0.035,0.558,0.106c0.041-0.038,0.079-0.078,0.118-0.117l0.035-0.033l0.046,0.012
		c0.063,0.02,0.126,0.039,0.188,0.059c-0.066-0.109-0.048-0.15-0.028-0.344c-0.118,0.016-0.237,0.031-0.354,0.047l-0.24,0.031
		l0.171-0.17c0.106-0.106,0.214-0.215,0.321-0.322l0.023-0.022h0.036c0.774,0,1.545,0.006,2.318,0.078l0.053,0.004l0.019,0.05
		c0.037,0.109,0.074,0.219,0.112,0.328c0.289-0.074,0.371-0.12,0.657-0.279l0.053-0.027l0.042,0.037
		c0.337,0.295,0.463,0.367,0.719,0.75l0.022,0.033l-0.01,0.033c-0.11,0.409-0.181,0.307,0.007,0.66l0.024,0.046l-0.029,0.039
		c-0.382,0.542,0.19,1.245,0.485,1.715c0.067,0.003,0.137,0.007,0.205,0.009c0.314-0.433,0.317-0.726,0.294-1.261
		c-0.023-0.545-0.055-1.097-0.114-1.638c-0.011-0.096-0.053-0.33-0.034-0.419c0.016-0.074,0.08-0.199,0.107-0.274
		c0.119-0.314,0.206-0.66,0.288-0.986l0.01-0.037l0.033-0.014c0.231-0.121,0.444-0.275,0.659-0.428
		C40.196,40.51,40.149,42.332,40.085,44.083z M30.917,17.32l-0.209,0.052l0.229-0.283C30.931,17.166,30.923,17.243,30.917,17.32z
		 M30.784,17.814l0.094-0.042c-0.002,0.018-0.003,0.035-0.004,0.052L30.784,17.814z M31.513,17.488l0.037-0.016l0.419-0.167
		l0.006-0.001c0.083-0.018,0.191-0.037,0.292-0.059c-0.046-0.028-0.087-0.058-0.12-0.08c-0.185,0.084-0.296,0.147-0.372,0.131
		c-0.033-0.006-0.132-0.025-0.238-0.043c0.009-0.104,0.02-0.204,0.028-0.307c0.074-0.005,0.143-0.008,0.192-0.008
		c0.281-0.002,0.678-0.07,0.971-0.104l0.536-0.155l0.522-0.023l0.572,0.119l-0.788,0.273l0.215,0.06l0.426-0.142l0.312,0.156
		l-0.643,0.364l-0.41,0.087l-0.028-0.021c-0.039-0.028-0.167-0.104-0.213-0.104c-0.047,0-0.191,0.053-0.286,0.089l0.054,0.159
		l-0.907,0.348l-0.128-0.273l0.542-0.165l-0.017-0.023c-0.152,0.023-0.338,0.071-0.487,0.104l-0.334,0.236L31.479,17.9
		C31.49,17.763,31.501,17.623,31.513,17.488z M36.411,26.061l-0.093,0.158l-0.057-0.173c-0.048-0.147-0.094-0.326-0.11-0.479
		c-0.01-0.112-0.085-0.345-0.024-0.437c0.122-0.181,0.474-0.504,0.479-0.512l0.021-0.02l0.365-0.037l0.026,0.041
		c0.06,0.085,0.148,0.247,0.14,0.351c-0.028,0.293-0.051,0.23-0.106,0.543c-0.041,0.229-0.13,0.493-0.144,0.721
		c-0.011,0.173-0.259,0.474-0.401,0.563c-0.116,0.073-0.356,0.246-0.356-0.061c0-0.236,0.268-0.391,0.362-0.548
		c-0.007-0.079,0.014-0.168,0.005-0.271C36.477,25.953,36.43,26.03,36.411,26.061z M35.034,19.607l-0.87,0.316
		c-0.124,0.047-0.648,0.255-0.737,0.255c-0.265,0.035-1.035,0.307-1.219,0.307c-0.125,0-0.609-0.153-0.764-0.195l-0.098-0.028
		l0.133-0.244l0.532,0.051l0.25-0.172l0.299-0.249l0.428,0.01v-0.177l-0.092-0.071l-0.079-0.461l0.423,0.332l0.323,0.087l0.291,0.19
		c0.202-0.037,0.499-0.078,0.671-0.134c0.126-0.05,0.662-0.236,0.77-0.236c0.231,0,0.663,0.019,0.663,0.019l0.579,0.019
		L35.034,19.607z M36.504,27.744l0.241-0.273l0.257,0.217l-0.145,0.314l0.328,0.128l0.436-0.204l0.269,0.292
		c0.04,0.028,0.154,0.104,0.28,0.147c0.139-0.026,0.391-0.063,0.505-0.002c0.091,0.046,0.339,0.038,0.442,0.042
		c0.007,0,0.011,0.001,0.017,0.001l0.452-0.263l0.391-0.134l0.145-0.1c0.018,0.558,0.034,1.123,0.05,1.693l-0.126,0.028
		l-0.357-0.237l-0.379-0.188l0.145-0.119l-0.164,0.063l-0.655,0.274l-0.68,0.058l0.047-0.208l-0.494,0.222l-0.04-0.034
		c-0.063-0.06-0.183-0.207-0.043-0.262c0.114-0.045,0.6-0.289,0.669-0.351c0.065-0.08,0.453-0.153,0.589-0.178l0.187-0.109
		c-0.099-0.004-0.195-0.016-0.267-0.053c-0.07-0.038-0.336,0.004-0.416,0.02c-0.068,0.014-0.319-0.14-0.393-0.182l-0.011-0.006
		l-0.197-0.215l-0.392,0.183L36.64,28.09l0.163-0.358L36.761,27.7l-0.183,0.208H30.88c0.002-0.055,0.005-0.109,0.006-0.164H36.504z
		 M39.061,30.786l-0.55,0.042l1.386-0.998l0.279-0.028c0.006,0.252,0.01,0.507,0.016,0.763l-0.152,0.054l-0.269,0.398L39.496,31.3
		l-0.057,0.356l-0.236,0.618L38.91,32.62l-0.629,0.17l-0.121-0.378l0.194-0.311l0.154-0.551l0.317-0.41l0.396-0.461L39.061,30.786z
		 M39.967,16.104c-0.003-0.044-0.008-0.089-0.013-0.133L40.149,16L39.967,16.104z M22.192,27.419l0.113-0.003l-0.033,0.109
		c-0.021,0.066-0.042,0.132-0.063,0.198l0.015,0.021h8.062c-0.002,0.054-0.003,0.109-0.007,0.164H22.33l0.01,0.011l-0.024,0.045
		c-0.167,0.311-0.293,0.656-0.532,0.895c0.042-0.516,0.091-1.028,0.143-1.536C21.981,27.433,22.08,27.423,22.192,27.419z
		 M22.51,39.555h1.531l0.16-0.256h1.063l0.335,0.52l0.202,0.207l0.065,0.291l-0.025,0.271l0.346,0.277l0.27,0.194l0.147-0.129
		l0.284-0.341h0.397l0.351,0.021l0.329,0.359l0.135,0.484l0.256,0.413v0.407l0.249,0.574l0.66,0.364l-0.029-0.646l0.043-0.024
		c0.299-0.16,0.222-0.121,0.339-0.406c-0.031-0.051-0.061-0.102-0.092-0.153l-0.08-0.133l0.157,0.012
		c0.062,0.005,0.124,0.01,0.188,0.014c0.162-0.157,0.274-0.323,0.438-0.477c0.063,2.401,0.162,4.777,0.299,7.076
		c-0.138,0.021-0.276,0.039-0.417,0.06l-0.037,0.005l-0.028-0.023c-0.372-0.326-0.199-0.303-0.681-0.303h-0.049l-0.023-0.043
		c-0.071-0.127-0.143-0.255-0.214-0.382l-0.003-0.006l-0.002-0.009c-0.786-2.237-0.607-1.739-0.142-4.025l0.008-0.036l0.032-0.021
		c0.104-0.056,0.206-0.113,0.308-0.172l-0.006-0.127l-0.031-0.008l-0.764-0.42l-0.286-0.656v-0.396l-0.241-0.395l-0.134-0.467
		l-0.258-0.283l-0.278-0.018h-0.315l-0.244,0.292l-0.255,0.219l-0.375-0.27l-0.419-0.335l0.032-0.334l-0.052-0.221l-0.181-0.186
		l-0.298-0.458h-0.882l-0.164,0.253h-1.655l-0.871-0.4c-0.003-0.062-0.007-0.123-0.011-0.185L22.51,39.555z M21.291,44.299
		c0.037-0.121,0.054-0.242,0.06-0.361c0.02,0.177,0.039,0.352,0.06,0.525c-0.032-0.025-0.063-0.053-0.095-0.076l-0.042-0.035
		L21.291,44.299z M21.746,41.646c0.065,0.063,0.141,0.119,0.239,0.151l0.069,0.022l-0.012,0.066
		c-0.042,0.266-0.026,0.422,0.229,0.549l0.033,0.018l0.009,0.035c0.015,0.056,0.029,0.109,0.044,0.162
		c0.047,0.021,0.095,0.047,0.143,0.067l0.041,0.021l0.005,0.046c0.026,0.254-0.042,0.301-0.155,0.486
		c0.207,0.223,0.388,0.359,0.635,0.551l0.034,0.023l-0.002,0.041c-0.001,0.059-0.002,0.117-0.006,0.176
		c0.489,0.426,0.662,0.972,1.065,1.451l0.024,0.03l-0.008,0.038c-0.077,0.378,0.092,0.381,0.169,0.723l0.007,0.036l-0.02,0.028
		c-0.143,0.197-0.175,0.4-0.319,0.607c0.124,0.61,0.977,1.674,1.646,1.514l0.051-0.012l0.03,0.039
		c0.491,0.586,1.091,0.641,1.734,0.963c0.899,0.449,1.406,0.851,2.291,0.104l0.047-0.04l0.052,0.034
		c0.334,0.228,0.585,0.442,0.821,0.685c0.446,6.426,1.191,12.086,2.216,15.697c-1.383-0.119-2.738-0.33-4.063-0.628
		C25.169,60.501,22.517,51.863,21.746,41.646z M43.945,63.688c0.045-0.073,0.09-0.147,0.133-0.224l-0.02,0.168L43.945,63.688z
		 M45.738,13.096l0.039,0.028l-0.006,0.05c-0.01,0.066-0.021,0.132-0.031,0.2l-0.006,0.042l-0.041,0.019
		c-0.211,0.105-0.242,0.079-0.467,0.069l-0.045-0.002l-0.021-0.038c-0.019-0.028-0.035-0.056-0.054-0.084
		c-0.107,0.046-0.215,0.093-0.322,0.139c0.229,0.267,0.443,0.265,0.64,0.639c0.218-0.009,0.212-0.023,0.437-0.132l0.018-0.008h0.018
		c0.153-0.002,0.283-0.04,0.412-0.079c0.049,0.146,0.096,0.298,0.144,0.445c-0.095,0.053-0.177,0.138-0.255,0.221
		c0.001,0.024,0.004,0.05,0.006,0.073l0.006,0.066l-0.063,0.02c-0.08,0.026-0.158,0.05-0.235,0.076
		c-0.009,0.047-0.015,0.094-0.021,0.14c0.153,0.142,0.094,0.119,0.34,0.117l0.037-0.002l0.023,0.027
		c0.043,0.046,0.084,0.09,0.129,0.134l0.063,0.068l-0.075,0.054c-0.034,0.026-0.063,0.046-0.093,0.065l0.093-0.039l-0.009,0.132
		c-0.002,0.04-0.004,0.078-0.006,0.115l-0.004,0.038l-0.029,0.022c-0.481,0.378-0.897,0.34-1.408,0.616
		c-0.061,0.233-0.035,0.221-0.271,0.361l-0.043,0.026l-0.043-0.028c-0.08-0.05-0.164-0.1-0.245-0.153l-0.093-0.058l0.488-0.432
		c-0.059-0.006-0.111-0.014-0.167-0.02l-0.06-0.007l-0.011-0.058c-0.007-0.027-0.011-0.054-0.017-0.082l-0.004-0.009l-0.048,0.003
		c-0.29,0.015-0.419,0.104-0.668,0.2c-0.016,0.05-0.032,0.101-0.047,0.149l-0.014,0.043l-0.042,0.012
		c-0.516,0.146-2.296,0.034-2.707-0.312l-0.025-0.022l-0.003-0.033c-0.006-0.08-0.003-0.153,0.007-0.227
		c-0.311,0.04-0.674,0.085-0.996,0.183c-0.012-0.115-0.022-0.229-0.034-0.343c0.374-0.07,0.735-0.167,1.05-0.361l0.068-0.042
		l0.043,0.067c0.322,0.498,1.188,0.372,1.704,0.287c0.005-0.019,0.009-0.038,0.012-0.055c-0.146,0.008-0.29,0.017-0.436,0.023
		l-0.271,0.016l0.217-0.163c0.469-0.35,0.915-0.13,1.345-0.368c-0.138-0.074-0.231-0.144-0.378-0.239
		c-0.084-0.055-0.214-0.073-0.312-0.087l-0.053-0.009l-0.015-0.052c-0.024-0.095-0.05-0.188-0.075-0.283l-0.019-0.062l0.058-0.031
		c0.331-0.178,0.452-0.536,0.698-0.8l0.014-0.016l0.021-0.006c0.21-0.072,0.419-0.144,0.63-0.215
		c0.003-0.019,0.005-0.035,0.006-0.054c-0.422-0.074-0.348-0.086-0.762,0.042c0.006,0.039,0.016,0.08,0.021,0.119l0.025,0.129
		l-0.455-0.125c-0.336,0.231-0.61,0.475-0.851,0.808l-0.027,0.038l-0.044-0.003c-0.11-0.007-0.223-0.016-0.33-0.023l-0.125-0.008
		l0.063-0.113c0.167-0.304,0.203-0.225,0.154-0.511c-0.085-0.007-0.168-0.015-0.252-0.021c0.007,0.02,0.017,0.04,0.022,0.062
		l0.027,0.073l-0.072,0.029c-0.328,0.138-0.706,0.143-1.053,0.219l-0.383,0.086l0.316-0.23c0.097-0.071,0.191-0.141,0.288-0.211
		c-0.354,0.001-0.665,0.174-1.04,0.183h-0.048c-0.006-0.046-0.011-0.093-0.017-0.139l0.017-0.011
		c0.167-0.108,0.293-0.138,0.371-0.257c-0.136,0.028-0.271,0.061-0.409,0.09c-0.013-0.111-0.026-0.221-0.04-0.332
		c0.058-0.015,0.113-0.035,0.172-0.049c-0.056-0.027-0.124-0.048-0.188-0.071c-0.052-0.406-0.104-0.804-0.16-1.195
		c0.061-0.007,0.12-0.017,0.199-0.047l0.111-0.042v0.143c0.204-0.021,0.398-0.113,0.591-0.177l0.121-0.041l-0.01,0.104
		c0.295-0.09,0.421-0.106,0.718-0.322l0.087-0.062c-0.623,0.065-1.237,0.169-1.828,0.372c-0.362-2.565-0.793-4.792-1.29-6.541
		c1.382,0.119,2.738,0.33,4.063,0.627c1.435,1.912,2.717,4.422,3.791,7.385c-0.092,0.014-0.176,0.02-0.271,0.035
		C45.727,13.086,45.73,13.091,45.738,13.096z M27.983,5.852c-1.623,2.323-3.042,5.375-4.174,8.963c-0.02,0-0.043-0.002-0.063-0.002
		l-0.063-0.003l-0.012-0.062c-0.003-0.014-0.007-0.028-0.009-0.043c-0.464-0.05-0.953,0.093-1.396-0.098l-0.114-0.049l0.089-0.085
		c0.009-0.008,0.018-0.016,0.025-0.023l-0.761,0.014l0.045-0.1l-0.688,0.124l0.264-0.204c0.021-0.018,0.044-0.036,0.068-0.053
		c-0.009-0.012-0.02-0.022-0.028-0.033c-0.123,0-0.43,0.058-0.532,0.075c-0.359,0.057-0.717,0.12-1.075,0.183
		c-0.532,0.093-1.096,0.214-1.629,0.284c-0.498,0.064-0.856,0.216-1.31,0.408c-0.352,0.151-0.654,0.244-0.976,0.293
		c1.234-2.326,2.675-4.43,4.288-6.255C22.416,7.713,25.12,6.579,27.983,5.852z M53.782,11.261l-0.155,0.023
		c-0.029,0.005-0.088,0.008-0.134,0.012c-0.163-0.228-0.329-0.451-0.496-0.672l0.088-0.042l0.08,0.055
		c0.009-0.02,0.022-0.039,0.033-0.059c0.185,0.132,0.372,0.26,0.556,0.396l-0.161-0.001l-0.034,0.047L53.782,11.261z M52.684,10.212
		c0.037,0.025,0.072,0.053,0.108,0.078c-0.015,0.004-0.028,0.005-0.043,0.008C52.727,10.27,52.705,10.241,52.684,10.212z
		 M18.313,10.215c-1.245,1.594-2.37,3.36-3.359,5.269c-0.019,0-0.032,0.001-0.051,0c-0.136,0.139-0.278,0.241-0.46,0.309
		c0.115,0.088,0.185,0.162,0.23,0.233c-0.184,0.369-0.36,0.745-0.533,1.123c-0.177,0.03-0.36,0.044-0.563-0.041l-0.14-0.057
		l0.303-0.208c-0.424-0.058-0.354,0.014-0.831,0.14l0.028,0.072l-0.077,0.03c-0.446,0.185-0.977,0.178-1.456,0.26l0.433,0.146
		l-0.136,0.092c-0.112,0.075-0.15,0.081-0.247,0.075l-0.052,0.219l-0.025,0.009c0.403-0.027,1.111-0.167,1.355,0.085
		c0.312-0.13,0.838-0.355,1.128-0.204h0.001c-0.026,0.063-0.052,0.128-0.078,0.19c-0.085,0.051-0.179,0.1-0.27,0.102
		c-0.046,0.001-0.08,0.01-0.117,0.027c0.018,0.5-1.775,0.874-2.109,0.831l-0.038-0.006l-0.02-0.029
		c-0.014-0.021-0.026-0.04-0.041-0.06c-0.457,0.027-0.703,0.089-0.944,0.513l-0.089,0.154l-0.06-0.166
		c-0.006-0.021-0.015-0.04-0.021-0.06c-0.247,0.089-0.539,0.168-0.704,0.377l-0.023,0.029H9.34
		C11.622,15.913,14.689,12.686,18.313,10.215z M8.738,20.712c0.229-0.015,0.372-0.063,0.691-0.186l0.237-0.088L9.526,20.65
		c-0.257,0.387-0.188,0.282-0.488,0.541c0,0.037,0,0.072,0,0.108v0.07l-0.07,0.01c-0.019,0.003-0.039,0.007-0.06,0.01
		c0,0.005-0.003,0.007-0.004,0.014l0.451-0.083l0.18-0.093l0.077,0.158l0.163-0.051l0.079,0.188l-0.065,0.12l0.006,0.004
		l0.481-0.325l0.04,0.18c0.219-0.057,0.404-0.12,0.641-0.162l0.457-0.08l-0.916,0.527l-0.039,0.127l-0.055,0.006
		c-0.15,0.02-0.405,0.146-0.421,0.318L9.977,22.3l-0.062,0.011c-0.162,0.027-0.423,0.134-0.582,0.194
		c-0.145,0.052-0.285,0.107-0.428,0.163c-0.042,0.015-0.146,0.071-0.224,0.072c-0.479,0.015-0.778,0.146-1.132,0.365
		C7.912,22.29,8.307,21.49,8.738,20.712z M9.12,20.051l0.317,0.031l-0.008,0.08c-0.002,0.029-0.005,0.06-0.008,0.088l-0.003,0.036
		l-0.028,0.021c-0.038,0.031-0.075,0.059-0.114,0.088l-0.04,0.03l-0.043-0.021c-0.08-0.036-0.155-0.061-0.23-0.078
		C9.014,20.235,9.065,20.143,9.12,20.051z M4.915,35.5c0-4.339,0.914-8.466,2.549-12.208c1.713-0.405,3.366-1.148,4.993-1.807
		c-0.064,0.201-0.133,0.398-0.196,0.6c-0.441,0.126-0.825,0.136-1.185,0.415c0.028,0.008,0.061,0.016,0.09,0.024l0.157,0.04
		l-0.061,0.049c0.313-0.109,0.611-0.251,0.94-0.326c-1.23,4.073-1.913,8.535-1.913,13.213c0,9.971,3.092,18.965,8.024,25.286
		C10.231,55.273,4.915,45.997,4.915,35.5z M55.111,58.947c-0.073-0.28-0.152-0.563-0.256-0.819l-0.109,0.112l-0.271,0.433
		l-0.358,0.694l-0.274-0.018l-0.104,0.002c0.037-0.055,0.076-0.11,0.115-0.164l0.166,0.008l0.313-0.604l0.284-0.453l0.181-0.187
		c-0.008-0.019-0.017-0.036-0.022-0.054c-0.012-0.024-0.027-0.043-0.041-0.066c3.725-6.032,5.977-13.825,5.977-22.332
		c0-6.802-1.443-13.146-3.923-18.501c0.038-0.007,0.083-0.019,0.146-0.039l0.057-0.018l0.033,0.048
		c0.199,0.272,0.131,0.22,0.44,0.354l0.07,0.03l-0.026,0.071c-0.016,0.047-0.029,0.095-0.047,0.145
		c0.28,0.404,0.501,0.274,0.794-0.07l0.028-0.033l0.042,0.005c0.35,0.025,0.282,0.02,0.563-0.111
		c0.004-0.061,0.01-0.121,0.012-0.181l0.004-0.052l0.494-0.198c-0.146-0.118-0.123-0.078-0.418-0.084h-0.066l-0.01-0.066
		c-0.006-0.032-0.014-0.064-0.021-0.094c-0.077,0.007-0.157,0.015-0.237,0.023l-0.097,0.01l0.009-0.098
		c0.006-0.064,0.012-0.128,0.018-0.192c-0.223-0.088-0.234-0.072-0.51-0.072h-0.063l-0.016-0.06
		c-0.01-0.039-0.021-0.076-0.031-0.116c-0.491-0.066-0.412-0.053-0.854-0.35l-0.19-0.128l0.229-0.02
		c0.045-0.005,0.086-0.007,0.131-0.011c0.013-0.047,0.028-0.093,0.045-0.14l0.019-0.056h0.06c0.192,0,0.406,0.032,0.603-0.012
		c-0.015-0.016-0.031-0.028-0.043-0.034c-0.045-0.022-0.427-0.024-0.489-0.028l-0.334-0.019l0.307-0.138
		c0.322-0.143,0.321-0.104,0.617-0.074c0.018-0.033,0.031-0.067,0.049-0.1c-0.056-0.041-0.108-0.083-0.162-0.125
		c-0.096,0.061-0.191,0.123-0.289,0.185l-0.114,0.071l-0.011-0.134c-0.006-0.061-0.012-0.123-0.014-0.183l-0.007-0.06l0.054-0.022
		c0.033-0.014,0.068-0.028,0.104-0.042c-0.053-0.022-0.104-0.058-0.205-0.132c-0.122,0.026-0.244,0.052-0.368,0.077l-0.219,0.046
		l0.138-0.177c0.016-0.02,0.029-0.038,0.04-0.055c-0.235,0.142-0.241,0.14-0.674,0.166l-0.09,0.003v-0.086c0-0.048,0-0.095,0-0.145
		V14.4l0.078-0.002c0.295-0.013,0.304,0.002,0.481-0.092c-0.293-0.125-0.621,0.125-0.967-0.011l-0.051-0.021v-0.055
		c0-0.065,0-0.127,0-0.192v-0.033c-0.077,0-0.155,0-0.23,0h-0.371c-0.006-0.008-0.01-0.017-0.015-0.025l0.356-0.132
		c0.022-0.009,0.048-0.018,0.074-0.028c-0.16-0.099-0.433-0.185-0.636-0.193c-0.043-0.074-0.088-0.147-0.132-0.221
		c0.27,0.004,0.542,0.001,0.697-0.034c-0.289-0.243-0.586-0.309-0.914-0.309c-0.123-0.198-0.247-0.396-0.373-0.591
		c0.313-0.041,0.619-0.104,0.938-0.137c0.019-0.041,0.053-0.068,0.082-0.101c6.588,5.613,10.778,13.963,10.778,23.277
		C66.085,44.907,61.813,53.333,55.111,58.947z"/>
	<path fill="#FFFFFF" d="M49.3,49.948c0.08-0.118,0.071-0.11,0.212-0.14l-0.072-0.134l-0.201,0.106l-0.062-0.034l0.021,0.2
		L49.3,49.948L49.3,49.948z"/>
	<rect x="47.458" y="48.762" fill="#FFFFFF" width="0.161" height="0.072"/>
	
		<rect x="47.48" y="48.27" transform="matrix(0.2113 0.9774 -0.9774 0.2113 84.7763 -8.2762)" fill="#FFFFFF" width="0.074" height="0.25"/>
	<path fill="#FFFFFF" d="M49.502,51.305l-0.037,0.203l0.1,0.034c0.049-0.134,0.063-0.134,0.009-0.261L49.502,51.305z"/>
	<polygon fill="#FFFFFF" points="49.326,50.443 49.48,50.458 49.458,50.268 49.292,50.244 	"/>
	<polygon fill="#FFFFFF" points="49.314,51.923 49.427,51.93 49.465,51.771 49.402,51.771 	"/>
	<path fill="#FFFFFF" d="M49.458,50.816l0.063,0.199c0.078-0.026,0.095-0.064,0.137-0.136l-0.12-0.092L49.458,50.816z"/>
	<path fill="#FFFFFF" d="M48.909,52.624l0.165,0.124c0.025-0.159,0.017-0.164-0.043-0.316L48.909,52.624z"/>
	<polygon fill="#FFFFFF" points="50.398,51.952 50.385,51.826 50.273,51.791 50.286,51.952 	"/>
	<path fill="#FFFFFF" d="M43.691,47.639L43.61,48.02l-0.077,0.26l0.1,0.209l-0.101,0.199l0.023,0.104
		c0.146-0.153,0.256-0.315,0.433-0.465l0.12-0.104l0.02,0.219c0.412-0.032,0.804-0.375,1.131,0.054l0.161-0.248
		c-0.393-0.381-1.184-0.933-1.739-0.781L43.691,47.639z"/>
	<path fill="#FFFFFF" d="M37.37,46.104c-0.092-0.03-0.184-0.057-0.275-0.086c-0.021,0.101-0.046,0.198-0.069,0.299
		c0.116-0.008,0.229-0.017,0.346-0.021C37.37,46.23,37.37,46.167,37.37,46.104z"/>
	<path fill="#FFFFFF" d="M41.387,44.867c0.081,0.087,0.163,0.173,0.246,0.26c0.015-0.018,0.034-0.034,0.053-0.051
		c-0.081-0.087-0.164-0.174-0.246-0.26C41.423,44.834,41.404,44.85,41.387,44.867z"/>
	<path fill="#FFFFFF" d="M41.915,44.88c-0.023,0-0.047,0-0.072,0c0,0.33-0.046,0.249,0.154,0.49c0.02-0.017,0.038-0.032,0.056-0.048
		C41.877,45.109,41.915,45.161,41.915,44.88z"/>
	<path fill="#FFFFFF" d="M41.503,44.055c0-0.313,0.022-0.22-0.199-0.46c-0.019,0.017-0.037,0.033-0.055,0.048
		c0.189,0.207,0.181,0.139,0.181,0.412C41.456,44.055,41.479,44.055,41.503,44.055z"/>
	<path fill="#FFFFFF" d="M41.914,44.531c-0.037-0.1-0.071-0.198-0.104-0.299c-0.025,0.01-0.049,0.017-0.069,0.025
		c0.033,0.1,0.07,0.198,0.104,0.299C41.868,44.549,41.892,44.54,41.914,44.531z"/>
	<path fill="#FFFFFF" d="M42.488,45.573c-0.047,0.049-0.093,0.098-0.139,0.146c0.019,0.016,0.034,0.032,0.053,0.051l0.195-0.209
		l-0.216-0.152c-0.015,0.021-0.028,0.04-0.042,0.06C42.39,45.504,42.438,45.538,42.488,45.573z"/>
	<path fill="#FFFFFF" d="M42.59,46.775c0.129-0.047,0.255-0.098,0.384-0.146c-0.027-0.06-0.056-0.116-0.084-0.176l-0.391,0.161
		C42.528,46.669,42.561,46.721,42.59,46.775z"/>
	<path fill="#FFFFFF" d="M42.024,44.855c0.041,0,0.08,0,0.121,0c0-0.024,0-0.049,0-0.073c-0.041,0-0.08,0-0.121,0
		C42.024,44.807,42.024,44.831,42.024,44.855z"/>
	<path fill="#FFFFFF" d="M42.373,44.561c-0.022-0.006-0.046-0.012-0.069-0.019c-0.017,0.06-0.032,0.117-0.046,0.176
		c0.023,0.007,0.046,0.013,0.07,0.019C42.345,44.678,42.357,44.62,42.373,44.561z"/>
	<path fill="#FFFFFF" d="M43.207,45.717c-0.049-0.018-0.099-0.035-0.146-0.053c-0.009,0.021-0.018,0.046-0.024,0.068
		c0.048,0.019,0.096,0.035,0.146,0.053C43.188,45.764,43.198,45.74,43.207,45.717z"/>
	
		<rect x="43.612" y="46.04" transform="matrix(-0.9259 -0.3778 0.3778 -0.9259 66.9074 105.2783)" fill="#FFFFFF" width="0.339" height="0.071"/>
	<path fill="#FFFFFF" d="M52.262,56.855c-0.178-0.015-0.421,0.021-0.595-0.021l-0.011,0.039l-0.196,0.611l-0.315,0.07l-0.119,0.135
		L51,57.92l0.201,0.443c0.057,0.004,0.154,0.007,0.264,0.007c0.143,0,0.117,0.253,0.104,0.366l0.3,0.678l0.166,0.048l0.098-0.034
		l-0.157-0.229l0.381-0.166h0.389l0.313,0.171l0.09-0.144l0.092-0.31l0.076-0.424l-0.196-0.188l-0.097-0.447l0.095-0.364
		l0.198-0.379c-0.006-0.001-0.013-0.001-0.018-0.003C52.968,56.877,52.598,56.889,52.262,56.855z"/>
	<path fill="#FFFFFF" d="M51.4,58.739c0.006-0.037,0.018-0.146,0.013-0.205c-0.151-0.001-0.269-0.011-0.269-0.011h-0.052
		l-0.262-0.578l0.034-0.324l0.189-0.212l0.277-0.063l0.167-0.521l0.013-0.048c-0.3-0.135-0.396-0.354-0.617-0.584
		c-0.308-0.321-0.58-0.657-0.961-0.898l-0.05,0.069l-0.344,0.319l0.118,0.424l-0.053,0.031c-0.067,0.043-0.326,0.204-0.385,0.269
		c0,0.133,0,0.265,0,0.397l0.331,0.514l0.181-0.15l0.256,0.393l-0.062,0.045c-0.034,0.024-0.131,0.104-0.168,0.147
		c0.058,0.046,0.204,0.123,0.25,0.144l0.042,0.02L50.1,58.29l-0.029,0.028c-0.039,0.037-0.166,0.164-0.195,0.215
		c0.001,0.128,0.006,0.259,0.012,0.388v0.308l0.129,0.246l0.191,0.283l0.21,0.08l0.278-0.021l0.252-0.164l0.395-0.17l0.29-0.133
		l0.028,0.01l-0.264-0.596L51.4,58.739z"/>
	<path fill="#FFFFFF" d="M44.036,52.794l0.092,0.136c0.01-0.095,0.019-0.119-0.028-0.224L44.036,52.794z"/>
	<path fill="#FFFFFF" d="M49.098,53.866c0.041,0.002,0.082,0.003,0.123,0.003c0.037-0.1,0.074-0.199,0.112-0.299
		c-0.013-0.002-0.026-0.006-0.04-0.008C49.193,53.674,49.16,53.77,49.098,53.866z"/>
	<path fill="#FFFFFF" d="M36.351,54.279c-0.061-0.069-0.122-0.141-0.173-0.217c-0.104-0.15-0.134-0.402-0.242-0.5
		c-0.007-0.006-0.012-0.012-0.018-0.017l-0.204,0.044l-0.353-0.232l-0.245,0.037l-0.287-0.135l-0.021,0.01
		c0.087,0.248-0.124,0.459-0.102,0.621c0.006,0.041,0.253,0.213,0.369,0.305c0.06-0.033,0.119-0.064,0.181-0.098l0.053-0.029
		l0.043,0.045c0.195,0.193,0.387,0.388,0.583,0.58L36,54.76l-0.075,0.059c-0.036,0.023-0.068,0.052-0.105,0.076
		c0.111,0.1,0.102,0.113,0.315,0.113h0.045l0.011,0.018l0.064-0.049l0.01-0.188l0.066-0.074l-0.104-0.16l0.063-0.244L36.351,54.279z
		"/>
	<path fill="#FFFFFF" d="M34.525,52.807l0.126-0.265l0.263-0.015l0.322,0.375l0.204,0.312l0.306,0.201l0.031-0.006l0.01-0.033
		c0.105-0.325,0.06-0.209,0.033-0.534c-0.043-0.605,0.33-1.41,0.518-2.035l-0.654,0.08l-0.256,0.008l-0.116,0.336l-0.431,0.307
		l-0.144-0.11l-0.109,0.126l-0.239,0.045l-0.023,0.144l-0.018,0.227l-0.353,0.144l-0.152,0.022c0.233,0.253,0.477,0.54,0.646,0.839
		c0.031,0.049,0.136,0.118,0.208,0.174l0.019-0.011L34.525,52.807z"/>
	<path fill="#FFFFFF" d="M34.585,50.303l-0.038,0.029l-0.045-0.02c-0.08-0.032-0.247-0.109-0.339-0.109
		c-0.124,0-0.245-0.038-0.364-0.077c-0.035,0.037-0.074,0.072-0.108,0.108l-0.006,0.006l-0.686,0.439l0.008,0.26l-0.039,0.039
		L32.991,51c0.044,0.042,0.173,0.15,0.22,0.232c0.024,0.021,0.092,0.054,0.139,0.076l0.16-0.078l0.363,0.098l-0.085,0.259
		l-0.055,0.172l0.02,0.031c0.034,0.05,0.066,0.101,0.101,0.151l0.014,0.021l0.081-0.012l0.243-0.099l0.011-0.134l0.043-0.265
		l0.296-0.053l0.169-0.2l0.172,0.131l0.289-0.205l0.135-0.392l0.363-0.015l0.646-0.079l0.072-0.015
		c0.004-0.017,0.007-0.033,0.012-0.05C35.87,50.217,35.176,49.846,34.585,50.303z"/>
	<path fill="#FFFFFF" d="M33.748,48.35l-0.168,0.289l-0.25,0.11l-0.239,1.175l0.02-0.006l-0.01-0.011l0.07-0.056
		c0.285-0.225,0.613-1.02,0.774-1.42L33.748,48.35z"/>
	<path fill="#FFFFFF" d="M46.105,48.564c0.383,0.189,0.662,0.145,0.955-0.17c-0.256-0.037-0.75-0.11-0.855-0.146L46.105,48.564z"/>
	<path fill="#FFFFFF" d="M43.501,47.544l-0.051,0.031l-0.044-0.037c-0.185-0.153-0.402-0.112-0.621-0.136
		c-0.031,0.033-0.065,0.063-0.099,0.096c0.101,0.033,0.155,0.074,0.276,0.159l0.035,0.024v0.043
		c-0.006,0.279-0.013,0.205,0.143,0.438l0.065,0.098l-0.115,0.027c-0.351,0.081-0.7,0.031-1.05,0.076
		c0.05,0.08,0.085,0.106,0.171,0.172c0.03-0.036,0.063-0.074,0.092-0.112l0.028-0.032l0.045,0.004
		c0.304,0.037,0.567,0.045,0.872,0.016l0.035-0.001l0.024,0.021c0.041,0.032,0.079,0.065,0.12,0.101l0.021-0.044l-0.094-0.195
		l0.096-0.313l0.073-0.353l-0.007-0.095C43.514,47.535,43.507,47.539,43.501,47.544z"/>
	<path fill="#FFFFFF" d="M54.002,29.761L53.85,29.75l0.098-0.121c0.06-0.078,0.121-0.155,0.184-0.232
		c-0.008-0.026-0.018-0.049-0.025-0.074c-0.336,0.229-0.492,0.494-0.74,0.825l-0.088,0.119l-0.055-0.138
		c-0.012-0.032-0.023-0.063-0.037-0.094c-0.363,0.158-0.737,0.112-1.002-0.093l-0.332,0.197c-0.031,0.019-0.063,0.038-0.096,0.055
		c0.126,0.008,0.252,0.015,0.38,0.023l0.071,0.003l0.006,0.146l-0.068,0.013c-0.611,0.113-1.343,0.1-1.623,0.759l0.121,0.261
		c0.412-0.093,0.724-0.49,1.066-0.718l0.063-0.042l0.109,0.142c0.45-0.234,1.008-0.364,1.501-0.461l0.044-0.189l0.041-0.016
		c0.276-0.108,0.521-0.187,0.801-0.256c-0.009-0.027-0.02-0.052-0.026-0.079C54.16,29.773,54.081,29.767,54.002,29.761z"/>
	<path fill="#FFFFFF" d="M56.191,20.042c0.021-0.046,0.045-0.089,0.068-0.135c-0.023-0.022-0.05-0.046-0.074-0.069
		c-0.006,0.016-0.01,0.033-0.014,0.049l-0.012,0.044l-0.045,0.016c-0.022,0.006-0.047,0.012-0.067,0.019
		c0.015,0.021,0.028,0.044,0.043,0.066C56.126,20.033,56.157,20.038,56.191,20.042z"/>
	<path fill="#FFFFFF" d="M50.795,18.924c0.001-0.001,0.001-0.002,0.001-0.004c-0.008,0-0.017,0-0.022,0.002
		C50.779,18.922,50.788,18.923,50.795,18.924z"/>
	<path fill="#FFFFFF" d="M58.052,27.936c-0.007-0.166-0.02-0.148-0.124-0.264c-0.289,0.16-0.521,0.181-0.838,0.025l-0.107-0.054
		l0.09-0.08c0.064-0.06,0.133-0.12,0.195-0.18c-0.052-0.032-0.104-0.063-0.154-0.095c-0.127,0.058-0.252,0.117-0.381,0.173
		l-0.545,0.246l0.459-0.384c0.281-0.234,0.599-0.773,0.93-0.945c-0.002-0.002-0.003-0.007-0.006-0.012
		c-0.797,0.458-1.355,1.136-2.059,1.707c0.041,0.055,0.082,0.113,0.123,0.167l0.059,0.083l-0.092,0.041
		c-0.201,0.088-0.396,0.177-0.598,0.265c-0.006,0.043-0.016,0.088-0.023,0.13c0.722-0.041,1.479-0.088,2.193-0.009l0.182,0.02
		l-0.135,0.123c-0.107,0.095-0.205,0.174-0.305,0.246c0.254-0.13,0.477-0.341,0.717-0.505l0.112-0.078l0.004,0.03
		c0.094-0.104,0.179-0.188,0.271-0.271c-0.004,0-0.006,0.002-0.014,0.002l-0.052,0.006l-0.027-0.046
		c-0.024-0.043-0.052-0.086-0.075-0.129l-0.043-0.072l0.071-0.042C57.938,28.002,57.994,27.969,58.052,27.936z"/>
	<path fill="#FFFFFF" d="M54.277,20.642c-0.026,0.027-0.055,0.054-0.082,0.079c0.035-0.015,0.074-0.033,0.113-0.051
		C54.299,20.661,54.288,20.651,54.277,20.642z"/>
	<path fill="#FFFFFF" d="M58.066,28.74c-0.055,0.049-0.11,0.1-0.168,0.15l-0.07,0.066l-0.055-0.083c0-0.002-0.004-0.006-0.006-0.009
		c0.006,0.133-0.014,0.188-0.058,0.284l0.153-0.083l-0.04,0.175c-0.013,0.064-0.028,0.13-0.042,0.196
		c0.035,0.01,0.074,0.021,0.111,0.028c0.211-0.24,0.262-0.248,0.357-0.521c-0.063,0-0.124,0-0.186,0h-0.183l0.122-0.135
		C58.025,28.784,58.047,28.761,58.066,28.74z"/>
	<path fill="#FFFFFF" d="M53.766,27.763c-0.229-0.164-0.471-0.324-0.744-0.373c0.065,0.056,0.106,0.114,0.176,0.258
		C53.45,27.727,53.577,27.749,53.766,27.763z"/>
	<path fill="#FFFFFF" d="M49.219,19.81c0.002,0.008,0.004,0.018,0.006,0.027c0.199-0.034,0.233-0.132,0.396-0.299
		C49.374,19.552,49.418,19.599,49.219,19.81z"/>
	<path fill="#FFFFFF" d="M52.909,29.645c-0.211-0.029-0.343-0.075-0.64-0.179l-0.035-0.013l-0.014-0.035
		c-0.011-0.024-0.021-0.048-0.031-0.073c-0.03,0.024-0.063,0.048-0.094,0.073c0,0.002,0,0.003,0,0.006
		C52.41,29.657,52.609,29.737,52.909,29.645z"/>
	<path fill="#FFFFFF" d="M48.574,17.47c0.041,0,0.08,0,0.121,0c0.009-0.018,0.02-0.035,0.029-0.053
		c-0.01-0.01-0.016-0.02-0.022-0.029C48.659,17.414,48.617,17.44,48.574,17.47z"/>
	<path fill="#FFFFFF" d="M48.376,17.47h0.063c0.002,0,0.01,0,0.014,0l-0.008-0.04C48.421,17.444,48.396,17.457,48.376,17.47z"/>
	<path fill="#FFFFFF" d="M42.518,11.067c-0.385,0.054-0.771,0.087-1.158,0.127l-0.09,0.228c0.396-0.155,0.846-0.245,1.255-0.325
		L42.518,11.067z"/>
	<path fill="#FFFFFF" d="M44.818,10.894l-0.051-0.076c-0.232,0.012-0.464,0.038-0.704,0.057l-0.068,0.067
		C44.196,10.986,44.581,10.928,44.818,10.894z"/>
	<path fill="#FFFFFF" d="M46.039,15.545c-0.006,0-0.014,0.005-0.021,0.013c0.024-0.005,0.051-0.013,0.075-0.022
		C46.078,15.539,46.061,15.543,46.039,15.545z"/>
	<path fill="#FFFFFF" d="M47.337,23.137c-0.11,0.085-0.2,0.145-0.285,0.231c0.226-0.018,0.244-0.002,0.464-0.177
		c-0.023-0.026-0.049-0.053-0.07-0.078C47.409,23.122,47.373,23.129,47.337,23.137z"/>
	<path fill="#FFFFFF" d="M45.052,25.237c0.097,0.074,0.21,0.121,0.331,0.133c-0.007-0.045-0.017-0.088-0.025-0.134
		C45.215,25.221,45.159,25.216,45.052,25.237z"/>
	<path fill="#FFFFFF" d="M19.56,25.47c0.178-0.449,0.27-0.63,0.591-0.918c-0.14-0.016-0.278-0.044-0.417-0.071
		c-0.232,0.396-0.254,0.693-0.226,1.105C19.525,25.551,19.545,25.514,19.56,25.47z"/>
	<path fill="#FFFFFF" d="M43.59,10.8l-0.028,0.01c0.021,0.005,0.04,0.006,0.061,0.006L43.59,10.8z"/>
	<path fill="#FFFFFF" d="M44.646,11.82l-0.104-0.031l0.225-0.354c-0.284,0.054-0.446,0.1-0.719,0.198l0.284,0.172l-0.325,0.025
		c0.038,0.025,0.074,0.051,0.11,0.075l0.182,0.121l-0.217,0.027c-0.431,0.052-0.63,0.065-1.065,0.029l-0.132-0.009l0.142-0.229
		c-0.2-0.122-0.155-0.104-0.457-0.098l-0.063,0.002l-0.031-0.1c-0.736,0.017-1.331,0.344-2.045,0.46
		c0.017,0.018,0.029,0.036,0.044,0.055c0.338,0.001,0.655-0.009,0.992-0.039c0.46-0.04,0.91-0.027,1.371-0.007l0.08,0.005
		l-0.005,0.161l-0.082-0.002c-0.592-0.014-1.068,0.068-1.637,0.2c0.07,0.008,0.141,0.018,0.209,0.026
		c1.057-0.14,3.021-0.171,3.927-0.659l0.009-0.039C45.057,11.875,44.986,11.922,44.646,11.82z"/>
	<path fill="#FFFFFF" d="M44.486,15.725l0.07,0.056c0.188-0.047,0.512-0.056,0.651-0.114c0.084-0.036,0.146-0.109,0.19-0.188
		c-0.107-0.174-0.17-0.255-0.316-0.399c-0.398,0.149-0.605,0.392-1.043,0.461C44.228,15.566,44.226,15.516,44.486,15.725z"/>
	<path fill="#FFFFFF" d="M51.801,12.107l-0.129-0.439l0.081-0.021c0.024-0.007,0.048-0.013,0.072-0.018
		c-0.656-0.187-1.552-0.332-2.158-0.21l0.205,0.186c0.327-0.034,0.651-0.067,0.981-0.059l0.142,0.005l-0.073,0.12
		c-0.154,0.256-0.393,0.439-0.564,0.675c0.41,0.065,0.922,0.164,1.267-0.082l0.22-0.157H51.801z"/>
	<path fill="#FFFFFF" d="M53.072,15.391c-0.088,0.038-0.157,0.08-0.238,0.14c0.061-0.012,0.119-0.024,0.176-0.034
		C53.035,15.455,53.055,15.419,53.072,15.391z"/>
	<polygon fill="#FFFFFF" points="46.84,11.882 47.048,11.886 46.919,11.856 	"/>
	<path fill="#FFFFFF" d="M48.861,11.582c-0.377-0.094-0.547-0.097-0.9-0.106l0.059,0.187l-0.371,0.128l-0.099-0.116l-0.28-0.022
		l-0.086,0.234l0.441,0.007l-0.229,0.146c-0.057,0.036-0.11,0.073-0.168,0.107c0.375,0.026,0.76,0.054,1.09-0.154
		c0.191-0.113,0.387-0.225,0.578-0.336L48.861,11.582z"/>
	<path fill="#FFFFFF" d="M48.691,12.308c0.432,0.141,0.699,0.144,1.061-0.159C49.343,12.078,49.061,12.124,48.691,12.308z"/>
	<path fill="#FFFFFF" d="M46.381,11.53l0.006,0.142l0.233,0.073l0.188-0.112C46.662,11.489,46.626,11.535,46.381,11.53z"/>
	<path fill="#FFFFFF" d="M47.971,10.653c0.297,0.04,0.653-0.005,0.92,0.088l0.063,0.022l-0.005,0.031l0.498,0.014l-0.018-0.235
		l0.139-0.046c-0.516-0.347-0.976-0.273-1.58-0.249l0.4-0.004l-0.131,0.14C48.109,10.573,48.049,10.632,47.971,10.653z"/>
	<path fill="#FFFFFF" d="M50.71,10.769c0.2-0.02,0.253-0.042,0.368-0.104c-0.303-0.154-0.514-0.173-0.871-0.087l-0.03,0.12
		c0.187,0.01,0.24,0.006,0.417,0.084L50.71,10.769z"/>
	<path fill="#FFFFFF" d="M51.025,11.015c-0.094-0.009-0.188-0.027-0.281-0.065l-0.122,0.056
		C50.754,11.016,50.895,11.024,51.025,11.015z"/>
	<path fill="#FFFFFF" d="M20.591,23.564l0.092-0.075l-0.095,0.271c-0.036,0.095-0.056,0.14-0.061,0.207
		c0.024-0.012,0.05-0.022,0.074-0.034c0.08-0.316,0.178-0.505,0.201-0.829l-0.023,0.072C20.729,23.333,20.669,23.458,20.591,23.564z
		"/>
	<path fill="#FFFFFF" d="M21.375,22.06l-0.028-0.079c-0.132,0.128-0.279,0.295-0.406,0.453C21.18,22.344,21.213,22.309,21.375,22.06
		z"/>
	<path fill="#FFFFFF" d="M20.175,23.928c0.036-0.039,0.075-0.078,0.114-0.113c-0.043,0.021-0.088,0.042-0.14,0.06
		C20.158,23.892,20.165,23.911,20.175,23.928z"/>
	<path fill="#FFFFFF" d="M20.923,22.918c0.042,0.015,0.087,0.032,0.129,0.047l0.048,0.019l0.007,0.053
		c0.002,0.049,0.006,0.101,0.01,0.152c0.006,0.002,0.012,0.003,0.017,0.005c0.019-0.028,0.037-0.058,0.056-0.086l0.03-0.047
		c-0.012-0.012-0.022-0.021-0.033-0.032l-0.067-0.064l0.073-0.059c0.028-0.021,0.057-0.044,0.084-0.067
		c-0.003-0.028-0.006-0.056-0.01-0.083L21,22.737c-0.036,0.038-0.069,0.075-0.105,0.113l-0.037,0.038
		c0.009,0.004,0.019,0.008,0.026,0.013L20.923,22.918z"/>
	<path fill="#FFFFFF" d="M20.412,22.531l0.023,0.072l-0.067,0.029c-0.035,0.014-0.069,0.029-0.106,0.043l-0.005,0.051
		c-0.007,0.056-0.013,0.113-0.021,0.169c0.169-0.165,0.314-0.34,0.2-0.597l-0.082-0.184l0.187,0.075
		c0.057,0.022,0.112,0.043,0.167,0.066c0.044-0.071,0.09-0.14,0.135-0.211c-0.009-0.033-0.019-0.067-0.027-0.1
		c-0.134,0.008-0.266,0.016-0.398,0.023c-0.039,0.072-0.077,0.142-0.117,0.213C20.338,22.299,20.377,22.416,20.412,22.531z"/>
	<path fill="#FFFFFF" d="M20.503,21.239l-0.144-0.386l-0.205,0.097c-0.088,0.041-0.177,0.082-0.265,0.121
		c0.213,0.199,0.26,0.396,0.4,0.511L20.503,21.239z"/>
	<path fill="#FFFFFF" d="M33.353,51.49l-0.07-0.033c-0.055-0.025-0.126-0.061-0.174-0.098l-0.021-0.02l-0.016-0.025
		c-0.028-0.051-0.11-0.123-0.165-0.174l-0.121,0.002l-0.095,0.086l-0.236,0.332c0.353,0.211,0.684,0.293,1.1,0.229l0.113-0.349
		l-0.139-0.037L33.353,51.49z"/>
</g>
</svg>
