<?xml version="1.0" encoding="utf-8"?>
<!-- Generator: Adobe Illustrator 16.0.0, SVG Export Plug-In . SVG Version: 6.00 Build 0)  -->
<!DOCTYPE svg PUBLIC "-//W3C//DTD SVG 1.1//EN" "http://www.w3.org/Graphics/SVG/1.1/DTD/svg11.dtd">
<svg version="1.1" id="Слой_1" xmlns="http://www.w3.org/2000/svg" xmlns:xlink="http://www.w3.org/1999/xlink" x="0px" y="0px"
	 width="71px" height="71px" viewBox="0 0 71 71" enable-background="new 0 0 71 71" xml:space="preserve">
<g>
	<g>
		<path fill="#FFFFFF" d="M35.5,70.938C15.96,70.938,0.063,55.04,0.063,35.5S15.96,0.063,35.5,0.063S70.938,15.96,70.938,35.5
			S55.04,70.938,35.5,70.938z M35.5,4.889C18.621,4.889,4.889,18.621,4.889,35.5c0,16.88,13.731,30.611,30.611,30.611
			S66.111,52.38,66.111,35.5C66.111,18.621,52.38,4.889,35.5,4.889z"/>
	</g>
	<g>
		<g>
			<path fill="#FFFFFF" d="M35.297,21.928c-7.428,0-13.471,6.044-13.471,13.472c0,7.426,6.042,13.47,13.471,13.47
				c7.43,0,13.471-6.044,13.471-13.47C48.768,27.972,42.727,21.928,35.297,21.928z M32.141,26.677
				c-0.061,0.147-0.175,0.264-0.327,0.326c-0.503,0.213-1.018,0.493-1.53,0.833c-0.42,0.288-0.827,0.621-1.212,0.993l-0.022-0.005
				l-0.118,0.122c-0.375,0.386-0.711,0.794-1.005,1.217l-0.098,0.132c-0.309,0.451-0.579,0.949-0.827,1.523
				c-0.125,0.294-0.498,0.436-0.78,0.32c-0.297-0.13-0.437-0.478-0.312-0.776c0.24-0.577,0.555-1.157,0.938-1.727l0.031-0.049
				c0.357-0.519,0.77-1.017,1.224-1.479l0.057-0.062c0.414-0.406,0.906-0.811,1.464-1.194c0.544-0.364,1.129-0.68,1.735-0.938
				c0.289-0.122,0.654,0.025,0.775,0.325C32.194,26.377,32.197,26.533,32.141,26.677z M44.788,39.307
				c-0.502,1.218-1.241,2.322-2.194,3.283c-0.967,0.953-2.088,1.701-3.332,2.221c-1.227,0.51-2.578,0.778-3.914,0.778
				c-0.331,0-0.602-0.266-0.602-0.592c0-0.331,0.271-0.6,0.602-0.6c1.203,0,2.369-0.23,3.466-0.685
				c1.104-0.46,2.089-1.122,2.931-1.97c0.84-0.842,1.496-1.81,1.973-2.934c0.448-1.108,0.677-2.275,0.677-3.468
				c0-0.32,0.273-0.594,0.598-0.594c0.327,0,0.592,0.268,0.592,0.594C45.581,36.712,45.318,38.033,44.788,39.307z"/>
		</g>
		<g>
			<path fill="#FFFFFF" d="M54.111,52.427l-6.653-6.646l0.176-0.213c1.05-1.26,1.886-2.643,2.483-4.104
				c0.806-1.939,1.214-3.999,1.214-6.119c0-2.078-0.399-4.109-1.192-6.037L50.107,29.2c-0.782-1.89-1.928-3.611-3.393-5.082
				l-0.08-0.087c-1.373-1.376-2.976-2.48-4.759-3.277v0.029l-0.436-0.215c-1.929-0.8-3.982-1.209-6.094-1.209
				c-4.285,0-8.302,1.663-11.311,4.683c-1.494,1.497-2.662,3.246-3.47,5.198c-0.802,1.923-1.208,3.978-1.208,6.104
				c0,2.094,0.396,4.128,1.176,6.04l0.032,0.077c0.807,1.943,1.976,3.69,3.471,5.19c1.476,1.466,3.176,2.615,5.061,3.416
				l0.316,0.127c3.845,1.537,8.209,1.514,12.045-0.074c1.467-0.607,2.85-1.444,4.105-2.482l0.211-0.178l6.656,6.659
				c0.447,0.44,1.228,0.438,1.682-0.009C54.576,53.648,54.576,52.895,54.111,52.427z M35.297,49.773
				c-7.926,0-14.375-6.448-14.375-14.374c0-7.927,6.449-14.375,14.375-14.375c7.927,0,14.375,6.449,14.375,14.375
				C49.673,43.325,43.225,49.773,35.297,49.773z"/>
		</g>
	</g>
</g>
</svg>
