<?xml version="1.0" encoding="utf-8"?>
<!-- Generator: Adobe Illustrator 16.0.0, SVG Export Plug-In . SVG Version: 6.00 Build 0)  -->
<!DOCTYPE svg PUBLIC "-//W3C//DTD SVG 1.1//EN" "http://www.w3.org/Graphics/SVG/1.1/DTD/svg11.dtd">
<svg version="1.1" id="Слой_1" xmlns="http://www.w3.org/2000/svg" xmlns:xlink="http://www.w3.org/1999/xlink" x="0px" y="0px"
	 width="71px" height="71px" viewBox="0 0 71 71" enable-background="new 0 0 71 71" xml:space="preserve">
<g>
	<g>
		<path fill="#FFFFFF" d="M35.5,70.938C15.96,70.938,0.063,55.04,0.063,35.5S15.96,0.063,35.5,0.063S70.938,15.96,70.938,35.5
			S55.04,70.938,35.5,70.938z M35.5,4.889C18.62,4.889,4.889,18.62,4.889,35.5c0,16.879,13.731,30.611,30.611,30.611
			S66.111,52.379,66.111,35.5C66.111,18.62,52.38,4.889,35.5,4.889z"/>
	</g>
	<g>
		<path fill="#FFFFFF" d="M54.514,29.349l-9.465-9.468c-1.145-1.142-2.968-1.845-4.767-1.845c-0.61,0-1.188,0.082-1.713,0.242
			L38.165,18.4c-0.941,0.298-2.077,0.851-3.146,1.52l-0.035-0.022c-1.852-0.807-3.599-1.69-4.377-1.931l-0.401-0.127
			c-1.503-0.465-3.645,0.063-4.759,1.174l-9.463,9.47c-1.117,1.111-1.626,3.246-1.138,4.747l0.179,0.557
			c0.491,1.497,1.8,3.63,2.912,4.742l1.932,1.931c-0.411,1.365-0.162,2.772,0.8,3.733c0.47,0.468,1.066,0.779,1.734,0.912v0.008
			c-1.821,1.813-2.057,4.418-0.545,5.932c0.637,0.641,1.519,0.988,2.482,0.988c0.454,0,0.913-0.08,1.363-0.225
			c0.01,0.947,0.356,1.816,0.985,2.45c0.636,0.63,1.518,0.985,2.479,0.985c0.9,0,1.818-0.299,2.623-0.837
			c0.116,0.687,0.424,1.334,0.941,1.848c0.639,0.64,1.518,0.987,2.479,0.987c1.229,0,2.487-0.557,3.457-1.529l0.524-0.521
			c0.601,0.133,1.253,0.051,1.824-0.291l0.352-0.215c0.981-0.59,1.404-1.744,1.126-2.8l0.255-0.257
			c0.801,0.622,1.927,0.732,2.84,0.184l0.36-0.215c1.184-0.711,1.572-2.264,0.859-3.449l-0.216-0.361l0.269-0.268
			c0.781,0.51,1.818,0.573,2.67,0.061l0.355-0.212c1.187-0.711,1.575-2.267,0.86-3.454l-0.104-0.177l0.344-0.34
			c0.756,0.404,1.699,0.425,2.484-0.046l0.355-0.218c1.182-0.71,1.574-2.264,0.859-3.452l-0.218-0.359
			c0.61-0.988,1.132-2.04,1.416-2.923l0.185-0.563C56.762,33.719,56.09,30.928,54.514,29.349z M54.438,35.307l-0.185,0.559
			c-0.177,0.536-0.453,1.155-0.796,1.775l-0.775-1.3c-0.715-1.187-2.269-1.571-3.453-0.857l-0.354,0.211
			c-1.19,0.713-1.577,2.269-0.86,3.458l1.797,2.992l-0.08,0.08l-1.615-2.691c-0.713-1.186-2.266-1.572-3.452-0.857l-0.353,0.21
			c-1.188,0.714-1.576,2.27-0.861,3.449l2.313,3.858l-0.076,0.08l-0.881-1.463c-0.714-1.188-2.27-1.575-3.458-0.867l-0.351,0.218
			c-1.188,0.708-1.576,2.265-0.863,3.448l1.58,2.637l-0.049,0.047l-0.296-0.488c-0.709-1.188-2.265-1.576-3.45-0.861l-0.354,0.209
			c-1.187,0.714-1.574,2.272-0.863,3.457l0.86,1.432c0.045,0.077,0.103,0.134,0.152,0.207l-0.26,0.255
			c-0.669,0.669-1.502,1.022-2.243,1.022c-0.491,0-0.937-0.158-1.266-0.48c-0.411-0.418-0.55-1.035-0.441-1.684
			c0.054-0.309,0.159-0.629,0.324-0.936c0.02-0.037,0.046-0.074,0.069-0.109c0.066-0.116,0.134-0.235,0.219-0.348
			c0.107-0.152,0.234-0.295,0.371-0.434l5.273-5.273l-1.052-1.055l-7.303,7.301c-0.666,0.665-1.501,1.022-2.239,1.022
			c-0.489,0-0.938-0.16-1.265-0.485c-0.817-0.813-0.573-2.395,0.541-3.509l0.245-0.246l0,0l0.176-0.173l6.878-6.88l-1.056-1.055
			l-8.108,8.113c-0.666,0.663-1.503,1.019-2.238,1.019c-0.492,0-0.943-0.156-1.269-0.483c-0.813-0.815-0.57-2.394,0.539-3.503
			l8.112-8.11l-1.057-1.055l-5.275,5.281c-0.666,0.664-1.502,1.019-2.241,1.019c-0.492,0-0.939-0.154-1.267-0.482
			c-0.254-0.253-0.395-0.585-0.449-0.949c-0.042-0.285-0.022-0.586,0.048-0.9c0.007-0.034,0.018-0.074,0.027-0.113
			c0.021-0.087,0.049-0.165,0.076-0.247c0.043-0.118,0.088-0.229,0.146-0.337c0.024-0.052,0.055-0.101,0.083-0.146
			c0.057-0.104,0.118-0.205,0.188-0.305c0.032-0.042,0.058-0.082,0.088-0.124c0.102-0.131,0.208-0.259,0.332-0.381l5.274-5.277
			l-0.508-0.509c-0.27-0.271-0.471-0.58-0.611-0.914l-3.215,1.813c-0.485,0.272-1.026,0.405-1.548,0.405
			c-0.948,0-1.854-0.429-2.356-1.209c-0.775-1.216-0.291-2.842,1.079-3.614l9.441-5.328c0.29,0.377,0.642,0.714,1.065,0.999
			l6.166,4.082c1.839,1.222,4.226,0.88,5.307-0.756c1.085-1.63,0.469-3.966-1.367-5.186l-4.542-3.006
			c0.72-0.403,1.445-0.741,2.069-0.933l0.397-0.124c0.375-0.113,0.782-0.169,1.207-0.169c1.292,0,2.712,0.506,3.551,1.345
			l9.467,9.467C54.417,31.68,54.928,33.813,54.438,35.307z"/>
	</g>
</g>
</svg>
