<?xml version="1.0" encoding="utf-8"?>
<!-- Generator: Adobe Illustrator 16.0.0, SVG Export Plug-In . SVG Version: 6.00 Build 0)  -->
<!DOCTYPE svg PUBLIC "-//W3C//DTD SVG 1.1//EN" "http://www.w3.org/Graphics/SVG/1.1/DTD/svg11.dtd">
<svg version="1.1" id="Слой_1" xmlns="http://www.w3.org/2000/svg" xmlns:xlink="http://www.w3.org/1999/xlink" x="0px" y="0px"
	 width="54px" height="54px" viewBox="0 0 54 54" enable-background="new 0 0 54 54" xml:space="preserve">
<g>
	<g>
		<path fill="#00ADEE" d="M27.003,0.081c-14.871,0-26.922,12.051-26.922,26.916c0,14.864,12.051,26.922,26.922,26.922
			c14.858,0,26.916-12.058,26.916-26.922C53.919,12.132,41.861,0.081,27.003,0.081z M27.003,48.473
			c-11.86,0-21.475-9.615-21.475-21.476c0-11.86,9.615-21.475,21.475-21.475c11.865,0,21.476,9.615,21.476,21.475
			C48.479,38.857,38.868,48.473,27.003,48.473z"/>
		<path fill="#00ADEE" d="M17.458,37.88l-5.413,3.65c0,0-0.18-3.197,4.005-6.208c-3.092-3.61-6.034-14.842,1.425-20.789
			l-1.221-2.128c1.511-0.68,3.471-0.087,4.354,0.25c0.122-0.058,0.262-0.116,0.396-0.174c11.754-4.889,14.428,2.442,14.428,2.442
			l0.6,0.331c0.594,0.326,0.908,0.599,0.814,1c-0.064,0.354-0.529,0.337-0.931,0.256c-0.041-0.006-0.25-0.046-0.722-0.175
			c-0.988-0.285-2.836-0.401-6.377,1.105c-0.576,3.203-3.627,5.186-3.627,5.186L25.096,19.3c-0.61,0.349-1.262,0.732-1.936,1.157
			c-8.255,5.116-6.138,13.417-5.842,14.452c0.837,0.059,4.744,0.46,6.156,2.896L17.458,37.88z M46.023,33.496
			c0.095,0.441,0.088,0.721-0.156,0.854c-0.221,0.123-0.413-0.127-0.54-0.365c-0.013-0.028-0.087-0.151-0.228-0.453
			c-0.285-0.627-1.035-1.641-3.365-2.809c-1.901,1.104-4.256,0.4-4.256,0.4l1.668-1.505c-0.441-0.163-0.924-0.331-1.436-0.5
			c-6.251-2.012-9.616,2.702-10.018,3.313c0.338,0.459,1.836,2.645,1.197,4.44l-2.668-3.07l-4.25-1.19c0,0,1.576-1.488,4.959-0.65
			c0.511-3.18,5.016-9.61,11.346-8.354l0.57-1.564c1.006,0.482,1.559,1.75,1.768,2.354c0.094,0.041,0.175,0.087,0.263,0.128
			c7.661,3.93,5.052,8.517,5.052,8.517L46.023,33.496z"/>
	</g>
</g>
</svg>
