<?xml version="1.0" encoding="utf-8"?>
<!-- Generator: Adobe Illustrator 16.0.0, SVG Export Plug-In . SVG Version: 6.00 Build 0)  -->
<!DOCTYPE svg PUBLIC "-//W3C//DTD SVG 1.1//EN" "http://www.w3.org/Graphics/SVG/1.1/DTD/svg11.dtd">
<svg version="1.1" id="Слой_1" xmlns="http://www.w3.org/2000/svg" xmlns:xlink="http://www.w3.org/1999/xlink" x="0px" y="0px"
	 width="54px" height="54px" viewBox="0 0 54 54" enable-background="new 0 0 54 54" xml:space="preserve">
<g>
	<g>
		<g>
			<path fill="#00A551" d="M27.003,0.081c-14.871,0-26.922,12.051-26.922,26.916c0,14.864,12.051,26.922,26.922,26.922
				c14.858,0,26.916-12.058,26.916-26.922C53.919,12.132,41.861,0.081,27.003,0.081z M27.003,48.473
				c-11.86,0-21.475-9.615-21.475-21.476c0-11.86,9.615-21.475,21.475-21.475c11.865,0,21.476,9.615,21.476,21.475
				C48.479,38.857,38.868,48.473,27.003,48.473z"/>
		</g>
	</g>
	<path fill="#00A551" d="M29.468,23.18c-0.394,1.343-1.806,2.11-3.148,1.707c-1.338-0.397-2.099-1.805-1.701-3.143
		c0.392-1.343,1.799-2.11,3.148-1.712C29.105,20.43,29.877,21.836,29.468,23.18z M37.568,19.692
		c-2.231-0.537-3.426-2.745-2.658-4.901c0.756-2.156-0.219-2.946-2.168-1.753c-1.954,1.194-4.358,0.479-5.345-1.58
		c-0.986-2.07-2.237-1.938-2.773,0.288s-2.739,3.419-4.89,2.658c-2.162-0.755-2.952,0.22-1.758,2.168
		c1.188,1.949,0.479,4.359-1.591,5.339c-2.053,0.992-1.926,2.237,0.3,2.773c2.22,0.536,3.414,2.744,2.652,4.9
		c-0.761,2.156,0.213,2.947,2.174,1.754c0.721-0.443,1.505-0.623,2.254-0.564l-1.787,6.06c-0.075-0.194-0.156-0.392-0.254-0.582
		c-0.975-1.793-6.838-4.838-6.838-4.838s-0.646,6.573,0.329,8.367c0.98,1.805,3.235,2.467,5.022,1.491
		c0.185-0.104,0.363-0.225,0.537-0.356l-0.79,2.646l1.499,0.451l0.784-2.652c0.069,0.201,0.15,0.396,0.248,0.589
		c0.98,1.793,3.223,2.461,5.022,1.487c1.799-0.979,4.837-6.84,4.837-6.84s-6.579-0.645-8.366,0.33
		c-0.196,0.104-0.369,0.225-0.536,0.357l1.793-6.072c0.657,0.369,1.222,0.945,1.591,1.707c0.986,2.064,2.231,1.938,2.768-0.289
		c0.536-2.219,2.739-3.418,4.896-2.658c2.162,0.762,2.953-0.213,1.754-2.166c-1.193-1.95-0.479-4.354,1.584-5.346
		C39.921,21.474,39.794,20.228,37.568,19.692z M32.8,23.872c-0.928,3.131-4.221,4.918-7.363,3.991
		c-3.131-0.924-4.918-4.222-3.99-7.358c0.934-3.131,4.215-4.918,7.364-3.996C31.945,17.443,33.729,20.735,32.8,23.872z"/>
</g>
</svg>
