<?xml version="1.0" encoding="utf-8"?>
<!-- Generator: Adobe Illustrator 16.0.0, SVG Export Plug-In . SVG Version: 6.00 Build 0)  -->
<!DOCTYPE svg PUBLIC "-//W3C//DTD SVG 1.1//EN" "http://www.w3.org/Graphics/SVG/1.1/DTD/svg11.dtd">
<svg version="1.1" id="Слой_1" xmlns="http://www.w3.org/2000/svg" xmlns:xlink="http://www.w3.org/1999/xlink" x="0px" y="0px"
	 width="54px" height="54px" viewBox="0 0 54 54" enable-background="new 0 0 54 54" xml:space="preserve">
<g>
	<path fill="#0068B3" d="M27.003-0.002c-14.917,0-27.005,12.088-27.005,26.999s12.088,27.005,27.005,27.005
		c14.905,0,26.999-12.094,26.999-27.005S41.908-0.002,27.003-0.002z M27.003,48.538c-11.896,0-21.541-9.646-21.541-21.541
		c0-11.89,9.645-21.541,21.541-21.541c11.901,0,21.541,9.651,21.541,21.541C48.544,38.893,38.904,48.538,27.003,48.538z"/>
	<path fill="#0068B3" d="M27.959,8.04v3.645h-5.324L27.959,8.04z M34.747,12.984c-3.056,0-3.097,0-6.152,0
		c1.476,2.875,0.304,6.286-1.16,9.161c3.062,0,6.111,0,9.167,0C38.07,19.271,36.502,14.564,34.747,12.984z M36.602,32.32
		c0,0-1.336-0.047-4.041,0.158c-2.688,0.197-5.125,0.529-5.125,0.529c1.463-2.874,1.463-6.286,0-9.167c3.062,0,6.111,0,9.167,0
		C38.07,26.723,38.07,29.445,36.602,32.32z M25.638,22.146c-3.049,0-6.105,0-9.161,0c0,0,4.012-3.942,4.012-9.161
		c3.056,0,3.196,0,6.251,0C28.209,15.859,27.108,19.271,25.638,22.146z M25.638,33.009c0,0-2.787,0.222-5.989,0.735
		c-3.178,0.507-6.023,1.189-6.023,1.189c2.269-3.149,4.321-8.21,2.852-11.092c3.056,0,6.111,0,9.161,0
		C27.108,26.723,27.108,30.135,25.638,33.009z M42.678,35.482L42.678,35.482l2.432-1.641c0,0-10.338,0.123-19.372,1.108
		c-9.05,0.985-13.966,2.53-13.966,2.53l1.207,2.561c0,0,4.694-1.189,12.473-1.189c4.128,0,7.854,0.637,9.541,0.979l2.524,0.63
		c0,0,0.344-1.639,4.432-4.484L42.678,35.482L42.678,35.482z"/>
</g>
</svg>
