<?xml version="1.0" encoding="utf-8"?>
<!-- Generator: Adobe Illustrator 16.0.0, SVG Export Plug-In . SVG Version: 6.00 Build 0)  -->
<!DOCTYPE svg PUBLIC "-//W3C//DTD SVG 1.1//EN" "http://www.w3.org/Graphics/SVG/1.1/DTD/svg11.dtd">
<svg version="1.1" id="Слой_1" xmlns="http://www.w3.org/2000/svg" xmlns:xlink="http://www.w3.org/1999/xlink" x="0px" y="0px"
	 width="54px" height="54px" viewBox="0 0 54 54" enable-background="new 0 0 54 54" xml:space="preserve">
<g>
	<path fill="#F58A1F" d="M27.003,0.041C12.108,0.041,0.038,12.111,0.038,27c0,14.889,12.07,26.959,26.965,26.959
		c14.883,0,26.959-12.07,26.959-26.959C53.962,12.111,41.886,0.041,27.003,0.041z M27.003,48.509
		C15.125,48.509,5.494,38.878,5.494,27s9.63-21.509,21.509-21.509c11.884,0,21.509,9.63,21.509,21.509
		C48.512,38.878,38.887,48.509,27.003,48.509z"/>
	<path fill="#F58A1F" d="M38.738,15.553c-1.375-0.28-1.643,2.48-1.643,2.48l-1.396,7.697c-0.245-0.064-0.502-0.122-0.77-0.18
		l-0.308-12.268c0,0,0.104-2.218-1.421-2.289c-1.403-0.07-1.258,2.702-1.258,2.702l-0.401,11.389
		c-0.245-0.006-0.466-0.012-0.705-0.018l-1.438-12.733c0,0-0.104-2.218-1.619-2.154c-1.396,0.058-1.006,2.807-1.006,2.807
		l0.786,12.419c-0.418,0.093-0.844,0.216-1.25,0.361l-2.9-10.889c0,0-0.39-2.189-1.886-1.921c-1.38,0.239-0.635,2.912-0.635,2.912
		l2.341,11.651l0,0l-0.67,5.537l-4.676-6.255c0,0-1.945-2.288-3.313-1.467c-1.363,0.821,0.966,3.349,0.966,3.349l5.904,10.387
		c0,0,3.214,5.625,9.87,4.636c6.648-0.983,8.676-4.297,8.123-8.047l-0.75-8.793l1.116-8.839
		C39.798,18.027,40.234,15.85,38.738,15.553z M31.441,39.646c0,0-7.021-3.406-6.475-6.795c0.524-3.33,4.188-2.248,5.246-1.479
		c0.786-1.043,3.966-3.14,5.438-0.104C37.154,34.35,31.441,39.646,31.441,39.646z"/>
</g>
</svg>
