<?xml version="1.0" encoding="utf-8"?>
<!-- Generator: Adobe Illustrator 16.0.0, SVG Export Plug-In . SVG Version: 6.00 Build 0)  -->
<!DOCTYPE svg PUBLIC "-//W3C//DTD SVG 1.1//EN" "http://www.w3.org/Graphics/SVG/1.1/DTD/svg11.dtd">
<svg version="1.1" id="Слой_1" xmlns="http://www.w3.org/2000/svg" xmlns:xlink="http://www.w3.org/1999/xlink" x="0px" y="0px"
	 width="65px" height="65px" viewBox="15 0.5 65 65" enable-background="new 15 0.5 65 65" xml:space="preserve">
<g>
	<g>
		<polygon fill="#231F20" points="58.026,40.205 51.533,46.698 51.533,40.205 		"/>
	</g>
	<g>
		<path fill="#231F20" d="M35.905,18.232v29.536H50.02v-8.319c0-0.418,0.339-0.757,0.756-0.757h8.319v-20.46H35.905z M40.253,22.457
			h8.886c0.418,0,0.756,0.338,0.756,0.756s-0.338,0.756-0.756,0.756h-8.886c-0.418,0-0.756-0.338-0.756-0.756
			S39.835,22.457,40.253,22.457z M46.428,34.935h-6.174c-0.418,0-0.756-0.338-0.756-0.756s0.338-0.756,0.756-0.756h6.174
			c0.418,0,0.756,0.338,0.756,0.756S46.846,34.935,46.428,34.935z M55.001,31.281H40.253c-0.418,0-0.756-0.338-0.756-0.756
			s0.338-0.756,0.756-0.756h14.748c0.418,0,0.756,0.338,0.756,0.756S55.419,31.281,55.001,31.281z M55.001,27.623H40.253
			c-0.418,0-0.756-0.338-0.756-0.756c0-0.418,0.338-0.756,0.756-0.756h14.748c0.418,0,0.756,0.338,0.756,0.756
			C55.757,27.285,55.419,27.623,55.001,27.623z"/>
	</g>
	<g>
		<path d="M47.5,65.37c-17.849,0-32.37-14.521-32.37-32.37c0-17.849,14.521-32.37,32.37-32.37c17.849,0,32.37,14.521,32.37,32.37
			C79.87,50.849,65.349,65.37,47.5,65.37z M47.5,5.167C32.153,5.167,19.667,17.653,19.667,33c0,15.347,12.485,27.833,27.833,27.833
			c15.347,0,27.833-12.486,27.833-27.833C75.333,17.653,62.847,5.167,47.5,5.167z"/>
	</g>
</g>
</svg>
