<?xml version="1.0" encoding="utf-8"?>
<!-- Generator: Adobe Illustrator 16.0.0, SVG Export Plug-In . SVG Version: 6.00 Build 0)  -->
<!DOCTYPE svg PUBLIC "-//W3C//DTD SVG 1.1//EN" "http://www.w3.org/Graphics/SVG/1.1/DTD/svg11.dtd">
<svg version="1.1" id="Слой_1" xmlns="http://www.w3.org/2000/svg" xmlns:xlink="http://www.w3.org/1999/xlink" x="0px" y="0px"
	 width="65px" height="65px" viewBox="15 0.5 65 65" enable-background="new 15 0.5 65 65" xml:space="preserve">
<g>
	<g>
		<g>
			<g>
				<path fill="#231F20" d="M41.77,31.293c-3.202,0-5.808-2.952-5.808-6.579c0-3.628,2.606-6.58,5.808-6.58
					c3.201,0,5.805,2.952,5.805,6.58C47.575,28.341,44.971,31.293,41.77,31.293L41.77,31.293z"/>
			</g>
		</g>
		<g>
			<g>
				<path fill="#231F20" d="M51.371,47.865H31.916c-0.396,0-0.726-0.307-0.754-0.703l-0.428-6.276
					c-0.139-2.079,1.483-4.477,3.543-5.239c4.751-1.701,9.99-1.698,14.727-0.002c2.073,0.765,3.694,3.164,3.549,5.243l-0.428,6.274
					C52.097,47.559,51.768,47.865,51.371,47.865L51.371,47.865z M32.621,46.354h18.044l0.38-5.572
					c0.09-1.277-0.983-3.138-2.557-3.718c-4.396-1.573-9.287-1.576-13.695,0.001c-1.562,0.577-2.638,2.44-2.552,3.719L32.621,46.354
					L32.621,46.354z"/>
			</g>
		</g>
		<g>
			<g>
				<path fill="#231F20" d="M51.371,47.865H31.916c-0.396,0-0.726-0.307-0.754-0.703l-0.428-6.276
					c-0.139-2.079,1.483-4.477,3.543-5.239c4.751-1.701,9.99-1.698,14.727-0.002c2.073,0.765,3.694,3.164,3.549,5.243l-0.428,6.274
					C52.097,47.559,51.768,47.865,51.371,47.865L51.371,47.865z"/>
			</g>
		</g>
		<g>
			<g>
				<path fill="#231F20" d="M63.141,47.865h-7.747c-0.418,0-0.756-0.338-0.756-0.755c0-0.418,0.338-0.756,0.756-0.756h7.042
					l0.323-4.716c0.071-1.047-0.848-2.632-2.144-3.108c-1.775-0.634-3.643-0.975-5.545-1.008c-0.418-0.007-0.75-0.352-0.742-0.769
					c0.007-0.416,0.337-0.711,0.769-0.742c2.067,0.037,4.097,0.405,6.034,1.099c1.83,0.674,3.263,2.795,3.136,4.631l-0.372,5.422
					C63.866,47.559,63.538,47.865,63.141,47.865L63.141,47.865z"/>
			</g>
		</g>
		<g>
			<g>
				<path fill="#231F20" d="M57.179,32.886c-2.59,0-4.695-2.375-4.695-5.294c0-2.92,2.105-5.296,4.695-5.296
					c2.587,0,4.692,2.375,4.692,5.296C61.871,30.511,59.766,32.886,57.179,32.886L57.179,32.886z"/>
			</g>
		</g>
	</g>
	<g>
		<path d="M47.5,65.339c-17.832,0-32.339-14.508-32.339-32.339c0-17.832,14.507-32.339,32.339-32.339
			c17.831,0,32.339,14.507,32.339,32.339C79.839,50.831,65.331,65.339,47.5,65.339z M47.5,5.194
			C32.168,5.194,19.694,17.668,19.694,33S32.168,60.806,47.5,60.806S75.306,48.332,75.306,33S62.832,5.194,47.5,5.194z"/>
	</g>
</g>
</svg>
