<?xml version="1.0" encoding="utf-8"?>
<!-- Generator: Adobe Illustrator 16.0.0, SVG Export Plug-In . SVG Version: 6.00 Build 0)  -->
<!DOCTYPE svg PUBLIC "-//W3C//DTD SVG 1.1//EN" "http://www.w3.org/Graphics/SVG/1.1/DTD/svg11.dtd">
<svg version="1.1" id="Слой_1" xmlns="http://www.w3.org/2000/svg" xmlns:xlink="http://www.w3.org/1999/xlink" x="0px" y="0px"
	 width="65px" height="65px" viewBox="15 0.5 65 65" enable-background="new 15 0.5 65 65" xml:space="preserve">
<g>
	<g>
		<g>
			<g>
				<path fill="#231F20" d="M47.627,31.29c-3.207,0-5.817-2.956-5.817-6.589c0-3.634,2.61-6.59,5.817-6.59
					c3.208,0,5.814,2.957,5.814,6.59C53.441,28.334,50.835,31.29,47.627,31.29L47.627,31.29z"/>
			</g>
		</g>
		<g>
			<g>
				<path fill="#231F20" d="M57.243,47.891H37.757c-0.396,0-0.728-0.308-0.754-0.706l-0.429-6.286
					c-0.139-2.082,1.484-4.484,3.547-5.248c4.759-1.703,10.006-1.7,14.75-0.002c2.079,0.766,3.701,3.17,3.557,5.251L58,47.185
					C57.971,47.583,57.643,47.891,57.243,47.891L57.243,47.891z M38.463,46.376h18.074l0.381-5.581
					c0.089-1.279-0.983-3.144-2.561-3.724c-4.404-1.577-9.302-1.58-13.718,0.001c-1.564,0.577-2.64,2.444-2.554,3.724L38.463,46.376
					L38.463,46.376z"/>
			</g>
		</g>
		<g>
			<g>
				<path fill="#231F20" d="M57.243,47.891H37.757c-0.396,0-0.728-0.308-0.754-0.706l-0.429-6.286
					c-0.139-2.082,1.484-4.484,3.547-5.248c4.759-1.703,10.006-1.7,14.75-0.002c2.079,0.766,3.701,3.17,3.557,5.251L58,47.185
					C57.971,47.583,57.643,47.891,57.243,47.891L57.243,47.891z"/>
			</g>
		</g>
	</g>
	<g>
		<path d="M47.501,65.392c-17.861,0-32.393-14.53-32.393-32.392c0-17.861,14.532-32.392,32.393-32.392
			c17.86,0,32.39,14.531,32.39,32.392C79.892,50.861,65.361,65.392,47.501,65.392z M47.501,5.149
			C32.144,5.149,19.649,17.643,19.649,33c0,15.357,12.495,27.852,27.853,27.852c15.356,0,27.85-12.494,27.85-27.852
			C75.352,17.643,62.857,5.149,47.501,5.149z"/>
	</g>
</g>
</svg>
