<?xml version="1.0" encoding="utf-8"?>
<!-- Generator: Adobe Illustrator 16.0.0, SVG Export Plug-In . SVG Version: 6.00 Build 0)  -->
<!DOCTYPE svg PUBLIC "-//W3C//DTD SVG 1.1//EN" "http://www.w3.org/Graphics/SVG/1.1/DTD/svg11.dtd">
<svg version="1.1" id="Слой_1" xmlns="http://www.w3.org/2000/svg" xmlns:xlink="http://www.w3.org/1999/xlink" x="0px" y="0px"
	 width="95px" height="66px" viewBox="0 0 95 66" enable-background="new 0 0 95 66" xml:space="preserve">
<g>
	<path fill="#255DA7" d="M80.754,56.163c-2.715,0-4.924,2.187-4.924,4.873c0,2.686,2.209,4.872,4.924,4.872s4.924-2.187,4.924-4.872
		C85.678,58.35,83.469,56.163,80.754,56.163 M80.754,64.025c-1.668,0-3.021-1.337-3.021-2.989c0-1.65,1.354-2.988,3.021-2.988
		s3.021,1.338,3.021,2.988C83.775,62.688,82.422,64.025,80.754,64.025"/>
	<path fill="#255DA7" d="M45.938,56.163c-2.715,0-4.924,2.187-4.924,4.873c0,2.686,2.209,4.872,4.924,4.872s4.924-2.187,4.924-4.872
		C50.862,58.35,48.653,56.163,45.938,56.163 M45.938,64.025c-1.668,0-3.021-1.337-3.021-2.989c0-1.65,1.353-2.988,3.021-2.988
		s3.021,1.338,3.021,2.988C48.96,62.688,47.606,64.025,45.938,64.025"/>
	<path fill="#255DA7" d="M56.876,56.163c-2.715,0-4.924,2.187-4.924,4.873c0,2.686,2.209,4.872,4.924,4.872s4.924-2.187,4.924-4.872
		C61.8,58.35,59.591,56.163,56.876,56.163 M56.876,64.025c-1.668,0-3.021-1.337-3.021-2.989c0-1.65,1.354-2.988,3.021-2.988
		s3.021,1.338,3.021,2.988C59.896,62.688,58.544,64.025,56.876,64.025"/>
	<path fill="#255DA7" d="M1.066,54.451v6.235h1.427c0.185-2.824,2.557-5.063,5.455-5.063c2.897,0,5.269,2.239,5.454,5.063h0.028
		c0.185-2.824,2.557-5.063,5.455-5.063c2.897,0,5.269,2.239,5.453,5.063h15.726v-6.235H1.066z M3.484,56.619H2.313
		c-0.335,0-0.607-0.347-0.607-0.678c0-0.332,0.272-0.678,0.607-0.678h1.171c0.335,0,0.607,0.346,0.607,0.678
		C4.091,56.272,3.819,56.619,3.484,56.619 M35.63,59.6h-1.171c-0.335,0-0.607-0.21-0.607-0.541c0-0.332,0.272-0.543,0.607-0.543
		h1.171c0.335,0,0.608,0.211,0.608,0.543C36.238,59.39,35.965,59.6,35.63,59.6"/>
	<path fill="#255DA7" d="M7.948,56.163c-2.715,0-4.924,2.187-4.924,4.873c0,2.686,2.209,4.872,4.924,4.872
		c2.715,0,4.924-2.187,4.924-4.872C12.872,58.35,10.663,56.163,7.948,56.163 M7.948,64.025c-1.668,0-3.021-1.337-3.021-2.989
		c0-1.65,1.353-2.988,3.021-2.988s3.021,1.338,3.021,2.988C10.969,62.688,9.616,64.025,7.948,64.025"/>
	<path fill="#255DA7" d="M18.885,56.163c-2.715,0-4.924,2.187-4.924,4.873c0,2.686,2.209,4.872,4.924,4.872s4.924-2.187,4.924-4.872
		C23.809,58.35,21.6,56.163,18.885,56.163 M18.885,64.025c-1.668,0-3.021-1.337-3.021-2.989c0-1.65,1.353-2.988,3.021-2.988
		s3.021,1.338,3.021,2.988C21.906,62.688,20.553,64.025,18.885,64.025"/>
	<path fill="#255DA7" d="M80.754,59.893c-0.639,0-1.157,0.513-1.157,1.144c0,0.632,0.519,1.146,1.157,1.146s1.156-0.515,1.156-1.146
		C81.91,60.405,81.393,59.893,80.754,59.893"/>
	<path fill="#255DA7" d="M45.938,59.893c-0.638,0-1.157,0.513-1.157,1.144c0,0.632,0.519,1.146,1.157,1.146
		c0.638,0,1.157-0.515,1.157-1.146C47.096,60.405,46.577,59.893,45.938,59.893"/>
	<path fill="#255DA7" d="M56.876,59.893c-0.638,0-1.157,0.513-1.157,1.144c0,0.632,0.52,1.146,1.157,1.146s1.156-0.515,1.156-1.146
		C58.032,60.405,57.514,59.893,56.876,59.893"/>
	<path fill="#255DA7" d="M7.948,59.893c-0.638,0-1.157,0.513-1.157,1.144c0,0.632,0.519,1.146,1.157,1.146
		c0.638,0,1.156-0.515,1.156-1.146C9.104,60.405,8.586,59.893,7.948,59.893"/>
	<path fill="#255DA7" d="M18.885,59.893c-0.638,0-1.157,0.513-1.157,1.144c0,0.632,0.519,1.146,1.157,1.146
		c0.638,0,1.157-0.515,1.157-1.146C20.042,60.405,19.523,59.893,18.885,59.893"/>
	<polygon fill="#255DA7" points="92.234,48.991 90.77,48.991 90.77,45.033 90.816,45.033 	"/>
	<g>
		<path fill="#255DA7" d="M1.066,34.119v1.906c0,0.667,0.276,1.076,1.035,1.076h1.54l4.943,12.74H2.101
			c-0.759,0-1.035,0.701-1.035,1.366v1.887h72.597v-1.887c0-0.665-0.665-1.366-1.338-1.366h-4.769l4.943-12.74h15.168
			c0.672,0,1.336-0.409,1.336-1.076v-1.906H1.066z M41.388,37.102l4.943,12.74H29.81l4.943-12.74H41.388z M10.493,37.102h17.408
			l-4.943,12.74h-7.522L10.493,37.102z M60.705,49.842h-7.521l-4.943-12.74h17.408L60.705,49.842z"/>
		<path fill="#255DA7" d="M1.483,31.129l1.122,0.136c-0.089-0.532-0.067-1.081,0.071-1.618c0.263-1.027,0.914-1.89,1.833-2.432
			c0.632-0.373,1.353-0.565,2.085-0.559C8.006,26.67,9.279,27.394,10,28.594c0.548,0.91,0.704,1.976,0.441,3.002
			c-0.021,0.083-0.046,0.165-0.073,0.246c4.096,0.049,11.221,0.135,16.894,0.203c-0.223-0.696-0.248-1.44-0.062-2.166
			c0.264-1.027,0.915-1.889,1.834-2.43c0.632-0.373,1.353-0.566,2.085-0.559c1.412,0.013,2.685,0.736,3.406,1.937
			c0.548,0.91,0.704,1.976,0.441,3.001c-0.027,0.104-0.058,0.205-0.093,0.306c0.425,0.005,0.723,0.008,0.862,0.01
			c1.773,0.016,2.432-3.452,1.042-5.271c-1.39-1.82-7.787-2.293-8.478-2.3c0,0-4.582-4.292-12.804-4.371
			C9.496,20.146,4.892,22.2,2.842,23.314c-0.76,0.412-1.214,0.609-1.226,1.848c-0.012,1.239-0.033,1.883-0.033,1.883
			c-0.691-0.006-1.318,0.551-1.324,1.235l-0.016,1.601C0.237,30.563,0.791,31.123,1.483,31.129 M6.589,23.462
			c0.654-0.979,3.081-2.432,8.709-2.378c6.025,0.057,9.509,2.216,10.896,3.363c0.446,0.369,0.053,0.578-0.358,0.574
			C25.425,25.018,8.079,24.2,7.253,24.192C6.427,24.185,6.318,23.868,6.589,23.462"/>
		<path fill="#255DA7" d="M31.113,27.509c-0.617-0.006-1.226,0.157-1.758,0.472c-0.776,0.456-1.325,1.185-1.548,2.051
			c-0.222,0.866-0.09,1.767,0.372,2.533c0.609,1.011,1.683,1.625,2.874,1.635c0.618,0.006,1.226-0.157,1.759-0.472
			c0.776-0.457,1.325-1.184,1.547-2.05c0.222-0.867,0.09-1.767-0.371-2.534C33.379,28.131,32.305,27.521,31.113,27.509
			 M32.742,31.27c-0.113,0.439-0.391,0.809-0.783,1.039c-0.27,0.159-0.578,0.24-0.89,0.239c-0.604-0.006-1.148-0.315-1.456-0.827
			c-0.234-0.389-0.301-0.845-0.188-1.284c0.112-0.438,0.39-0.807,0.783-1.038c0.27-0.157,0.577-0.241,0.889-0.237
			c0.604,0.004,1.149,0.314,1.457,0.828C32.787,30.376,32.854,30.832,32.742,31.27"/>
		<path fill="#255DA7" d="M6.588,27.276c-0.617-0.006-1.225,0.156-1.758,0.471c-0.776,0.456-1.325,1.185-1.548,2.052
			c-0.222,0.866-0.09,1.765,0.372,2.533c0.609,1.012,1.683,1.621,2.874,1.635c0.618,0.006,1.226-0.159,1.759-0.473
			c0.776-0.456,1.325-1.185,1.547-2.05c0.223-0.867,0.09-1.767-0.371-2.534C8.854,27.899,7.78,27.286,6.588,27.276 M8.217,31.038
			c-0.112,0.438-0.391,0.807-0.783,1.038c-0.27,0.158-0.578,0.241-0.889,0.237c-0.604-0.005-1.149-0.314-1.457-0.827
			c-0.234-0.389-0.301-0.844-0.188-1.282c0.112-0.438,0.391-0.807,0.783-1.039c0.27-0.158,0.578-0.241,0.889-0.238
			c0.604,0.007,1.149,0.316,1.457,0.828C8.263,30.144,8.329,30.6,8.217,31.038"/>
		<path fill="#255DA7" d="M42.807,31.438l1.122,0.136c-0.089-0.532-0.067-1.081,0.071-1.618c0.263-1.028,0.914-1.891,1.833-2.432
			c0.632-0.373,1.353-0.565,2.085-0.559c1.413,0.014,2.685,0.737,3.407,1.937c0.548,0.91,0.704,1.977,0.44,3.002
			c-0.021,0.084-0.046,0.166-0.073,0.247c4.097,0.05,11.222,0.135,16.895,0.203c-0.223-0.697-0.248-1.441-0.062-2.167
			c0.263-1.026,0.914-1.888,1.833-2.429c0.633-0.374,1.354-0.566,2.085-0.559c1.412,0.012,2.685,0.736,3.406,1.937
			c0.548,0.91,0.704,1.975,0.44,3.001c-0.026,0.104-0.058,0.205-0.092,0.306c0.424,0.005,0.723,0.008,0.861,0.01
			c1.773,0.015,2.432-3.452,1.042-5.271c-1.39-1.82-7.787-2.294-8.478-2.3c0,0-4.582-4.293-12.804-4.372
			c-5.999-0.057-10.604,1.999-12.654,3.112c-0.76,0.413-1.214,0.61-1.226,1.85c-0.012,1.238-0.033,1.882-0.033,1.882
			c-0.691-0.006-1.318,0.551-1.324,1.235l-0.016,1.599C41.561,30.873,42.115,31.433,42.807,31.438 M47.913,23.771
			c0.654-0.98,3.082-2.432,8.709-2.379c6.024,0.058,9.509,2.216,10.896,3.364c0.445,0.369,0.053,0.578-0.357,0.574
			c-0.411-0.004-17.757-0.821-18.583-0.829C47.75,24.494,47.642,24.177,47.913,23.771"/>
		<path fill="#255DA7" d="M72.437,27.818c-0.617-0.006-1.226,0.156-1.759,0.472c-0.775,0.456-1.324,1.185-1.547,2.05
			c-0.223,0.866-0.09,1.766,0.371,2.534c0.609,1.011,1.684,1.622,2.875,1.634c0.617,0.006,1.226-0.156,1.758-0.472
			c0.776-0.457,1.326-1.184,1.547-2.049c0.223-0.868,0.091-1.767-0.37-2.535C74.702,28.44,73.629,27.83,72.437,27.818
			 M74.065,31.579c-0.113,0.438-0.392,0.808-0.783,1.038c-0.271,0.16-0.578,0.241-0.89,0.239c-0.604-0.006-1.148-0.314-1.456-0.827
			c-0.234-0.388-0.302-0.845-0.188-1.283c0.112-0.438,0.391-0.808,0.783-1.039c0.27-0.158,0.577-0.24,0.889-0.236
			c0.604,0.004,1.149,0.313,1.457,0.827C74.11,30.686,74.178,31.142,74.065,31.579"/>
		<path fill="#255DA7" d="M47.912,27.585c-0.617-0.006-1.225,0.157-1.758,0.471c-0.776,0.457-1.325,1.186-1.548,2.053
			c-0.222,0.866-0.09,1.765,0.372,2.531c0.609,1.013,1.683,1.624,2.874,1.636c0.618,0.006,1.227-0.158,1.759-0.472
			c0.776-0.457,1.325-1.185,1.548-2.051s0.09-1.766-0.371-2.533C50.178,28.208,49.104,27.596,47.912,27.585 M49.541,31.348
			c-0.112,0.438-0.392,0.807-0.783,1.037c-0.271,0.159-0.578,0.242-0.889,0.238c-0.604-0.005-1.149-0.315-1.457-0.827
			c-0.234-0.389-0.301-0.844-0.188-1.282c0.112-0.438,0.391-0.808,0.783-1.039c0.27-0.158,0.578-0.241,0.889-0.238
			c0.604,0.007,1.149,0.315,1.457,0.828C49.587,30.452,49.652,30.908,49.541,31.348"/>
		<path fill="#255DA7" d="M85.83,0.092L71.792,1.42l0.456,4.71l5.734-0.542l-7.729,8.74l-4.095-1.253l-6.041-1.847l-5.806,6.092
			l-0.633,0.663c1.084-0.182,2.214-0.298,3.421-0.298c1.332,0,2.578,0.131,3.76,0.348l0.835-0.875l4.465,1.364l5.803,1.773
			l9.93-11.23l0.479,4.942l4.76-0.45L85.83,0.092z"/>
		<path fill="#255DA7" d="M94.733,49.623l-0.002,0.049c-0.022-3.447-1.381-6.832-2.711-8.769c-0.629-0.914-1.304-2.177-3.036-2.177
			h-11.99l-0.008,0.008c-0.025-0.002-0.051-0.008-0.078-0.008h-0.102c-0.796,0-1.5,0.813-1.5,1.603v0.454v2.066v11.602H38.598v6.235
			h1.887c0.184-2.824,2.556-5.063,5.454-5.063c2.897,0,5.27,2.239,5.454,5.063h0.029c0.184-2.824,2.556-5.063,5.454-5.063
			c2.896,0,5.269,2.239,5.453,5.063H75.3c0.185-2.824,2.557-5.063,5.454-5.063c2.898,0,5.27,2.239,5.455,5.063h0.197h1.262h7.089
			L94.733,49.623z M78.095,40.084H89.42c4.008,2.709,3.879,8.782,3.879,8.782c-12.211-1.614-15.204-1.987-15.204-1.987V40.084z
			 M81.527,53.104h-1.109l-0.469-1.836l-0.039,1.836h-1.055l-0.8-3.164h0.625l0.625,2.368l0.019-1.695h1.035l0.539,1.713v-1.713
			h0.629V53.104z M82.584,53.104h-0.717v-2.028h0.717V53.104z M85.461,53.104h-0.973l-0.863-1.375v1.375h-0.657v-2.028h0.909
			l0.933,1.385l-0.007-1.385h0.658V53.104z M88.34,53.104h-0.973l-0.863-1.381v1.381h-0.657v-2.028h0.911l0.931,1.379l-0.006-1.379
			h0.657V53.104z M90.313,53.104h-1.64l-0.014-2.028h1.651v0.454h-1.065v0.347h0.936v0.447h-0.936v0.334h1.067V53.104z
			 M91.263,53.104h-0.599v-2.028c0,0,1.106,0.018,1.334,0.018c0.263,0,0.404,0.242,0.404,0.481c0,0.205-0.059,0.636-0.449,0.626
			l1.348,1.603h-0.688l-1.246-1.589v-0.229c0,0,0.518,0.139,0.483-0.304c-0.019-0.239-0.585-0.159-0.585-0.159L91.263,53.104z
			 M93.104,59.6h-1.171c-0.335,0-0.606-0.21-0.606-0.541c0-0.332,0.271-0.543,0.606-0.543h1.171c0.335,0,0.607,0.211,0.607,0.543
			C93.711,59.39,93.438,59.6,93.104,59.6"/>
	</g>
</g>
</svg>
