<?xml version="1.0" encoding="utf-8"?>
<!-- Generator: Adobe Illustrator 16.0.0, SVG Export Plug-In . SVG Version: 6.00 Build 0)  -->
<!DOCTYPE svg PUBLIC "-//W3C//DTD SVG 1.1//EN" "http://www.w3.org/Graphics/SVG/1.1/DTD/svg11.dtd">
<svg version="1.1" id="Слой_1" xmlns="http://www.w3.org/2000/svg" xmlns:xlink="http://www.w3.org/1999/xlink" x="0px" y="0px"
	 width="95px" height="66px" viewBox="0 0 95 66" enable-background="new 0 0 95 66" xml:space="preserve">
<g>
	<path fill="#255DA7" d="M39.156,24.729c-0.688,0-1.248,0.559-1.248,1.248c0,0.688,0.56,1.248,1.248,1.248s1.248-0.56,1.248-1.248
		C40.404,25.288,39.845,24.729,39.156,24.729"/>
	<path fill="#255DA7" d="M46.019,35.184c-1.07,0-1.938,0.867-1.938,1.939c0,1.068,0.867,1.936,1.938,1.936s1.938-0.867,1.938-1.936
		C47.956,36.051,47.089,35.184,46.019,35.184"/>
	<path fill="#255DA7" d="M50.975,17.3c-1.875,0-3.397,1.521-3.397,3.396c0,1.876,1.522,3.396,3.397,3.396s3.396-1.521,3.396-3.396
		C54.371,18.821,52.85,17.3,50.975,17.3"/>
	<path fill="#255DA7" d="M55.336,35.373c-0.689,0-1.248,0.561-1.248,1.248c0,0.689,0.559,1.248,1.248,1.248
		c0.688,0,1.248-0.559,1.248-1.248C56.584,35.934,56.023,35.373,55.336,35.373"/>
	<path fill="#255DA7" d="M31.499,16.26c-0.92,0-1.664,0.745-1.664,1.664s0.744,1.664,1.664,1.664c0.918,0,1.663-0.745,1.663-1.664
		S32.417,16.26,31.499,16.26"/>
	<path fill="#255DA7" d="M23.417,22.043c-1.07,0-1.938,0.866-1.938,1.938c0,1.07,0.868,1.938,1.938,1.938
		c1.069,0,1.938-0.867,1.938-1.938C25.354,22.909,24.486,22.043,23.417,22.043"/>
	<path fill="#255DA7" d="M77.199,25.316c-0.688,0-1.248,0.559-1.248,1.248c0,0.688,0.561,1.248,1.248,1.248
		c0.689,0,1.248-0.56,1.248-1.248C78.447,25.875,77.889,25.316,77.199,25.316"/>
	<path fill="#255DA7" d="M84.242,28.251l1.234-0.41l-1.367-0.67l0.08-0.603l0.797-0.688L85,25.869l0.084-3.142v-0.028l-7.889-1.985
		l-4.047-1.981l-0.016-0.008l-2.625,1.479l-2.738-1.079l-3.037-3.453l-0.006-0.008l-4.344-1.53l-0.549-2.082l1.07-1.041
		l-3.008-3.682l-0.01-0.013h-1.111l-4.158,0.726l-0.023,0.005l-0.25,0.974l-5.333,0.501l-0.023,0.001l-1.607,4.96L44.325,13.4
		l-3.424-0.447l-0.004-0.028l-0.049,0.006l0.002,0.016l-8.459-1.105L32.14,11.2l-6.519-1.678l-0.005-0.002l-4.691,0.028h-0.017
		l-1.142,1.254l-1.489-0.139l-0.021-0.002l-0.47,0.646l0.259,0.855l1.432,3.746h-0.578l0.314,1.549v0.426l-6.601,5.903l-0.007,0.006
		l-0.866,2.654l-2.204,4.046l-0.013,0.023l2.659,2.801l0.029,0.575l7.381,0.728l1.248,1.635l0.014,0.02l6.08-1.877l0.016-0.006
		l0.307-0.696l4.746-1.111l1.631,0.028l1.139,1.165l1.408,0.987l1.199-0.252l2.008,1.432l-0.111,3.133v0.018L41,40.404l-0.251,0.781
		l0.395,0.309l-0.082,0.725l1.533,1.395l-0.222,1.324l0.066,0.475l-3.989-0.258l-0.025-0.002l-2.654,6.201L34.618,51.6l-0.052,0.012
		l0.67,1.021l0.008,0.012l1.94,0.449l0.005,0.002l0.675-0.029l2.365-0.973l0.767,0.465l0.031,0.02l1.08-1.846l0.007-0.012
		l-0.137-0.547l1.4-0.818v0.445l1.151-1.209l0.01-0.01l0.056-0.936l0.002-0.016l-0.424-0.406l-0.022-0.4l0.942,0.848l0.035,0.031
		l1.438-2.875l1.511-0.465l0.877,0.246l2.906,1.303l-1.299,0.492l8.197,1.361l0.025,0.004l0.137-0.273l0.02,0.025l0.018-0.014
		l0.078,0.123l0.141,0.363l0.398,0.563l-5.129,3.188l-0.016,0.012v1.086l2.141,0.141l0.646,0.674l0.893-0.168l0.869,0.703
		l0.053,2.781l-0.779,0.463l1.576,1.232l0.02,0.016l5.754-3.242l0.68,0.256l1.484-2.072l4.025,0.166l0.025,0.002l1.07-2.197
		l0.018-0.039l-1.771-0.486l-0.016-0.004l-0.834,0.473l-1.043-0.393l-0.646,0.928l-1.301,0.053l-2.85-4.813l1.619-1.867l0.299-0.023
		l0.262,0.408l0.922-0.863l6.324-3.176l1.277-0.168l0.016-0.002l0.977-1.365l2.832-0.422l0.279-3.418l2.293-1.879l0.297,0.027
		l2.762-0.139h0.027l0.787-3.209l0.006-0.016l-1.34-2.094L84.242,28.251z M23.416,29.171c0,0-2.836-2.987-2.836-5.005
		s1.271-3.062,2.836-3.062c1.566,0,2.837,1.044,2.837,3.062S23.416,29.171,23.416,29.171 M31.498,22.381
		c0,0-2.435-2.565-2.435-4.298c0-1.731,1.09-2.629,2.435-2.629s2.435,0.897,2.435,2.629C33.933,19.815,31.498,22.381,31.498,22.381
		 M39.156,29.319c0,0-1.827-1.923-1.827-3.223c0-1.299,0.818-1.972,1.827-1.972s1.826,0.673,1.826,1.972
		C40.982,27.396,39.156,29.319,39.156,29.319 M46.019,42.313c0,0-2.836-2.988-2.836-5.004c0-2.02,1.27-3.063,2.836-3.063
		s2.837,1.043,2.837,3.063C48.855,39.324,46.019,42.313,46.019,42.313 M50.975,29.793c0,0-4.972-5.234-4.972-8.771
		c0-3.537,2.226-5.367,4.972-5.367s4.971,1.83,4.971,5.367C55.945,24.559,50.975,29.793,50.975,29.793 M55.334,39.965
		c0,0-1.824-1.924-1.824-3.223c0-1.301,0.816-1.973,1.824-1.973c1.01,0,1.828,0.672,1.828,1.973
		C57.162,38.041,55.334,39.965,55.334,39.965 M59.801,21.756c0-1.301,0.816-1.973,1.826-1.973c1.008,0,1.826,0.672,1.826,1.973
		c0,1.299-1.826,3.222-1.826,3.222S59.801,23.055,59.801,21.756 M65.889,39.74c0,0-4.262-4.49-4.262-7.521
		c0-3.032,1.908-4.602,4.262-4.602s4.262,1.569,4.262,4.602C70.15,35.25,65.889,39.74,65.889,39.74 M77.199,29.906
		c0,0-1.826-1.923-1.826-3.223c0-1.299,0.818-1.971,1.826-1.971c1.01,0,1.826,0.672,1.826,1.971
		C79.025,27.983,77.199,29.906,77.199,29.906"/>
	<path fill="#255DA7" d="M65.889,29.028c-1.607,0-2.912,1.303-2.912,2.912c0,1.607,1.305,2.911,2.912,2.911s2.912-1.304,2.912-2.911
		C68.801,30.331,67.496,29.028,65.889,29.028"/>
	<path fill="#255DA7" d="M62.875,21.635c0-0.688-0.559-1.247-1.248-1.247s-1.248,0.559-1.248,1.247c0,0.689,0.559,1.248,1.248,1.248
		S62.875,22.324,62.875,21.635"/>
</g>
</svg>
