<?xml version="1.0" encoding="utf-8"?>
<!-- Generator: Adobe Illustrator 16.0.0, SVG Export Plug-In . SVG Version: 6.00 Build 0)  -->
<!DOCTYPE svg PUBLIC "-//W3C//DTD SVG 1.1//EN" "http://www.w3.org/Graphics/SVG/1.1/DTD/svg11.dtd">
<svg version="1.1" id="Слой_1" xmlns="http://www.w3.org/2000/svg" xmlns:xlink="http://www.w3.org/1999/xlink" x="0px" y="0px"
	 width="95px" height="66px" viewBox="0 0 95 66" enable-background="new 0 0 95 66" xml:space="preserve">
<g>
	<polygon fill="#255DA7" points="76.228,32.265 76.627,32.614 76.59,32.231 	"/>
	<path fill="#255DA7" d="M35.447,42.535c0.001-4.494,0.003-8.988,0.003-13.481v-0.96h0.912v0.837c0,3.954-0.001,7.907,0.002,11.862
		c0.002,0.326,0.015,0.656,0.061,0.977c0.092,0.648,0.386,1.143,0.826,1.441l0.829,0.313c0.171,0.023,0.352,0.031,0.54,0.018
		c1.137-0.082,1.89-0.857,1.895-2.023c0.016-3.275,0.007-6.551,0.008-9.826c0-1.568,0.007-3.136-0.002-4.703
		c-0.023-3.703-2.627-6.386-6.333-6.442c-1.159-0.018-2.319-0.027-3.479-0.032v0.549l-0.741,1.508l-0.117,0.31l0.717,12.239
		l-1.262,1.414l-0.019-0.021l-0.017,0.021l-1.263-1.414l0.718-12.239l-0.117-0.31l-0.742-1.508v-0.551
		c-1.098,0.004-2.196,0.01-3.294,0.021c-3.266,0.032-5.509,1.869-6.266,5.042c-0.021,0.087-0.076,0.164-0.114,0.247v16.292
		c0.356,0.602,0.733,1.182,1.481,1.359c1.409,0.338,2.539-0.449,2.691-1.893c0.033-0.326,0.02-0.656,0.02-0.982
		c0.001-3.908,0.001-7.817,0.001-11.725v-0.796h0.95v0.927c0,5.444,0.001,10.885,0.002,16.329l5.389-5.32L35.447,42.535z"/>
	<path fill="#255DA7" d="M28.884,19.477c2.12,0.194,4.094-0.973,4.9-2.898c0.827-1.971,0.295-4.209-1.427-5.547
		c-0.609-0.473-1.387-0.728-2.086-1.081h-1.826c-0.206,0.093-0.406,0.204-0.619,0.275c-2.226,0.744-3.627,3.189-3.124,5.463
		C25.15,17.719,26.89,19.295,28.884,19.477"/>
	<path fill="#255DA7" d="M80.988,26.902l-14.348,1.371l0.467,4.864l5.861-0.561l-7.899,9.029l-4.186-1.295l-6.174-1.908
		l-5.935,6.291l-3.467,3.674l-7.264-2.723c-0.313-0.043-0.592-0.15-0.828-0.311l-1.805-0.678l-6.721-2.52l-5.389,5.318
		L12.682,57.939l3.776,3.826l6.846-6.76l5.551-5.479l0.962-0.949l0.205-0.203l5.391,2.023l11.354,4.256l2.01-2.129l5.548-5.881
		l0.966-1.023l1.032-1.094l4.563,1.41l5.932,1.834L76.966,36.17l0.488,5.104l4.864-0.463L80.988,26.902z"/>
	<path fill="#255DA7" d="M38.045,45.645l-0.828-0.311C37.453,45.496,37.732,45.6,38.045,45.645"/>
	<path fill="#255DA7" d="M65.992,21.274c-0.022-3.704-2.627-6.386-6.333-6.442c-1.159-0.019-2.319-0.027-3.479-0.032v0.548
		l-0.741,1.507l-0.117,0.312l0.717,12.238l-1.262,1.413l-0.019-0.021l-0.017,0.021l-1.263-1.413l0.718-12.238l-0.117-0.312
		l-0.742-1.507v-0.55c-1.098,0.003-2.196,0.009-3.295,0.021c-3.265,0.032-5.508,1.869-6.264,5.042
		c-0.021,0.087-0.076,0.165-0.115,0.247V36.4c0.357,0.602,0.733,1.18,1.481,1.359c1.409,0.338,2.54-0.451,2.691-1.895
		c0.033-0.324,0.02-0.654,0.02-0.982c0.001-3.908,0-7.815,0-11.723v-0.796h0.95v0.927c0,6.427,0.004,12.854,0.004,19.282
		l5.935-6.291l6.174,1.908c0.001-4.95,0.003-9.901,0.003-14.851v-0.959h0.912v0.837c0,3.953-0.001,7.907,0.003,11.862
		c0,0.326,0.014,0.656,0.061,0.977c0.167,1.186,1.01,1.857,2.194,1.771c1.136-0.084,1.889-0.857,1.895-2.023
		c0.016-3.276,0.007-6.551,0.008-9.828C65.994,24.409,66.001,22.84,65.992,21.274"/>
	<path fill="#255DA7" d="M54.355,13.762c2.12,0.193,4.093-0.973,4.901-2.899c0.827-1.97,0.294-4.209-1.428-5.547
		c-0.609-0.472-1.387-0.727-2.087-1.081h-1.824c-0.207,0.093-0.407,0.204-0.62,0.276c-2.226,0.744-3.626,3.188-3.124,5.463
		C50.622,12.004,52.361,13.58,54.355,13.762"/>
</g>
</svg>
