<?xml version="1.0" encoding="utf-8"?>
<!-- Generator: Adobe Illustrator 16.0.0, SVG Export Plug-In . SVG Version: 6.00 Build 0)  -->
<!DOCTYPE svg PUBLIC "-//W3C//DTD SVG 1.1//EN" "http://www.w3.org/Graphics/SVG/1.1/DTD/svg11.dtd">
<svg version="1.1" id="Слой_1" xmlns="http://www.w3.org/2000/svg" xmlns:xlink="http://www.w3.org/1999/xlink" x="0px" y="0px"
	 width="95px" height="66px" viewBox="0 0 95 66" enable-background="new 0 0 95 66" xml:space="preserve">
<g>
	<path fill="#255DA7" d="M25.722,13.005c2.2,0.201,4.247-1.011,5.086-3.01c0.858-2.043,0.306-4.367-1.481-5.756
		c-0.632-0.489-1.438-0.755-2.165-1.122h-1.895c-0.215,0.097-0.422,0.213-0.643,0.286c-2.31,0.772-3.764,3.311-3.242,5.67
		C21.847,11.181,23.652,12.816,25.722,13.005"/>
	<path fill="#255DA7" d="M78.221,3.203H43.582c-1.189,0-2.153,0.964-2.153,2.154v8.742v2.851c-1.032-0.334-2.065-0.669-3.098-1.004
		c-1.548-0.503-3.093-1.012-4.643-1.505c-0.98-0.312-1.946-0.413-2.861-0.331c-0.653-0.008-1.308-0.016-1.963-0.021v-0.003
		l-0.002-0.007c-0.235,0-0.658,0.001-1.182,0.002c-0.022,0-0.044,0-0.065,0c-1.926,0.005-5.188,0.01-6.243,0.018
		c-0.046,0.001-0.088,0.001-0.125,0.002c-3.087,0.03-5.289,1.618-6.251,4.388c-0.095,0.271-0.181,0.55-0.251,0.844
		c-0.021,0.091-0.079,0.172-0.12,0.257v16.909c0.37,0.625,0.762,1.227,1.537,1.41c1.465,0.352,2.638-0.467,2.794-1.965
		c0.035-0.336,0.02-0.678,0.02-1.018c0.002-4.057,0.002-8.113,0.002-12.168v-0.825h0.986v0.962c0,12.12-0.001,24.239,0.005,36.356
		c0.001,0.531,0.017,1.074,0.121,1.594c0.215,1.082,1.041,1.621,1.97,2.039h1.458c0.219-0.076,0.418-0.164,0.601-0.262
		c1.374-0.637,1.836-1.799,1.826-3.379c-0.046-6.834-0.019-13.67-0.019-20.506v-0.848h0.797v0.881c0,6.826,0.034,13.65-0.023,20.475
		c-0.014,1.752,0.504,3.014,2.211,3.639h1.458c0.229-0.084,0.436-0.18,0.622-0.287c1.338-0.662,1.747-1.854,1.743-3.396
		c-0.003-1.121-0.002-2.242-0.003-3.361c-0.007-4.205-0.013-8.408-0.013-12.611v-6.729V21.784h0.013v-3.006l0.718,0.121l0.825,0.268
		c2.385,0.774,4.771,1.548,7.155,2.321v4.174v3.109v0.704v1.726c0,1.189,0.964,2.153,2.153,2.153h5.927h28.712
		c1.189,0,2.154-0.964,2.154-2.153V5.357C80.375,4.167,79.41,3.203,78.221,3.203 M27.72,14.682l-0.76,1.966h-0.478h-0.096h-0.476
		l-0.761-1.966h1.236h0.096H27.72z M25.033,26.432l0.891-8.904h0.512h0.512l0.89,8.904l-1.401,1.138L25.033,26.432z M78.58,31.201
		c0,0.198-0.161,0.359-0.359,0.359H50.334h-6.752c-0.197,0-0.359-0.161-0.359-0.359v-1.726v-4.894V22.07
		c0.314,0.103,0.63,0.204,0.945,0.306c0.479,0.155,0.957,0.312,1.436,0.467l-0.884,1.24c-0.079,0.111,0.003,0.306,0.185,0.435
		c0.18,0.128,0.39,0.142,0.469,0.031l0.92-1.291l0.117-0.165c0.185,0.05,0.371,0.095,0.559,0.128
		c0.229,0.04,0.447,0.051,0.654,0.034c0.895-0.072,1.556-0.661,1.796-1.636c0.196-0.799,0.001-1.522-0.524-2.017L57.128,8.04
		c0.079-0.11-0.003-0.305-0.183-0.434c-0.182-0.128-0.392-0.142-0.471-0.031l-8.258,11.598c-0.061-0.025-0.123-0.05-0.188-0.071
		c-0.69-0.228-1.381-0.451-2.072-0.676c-0.911-0.298-1.821-0.598-2.734-0.894V14.09V5.357c0-0.198,0.162-0.359,0.359-0.359h34.639
		c0.198,0,0.359,0.161,0.359,0.359V31.201z"/>
	<rect x="45.898" y="16.554" fill="#255DA7" width="9.283" height="2.791"/>
	<rect x="45.898" y="11.427" fill="#255DA7" width="9.283" height="2.792"/>
	<rect x="45.898" y="21.679" fill="#255DA7" width="9.283" height="2.792"/>
	<path fill="#255DA7" d="M68.099,9.568c-4.009,0-7.259,3.25-7.259,7.259h7.259V9.568z"/>
	<path fill="#255DA7" d="M70.137,11.547v7.259h-7.259c0,4.008,3.25,7.259,7.259,7.259c4.012,0,7.26-3.251,7.26-7.259
		C77.396,14.796,74.148,11.547,70.137,11.547"/>
</g>
</svg>
