<?xml version="1.0" encoding="utf-8"?>
<!-- Generator: Adobe Illustrator 16.0.0, SVG Export Plug-In . SVG Version: 6.00 Build 0)  -->
<!DOCTYPE svg PUBLIC "-//W3C//DTD SVG 1.1//EN" "http://www.w3.org/Graphics/SVG/1.1/DTD/svg11.dtd">
<svg version="1.1" id="Слой_1" xmlns="http://www.w3.org/2000/svg" xmlns:xlink="http://www.w3.org/1999/xlink" x="0px" y="0px"
	 width="106px" height="40px" viewBox="-24.5 6 92.375 35" enable-background="new -24.5 6 92.375 35" xml:space="preserve">
<g>
	<g>
		<path fill="#D0D2D3" d="M21.688,6.227c-25.571,0-46.066,7.664-46.066,17.273c0,9.551,20.665,17.273,46.066,17.273
			S67.754,33.025,67.754,23.5C67.754,13.976,47.089,6.227,21.688,6.227z M67.472,22.166c0.017,0.083,0.03,0.167,0.044,0.251
			C67.503,22.333,67.486,22.25,67.472,22.166z"/>
	</g>
	
		<radialGradient id="SVGID_1_" cx="203.0791" cy="994.8662" r="125.6872" gradientTransform="matrix(1.5825 0 0 1.5431 -300.021 -1338.426)" gradientUnits="userSpaceOnUse">
		<stop  offset="0" style="stop-color:#00000D"/>
		<stop  offset="0.2172" style="stop-color:#000012"/>
		<stop  offset="0.4778" style="stop-color:#000021"/>
		<stop  offset="0.7" style="stop-color:#000033"/>
		<stop  offset="0.9045" style="stop-color:#004281"/>
		<stop  offset="0.9112" style="stop-color:#045391"/>
		<stop  offset="0.9309" style="stop-color:#107FBB"/>
		<stop  offset="0.9461" style="stop-color:#179BD4"/>
		<stop  offset="0.955" style="stop-color:#1AA5DE"/>
	</radialGradient>
	<path fill="url(#SVGID_1_)" d="M21.688,6.917c-25.062,0-45.359,7.408-45.359,16.574c0,9.164,20.298,16.572,45.359,16.572
		c25.063,0,45.359-7.408,45.359-16.572C67.047,14.324,46.75,6.917,21.688,6.917z"/>
	<g>
		<g>
			
				<linearGradient id="SVGID_2_" gradientUnits="userSpaceOnUse" x1="18.2798" y1="2170.8408" x2="18.2798" y2="2120.6799" gradientTransform="matrix(0.7 0 0 0.7 8.8148 -1478.4319)">
				<stop  offset="0" style="stop-color:#00043D"/>
				<stop  offset="0.2317" style="stop-color:#000741"/>
				<stop  offset="0.437" style="stop-color:#00104B"/>
				<stop  offset="0.6315" style="stop-color:#00205D"/>
				<stop  offset="0.809" style="stop-color:#003475"/>
				<stop  offset="0.8587" style="stop-color:#004383"/>
				<stop  offset="1" style="stop-color:#006CA8"/>
			</linearGradient>
			<path fill="url(#SVGID_2_)" d="M-20.048,24.129c0-7.586,18.778-13.736,41.942-13.736c21.309,0,38.901,5.205,41.585,11.943
				C61.69,15.246,43.664,9.677,21.685,9.677c-23.166,0-41.941,6.186-41.941,13.819c0,0.621,0.125,1.232,0.366,1.834
				C-19.995,24.934-20.048,24.535-20.048,24.129z"/>
			
				<linearGradient id="SVGID_3_" gradientUnits="userSpaceOnUse" x1="19.0923" y1="2170.8408" x2="19.0923" y2="2120.6777" gradientTransform="matrix(0.7 0 0 0.7 8.8148 -1478.4319)">
				<stop  offset="0" style="stop-color:#00043D"/>
				<stop  offset="0.2317" style="stop-color:#000741"/>
				<stop  offset="0.437" style="stop-color:#00104B"/>
				<stop  offset="0.6315" style="stop-color:#00205D"/>
				<stop  offset="0.809" style="stop-color:#003475"/>
				<stop  offset="0.8587" style="stop-color:#004383"/>
				<stop  offset="1" style="stop-color:#006CA8"/>
			</linearGradient>
			<path fill="url(#SVGID_3_)" d="M64.871,21.766c0.185,0.568,0.281,1.145,0.281,1.73c0,8.354-19.463,15.127-43.468,15.127
				c-21.365,0-39.127-5.363-42.782-12.43c2.78,7.361,21.013,13.043,43.094,13.043c24.002,0,43.46-6.715,43.46-15.002
				C65.457,23.394,65.257,22.567,64.871,21.766z"/>
		</g>
		<g>
			
				<linearGradient id="SVGID_4_" gradientUnits="userSpaceOnUse" x1="29.6074" y1="2158.126" x2="29.6074" y2="2123.3987" gradientTransform="matrix(0.7 0 0 0.7 8.827 -1475.573)">
				<stop  offset="0" style="stop-color:#00043D"/>
				<stop  offset="0.2317" style="stop-color:#000741"/>
				<stop  offset="0.437" style="stop-color:#00104B"/>
				<stop  offset="0.6315" style="stop-color:#00205D"/>
				<stop  offset="0.809" style="stop-color:#003475"/>
				<stop  offset="0.8587" style="stop-color:#004383"/>
				<stop  offset="1" style="stop-color:#006CA8"/>
			</linearGradient>
			<path fill="url(#SVGID_4_)" d="M29.782,24.959c-0.975,1.014-1.045,2.326-0.409,2.918c0.229,0.211,0.491,0.307,0.771,0.322
				c-0.418-0.525-0.612-1.559-0.097-2.377c-0.096-0.24-0.114-0.514-0.058-0.785C30.01,24.943,29.886,24.854,29.782,24.959z"/>
			
				<linearGradient id="SVGID_5_" gradientUnits="userSpaceOnUse" x1="44.4668" y1="2158.2568" x2="44.4668" y2="2123.0806" gradientTransform="matrix(0.7 0 0 0.7 8.827 -1475.573)">
				<stop  offset="0" style="stop-color:#00043D"/>
				<stop  offset="0.2317" style="stop-color:#000741"/>
				<stop  offset="0.437" style="stop-color:#00104B"/>
				<stop  offset="0.6315" style="stop-color:#00205D"/>
				<stop  offset="0.809" style="stop-color:#003475"/>
				<stop  offset="0.8587" style="stop-color:#004383"/>
				<stop  offset="1" style="stop-color:#006CA8"/>
			</linearGradient>
			<path fill="url(#SVGID_5_)" d="M39.832,27.16c-0.006-0.016-0.009-0.029-0.01-0.045c0.001,0.004,0.001,0.004,0.001,0.008
				c0.014,0.152,0.055,0.441,0.087,0.656c0.051-0.096,0.1-0.199,0.154-0.309c0.039-0.08,0.02-0.107-0.016-0.119
				C39.948,27.314,39.846,27.24,39.832,27.16z"/>
			
				<linearGradient id="SVGID_6_" gradientUnits="userSpaceOnUse" x1="46.6221" y1="2156.9248" x2="46.6221" y2="2124.6318" gradientTransform="matrix(0.7 0 0 0.7 8.827 -1475.573)">
				<stop  offset="0" style="stop-color:#00043D"/>
				<stop  offset="0.2317" style="stop-color:#000741"/>
				<stop  offset="0.437" style="stop-color:#00104B"/>
				<stop  offset="0.6315" style="stop-color:#00205D"/>
				<stop  offset="0.809" style="stop-color:#003475"/>
				<stop  offset="0.8587" style="stop-color:#004383"/>
				<stop  offset="1" style="stop-color:#006CA8"/>
			</linearGradient>
			<path fill="url(#SVGID_6_)" d="M41.576,24.84c0.016,0.164,0.139,0.184,0.24,0.039c0.028-0.039,0.059-0.088,0.095-0.143
				c-0.029-0.039-0.059-0.078-0.089-0.117c-0.142-0.166-0.48-0.529-0.808-0.816C41.341,24.113,41.538,24.492,41.576,24.84z"/>
			
				<linearGradient id="SVGID_7_" gradientUnits="userSpaceOnUse" x1="27.2148" y1="2157.3701" x2="27.2148" y2="2124.0132" gradientTransform="matrix(0.7 0 0 0.7 8.827 -1475.573)">
				<stop  offset="0" style="stop-color:#00043D"/>
				<stop  offset="0.2317" style="stop-color:#000741"/>
				<stop  offset="0.437" style="stop-color:#00104B"/>
				<stop  offset="0.6315" style="stop-color:#00205D"/>
				<stop  offset="0.809" style="stop-color:#003475"/>
				<stop  offset="0.8587" style="stop-color:#004383"/>
				<stop  offset="1" style="stop-color:#006CA8"/>
			</linearGradient>
			<path fill="url(#SVGID_7_)" d="M28.097,24.725c0.044-0.063,0.086-0.121,0.128-0.18c-0.189-0.587-0.483-1.163-0.693-1.38
				c0.261,0.355,0.383,0.865,0.365,1.517C27.894,24.852,28.016,24.84,28.097,24.725z"/>
			
				<linearGradient id="SVGID_8_" gradientUnits="userSpaceOnUse" x1="57.0586" y1="2134.3154" x2="57.0586" y2="2134.3105" gradientTransform="matrix(0.7 0 0 0.7 8.827 -1475.573)">
				<stop  offset="0" style="stop-color:#00043D"/>
				<stop  offset="0.2317" style="stop-color:#000741"/>
				<stop  offset="0.437" style="stop-color:#00104B"/>
				<stop  offset="0.6315" style="stop-color:#00205D"/>
				<stop  offset="0.809" style="stop-color:#003475"/>
				<stop  offset="0.8587" style="stop-color:#004383"/>
				<stop  offset="1" style="stop-color:#006CA8"/>
			</linearGradient>
			<polygon fill="url(#SVGID_8_)" points="48.769,18.444 48.769,18.444 48.769,18.448 			"/>
			
				<linearGradient id="SVGID_9_" gradientUnits="userSpaceOnUse" x1="41.1699" y1="2158.2529" x2="41.1699" y2="2123.0923" gradientTransform="matrix(0.7 0 0 0.7 8.827 -1475.573)">
				<stop  offset="0" style="stop-color:#00043D"/>
				<stop  offset="0.2317" style="stop-color:#000741"/>
				<stop  offset="0.437" style="stop-color:#00104B"/>
				<stop  offset="0.6315" style="stop-color:#00205D"/>
				<stop  offset="0.809" style="stop-color:#003475"/>
				<stop  offset="0.8587" style="stop-color:#004383"/>
				<stop  offset="1" style="stop-color:#006CA8"/>
			</linearGradient>
			<path fill="url(#SVGID_9_)" d="M35.593,30.986c0.113,0.063,0.227,0.102,0.347,0.121c-0.042-0.156-0.06-0.311-0.063-0.443
				c-0.013-1.141,0.343-2.283,1.251-3.396c1.102-1.359,2.259-2.033,3.063-1.66c-0.041-0.299-0.196-0.557-0.538-0.717
				c-0.804-0.389-2.025,0.32-3.134,1.682c-0.907,1.117-1.397,2.252-1.416,3.357C35.096,30.322,35.245,30.809,35.593,30.986z"/>
			
				<linearGradient id="SVGID_10_" gradientUnits="userSpaceOnUse" x1="10.7446" y1="2158.2529" x2="10.7446" y2="2123.0945" gradientTransform="matrix(0.7 0 0 0.7 8.827 -1475.573)">
				<stop  offset="0" style="stop-color:#00043D"/>
				<stop  offset="0.2317" style="stop-color:#000741"/>
				<stop  offset="0.437" style="stop-color:#00104B"/>
				<stop  offset="0.6315" style="stop-color:#00205D"/>
				<stop  offset="0.809" style="stop-color:#003475"/>
				<stop  offset="0.8587" style="stop-color:#004383"/>
				<stop  offset="1" style="stop-color:#006CA8"/>
			</linearGradient>
			<path fill="url(#SVGID_10_)" d="M18.532,25.1c0.142-0.064,0.16-0.146,0.133-0.271c-0.047-0.217-0.199-0.756-0.245-0.883
				c0,0,0,0,0,0c0.035,0.118,0.005,0.21-0.137,0.263c-1.235,0.469-2.471,1.195-3.326,2.34c-0.967,1.299-1.23,2.865-0.58,3.764
				c0.153,0.211,0.338,0.367,0.541,0.471c-0.349-1.078-0.096-2.52,0.727-3.631C16.492,26.004,17.444,25.568,18.532,25.1z"/>
			
				<linearGradient id="SVGID_11_" gradientUnits="userSpaceOnUse" x1="25.9453" y1="2158.2422" x2="25.9453" y2="2123.3218" gradientTransform="matrix(0.7 0 0 0.7 8.827 -1475.573)">
				<stop  offset="0" style="stop-color:#00043D"/>
				<stop  offset="0.2317" style="stop-color:#000741"/>
				<stop  offset="0.437" style="stop-color:#00104B"/>
				<stop  offset="0.6315" style="stop-color:#00205D"/>
				<stop  offset="0.809" style="stop-color:#003475"/>
				<stop  offset="0.8587" style="stop-color:#004383"/>
				<stop  offset="1" style="stop-color:#006CA8"/>
			</linearGradient>
			<path fill="url(#SVGID_11_)" d="M32.278,29.078c-0.292,0.209-0.675,0.441-1.152,0.619c-0.586,0.219-0.86,0.301-1.403,0.293
				c-0.684-0.002-1.299-0.293-1.733-0.969c-0.241-0.365-0.341-0.924-0.364-1.33c-0.003-0.045-0.063-0.127-0.127-0.023
				c-1.148,1.754-2.222,3.453-3.36,5.234c-0.059,0.084-0.111,0.137-0.229,0.143c-0.706,0-1.476,0-2.252,0.002
				c-0.082,0-0.138-0.035-0.156-0.092c0.061,0.273,0.16,0.766,0.188,0.879c0.018,0.08,0.078,0.119,0.163,0.119
				c0.835,0,1.858,0,2.553-0.004c0.104-0.006,0.175-0.064,0.229-0.143c1.036-1.621,2.143-3.383,3.2-5.008
				c0.234,0.818,0.353,1.201,0.784,1.586c0.439,0.393,0.845,0.496,1.443,0.502c0.545,0.006,1.079-0.211,1.715-0.477
				c0.229-0.094,0.434-0.211,0.617-0.33c0-0.301,0.029-0.602,0.083-0.891C32.48,29.158,32.449,28.959,32.278,29.078z"/>
			
				<linearGradient id="SVGID_12_" gradientUnits="userSpaceOnUse" x1="44.5313" y1="2158.2529" x2="44.5313" y2="2123.0876" gradientTransform="matrix(0.7 0 0 0.7 8.827 -1475.573)">
				<stop  offset="0" style="stop-color:#00043D"/>
				<stop  offset="0.2317" style="stop-color:#000741"/>
				<stop  offset="0.437" style="stop-color:#00104B"/>
				<stop  offset="0.6315" style="stop-color:#00205D"/>
				<stop  offset="0.809" style="stop-color:#003475"/>
				<stop  offset="0.8587" style="stop-color:#004383"/>
				<stop  offset="1" style="stop-color:#006CA8"/>
			</linearGradient>
			<path fill="url(#SVGID_12_)" d="M47.314,28.461c0,0.043-0.019,0.082-0.042,0.109c-1.097,1.34-2.31,2.605-3.469,3.5
				c-1.806,1.398-3.605,1.752-4.498,0.857c-0.333-0.334-0.516-0.813-0.536-1.215c-0.013-0.217-0.124-0.227-0.227-0.127
				c-1.065,1.053-2.915,2.221-4.599,1.391c-0.868-0.43-1.323-1.234-1.485-2.121c0,0.012,0.005,0.02,0.006,0.031
				c0.107,0.629,0.244,1.535,0.539,2.094c0.191,0.371,0.623,0.785,0.885,0.914c1.495,0.736,3.628-0.098,4.996-1.416
				c0.016-0.016,0.019-0.02,0.038-0.041c0.063,0.238,0.139,0.525,0.15,0.564c0.093,0.305,0.239,0.582,0.369,0.73
				c0.937,1.061,2.927,0.578,4.998-1.025c1.157-0.893,2.015-1.793,3.065-3.018c0.042-0.051,0.039-0.125,0.016-0.238
				C47.462,29.186,47.365,28.701,47.314,28.461z"/>
			
				<linearGradient id="SVGID_13_" gradientUnits="userSpaceOnUse" x1="32.6094" y1="2158.2656" x2="32.6094" y2="2123.0718" gradientTransform="matrix(0.7 0 0 0.7 8.827 -1475.573)">
				<stop  offset="0" style="stop-color:#00043D"/>
				<stop  offset="0.2317" style="stop-color:#000741"/>
				<stop  offset="0.437" style="stop-color:#00104B"/>
				<stop  offset="0.6315" style="stop-color:#00205D"/>
				<stop  offset="0.809" style="stop-color:#003475"/>
				<stop  offset="0.8587" style="stop-color:#004383"/>
				<stop  offset="1" style="stop-color:#006CA8"/>
			</linearGradient>
			<path fill="url(#SVGID_13_)" d="M32.26,27.268c0.556-0.301,1.043-0.938,0.981-1.971c-0.031-0.514-0.181-1.041-0.421-1.471
				c0.162,0.313,0.232,0.676,0.174,1.055c-0.106,0.668-0.468,1.256-1.082,1.563c-0.521,0.254-1.129,0.209-1.554-0.17
				c-0.134-0.123-0.229-0.27-0.298-0.424c0.11,0.504,0.205,0.875,0.337,1.074C30.8,27.527,31.494,27.682,32.26,27.268z"/>
			
				<linearGradient id="SVGID_14_" gradientUnits="userSpaceOnUse" x1="51.7832" y1="2158.2529" x2="51.7832" y2="2123.0906" gradientTransform="matrix(0.7 0 0 0.7 8.827 -1475.573)">
				<stop  offset="0" style="stop-color:#00043D"/>
				<stop  offset="0.2317" style="stop-color:#000741"/>
				<stop  offset="0.437" style="stop-color:#00104B"/>
				<stop  offset="0.6315" style="stop-color:#00205D"/>
				<stop  offset="0.809" style="stop-color:#003475"/>
				<stop  offset="0.8587" style="stop-color:#004383"/>
				<stop  offset="1" style="stop-color:#006CA8"/>
			</linearGradient>
			<path fill="url(#SVGID_14_)" d="M49.022,19.662c-0.021-0.097-0.232-1.12-0.254-1.212c0.007,0.027,0,0.06-0.018,0.095
				c-0.351,0.606-7.099,10.877-7.524,11.941c-0.135,0.336-0.15,0.592-0.013,0.779c0.138,0.186,0.341,0.26,0.572,0.254
				c0.022-0.129,0.072-0.275,0.135-0.432c0.427-1.066,6.745-10.668,7.092-11.275C49.043,19.76,49.032,19.701,49.022,19.662z"/>
			
				<linearGradient id="SVGID_15_" gradientUnits="userSpaceOnUse" x1="17.8354" y1="2157.8623" x2="17.8354" y2="2123.5076" gradientTransform="matrix(0.7 0 0 0.7 8.827 -1475.573)">
				<stop  offset="0" style="stop-color:#00043D"/>
				<stop  offset="0.2317" style="stop-color:#000741"/>
				<stop  offset="0.437" style="stop-color:#00104B"/>
				<stop  offset="0.6315" style="stop-color:#00205D"/>
				<stop  offset="0.809" style="stop-color:#003475"/>
				<stop  offset="0.8587" style="stop-color:#004383"/>
				<stop  offset="1" style="stop-color:#006CA8"/>
			</linearGradient>
			<path fill="url(#SVGID_15_)" d="M20.742,23.325c0.021,0.021,0.036,0.043,0.054,0.065c0.407,0.604,0.626,1.455,0.649,2.334
				c0.025,0.184,0.104,0.189,0.195,0.094c0.082-0.084,0.162-0.172,0.241-0.258c-0.118-0.471-0.303-0.896-0.493-1.305
				C21.318,24.107,21.008,23.577,20.742,23.325z"/>
			
				<linearGradient id="SVGID_16_" gradientUnits="userSpaceOnUse" x1="12.3384" y1="2158.2432" x2="12.3384" y2="2123.3252" gradientTransform="matrix(0.7 0 0 0.7 8.827 -1475.573)">
				<stop  offset="0" style="stop-color:#00043D"/>
				<stop  offset="0.2317" style="stop-color:#000741"/>
				<stop  offset="0.437" style="stop-color:#00104B"/>
				<stop  offset="0.6315" style="stop-color:#00205D"/>
				<stop  offset="0.809" style="stop-color:#003475"/>
				<stop  offset="0.8587" style="stop-color:#004383"/>
				<stop  offset="1" style="stop-color:#006CA8"/>
			</linearGradient>
			<path fill="url(#SVGID_16_)" d="M24.456,26.301c0.474-0.402,0.991-0.664,1.317-0.539c0.194-0.502,0.103-0.779-0.106-0.914
				c-0.317-0.205-0.95,0.104-1.483,0.512c-1.455,1.102-2.679,2.818-3.298,3.588c-0.365,0.453-0.71,1.119-1.664,2.154
				c-1.5,1.629-3.49,2.564-5.407,1.918c-1.047-0.354-1.806-1.195-2.094-2.227c-0.059-0.201-0.17-0.258-0.278-0.125
				c-0.311,0.387-0.944,0.953-1.473,1.313c-0.057,0.043-0.2,0.125-0.323,0.064c-0.111-0.047-0.505-0.604-0.582-0.764
				c-0.01-0.016-0.017-0.035-0.018-0.053c0,0.002,0,0.004,0,0.006c0.137,0.686,0.155,0.764,0.341,1.078
				c0.213,0.352,0.417,0.596,0.465,0.617c0.124,0.063,0.249,0.006,0.312-0.029c0.411-0.211,1.213-0.828,1.558-1.256
				c0.104-0.102,0.205-0.033,0.238,0.072c0.145,0.457,0.356,0.811,0.592,1.184c0.259,0.418,0.777,0.848,1.448,1.033
				c0.869,0.244,1.807,0.287,3.038-0.186c0.988-0.377,2.022-1.146,2.82-2.012c0.955-1.035,1.3-1.701,1.664-2.154
				C22.14,28.814,23.104,27.457,24.456,26.301z"/>
			
				<linearGradient id="SVGID_17_" gradientUnits="userSpaceOnUse" x1="-14.1768" y1="2158.25" x2="-14.1768" y2="2123.0918" gradientTransform="matrix(0.7 0 0 0.7 8.827 -1475.573)">
				<stop  offset="0" style="stop-color:#00043D"/>
				<stop  offset="0.2317" style="stop-color:#000741"/>
				<stop  offset="0.437" style="stop-color:#00104B"/>
				<stop  offset="0.6315" style="stop-color:#00205D"/>
				<stop  offset="0.809" style="stop-color:#003475"/>
				<stop  offset="0.8587" style="stop-color:#004383"/>
				<stop  offset="1" style="stop-color:#006CA8"/>
			</linearGradient>
			<path fill="url(#SVGID_17_)" d="M-2.035,28.982c-0.194-0.76,0.015-1.576,0.32-2.188c0.486-0.979,1.167-1.445,1.838-1.869
				c0.288-0.182,0.416-0.359,0.245-0.836c-0.05-0.135-0.077-0.379-0.131-0.596c0.018,0.212-0.086,0.395-0.274,0.491
				c-0.818,0.418-1.804,1.133-2.29,2.109c-0.396,0.799-0.476,1.758,0.128,2.674C-2.149,28.84-2.095,28.914-2.035,28.982z"/>
			
				<linearGradient id="SVGID_18_" gradientUnits="userSpaceOnUse" x1="1.562" y1="2158.2461" x2="1.562" y2="2123.0947" gradientTransform="matrix(0.7 0 0 0.7 8.827 -1475.573)">
				<stop  offset="0" style="stop-color:#00043D"/>
				<stop  offset="0.2317" style="stop-color:#000741"/>
				<stop  offset="0.437" style="stop-color:#00104B"/>
				<stop  offset="0.6315" style="stop-color:#00205D"/>
				<stop  offset="0.809" style="stop-color:#003475"/>
				<stop  offset="0.8587" style="stop-color:#004383"/>
				<stop  offset="1" style="stop-color:#006CA8"/>
			</linearGradient>
			<path fill="url(#SVGID_18_)" d="M3.693,18.736c-0.167-1.158,0.699-3.051,2.975-3.803c2.975-0.98,6.291-0.36,8.958,0.209
				c0.372-0.233,0.699-0.395,1.024-0.573c0.163-0.084-0.02-0.187-0.069-0.187c-3.44-0.646-7.015-1.482-10.431-0.218
				c-2.366,0.883-3.403,2.76-2.904,4.013C3.343,18.417,3.496,18.603,3.693,18.736z"/>
			
				<linearGradient id="SVGID_19_" gradientUnits="userSpaceOnUse" x1="-3.0244" y1="2158.252" x2="-3.0244" y2="2123.0913" gradientTransform="matrix(0.7 0 0 0.7 8.827 -1475.573)">
				<stop  offset="0" style="stop-color:#00043D"/>
				<stop  offset="0.2317" style="stop-color:#000741"/>
				<stop  offset="0.437" style="stop-color:#00104B"/>
				<stop  offset="0.6315" style="stop-color:#00205D"/>
				<stop  offset="0.809" style="stop-color:#003475"/>
				<stop  offset="0.8587" style="stop-color:#004383"/>
				<stop  offset="1" style="stop-color:#006CA8"/>
			</linearGradient>
			<path fill="url(#SVGID_19_)" d="M12.787,22.402c1.133-0.141,2.149-0.205,3.15-0.3c0.298-0.028,0.524-0.055,0.633,0.054
				c0.363,0.361,0.782,0.691,1.061,0.853c0.185,0.002,0.341,0.042,0.45,0.141c0.116-0.016,0.224-0.081,0.292-0.147
				c0.129-0.126,0.135-0.275,0.114-0.402c-0.046-0.247-0.111-0.734-0.191-0.875c0.054,0.107,0.02,0.26-0.089,0.382
				c-0.079,0.09-0.203,0.175-0.362,0.172c-0.128-0.002-0.206-0.047-0.37-0.136c-0.334-0.182-0.754-0.48-1.033-0.833
				c-0.096-0.119-0.145-0.122-0.383-0.108c-1.071,0.062-2.741,0.223-3.873,0.365c-0.274,0.034-0.314,0.085-0.372,0.18
				c-1.804,2.977-3.731,6.186-5.847,8.334c-2.269,2.303-4.155,2.91-6.157,2.926c-2.312,0.016-4.37-1.295-4.888-3.596
				c0.279,1.283,1.107,2.834,2.064,3.508c0.975,0.688,1.935,0.916,3.056,0.936c2.276,0.039,4.356-0.9,6.561-3.139
				c2.116-2.148,3.948-5.148,5.755-8.124C12.42,22.487,12.483,22.441,12.787,22.402z"/>
			
				<linearGradient id="SVGID_20_" gradientUnits="userSpaceOnUse" x1="-2.188" y1="2158.2617" x2="-2.188" y2="2123.0825" gradientTransform="matrix(0.7 0 0 0.7 8.827 -1475.573)">
				<stop  offset="0" style="stop-color:#00043D"/>
				<stop  offset="0.2317" style="stop-color:#000741"/>
				<stop  offset="0.437" style="stop-color:#00104B"/>
				<stop  offset="0.6315" style="stop-color:#00205D"/>
				<stop  offset="0.809" style="stop-color:#003475"/>
				<stop  offset="0.8587" style="stop-color:#004383"/>
				<stop  offset="1" style="stop-color:#006CA8"/>
			</linearGradient>
			<path fill="url(#SVGID_20_)" d="M9.07,22.021c-1.023,0.029-1.916,0.333-2.783,0.981c-0.25,0.182-0.608,0.157-0.766-0.083
				C5.468,22.839,5.443,22.75,5.44,22.66c-0.022,0.385,0.132,0.952,0.258,1.143c0.138,0.211,0.522,0.314,0.83,0.088
				c0.689-0.509,1.313-0.805,2.01-0.938c0.18-0.245,0.375-0.517,0.596-0.823c0.018-0.023,0.022-0.056,0.015-0.072
				C9.137,22.032,9.114,22.024,9.07,22.021z"/>
			
				<linearGradient id="SVGID_21_" gradientUnits="userSpaceOnUse" x1="37.4932" y1="2157.4443" x2="37.4932" y2="2123.2043" gradientTransform="matrix(0.7 0 0 0.7 8.827 -1475.573)">
				<stop  offset="0" style="stop-color:#00043D"/>
				<stop  offset="0.2317" style="stop-color:#000741"/>
				<stop  offset="0.437" style="stop-color:#00104B"/>
				<stop  offset="0.6315" style="stop-color:#00205D"/>
				<stop  offset="0.809" style="stop-color:#003475"/>
				<stop  offset="0.8587" style="stop-color:#004383"/>
				<stop  offset="1" style="stop-color:#006CA8"/>
			</linearGradient>
			<path fill="url(#SVGID_21_)" d="M35.052,13.529c0.015,0.021,0.028,0.043,0.041,0.067C35.08,13.57,35.066,13.547,35.052,13.529z"
				/>
			
				<linearGradient id="SVGID_22_" gradientUnits="userSpaceOnUse" x1="21.7349" y1="2158.249" x2="21.7349" y2="2123.0945" gradientTransform="matrix(0.7 0 0 0.7 8.827 -1475.573)">
				<stop  offset="0" style="stop-color:#00043D"/>
				<stop  offset="0.2317" style="stop-color:#000741"/>
				<stop  offset="0.437" style="stop-color:#00104B"/>
				<stop  offset="0.6315" style="stop-color:#00205D"/>
				<stop  offset="0.809" style="stop-color:#003475"/>
				<stop  offset="0.8587" style="stop-color:#004383"/>
				<stop  offset="1" style="stop-color:#006CA8"/>
			</linearGradient>
			<path fill="url(#SVGID_22_)" d="M12.775,20.323c-0.042,0.049-0.02,0.096,0.052,0.091c0.323-0.016,0.633-0.031,0.941-0.047
				c1.114-1.742,2.302-2.741,4.122-4.084c0.135-0.101,0.271-0.174,0.227-0.562c3.653,0.811,6.431,2.155,11.151,2.168
				c1.405,0.003,3.393-0.465,4.46-1.109c1.228-0.738,1.554-1.281,1.598-1.855c0.015-0.179-0.031-0.445-0.063-0.583
				c-0.04-0.194-0.068-0.441-0.124-0.626c0.02,0.076,0.028,0.161,0.021,0.253c-0.036,0.659-0.547,1.293-1.806,1.979
				c-1.43,0.785-2.925,1.022-4.488,1.035c-3.778,0.031-7.298-1.441-10.94-2.233c0.004,0.159,0.046,0.35-0.088,0.45
				C15.821,16.689,13.998,18.201,12.775,20.323z"/>
			
				<linearGradient id="SVGID_23_" gradientUnits="userSpaceOnUse" x1="12.6113" y1="2157.0479" x2="12.6113" y2="2123.8325" gradientTransform="matrix(0.7 0 0 0.7 8.827 -1475.573)">
				<stop  offset="0" style="stop-color:#00043D"/>
				<stop  offset="0.2317" style="stop-color:#000741"/>
				<stop  offset="0.437" style="stop-color:#00104B"/>
				<stop  offset="0.6315" style="stop-color:#00205D"/>
				<stop  offset="0.809" style="stop-color:#003475"/>
				<stop  offset="0.8587" style="stop-color:#004383"/>
				<stop  offset="1" style="stop-color:#006CA8"/>
			</linearGradient>
			<path fill="url(#SVGID_23_)" d="M17.693,19.299c0.15-0.133,0.338-0.196,0.5-0.168c0.139-0.277,0.18-0.608,0.01-0.754
				c-0.163-0.142-0.423-0.116-0.633,0.034c-0.044,0.043-0.095,0.087-0.145,0.131c-0.36,0.375-0.47,0.869-0.417,1.242
				c0.028,0.153,0.088,0.182,0.157,0.169c0.068-0.014,0.138-0.038,0.208-0.066C17.398,19.682,17.485,19.482,17.693,19.299z"/>
			
				<linearGradient id="SVGID_24_" gradientUnits="userSpaceOnUse" x1="13.7397" y1="2158.2539" x2="13.7397" y2="2123.0911" gradientTransform="matrix(0.7 0 0 0.7 8.827 -1475.573)">
				<stop  offset="0" style="stop-color:#00043D"/>
				<stop  offset="0.2317" style="stop-color:#000741"/>
				<stop  offset="0.437" style="stop-color:#00104B"/>
				<stop  offset="0.6315" style="stop-color:#00205D"/>
				<stop  offset="0.809" style="stop-color:#003475"/>
				<stop  offset="0.8587" style="stop-color:#004383"/>
				<stop  offset="1" style="stop-color:#006CA8"/>
			</linearGradient>
			<path fill="url(#SVGID_24_)" d="M19.214,20.539c0.174-0.382,0.269-0.683,0.193-1.339c-0.054-0.459-0.147-0.875-0.27-1.089
				c0.235,0.481,0.141,1.099-0.114,1.593c-0.347,0.663-0.918,1.017-1.467,1.188c0,0-0.114,0.026-0.097,0.13
				c0.014,0.119,0.402,0.365,0.646,0.537c0.035-0.009,0.086-0.03,0.086-0.03C18.472,21.42,18.942,21.135,19.214,20.539z"/>
			
				<linearGradient id="SVGID_25_" gradientUnits="userSpaceOnUse" x1="-5.5317" y1="2158.251" x2="-5.5317" y2="2123.0933" gradientTransform="matrix(0.7 0 0 0.7 8.827 -1475.573)">
				<stop  offset="0" style="stop-color:#00043D"/>
				<stop  offset="0.2317" style="stop-color:#000741"/>
				<stop  offset="0.437" style="stop-color:#00104B"/>
				<stop  offset="0.6315" style="stop-color:#00205D"/>
				<stop  offset="0.809" style="stop-color:#003475"/>
				<stop  offset="0.8587" style="stop-color:#004383"/>
				<stop  offset="1" style="stop-color:#006CA8"/>
			</linearGradient>
			<path fill="url(#SVGID_25_)" d="M2.434,21.799c0.504,0.315,1.125,0.489,1.836,0.466c2.423-0.083,4.26-2.079,4.869-3.767
				c0.163-0.456,0.037-0.943-0.04-1.272c-0.031-0.127-0.073-0.414-0.165-0.619H8.933c0.07,0.168,0.07,0.417-0.063,0.73
				c-1,2.35-2.909,4.213-5.235,4.292c-1.403,0.047-2.453-0.671-2.944-1.733C1.051,20.688,1.788,21.394,2.434,21.799z"/>
		</g>
	</g>
	<g>
		<path fill="#58595B" d="M21.688,6.227c-25.571,0-46.066,7.664-46.066,17.273c0,9.551,20.665,17.273,46.066,17.273
			S67.754,33.025,67.754,23.5C67.754,13.976,47.089,6.227,21.688,6.227z M-24.063,23.69c-0.01-2.021,0.881-4.031,2.753-5.919
			c6.596-6.653,23.875-11.149,42.919-11.229c25.228-0.104,45.785,7.417,45.828,16.768c0.01,2.022-0.936,4.004-2.809,5.893
			c-6.596,6.654-23.821,11.178-42.863,11.256C-3.462,40.564-24.02,33.041-24.063,23.69z M67.472,22.166
			c0.017,0.083,0.03,0.167,0.044,0.251C67.503,22.333,67.486,22.25,67.472,22.166z"/>
	</g>
	<g>
		<g>
			<linearGradient id="SVGID_26_" gradientUnits="userSpaceOnUse" x1="11.5596" y1="49.0166" x2="0.9157" y2="9.2932">
				<stop  offset="0" style="stop-color:#B1B3B5"/>
				<stop  offset="0.35" style="stop-color:#DBDCDD"/>
				<stop  offset="0.65" style="stop-color:#DBDCDD"/>
				<stop  offset="1" style="stop-color:#B1B3B5"/>
			</linearGradient>
			<path fill="url(#SVGID_26_)" d="M-21.411,17.669c6.632-6.69,23.928-11.191,43.019-11.271c2.647-0.011,5.239,0.063,7.764,0.214
				c-2.501-0.158-5.067-0.242-7.685-0.242c-25.467,0-45.927,7.636-45.927,17.129c0,0.451,0.051,0.898,0.145,1.34
				c-0.07-0.379-0.11-0.762-0.112-1.149C-24.216,21.643-23.3,19.574-21.411,17.669z"/>
		</g>
		<linearGradient id="SVGID_27_" gradientUnits="userSpaceOnUse" x1="39.5811" y1="27.2764" x2="28.9851" y2="-12.2682">
			<stop  offset="0" style="stop-color:#B1B3B5"/>
			<stop  offset="0.35" style="stop-color:#DBDCDD"/>
			<stop  offset="0.65" style="stop-color:#DBDCDD"/>
			<stop  offset="1" style="stop-color:#B1B3B5"/>
		</linearGradient>
		<path fill="url(#SVGID_27_)" d="M64.731,29.309c-6.608,6.668-23.9,11.215-42.965,11.295c-2.696,0.012-5.341-0.061-7.91-0.221
			c2.543,0.164,5.161,0.248,7.831,0.248c25.321,0,45.923-7.73,45.923-17.126c0-0.359-0.033-0.715-0.092-1.068
			c0.042,0.29,0.063,0.583,0.064,0.878C67.591,25.363,66.621,27.404,64.731,29.309z"/>
	</g>
	
		<linearGradient id="SVGID_28_" gradientUnits="userSpaceOnUse" x1="18.3833" y1="2120.3486" x2="18.3833" y2="2170.7615" gradientTransform="matrix(0.7 0 0 0.7 8.8148 -1478.4319)">
		<stop  offset="0" style="stop-color:#FFFFFF"/>
		<stop  offset="0.5162" style="stop-color:#FDFDFD"/>
		<stop  offset="0.691" style="stop-color:#F7F7F8"/>
		<stop  offset="0.8" style="stop-color:#D0D2D3"/>
		<stop  offset="1" style="stop-color:#BBBDBF"/>
	</linearGradient>
	<path fill="url(#SVGID_28_)" d="M21.685,38.623c-24.009,0-43.47-6.773-43.47-15.127c0-8.357,19.461-15.13,43.47-15.13
		c24.005,0,43.468,6.772,43.468,15.13C65.152,31.85,45.689,38.623,21.685,38.623z M21.685,9.677
		c-23.166,0-41.941,6.186-41.941,13.819c0,7.633,18.776,13.82,41.941,13.82c23.164,0,41.94-6.188,41.94-13.82
		C63.625,15.862,44.849,9.677,21.685,9.677z"/>
	
		<linearGradient id="SVGID_29_" gradientUnits="userSpaceOnUse" x1="28.7031" y1="2132.4023" x2="28.7031" y2="2157.405" gradientTransform="matrix(0.7 0 0 0.7 8.8148 -1475.5857)">
		<stop  offset="0" style="stop-color:#FFFFFF"/>
		<stop  offset="0.4294" style="stop-color:#FDFDFD"/>
		<stop  offset="0.5839" style="stop-color:#F6F7F7"/>
		<stop  offset="0.691" style="stop-color:#EBECEC"/>
		<stop  offset="0.8" style="stop-color:#E6E7E8"/>
		<stop  offset="1" style="stop-color:#D0D2D3"/>
	</linearGradient>
	<path fill="url(#SVGID_29_)" d="M48.751,18.545c0.06-0.105-0.005-0.182-0.137-0.182c-0.694,0-1.605,0.001-2.327,0.001
		c-0.175,0-0.262,0.021-0.344,0.181c-0.268,0.512-3.52,5.387-4.127,6.334c-0.102,0.145-0.225,0.125-0.24-0.039
		c-0.062-0.563-0.547-1.209-1.312-1.518c-0.583-0.237-1.154-0.28-1.746-0.201c-1.07,0.144-2.023,0.708-2.861,1.346
		c-1.263,0.961-2.353,2.205-3.761,3.123c-0.768,0.502-1.819,0.938-2.523,0.287c-0.636-0.592-0.565-1.904,0.409-2.918
		c0.104-0.105,0.228-0.016,0.208,0.078c-0.093,0.459,0.021,0.916,0.368,1.236c0.425,0.379,1.033,0.424,1.554,0.17
		c0.614-0.307,0.976-0.895,1.082-1.563c0.162-1.033-0.635-1.947-1.632-2.02c-0.811-0.057-1.587,0.225-2.343,0.85
		c-0.38,0.314-0.596,0.547-0.923,1.014c-0.081,0.115-0.203,0.127-0.2-0.043c0.039-1.326-0.51-2.071-1.606-2.096
		c-0.85-0.02-1.759,0.441-2.467,1.006c-0.777,0.625-1.455,1.449-2.183,2.227c-0.09,0.096-0.17,0.09-0.195-0.094
		c-0.022-0.879-0.242-1.729-0.649-2.334c-0.145-0.21-0.447-0.314-0.702-0.172c-0.117,0.064-0.526,0.252-0.822,0.492
		c-0.148,0.121-0.205,0.297-0.141,0.523c0.393,1.311,0.306,2.803-0.226,4.063c-0.489,1.154-1.438,2.195-2.556,2.547
		c-0.735,0.232-1.499,0.119-1.972-0.533c-0.65-0.898-0.387-2.465,0.58-3.764c0.855-1.145,2.091-1.871,3.326-2.34
		c0.145-0.057,0.174-0.148,0.134-0.272c-0.067-0.203-0.174-0.479-0.219-0.605c-0.113-0.301-0.429-0.35-0.815-0.308
		c-0.896,0.104-1.704,0.411-2.503,0.839c-2.091,1.122-3.139,3.288-3.599,4.446c-0.221,0.557-0.411,0.904-0.654,1.213
		c-0.33,0.416-0.743,0.791-1.5,1.457c-0.068,0.059-0.119,0.188-0.062,0.305c0.077,0.16,0.471,0.717,0.582,0.764
		c0.123,0.061,0.266-0.021,0.323-0.064c0.529-0.359,1.163-0.926,1.473-1.313c0.108-0.133,0.22-0.076,0.278,0.125
		c0.288,1.031,1.047,1.873,2.094,2.227c1.917,0.646,3.906-0.289,5.407-1.918c0.954-1.035,1.299-1.701,1.664-2.154
		c0.619-0.77,1.843-2.486,3.298-3.588c0.533-0.408,1.166-0.717,1.483-0.512c0.255,0.164,0.337,0.549-0.072,1.293
		c-1.483,2.711-3.668,5.896-4.069,6.668c-0.072,0.133-0.008,0.238,0.131,0.238c0.777-0.002,1.546-0.002,2.252-0.002
		c0.117-0.006,0.17-0.059,0.229-0.143c1.139-1.781,2.212-3.48,3.36-5.234c0.064-0.104,0.124-0.021,0.127,0.023
		c0.023,0.406,0.123,0.965,0.364,1.33c0.435,0.676,1.05,0.967,1.733,0.969c0.543,0.008,0.817-0.074,1.403-0.293
		c0.478-0.178,0.86-0.41,1.152-0.619c0.171-0.119,0.202,0.08,0.197,0.111c-0.264,1.414,0.062,3.092,1.469,3.787
		c1.684,0.83,3.533-0.338,4.599-1.391c0.103-0.1,0.214-0.09,0.227,0.127c0.021,0.402,0.203,0.881,0.536,1.215
		c0.893,0.895,2.692,0.541,4.498-0.857c1.159-0.895,2.372-2.16,3.469-3.5c0.04-0.051,0.071-0.133-0.009-0.219
		c-0.165-0.174-0.407-0.375-0.572-0.527c-0.076-0.064-0.187-0.047-0.25,0.002c-1.123,1.066-2.136,2.287-3.598,3.295
		c-0.492,0.344-1.277,0.621-1.63,0.145c-0.138-0.188-0.122-0.443,0.013-0.779C41.652,29.422,48.4,19.151,48.751,18.545z
		 M39.832,27.16c0.014,0.08,0.116,0.154,0.217,0.191c0.035,0.012,0.055,0.039,0.016,0.119c-0.287,0.615-0.552,0.971-0.911,1.504
		c-0.329,0.496-0.702,0.879-1.155,1.25c-0.679,0.563-1.624,1.176-2.405,0.762c-0.348-0.178-0.497-0.664-0.49-1.057
		c0.019-1.105,0.509-2.24,1.416-3.357c1.108-1.361,2.33-2.07,3.134-1.682c0.832,0.396,0.566,1.357,0.194,2.113
		C39.819,27.061,39.817,27.111,39.832,27.16z"/>
	
		<linearGradient id="SVGID_30_" gradientUnits="userSpaceOnUse" x1="8.8071" y1="2122.8848" x2="8.8071" y2="2157.5681" gradientTransform="matrix(0.7 0 0 0.7 8.8148 -1475.5857)">
		<stop  offset="0" style="stop-color:#FFFFFF"/>
		<stop  offset="0.4294" style="stop-color:#FDFDFD"/>
		<stop  offset="0.5839" style="stop-color:#F6F7F7"/>
		<stop  offset="0.691" style="stop-color:#EBECEC"/>
		<stop  offset="0.8" style="stop-color:#E6E7E8"/>
		<stop  offset="1" style="stop-color:#D0D2D3"/>
	</linearGradient>
	<path fill="url(#SVGID_30_)" d="M-0.189,33.008c-2.516,0.018-4.731-1.537-4.986-4.229c-0.141-1.492,0.281-2.82,1.125-3.916
		c0.749-0.976,2.016-1.787,3.089-1.985c0.348-0.064,0.817-0.023,1.011,0.208c0.305,0.354,0.217,0.742-0.086,0.897
		c-0.818,0.418-1.804,1.133-2.29,2.109c-0.396,0.799-0.476,1.758,0.128,2.674c1.011,1.525,3.826,1.568,6.444-0.865
		c0.649-0.596,1.229-1.166,1.82-1.846c1.152-1.316,1.537-1.799,3.069-3.926c0.018-0.023,0.022-0.056,0.015-0.072
		c-0.012-0.026-0.035-0.035-0.079-0.038c-1.023,0.029-1.916,0.333-2.783,0.981c-0.25,0.182-0.608,0.157-0.766-0.083
		c-0.176-0.271-0.05-0.624,0.238-0.823c1.395-0.97,2.919-1.146,4.476-1.409c-0.001,0,0.108,0.005,0.198-0.113
		c0.639-0.82,1.121-1.56,1.801-2.389c0.686-0.842,1.573-1.614,2.251-2.194c0.945-0.813,1.551-1.087,2.166-1.422
		c0.163-0.084-0.02-0.187-0.069-0.187c-3.44-0.646-7.015-1.482-10.431-0.218c-2.366,0.883-3.403,2.76-2.904,4.013
		c0.355,0.889,1.524,1.034,2.619,0.498c0.91-0.446,1.751-1.164,2.349-2.088c0.334-0.514,1.037-0.143,0.657,0.749
		c-1,2.35-2.909,4.213-5.235,4.292c-1.979,0.065-3.258-1.392-3.253-3.188c0.007-3.544,3.954-5.879,8.099-6.228
		c4.995-0.413,9.724,0.917,14.682,1.519c3.799,0.459,7.44,0.469,11.259-0.408c0.451-0.098,0.769,0.19,0.738,0.646
		c-0.036,0.659-0.547,1.293-1.806,1.979c-1.43,0.785-2.925,1.022-4.488,1.035c-3.778,0.031-7.298-1.441-10.94-2.233
		c0.004,0.159,0.046,0.35-0.088,0.45c-2.017,1.488-3.841,3-5.063,5.122c-0.042,0.049-0.02,0.096,0.052,0.091
		c1.061-0.057,2.014-0.084,3.005-0.163c0.172-0.015,0.178-0.057,0.163-0.184c-0.086-0.731,0.127-1.566,0.771-2.14
		c0.658-0.591,1.482-0.658,2.029-0.232c0.621,0.484,0.567,1.355,0.227,2.009c-0.347,0.663-0.918,1.017-1.467,1.188
		c0,0-0.114,0.026-0.097,0.13c0.022,0.167,0.768,0.581,0.833,0.692c0.063,0.104,0.03,0.267-0.084,0.393
		c-0.079,0.09-0.203,0.175-0.362,0.172c-0.128-0.002-0.206-0.047-0.37-0.136c-0.334-0.182-0.754-0.48-1.033-0.833
		c-0.096-0.119-0.145-0.122-0.383-0.108c-1.071,0.062-2.741,0.223-3.873,0.365c-0.274,0.034-0.314,0.085-0.372,0.18
		c-1.804,2.977-3.731,6.186-5.847,8.334C3.699,32.385,1.813,32.992-0.189,33.008z M17.007,19.784
		c0.028,0.153,0.088,0.182,0.157,0.169c0.344-0.069,0.72-0.352,0.942-0.679c0.202-0.296,0.298-0.726,0.096-0.898
		c-0.18-0.154-0.472-0.11-0.689,0.081C17.083,18.839,16.952,19.38,17.007,19.784L17.007,19.784"/>
</g>
</svg>
