<?xml version="1.0" encoding="utf-8"?>
<!-- Generator: Adobe Illustrator 16.0.0, SVG Export Plug-In . SVG Version: 6.00 Build 0)  -->
<!DOCTYPE svg PUBLIC "-//W3C//DTD SVG 1.1//EN" "http://www.w3.org/Graphics/SVG/1.1/DTD/svg11.dtd">
<svg version="1.1" id="Слой_1" xmlns="http://www.w3.org/2000/svg" xmlns:xlink="http://www.w3.org/1999/xlink" x="0px" y="0px"
	 width="252.283px" height="141.732px" viewBox="-79.954 -53.366 252.283 141.732"
	 enable-background="new -79.954 -53.366 252.283 141.732" xml:space="preserve">
<g>
	<g>
		<defs>
			<path id="SVGID_1_" d="M46.182,84.094c-33.013,0-64.118-6.674-87.591-18.79c-14.057-7.266-37.638-23.137-37.638-47.803
				c0-24.669,23.581-40.532,37.638-47.793c23.466-12.123,54.573-18.801,87.591-18.801c33.03,0,64.144,6.678,87.598,18.801
				c14.058,7.259,37.643,23.12,37.643,47.793c0,24.669-23.585,40.539-37.643,47.803C110.333,77.42,79.225,84.094,46.182,84.094z"/>
		</defs>
		<clipPath id="SVGID_2_">
			<use xlink:href="#SVGID_1_"  overflow="visible"/>
		</clipPath>
		<g clip-path="url(#SVGID_2_)">
			<g>
				<g>
					
						<radialGradient id="SVGID_3_" cx="-86.7236" cy="-90.4912" r="515.778" gradientTransform="matrix(1.0007 0 0 0.5766 -0.683 -38.008)" gradientUnits="userSpaceOnUse">
						<stop  offset="0.2513" style="stop-color:#F2F2F2"/>
						<stop  offset="0.4163" style="stop-color:#F2F2F2"/>
						<stop  offset="0.6194" style="stop-color:#BFBFBF"/>
						<stop  offset="0.7446" style="stop-color:#E0E0E0"/>
					</radialGradient>
					<path fill="url(#SVGID_3_)" d="M46.182,84.094c-33.013,0-64.118-6.674-87.591-18.79c-14.057-7.266-37.638-23.137-37.638-47.803
						c0-24.669,23.581-40.532,37.638-47.793c23.466-12.123,54.573-18.801,87.591-18.801c33.03,0,64.144,6.678,87.598,18.801
						c14.058,7.259,37.643,23.12,37.643,47.793c0,24.669-23.585,40.539-37.643,47.803C110.333,77.42,79.225,84.094,46.182,84.094z"
						/>
					
						<linearGradient id="SVGID_4_" gradientUnits="userSpaceOnUse" x1="-27.7886" y1="-86.085" x2="125.1467" y2="125.4425" gradientTransform="matrix(1.0007 0 0 1.0006 -0.683 0.3583)">
						<stop  offset="0" style="stop-color:#FFFFFF"/>
						<stop  offset="0.338" style="stop-color:#FFFFFF"/>
						<stop  offset="0.5031" style="stop-color:#E6E6E6"/>
						<stop  offset="0.6012" style="stop-color:#FFFFFF"/>
						<stop  offset="0.7625" style="stop-color:#FFFFFF"/>
						<stop  offset="1" style="stop-color:#B2B2B2"/>
					</linearGradient>
					<path fill="url(#SVGID_4_)" d="M46.182,84.094c-33.013,0-64.118-6.674-87.591-18.79c-14.057-7.266-37.638-23.137-37.638-47.803
						c0-24.669,23.581-40.532,37.638-47.793c23.466-12.123,54.573-18.801,87.591-18.801c33.03,0,64.144,6.678,87.598,18.801
						c14.058,7.259,37.643,23.12,37.643,47.793c0,24.669-23.585,40.539-37.643,47.803C110.333,77.42,79.225,84.094,46.182,84.094z"
						/>
					
						<linearGradient id="SVGID_5_" gradientUnits="userSpaceOnUse" x1="-27.7886" y1="-86.085" x2="147.9978" y2="157.0482" gradientTransform="matrix(1.0007 0 0 1.0006 -0.683 0.3583)">
						<stop  offset="0.6682" style="stop-color:#000000"/>
						<stop  offset="0.8486" style="stop-color:#FFFFFF"/>
						<stop  offset="0.9851" style="stop-color:#000000"/>
					</linearGradient>
					<path fill="url(#SVGID_5_)" d="M46.182,84.094c-33.013,0-64.118-6.674-87.591-18.79c-14.057-7.266-37.638-23.137-37.638-47.803
						c0-24.669,23.581-40.532,37.638-47.793c23.466-12.123,54.573-18.801,87.591-18.801c33.03,0,64.144,6.678,87.598,18.801
						c14.058,7.259,37.643,23.12,37.643,47.793c0,24.669-23.585,40.539-37.643,47.803C110.333,77.42,79.225,84.094,46.182,84.094z"
						/>
					
						<radialGradient id="SVGID_6_" cx="56.4727" cy="16.7456" r="170.3536" gradientTransform="matrix(1.0007 0 0 0.3025 -0.683 12.0481)" gradientUnits="userSpaceOnUse">
						<stop  offset="0" style="stop-color:#FFFFFF"/>
						<stop  offset="0.0754" style="stop-color:#E7E7E7"/>
						<stop  offset="0.235" style="stop-color:#A9A9A9"/>
						<stop  offset="0.4636" style="stop-color:#474747"/>
						<stop  offset="0.6198" style="stop-color:#000000"/>
					</radialGradient>
					<path opacity="0.8" fill="url(#SVGID_6_)" d="M46.182,84.094c-33.013,0-64.118-6.674-87.591-18.79
						c-14.057-7.266-37.638-23.137-37.638-47.803c0-24.669,23.581-40.532,37.638-47.793c23.466-12.123,54.573-18.801,87.591-18.801
						c33.03,0,64.144,6.678,87.598,18.801c14.058,7.259,37.643,23.12,37.643,47.793c0,24.669-23.585,40.539-37.643,47.803
						C110.333,77.42,79.225,84.094,46.182,84.094z"/>
					
						<radialGradient id="SVGID_7_" cx="-74.8994" cy="13.2739" r="163.5958" gradientTransform="matrix(1.0007 0 0 0.3025 -0.683 9.6246)" gradientUnits="userSpaceOnUse">
						<stop  offset="0" style="stop-color:#909393"/>
						<stop  offset="0.1895" style="stop-color:#A8AAAA"/>
						<stop  offset="0.5877" style="stop-color:#E5E6E6"/>
						<stop  offset="0.7442" style="stop-color:#FFFFFF"/>
					</radialGradient>
					<path opacity="0.55" fill="url(#SVGID_7_)" d="M46.182,84.094c-33.013,0-64.118-6.674-87.591-18.79
						c-14.057-7.266-37.638-23.137-37.638-47.803c0-24.669,23.581-40.532,37.638-47.793c23.466-12.123,54.573-18.801,87.591-18.801
						c33.03,0,64.144,6.678,87.598,18.801c14.058,7.259,37.643,23.12,37.643,47.793c0,24.669-23.585,40.539-37.643,47.803
						C110.333,77.42,79.225,84.094,46.182,84.094z"/>
					
						<radialGradient id="SVGID_8_" cx="24.3584" cy="-70.8203" r="83.4866" gradientTransform="matrix(0.9877 -0.1608 0.0678 0.4166 4.4377 -37.0838)" gradientUnits="userSpaceOnUse">
						<stop  offset="0" style="stop-color:#7D8180"/>
						<stop  offset="0.2213" style="stop-color:#959897"/>
						<stop  offset="0.6858" style="stop-color:#D2D4D3"/>
						<stop  offset="1" style="stop-color:#FFFFFF"/>
					</radialGradient>
					<path opacity="0.55" fill="url(#SVGID_8_)" d="M46.182,84.094c-33.013,0-64.118-6.674-87.591-18.79
						c-14.057-7.266-37.638-23.137-37.638-47.803c0-24.669,23.581-40.532,37.638-47.793c23.466-12.123,54.573-18.801,87.591-18.801
						c33.03,0,64.144,6.678,87.598,18.801c14.058,7.259,37.643,23.12,37.643,47.793c0,24.669-23.585,40.539-37.643,47.803
						C110.333,77.42,79.225,84.094,46.182,84.094z"/>
					
						<radialGradient id="SVGID_9_" cx="127.7051" cy="74.9922" r="98.1841" gradientTransform="matrix(0.6321 -0.7757 0.264 0.2151 26.5909 158.3278)" gradientUnits="userSpaceOnUse">
						<stop  offset="0" style="stop-color:#FFFFFF"/>
						<stop  offset="0.9591" style="stop-color:#000000"/>
					</radialGradient>
					<path opacity="0.7" fill="url(#SVGID_9_)" d="M46.182,84.094c-33.013,0-64.118-6.674-87.591-18.79
						c-14.057-7.266-37.638-23.137-37.638-47.803c0-24.669,23.581-40.532,37.638-47.793c23.466-12.123,54.573-18.801,87.591-18.801
						c33.03,0,64.144,6.678,87.598,18.801c14.058,7.259,37.643,23.12,37.643,47.793c0,24.669-23.585,40.539-37.643,47.803
						C110.333,77.42,79.225,84.094,46.182,84.094z"/>
					
						<radialGradient id="SVGID_10_" cx="135.3672" cy="120.6064" r="69.4954" gradientTransform="matrix(-0.2386 -0.9717 1.9486 -0.4784 -67.9376 310.2729)" gradientUnits="userSpaceOnUse">
						<stop  offset="0.3406" style="stop-color:#909393"/>
						<stop  offset="0.9418" style="stop-color:#FFFFFF"/>
					</radialGradient>
					<path fill="url(#SVGID_10_)" d="M46.182,84.094c-33.013,0-64.118-6.674-87.591-18.79
						c-14.057-7.266-37.638-23.137-37.638-47.803c0-24.669,23.581-40.532,37.638-47.793c23.466-12.123,54.573-18.801,87.591-18.801
						c33.03,0,64.144,6.678,87.598,18.801c14.058,7.259,37.643,23.12,37.643,47.793c0,24.669-23.585,40.539-37.643,47.803
						C110.333,77.42,79.225,84.094,46.182,84.094z"/>
					
						<radialGradient id="SVGID_11_" cx="-36.8755" cy="122.1494" r="61.9942" gradientTransform="matrix(0.3017 -0.954 1.9131 0.605 -260.1413 13.5063)" gradientUnits="userSpaceOnUse">
						<stop  offset="0.3406" style="stop-color:#909393"/>
						<stop  offset="0.9418" style="stop-color:#FFFFFF"/>
					</radialGradient>
					<path fill="url(#SVGID_11_)" d="M46.182,84.094c-33.013,0-64.118-6.674-87.591-18.79
						c-14.057-7.266-37.638-23.137-37.638-47.803c0-24.669,23.581-40.532,37.638-47.793c23.466-12.123,54.573-18.801,87.591-18.801
						c33.03,0,64.144,6.678,87.598,18.801c14.058,7.259,37.643,23.12,37.643,47.793c0,24.669-23.585,40.539-37.643,47.803
						C110.333,77.42,79.225,84.094,46.182,84.094z"/>
				</g>
				<g>
					
						<radialGradient id="SVGID_12_" cx="-86.7046" cy="-90.5034" r="515.7785" gradientTransform="matrix(0.9779 0.2122 -0.1223 0.5635 -13.724 -20.8026)" gradientUnits="userSpaceOnUse">
						<stop  offset="0.4163" style="stop-color:#999999"/>
						<stop  offset="0.6194" style="stop-color:#4D4D4D"/>
						<stop  offset="0.7446" style="stop-color:#B2B2B2"/>
					</radialGradient>
					<path fill="url(#SVGID_12_)" d="M46.182,84.094c-33.013,0-64.118-6.674-87.591-18.79
						c-14.057-7.266-37.638-23.137-37.638-47.803c0-24.669,23.581-40.532,37.638-47.793c23.466-12.123,54.573-18.801,87.591-18.801
						c33.03,0,64.144,6.678,87.598,18.801c14.058,7.259,37.643,23.12,37.643,47.793c0,24.669-23.585,40.539-37.643,47.803
						C110.333,77.42,79.225,84.094,46.182,84.094z"/>
					
						<radialGradient id="SVGID_13_" cx="-86.7046" cy="-90.5034" r="515.7785" gradientTransform="matrix(0.9779 0.2122 -0.1223 0.5635 -13.724 -20.8026)" gradientUnits="userSpaceOnUse">
						<stop  offset="0.4163" style="stop-color:#999999"/>
						<stop  offset="0.6194" style="stop-color:#4D4D4D"/>
						<stop  offset="0.7446" style="stop-color:#B2B2B2"/>
					</radialGradient>
					<path fill="url(#SVGID_13_)" d="M46.182,84.094c-33.013,0-64.118-6.674-87.591-18.79
						c-14.057-7.266-37.638-23.137-37.638-47.803c0-24.669,23.581-40.532,37.638-47.793c23.466-12.123,54.573-18.801,87.591-18.801
						c33.03,0,64.144,6.678,87.598,18.801c14.058,7.259,37.643,23.12,37.643,47.793c0,24.669-23.585,40.539-37.643,47.803
						C110.333,77.42,79.225,84.094,46.182,84.094z"/>
					
						<radialGradient id="SVGID_14_" cx="-86.7046" cy="-90.5034" r="515.7785" gradientTransform="matrix(0.9779 0.2122 -0.1223 0.5635 -13.724 -20.8026)" gradientUnits="userSpaceOnUse">
						<stop  offset="0.4163" style="stop-color:#999999"/>
						<stop  offset="0.6194" style="stop-color:#4D4D4D"/>
						<stop  offset="0.7446" style="stop-color:#B2B2B2"/>
					</radialGradient>
					<path fill="url(#SVGID_14_)" d="M46.182,84.094c-33.013,0-64.118-6.674-87.591-18.79
						c-14.057-7.266-37.638-23.137-37.638-47.803c0-24.669,23.581-40.532,37.638-47.793c23.466-12.123,54.573-18.801,87.591-18.801
						c33.03,0,64.144,6.678,87.598,18.801c14.058,7.259,37.643,23.12,37.643,47.793c0,24.669-23.585,40.539-37.643,47.803
						C110.333,77.42,79.225,84.094,46.182,84.094z"/>
					
						<radialGradient id="SVGID_15_" cx="-86.7046" cy="-90.5034" r="515.7785" gradientTransform="matrix(0.9779 0.2122 -0.1223 0.5635 -13.724 -20.8026)" gradientUnits="userSpaceOnUse">
						<stop  offset="0.4163" style="stop-color:#999999"/>
						<stop  offset="0.6194" style="stop-color:#4D4D4D"/>
						<stop  offset="0.7446" style="stop-color:#B2B2B2"/>
					</radialGradient>
					<path fill="url(#SVGID_15_)" d="M46.182,84.094c-33.013,0-64.118-6.674-87.591-18.79
						c-14.057-7.266-37.638-23.137-37.638-47.803c0-24.669,23.581-40.532,37.638-47.793c23.466-12.123,54.573-18.801,87.591-18.801
						c33.03,0,64.144,6.678,87.598,18.801c14.058,7.259,37.643,23.12,37.643,47.793c0,24.669-23.585,40.539-37.643,47.803
						C110.333,77.42,79.225,84.094,46.182,84.094z"/>
					
						<radialGradient id="SVGID_16_" cx="-86.7046" cy="-90.5034" r="515.7785" gradientTransform="matrix(0.9779 0.2122 -0.1223 0.5635 -13.724 -20.8026)" gradientUnits="userSpaceOnUse">
						<stop  offset="0.4163" style="stop-color:#999999"/>
						<stop  offset="0.6194" style="stop-color:#4D4D4D"/>
						<stop  offset="0.7446" style="stop-color:#B2B2B2"/>
					</radialGradient>
					<path fill="url(#SVGID_16_)" d="M46.182,84.094c-33.013,0-64.118-6.674-87.591-18.79
						c-14.057-7.266-37.638-23.137-37.638-47.803c0-24.669,23.581-40.532,37.638-47.793c23.466-12.123,54.573-18.801,87.591-18.801
						c33.03,0,64.144,6.678,87.598,18.801c14.058,7.259,37.643,23.12,37.643,47.793c0,24.669-23.585,40.539-37.643,47.803
						C110.333,77.42,79.225,84.094,46.182,84.094z"/>
					
						<radialGradient id="SVGID_17_" cx="-86.7046" cy="-90.5034" r="515.7785" gradientTransform="matrix(0.9779 0.2122 -0.1223 0.5635 -13.724 -20.8026)" gradientUnits="userSpaceOnUse">
						<stop  offset="0.4163" style="stop-color:#999999"/>
						<stop  offset="0.6194" style="stop-color:#4D4D4D"/>
						<stop  offset="0.7446" style="stop-color:#B2B2B2"/>
					</radialGradient>
					<path fill="url(#SVGID_17_)" d="M46.182,84.094c-33.013,0-64.118-6.674-87.591-18.79
						c-14.057-7.266-37.638-23.137-37.638-47.803c0-24.669,23.581-40.532,37.638-47.793c23.466-12.123,54.573-18.801,87.591-18.801
						c33.03,0,64.144,6.678,87.598,18.801c14.058,7.259,37.643,23.12,37.643,47.793c0,24.669-23.585,40.539-37.643,47.803
						C110.333,77.42,79.225,84.094,46.182,84.094z"/>
					
						<radialGradient id="SVGID_18_" cx="-86.7046" cy="-90.5034" r="515.7785" gradientTransform="matrix(0.9779 0.2122 -0.1223 0.5635 -13.724 -20.8026)" gradientUnits="userSpaceOnUse">
						<stop  offset="0.4163" style="stop-color:#999999"/>
						<stop  offset="0.6194" style="stop-color:#4D4D4D"/>
						<stop  offset="0.7446" style="stop-color:#B2B2B2"/>
					</radialGradient>
					<path fill="url(#SVGID_18_)" d="M46.182,84.094c-33.013,0-64.118-6.674-87.591-18.79
						c-14.057-7.266-37.638-23.137-37.638-47.803c0-24.669,23.581-40.532,37.638-47.793c23.466-12.123,54.573-18.801,87.591-18.801
						c33.03,0,64.144,6.678,87.598,18.801c14.058,7.259,37.643,23.12,37.643,47.793c0,24.669-23.585,40.539-37.643,47.803
						C110.333,77.42,79.225,84.094,46.182,84.094z"/>
					
						<radialGradient id="SVGID_19_" cx="-86.7046" cy="-90.5034" r="515.7785" gradientTransform="matrix(0.9779 0.2122 -0.1223 0.5635 -13.724 -20.8026)" gradientUnits="userSpaceOnUse">
						<stop  offset="0.4163" style="stop-color:#999999"/>
						<stop  offset="0.6194" style="stop-color:#4D4D4D"/>
						<stop  offset="0.7446" style="stop-color:#B2B2B2"/>
					</radialGradient>
					<path fill="url(#SVGID_19_)" d="M46.182,84.094c-33.013,0-64.118-6.674-87.591-18.79
						c-14.057-7.266-37.638-23.137-37.638-47.803c0-24.669,23.581-40.532,37.638-47.793c23.466-12.123,54.573-18.801,87.591-18.801
						c33.03,0,64.144,6.678,87.598,18.801c14.058,7.259,37.643,23.12,37.643,47.793c0,24.669-23.585,40.539-37.643,47.803
						C110.333,77.42,79.225,84.094,46.182,84.094z"/>
					
						<radialGradient id="SVGID_20_" cx="-86.7046" cy="-90.5034" r="515.7785" gradientTransform="matrix(0.9779 0.2122 -0.1223 0.5635 -13.724 -20.8026)" gradientUnits="userSpaceOnUse">
						<stop  offset="0.4163" style="stop-color:#999999"/>
						<stop  offset="0.6194" style="stop-color:#4D4D4D"/>
						<stop  offset="0.7446" style="stop-color:#B2B2B2"/>
					</radialGradient>
					<path fill="url(#SVGID_20_)" d="M46.182,84.094c-33.013,0-64.118-6.674-87.591-18.79
						c-14.057-7.266-37.638-23.137-37.638-47.803c0-24.669,23.581-40.532,37.638-47.793c23.466-12.123,54.573-18.801,87.591-18.801
						c33.03,0,64.144,6.678,87.598,18.801c14.058,7.259,37.643,23.12,37.643,47.793c0,24.669-23.585,40.539-37.643,47.803
						C110.333,77.42,79.225,84.094,46.182,84.094z"/>
					
						<radialGradient id="SVGID_21_" cx="-86.7046" cy="-90.5034" r="515.7785" gradientTransform="matrix(0.9779 0.2122 -0.1223 0.5635 -13.724 -20.8026)" gradientUnits="userSpaceOnUse">
						<stop  offset="0.4163" style="stop-color:#999999"/>
						<stop  offset="0.6194" style="stop-color:#4D4D4D"/>
						<stop  offset="0.7446" style="stop-color:#B2B2B2"/>
					</radialGradient>
					<path fill="url(#SVGID_21_)" d="M46.182,84.094c-33.013,0-64.118-6.674-87.591-18.79
						c-14.057-7.266-37.638-23.137-37.638-47.803c0-24.669,23.581-40.532,37.638-47.793c23.466-12.123,54.573-18.801,87.591-18.801
						c33.03,0,64.144,6.678,87.598,18.801c14.058,7.259,37.643,23.12,37.643,47.793c0,24.669-23.585,40.539-37.643,47.803
						C110.333,77.42,79.225,84.094,46.182,84.094z"/>
				</g>
				<g opacity="0.55">
					
						<radialGradient id="SVGID_22_" cx="-0.1689" cy="-49.4644" r="137.6498" gradientTransform="matrix(0.9877 -0.1608 0.0678 0.4166 2.67 -28.5557)" gradientUnits="userSpaceOnUse">
						<stop  offset="0" style="stop-color:#333333"/>
						<stop  offset="0.1482" style="stop-color:#4B4B4B"/>
						<stop  offset="0.462" style="stop-color:#898989"/>
						<stop  offset="0.9124" style="stop-color:#EBEBEB"/>
						<stop  offset="1" style="stop-color:#FFFFFF"/>
					</radialGradient>
					<path fill="url(#SVGID_22_)" d="M46.182,84.094c-33.013,0-64.118-6.674-87.591-18.79
						c-14.057-7.266-37.638-23.137-37.638-47.803c0-24.669,23.581-40.532,37.638-47.793c23.466-12.123,54.573-18.801,87.591-18.801
						c33.03,0,64.144,6.678,87.598,18.801c14.058,7.259,37.643,23.12,37.643,47.793c0,24.669-23.585,40.539-37.643,47.803
						C110.333,77.42,79.225,84.094,46.182,84.094z"/>
					
						<radialGradient id="SVGID_23_" cx="-0.1689" cy="-49.4644" r="137.6498" gradientTransform="matrix(0.9877 -0.1608 0.0678 0.4166 2.67 -28.5557)" gradientUnits="userSpaceOnUse">
						<stop  offset="0" style="stop-color:#333333"/>
						<stop  offset="0.1482" style="stop-color:#4B4B4B"/>
						<stop  offset="0.462" style="stop-color:#898989"/>
						<stop  offset="0.9124" style="stop-color:#EBEBEB"/>
						<stop  offset="1" style="stop-color:#FFFFFF"/>
					</radialGradient>
					<path fill="url(#SVGID_23_)" d="M46.182,84.094c-33.013,0-64.118-6.674-87.591-18.79
						c-14.057-7.266-37.638-23.137-37.638-47.803c0-24.669,23.581-40.532,37.638-47.793c23.466-12.123,54.573-18.801,87.591-18.801
						c33.03,0,64.144,6.678,87.598,18.801c14.058,7.259,37.643,23.12,37.643,47.793c0,24.669-23.585,40.539-37.643,47.803
						C110.333,77.42,79.225,84.094,46.182,84.094z"/>
					
						<radialGradient id="SVGID_24_" cx="-0.1689" cy="-49.4644" r="137.6498" gradientTransform="matrix(0.9877 -0.1608 0.0678 0.4166 2.67 -28.5557)" gradientUnits="userSpaceOnUse">
						<stop  offset="0" style="stop-color:#333333"/>
						<stop  offset="0.1482" style="stop-color:#4B4B4B"/>
						<stop  offset="0.462" style="stop-color:#898989"/>
						<stop  offset="0.9124" style="stop-color:#EBEBEB"/>
						<stop  offset="1" style="stop-color:#FFFFFF"/>
					</radialGradient>
					<path fill="url(#SVGID_24_)" d="M46.182,84.094c-33.013,0-64.118-6.674-87.591-18.79
						c-14.057-7.266-37.638-23.137-37.638-47.803c0-24.669,23.581-40.532,37.638-47.793c23.466-12.123,54.573-18.801,87.591-18.801
						c33.03,0,64.144,6.678,87.598,18.801c14.058,7.259,37.643,23.12,37.643,47.793c0,24.669-23.585,40.539-37.643,47.803
						C110.333,77.42,79.225,84.094,46.182,84.094z"/>
					
						<radialGradient id="SVGID_25_" cx="-0.1689" cy="-49.4644" r="137.6498" gradientTransform="matrix(0.9877 -0.1608 0.0678 0.4166 2.67 -28.5557)" gradientUnits="userSpaceOnUse">
						<stop  offset="0" style="stop-color:#333333"/>
						<stop  offset="0.1482" style="stop-color:#4B4B4B"/>
						<stop  offset="0.462" style="stop-color:#898989"/>
						<stop  offset="0.9124" style="stop-color:#EBEBEB"/>
						<stop  offset="1" style="stop-color:#FFFFFF"/>
					</radialGradient>
					<path fill="url(#SVGID_25_)" d="M46.182,84.094c-33.013,0-64.118-6.674-87.591-18.79
						c-14.057-7.266-37.638-23.137-37.638-47.803c0-24.669,23.581-40.532,37.638-47.793c23.466-12.123,54.573-18.801,87.591-18.801
						c33.03,0,64.144,6.678,87.598,18.801c14.058,7.259,37.643,23.12,37.643,47.793c0,24.669-23.585,40.539-37.643,47.803
						C110.333,77.42,79.225,84.094,46.182,84.094z"/>
					
						<radialGradient id="SVGID_26_" cx="-0.1689" cy="-49.4644" r="137.6498" gradientTransform="matrix(0.9877 -0.1608 0.0678 0.4166 2.67 -28.5557)" gradientUnits="userSpaceOnUse">
						<stop  offset="0" style="stop-color:#333333"/>
						<stop  offset="0.1482" style="stop-color:#4B4B4B"/>
						<stop  offset="0.462" style="stop-color:#898989"/>
						<stop  offset="0.9124" style="stop-color:#EBEBEB"/>
						<stop  offset="1" style="stop-color:#FFFFFF"/>
					</radialGradient>
					<path fill="url(#SVGID_26_)" d="M46.182,84.094c-33.013,0-64.118-6.674-87.591-18.79
						c-14.057-7.266-37.638-23.137-37.638-47.803c0-24.669,23.581-40.532,37.638-47.793c23.466-12.123,54.573-18.801,87.591-18.801
						c33.03,0,64.144,6.678,87.598,18.801c14.058,7.259,37.643,23.12,37.643,47.793c0,24.669-23.585,40.539-37.643,47.803
						C110.333,77.42,79.225,84.094,46.182,84.094z"/>
					
						<radialGradient id="SVGID_27_" cx="-0.1689" cy="-49.4644" r="137.6498" gradientTransform="matrix(0.9877 -0.1608 0.0678 0.4166 2.67 -28.5557)" gradientUnits="userSpaceOnUse">
						<stop  offset="0" style="stop-color:#333333"/>
						<stop  offset="0.1482" style="stop-color:#4B4B4B"/>
						<stop  offset="0.462" style="stop-color:#898989"/>
						<stop  offset="0.9124" style="stop-color:#EBEBEB"/>
						<stop  offset="1" style="stop-color:#FFFFFF"/>
					</radialGradient>
					<path fill="url(#SVGID_27_)" d="M46.182,84.094c-33.013,0-64.118-6.674-87.591-18.79
						c-14.057-7.266-37.638-23.137-37.638-47.803c0-24.669,23.581-40.532,37.638-47.793c23.466-12.123,54.573-18.801,87.591-18.801
						c33.03,0,64.144,6.678,87.598,18.801c14.058,7.259,37.643,23.12,37.643,47.793c0,24.669-23.585,40.539-37.643,47.803
						C110.333,77.42,79.225,84.094,46.182,84.094z"/>
					
						<radialGradient id="SVGID_28_" cx="-0.1689" cy="-49.4644" r="137.6498" gradientTransform="matrix(0.9877 -0.1608 0.0678 0.4166 2.67 -28.5557)" gradientUnits="userSpaceOnUse">
						<stop  offset="0" style="stop-color:#333333"/>
						<stop  offset="0.1482" style="stop-color:#4B4B4B"/>
						<stop  offset="0.462" style="stop-color:#898989"/>
						<stop  offset="0.9124" style="stop-color:#EBEBEB"/>
						<stop  offset="1" style="stop-color:#FFFFFF"/>
					</radialGradient>
					<path fill="url(#SVGID_28_)" d="M46.182,84.094c-33.013,0-64.118-6.674-87.591-18.79
						c-14.057-7.266-37.638-23.137-37.638-47.803c0-24.669,23.581-40.532,37.638-47.793c23.466-12.123,54.573-18.801,87.591-18.801
						c33.03,0,64.144,6.678,87.598,18.801c14.058,7.259,37.643,23.12,37.643,47.793c0,24.669-23.585,40.539-37.643,47.803
						C110.333,77.42,79.225,84.094,46.182,84.094z"/>
					
						<radialGradient id="SVGID_29_" cx="-0.1689" cy="-49.4644" r="137.6498" gradientTransform="matrix(0.9877 -0.1608 0.0678 0.4166 2.67 -28.5557)" gradientUnits="userSpaceOnUse">
						<stop  offset="0" style="stop-color:#333333"/>
						<stop  offset="0.1482" style="stop-color:#4B4B4B"/>
						<stop  offset="0.462" style="stop-color:#898989"/>
						<stop  offset="0.9124" style="stop-color:#EBEBEB"/>
						<stop  offset="1" style="stop-color:#FFFFFF"/>
					</radialGradient>
					<path fill="url(#SVGID_29_)" d="M46.182,84.094c-33.013,0-64.118-6.674-87.591-18.79
						c-14.057-7.266-37.638-23.137-37.638-47.803c0-24.669,23.581-40.532,37.638-47.793c23.466-12.123,54.573-18.801,87.591-18.801
						c33.03,0,64.144,6.678,87.598,18.801c14.058,7.259,37.643,23.12,37.643,47.793c0,24.669-23.585,40.539-37.643,47.803
						C110.333,77.42,79.225,84.094,46.182,84.094z"/>
					
						<radialGradient id="SVGID_30_" cx="-0.1689" cy="-49.4644" r="137.6498" gradientTransform="matrix(0.9877 -0.1608 0.0678 0.4166 2.67 -28.5557)" gradientUnits="userSpaceOnUse">
						<stop  offset="0" style="stop-color:#333333"/>
						<stop  offset="0.1482" style="stop-color:#4B4B4B"/>
						<stop  offset="0.462" style="stop-color:#898989"/>
						<stop  offset="0.9124" style="stop-color:#EBEBEB"/>
						<stop  offset="1" style="stop-color:#FFFFFF"/>
					</radialGradient>
					<path fill="url(#SVGID_30_)" d="M46.182,84.094c-33.013,0-64.118-6.674-87.591-18.79
						c-14.057-7.266-37.638-23.137-37.638-47.803c0-24.669,23.581-40.532,37.638-47.793c23.466-12.123,54.573-18.801,87.591-18.801
						c33.03,0,64.144,6.678,87.598,18.801c14.058,7.259,37.643,23.12,37.643,47.793c0,24.669-23.585,40.539-37.643,47.803
						C110.333,77.42,79.225,84.094,46.182,84.094z"/>
					
						<radialGradient id="SVGID_31_" cx="-0.1689" cy="-49.4644" r="137.6498" gradientTransform="matrix(0.9877 -0.1608 0.0678 0.4166 2.67 -28.5557)" gradientUnits="userSpaceOnUse">
						<stop  offset="0" style="stop-color:#333333"/>
						<stop  offset="0.1482" style="stop-color:#4B4B4B"/>
						<stop  offset="0.462" style="stop-color:#898989"/>
						<stop  offset="0.9124" style="stop-color:#EBEBEB"/>
						<stop  offset="1" style="stop-color:#FFFFFF"/>
					</radialGradient>
					<path fill="url(#SVGID_31_)" d="M46.182,84.094c-33.013,0-64.118-6.674-87.591-18.79
						c-14.057-7.266-37.638-23.137-37.638-47.803c0-24.669,23.581-40.532,37.638-47.793c23.466-12.123,54.573-18.801,87.591-18.801
						c33.03,0,64.144,6.678,87.598,18.801c14.058,7.259,37.643,23.12,37.643,47.793c0,24.669-23.585,40.539-37.643,47.803
						C110.333,77.42,79.225,84.094,46.182,84.094z"/>
				</g>
			</g>
			<g>
				
					<radialGradient id="SVGID_32_" cx="14.6797" cy="-31.0356" r="149.2949" fx="10.3284" fy="-31.3013" gradientTransform="matrix(1 0 0 0.53 0 -14.5867)" gradientUnits="userSpaceOnUse">
					<stop  offset="0.6" style="stop-color:#006537"/>
					<stop  offset="1" style="stop-color:#003D24"/>
				</radialGradient>
				<path fill="url(#SVGID_32_)" d="M46.229,77.313L46.229,77.313c-32.439,0-62.86-6.487-85.675-18.274
					C-61.381,47.7-73.469,32.937-73.469,17.467c0-15.479,12.088-30.242,34.022-41.574c22.814-11.787,53.235-18.281,85.675-18.281
					c32.447,0,62.875,6.494,85.682,18.281c21.943,11.332,34.024,26.095,34.024,41.574c0,15.47-12.081,30.233-34.024,41.572
					C109.104,70.826,78.676,77.313,46.229,77.313"/>
				
					<radialGradient id="SVGID_33_" cx="27.9233" cy="8.3086" r="190.7325" fx="22.3557" fy="8.1686" gradientTransform="matrix(1 -0.0049 0.0021 0.433 -0.0172 4.8472)" gradientUnits="userSpaceOnUse">
					<stop  offset="0.5645" style="stop-color:#FFFFFF"/>
					<stop  offset="1" style="stop-color:#001714"/>
				</radialGradient>
				<path opacity="0.65" fill="url(#SVGID_33_)" d="M46.229,77.313L46.229,77.313c-32.439,0-62.86-6.487-85.675-18.274
					C-61.381,47.7-73.469,32.937-73.469,17.467c0-15.479,12.088-30.242,34.022-41.574c22.814-11.787,53.235-18.281,85.675-18.281
					c32.447,0,62.875,6.494,85.682,18.281c21.943,11.332,34.024,26.095,34.024,41.574c0,15.47-12.081,30.233-34.024,41.572
					C109.104,70.826,78.676,77.313,46.229,77.313"/>
				
					<radialGradient id="SVGID_34_" cx="64.541" cy="11.0356" r="190.7321" fx="58.9734" fy="10.8957" gradientTransform="matrix(1 -0.0049 0.0021 0.433 -0.0225 6.5722)" gradientUnits="userSpaceOnUse">
					<stop  offset="0.5645" style="stop-color:#FFFFFF"/>
					<stop  offset="1" style="stop-color:#001714"/>
				</radialGradient>
				<path opacity="0.65" fill="url(#SVGID_34_)" d="M46.229,77.313L46.229,77.313c-32.439,0-62.86-6.487-85.675-18.274
					C-61.381,47.7-73.469,32.937-73.469,17.467c0-15.479,12.088-30.242,34.022-41.574c22.814-11.787,53.235-18.281,85.675-18.281
					c32.447,0,62.875,6.494,85.682,18.281c21.943,11.332,34.024,26.095,34.024,41.574c0,15.47-12.081,30.233-34.024,41.572
					C109.104,70.826,78.676,77.313,46.229,77.313"/>
			</g>
			<g opacity="0.7">
				
					<image overflow="visible" width="1892" height="1065" xlink:href="1E314364.png"  transform="matrix(0.1415 0 0 0.1415 -87.7471 -56.4922)">
				</image>
			</g>
			<g id="XMLID_1_">
				
					<image overflow="visible" opacity="0.6" width="1168" height="479" xlink:href="1E314365.png"  transform="matrix(0.1415 0 0 0.1415 -40.8174 -17.9233)">
				</image>
				<g>
					<g>
						
							<radialGradient id="SVGID_35_" cx="-45.4888" cy="-37.5376" r="312.7331" gradientTransform="matrix(1 0 0 0.5763 0 -15.9056)" gradientUnits="userSpaceOnUse">
							<stop  offset="0.2513" style="stop-color:#F2F2F2"/>
							<stop  offset="0.4163" style="stop-color:#F2F2F2"/>
							<stop  offset="0.6194" style="stop-color:#BFBFBF"/>
							<stop  offset="0.7446" style="stop-color:#E0E0E0"/>
						</radialGradient>
						<path fill="url(#SVGID_35_)" d="M122.008,21.417c0.819,1.225,1.593,3.617,0.314,7.802c-0.87,2.888-1.932,4.851-3.47,6.245
							c-1.105,0.998-2.226,1.629-4.441,1.995l3.823,10.394h-8.139l-3.055-10.165h-2.74l-3.462,10.165h-8.106l8.868-25.606
							c0.47-1.358,0.495-1.991-0.047-2.52l-0.512-0.499l0.252-0.762h12.687C118.496,18.466,120.881,19.727,122.008,21.417z
							 M114.681,29.123c0.351-0.896,0.596-1.859,0.583-2.393c-0.01-0.831-0.588-1.558-1.98-1.558H108.6l-2.093,6.071h3.87
							c0.992,0,2.021-0.061,2.521-0.265C113.617,30.685,114.179,30.383,114.681,29.123z M96.062-6.746L93.519,0.25h13.548
							l-15.39,5.224l-0.95,2.507l22.181-7.292l2.711-7.435H96.062z M76.848,18.446l-0.294,0.86l0.51,0.498
							c0.541,0.528,0.517,1.161,0.044,2.525l-8.794,25.516h19.735l2.389-6.835H78.916l1.693-4.948h10.196l2.243-6.142H82.722
							l1.6-4.694h11.193l2.456-6.78H76.848z M88.083-9.048c0.097,4.88-2.856,13.746-6.079,17.167
							c-2.566,2.76-5.732,3.988-11.279,3.988H57.776l8.769-25.608c0.476-1.358,0.492-1.99-0.049-2.52l-0.505-0.498l0.247-0.764
							h11.758C84.771-17.283,87.994-14.031,88.083-9.048z M78.821-2.075c1.133-3.223,1.435-4.72,1.417-5.812
							c-0.034-1.696-1.243-2.423-3.433-2.423h-3.15L68.344,5.095h2.613c2.79,0,4.009-0.433,4.919-1.395
							C77.017,2.474,77.817,0.815,78.821-2.075z M65.991,18.466l-10.75,21.116h-0.229L54.47,18.466h-8.999l-0.349,0.762l0.771,0.464
							c0.745,0.522,0.95,1.063,1.047,2.523l1.219,25.638h10.028L74.36,18.466H65.991z M55.217-17.283L49.85-1.313l-3.064-15.971
							H36.393l-0.253,0.764l0.504,0.498c0.548,0.53,0.523,1.161,0.053,2.52l-8.757,25.595h7.371l6.425-19.019l3.764,19.019h7.376
							l10.048-29.388L55.217-17.283z M43.566,26.531c0.06,4.88-2.914,14.112-6.138,17.533c-2.602,2.761-5.765,4.249-11.306,4.249
							h-0.998c-6.774,0-9.997-3.449-10.057-8.432c-0.06-4.882,2.982-14.113,6.204-17.536c2.603-2.758,5.758-4.247,11.305-4.247
							h0.932C40.285,18.099,43.505,21.553,43.566,26.531z M33.973,33.672c1.166-3.222,1.466-4.881,1.449-5.98
							c0-1.69-1.215-2.591-3.408-2.591c-2.79,0-4.004,0.699-4.91,1.665c-1.174,1.225-1.968,3.083-2.977,5.976
							c-1.167,3.221-1.466,4.879-1.449,5.979c0,1.69,1.215,2.592,3.408,2.592c2.789,0,4.004-0.703,4.918-1.667
							C32.177,38.421,32.968,36.563,33.973,33.672z M24.3-17.283l1.679,29.376h-7.742l-0.09-6.499h-8.83L5.62,12.093h-8.537
							l13.855-23.202c2.254-3.588,2.508-4.448,1.9-5.05l-0.373-0.36l0.246-0.764H24.3z M18.026-0.285l-0.139-8.878h-0.271
							l-5.008,8.878H18.026z M13.381,21.417c0.822,1.225,1.596,3.617,0.315,7.802c-0.876,2.888-1.928,4.851-3.466,6.245
							c-1.107,0.998-2.225,1.629-4.444,1.995l3.818,10.394H1.471l-3.052-10.165l-2.741-0.007l-3.461,10.172h-8.104l8.86-25.606
							c0.475-1.358,0.499-1.991-0.049-2.52l-0.506-0.499l0.254-0.762H5.354C9.869,18.466,12.255,19.727,13.381,21.417z
							 M6.057,29.123c0.35-0.896,0.597-1.859,0.585-2.393c-0.014-0.831-0.594-1.558-1.991-1.558h-4.676l-2.103,6.071h3.864
							c1.009,0,2.038-0.061,2.531-0.265C4.995,30.685,5.553,30.383,6.057,29.123z M-14.318,5.095l7.699-22.378h-10.063l-0.245,0.764
							l0.505,0.498c0.541,0.53,0.523,1.161,0.049,2.52l-8.771,25.608L-5.087,12.1l2.424-7.005H-14.318z M-37.292,29.541
							l-2.717,7.438h19.558l2.543-7.004h-13.547l15.388-5.217l0.954-2.506L-37.292,29.541z"/>
						<g>
							<linearGradient id="SVGID_36_" gradientUnits="userSpaceOnUse" x1="-11.5933" y1="-53.2065" x2="98.9276" y2="99.6567">
								<stop  offset="0" style="stop-color:#FFFFFF"/>
								<stop  offset="0.338" style="stop-color:#FFFFFF"/>
								<stop  offset="0.5031" style="stop-color:#E6E6E6"/>
								<stop  offset="0.6012" style="stop-color:#FFFFFF"/>
								<stop  offset="0.7625" style="stop-color:#FFFFFF"/>
								<stop  offset="1" style="stop-color:#B2B2B2"/>
							</linearGradient>
							<path fill="url(#SVGID_36_)" d="M122.008,21.417c0.819,1.225,1.593,3.617,0.314,7.802c-0.87,2.888-1.932,4.851-3.47,6.245
								c-1.105,0.998-2.226,1.629-4.441,1.995l3.823,10.394h-8.139l-3.055-10.165h-2.74l-3.462,10.165h-8.106l8.868-25.606
								c0.47-1.358,0.495-1.991-0.047-2.52l-0.512-0.499l0.252-0.762h12.687C118.496,18.466,120.881,19.727,122.008,21.417z
								 M114.681,29.123c0.351-0.896,0.596-1.859,0.583-2.393c-0.01-0.831-0.588-1.558-1.98-1.558H108.6l-2.093,6.071h3.87
								c0.992,0,2.021-0.061,2.521-0.265C113.617,30.685,114.179,30.383,114.681,29.123z M96.062-6.746L93.519,0.25h13.548
								l-15.39,5.224l-0.95,2.507l22.181-7.292l2.711-7.435H96.062z M76.848,18.446l-0.294,0.86l0.51,0.498
								c0.541,0.528,0.517,1.161,0.044,2.525l-8.794,25.516h19.735l2.389-6.835H78.916l1.693-4.948h10.196l2.243-6.142H82.722
								l1.6-4.694h11.193l2.456-6.78H76.848z M88.083-9.048c0.097,4.88-2.856,13.746-6.079,17.167
								c-2.566,2.76-5.732,3.988-11.279,3.988H57.776l8.769-25.608c0.476-1.358,0.492-1.99-0.049-2.52l-0.505-0.498l0.247-0.764
								h11.758C84.771-17.283,87.994-14.031,88.083-9.048z M78.821-2.075c1.133-3.223,1.435-4.72,1.417-5.812
								c-0.034-1.696-1.243-2.423-3.433-2.423h-3.15L68.344,5.095h2.613c2.79,0,4.009-0.433,4.919-1.395
								C77.017,2.474,77.817,0.815,78.821-2.075z M65.991,18.466l-10.75,21.116h-0.229L54.47,18.466h-8.999l-0.349,0.762
								l0.771,0.464c0.745,0.522,0.95,1.063,1.047,2.523l1.219,25.638h10.028L74.36,18.466H65.991z M55.217-17.283L49.85-1.313
								l-3.064-15.971H36.393l-0.253,0.764l0.504,0.498c0.548,0.53,0.523,1.161,0.053,2.52l-8.757,25.595h7.371l6.425-19.019
								l3.764,19.019h7.376l10.048-29.388L55.217-17.283z M43.566,26.531c0.06,4.88-2.914,14.112-6.138,17.533
								c-2.602,2.761-5.765,4.249-11.306,4.249h-0.998c-6.774,0-9.997-3.449-10.057-8.432c-0.06-4.882,2.982-14.113,6.204-17.536
								c2.603-2.758,5.758-4.247,11.305-4.247h0.932C40.285,18.099,43.505,21.553,43.566,26.531z M33.973,33.672
								c1.166-3.222,1.466-4.881,1.449-5.98c0-1.69-1.215-2.591-3.408-2.591c-2.79,0-4.004,0.699-4.91,1.665
								c-1.174,1.225-1.968,3.083-2.977,5.976c-1.167,3.221-1.466,4.879-1.449,5.979c0,1.69,1.215,2.592,3.408,2.592
								c2.789,0,4.004-0.703,4.918-1.667C32.177,38.421,32.968,36.563,33.973,33.672z M24.3-17.283l1.679,29.376h-7.742l-0.09-6.499
								h-8.83L5.62,12.093h-8.537l13.855-23.202c2.254-3.588,2.508-4.448,1.9-5.05l-0.373-0.36l0.246-0.764H24.3z M18.026-0.285
								l-0.139-8.878h-0.271l-5.008,8.878H18.026z M13.381,21.417c0.822,1.225,1.596,3.617,0.315,7.802
								c-0.876,2.888-1.928,4.851-3.466,6.245c-1.107,0.998-2.225,1.629-4.444,1.995l3.818,10.394H1.471l-3.052-10.165l-2.741-0.007
								l-3.461,10.172h-8.104l8.86-25.606c0.475-1.358,0.499-1.991-0.049-2.52l-0.506-0.499l0.254-0.762H5.354
								C9.869,18.466,12.255,19.727,13.381,21.417z M6.057,29.123c0.35-0.896,0.597-1.859,0.585-2.393
								c-0.014-0.831-0.594-1.558-1.991-1.558h-4.676l-2.103,6.071h3.864c1.009,0,2.038-0.061,2.531-0.265
								C4.995,30.685,5.553,30.383,6.057,29.123z M-14.318,5.095l7.699-22.378h-10.063l-0.245,0.764l0.505,0.498
								c0.541,0.53,0.523,1.161,0.049,2.52l-8.771,25.608L-5.087,12.1l2.424-7.005H-14.318z M-37.292,29.541l-2.717,7.438h19.558
								l2.543-7.004h-13.547l15.388-5.217l0.954-2.506L-37.292,29.541z"/>
						</g>
						<g>
							<linearGradient id="SVGID_37_" gradientUnits="userSpaceOnUse" x1="-11.5933" y1="-53.2065" x2="115.4412" y2="122.4971">
								<stop  offset="0.6682" style="stop-color:#000000"/>
								<stop  offset="0.8486" style="stop-color:#FFFFFF"/>
								<stop  offset="0.9851" style="stop-color:#000000"/>
							</linearGradient>
							<path fill="url(#SVGID_37_)" d="M122.008,21.417c0.819,1.225,1.593,3.617,0.314,7.802c-0.87,2.888-1.932,4.851-3.47,6.245
								c-1.105,0.998-2.226,1.629-4.441,1.995l3.823,10.394h-8.139l-3.055-10.165h-2.74l-3.462,10.165h-8.106l8.868-25.606
								c0.47-1.358,0.495-1.991-0.047-2.52l-0.512-0.499l0.252-0.762h12.687C118.496,18.466,120.881,19.727,122.008,21.417z
								 M114.681,29.123c0.351-0.896,0.596-1.859,0.583-2.393c-0.01-0.831-0.588-1.558-1.98-1.558H108.6l-2.093,6.071h3.87
								c0.992,0,2.021-0.061,2.521-0.265C113.617,30.685,114.179,30.383,114.681,29.123z M96.062-6.746L93.519,0.25h13.548
								l-15.39,5.224l-0.95,2.507l22.181-7.292l2.711-7.435H96.062z M76.848,18.446l-0.294,0.86l0.51,0.498
								c0.541,0.528,0.517,1.161,0.044,2.525l-8.794,25.516h19.735l2.389-6.835H78.916l1.693-4.948h10.196l2.243-6.142H82.722
								l1.6-4.694h11.193l2.456-6.78H76.848z M88.083-9.048c0.097,4.88-2.856,13.746-6.079,17.167
								c-2.566,2.76-5.732,3.988-11.279,3.988H57.776l8.769-25.608c0.476-1.358,0.492-1.99-0.049-2.52l-0.505-0.498l0.247-0.764
								h11.758C84.771-17.283,87.994-14.031,88.083-9.048z M78.821-2.075c1.133-3.223,1.435-4.72,1.417-5.812
								c-0.034-1.696-1.243-2.423-3.433-2.423h-3.15L68.344,5.095h2.613c2.79,0,4.009-0.433,4.919-1.395
								C77.017,2.474,77.817,0.815,78.821-2.075z M65.991,18.466l-10.75,21.116h-0.229L54.47,18.466h-8.999l-0.349,0.762
								l0.771,0.464c0.745,0.522,0.95,1.063,1.047,2.523l1.219,25.638h10.028L74.36,18.466H65.991z M55.217-17.283L49.85-1.313
								l-3.064-15.971H36.393l-0.253,0.764l0.504,0.498c0.548,0.53,0.523,1.161,0.053,2.52l-8.757,25.595h7.371l6.425-19.019
								l3.764,19.019h7.376l10.048-29.388L55.217-17.283z M43.566,26.531c0.06,4.88-2.914,14.112-6.138,17.533
								c-2.602,2.761-5.765,4.249-11.306,4.249h-0.998c-6.774,0-9.997-3.449-10.057-8.432c-0.06-4.882,2.982-14.113,6.204-17.536
								c2.603-2.758,5.758-4.247,11.305-4.247h0.932C40.285,18.099,43.505,21.553,43.566,26.531z M33.973,33.672
								c1.166-3.222,1.466-4.881,1.449-5.98c0-1.69-1.215-2.591-3.408-2.591c-2.79,0-4.004,0.699-4.91,1.665
								c-1.174,1.225-1.968,3.083-2.977,5.976c-1.167,3.221-1.466,4.879-1.449,5.979c0,1.69,1.215,2.592,3.408,2.592
								c2.789,0,4.004-0.703,4.918-1.667C32.177,38.421,32.968,36.563,33.973,33.672z M24.3-17.283l1.679,29.376h-7.742l-0.09-6.499
								h-8.83L5.62,12.093h-8.537l13.855-23.202c2.254-3.588,2.508-4.448,1.9-5.05l-0.373-0.36l0.246-0.764H24.3z M18.026-0.285
								l-0.139-8.878h-0.271l-5.008,8.878H18.026z M13.381,21.417c0.822,1.225,1.596,3.617,0.315,7.802
								c-0.876,2.888-1.928,4.851-3.466,6.245c-1.107,0.998-2.225,1.629-4.444,1.995l3.818,10.394H1.471l-3.052-10.165l-2.741-0.007
								l-3.461,10.172h-8.104l8.86-25.606c0.475-1.358,0.499-1.991-0.049-2.52l-0.506-0.499l0.254-0.762H5.354
								C9.869,18.466,12.255,19.727,13.381,21.417z M6.057,29.123c0.35-0.896,0.597-1.859,0.585-2.393
								c-0.014-0.831-0.594-1.558-1.991-1.558h-4.676l-2.103,6.071h3.864c1.009,0,2.038-0.061,2.531-0.265
								C4.995,30.685,5.553,30.383,6.057,29.123z M-14.318,5.095l7.699-22.378h-10.063l-0.245,0.764l0.505,0.498
								c0.541,0.53,0.523,1.161,0.049,2.52l-8.771,25.608L-5.087,12.1l2.424-7.005H-14.318z M-37.292,29.541l-2.717,7.438h19.558
								l2.543-7.004h-13.547l15.388-5.217l0.954-2.506L-37.292,29.541z"/>
						</g>
						<g opacity="0.8">
							
								<radialGradient id="SVGID_38_" cx="47.7705" cy="15.3193" r="104.8206" gradientTransform="matrix(1 0 0 0.3023 0 10.6877)" gradientUnits="userSpaceOnUse">
								<stop  offset="0" style="stop-color:#FFFFFF"/>
								<stop  offset="0.0754" style="stop-color:#E7E7E7"/>
								<stop  offset="0.235" style="stop-color:#A9A9A9"/>
								<stop  offset="0.4636" style="stop-color:#474747"/>
								<stop  offset="0.6198" style="stop-color:#000000"/>
							</radialGradient>
							<path fill="url(#SVGID_38_)" d="M122.008,21.417c0.819,1.225,1.593,3.617,0.314,7.802c-0.87,2.888-1.932,4.851-3.47,6.245
								c-1.105,0.998-2.226,1.629-4.441,1.995l3.823,10.394h-8.139l-3.055-10.165h-2.74l-3.462,10.165h-8.106l8.868-25.606
								c0.47-1.358,0.495-1.991-0.047-2.52l-0.512-0.499l0.252-0.762h12.687C118.496,18.466,120.881,19.727,122.008,21.417z
								 M114.681,29.123c0.351-0.896,0.596-1.859,0.583-2.393c-0.01-0.831-0.588-1.558-1.98-1.558H108.6l-2.093,6.071h3.87
								c0.992,0,2.021-0.061,2.521-0.265C113.617,30.685,114.179,30.383,114.681,29.123z M96.062-6.746L93.519,0.25h13.548
								l-15.39,5.224l-0.95,2.507l22.181-7.292l2.711-7.435H96.062z M76.848,18.446l-0.294,0.86l0.51,0.498
								c0.541,0.528,0.517,1.161,0.044,2.525l-8.794,25.516h19.735l2.389-6.835H78.916l1.693-4.948h10.196l2.243-6.142H82.722
								l1.6-4.694h11.193l2.456-6.78H76.848z M88.083-9.048c0.097,4.88-2.856,13.746-6.079,17.167
								c-2.566,2.76-5.732,3.988-11.279,3.988H57.776l8.769-25.608c0.476-1.358,0.492-1.99-0.049-2.52l-0.505-0.498l0.247-0.764
								h11.758C84.771-17.283,87.994-14.031,88.083-9.048z M78.821-2.075c1.133-3.223,1.435-4.72,1.417-5.812
								c-0.034-1.696-1.243-2.423-3.433-2.423h-3.15L68.344,5.095h2.613c2.79,0,4.009-0.433,4.919-1.395
								C77.017,2.474,77.817,0.815,78.821-2.075z M65.991,18.466l-10.75,21.116h-0.229L54.47,18.466h-8.999l-0.349,0.762
								l0.771,0.464c0.745,0.522,0.95,1.063,1.047,2.523l1.219,25.638h10.028L74.36,18.466H65.991z M55.217-17.283L49.85-1.313
								l-3.064-15.971H36.393l-0.253,0.764l0.504,0.498c0.548,0.53,0.523,1.161,0.053,2.52l-8.757,25.595h7.371l6.425-19.019
								l3.764,19.019h7.376l10.048-29.388L55.217-17.283z M43.566,26.531c0.06,4.88-2.914,14.112-6.138,17.533
								c-2.602,2.761-5.765,4.249-11.306,4.249h-0.998c-6.774,0-9.997-3.449-10.057-8.432c-0.06-4.882,2.982-14.113,6.204-17.536
								c2.603-2.758,5.758-4.247,11.305-4.247h0.932C40.285,18.099,43.505,21.553,43.566,26.531z M33.973,33.672
								c1.166-3.222,1.466-4.881,1.449-5.98c0-1.69-1.215-2.591-3.408-2.591c-2.79,0-4.004,0.699-4.91,1.665
								c-1.174,1.225-1.968,3.083-2.977,5.976c-1.167,3.221-1.466,4.879-1.449,5.979c0,1.69,1.215,2.592,3.408,2.592
								c2.789,0,4.004-0.703,4.918-1.667C32.177,38.421,32.968,36.563,33.973,33.672z M24.3-17.283l1.679,29.376h-7.742l-0.09-6.499
								h-8.83L5.62,12.093h-8.537l13.855-23.202c2.254-3.588,2.508-4.448,1.9-5.05l-0.373-0.36l0.246-0.764H24.3z M18.026-0.285
								l-0.139-8.878h-0.271l-5.008,8.878H18.026z M13.381,21.417c0.822,1.225,1.596,3.617,0.315,7.802
								c-0.876,2.888-1.928,4.851-3.466,6.245c-1.107,0.998-2.225,1.629-4.444,1.995l3.818,10.394H1.471l-3.052-10.165l-2.741-0.007
								l-3.461,10.172h-8.104l8.86-25.606c0.475-1.358,0.499-1.991-0.049-2.52l-0.506-0.499l0.254-0.762H5.354
								C9.869,18.466,12.255,19.727,13.381,21.417z M6.057,29.123c0.35-0.896,0.597-1.859,0.585-2.393
								c-0.014-0.831-0.594-1.558-1.991-1.558h-4.676l-2.103,6.071h3.864c1.009,0,2.038-0.061,2.531-0.265
								C4.995,30.685,5.553,30.383,6.057,29.123z M-14.318,5.095l7.699-22.378h-10.063l-0.245,0.764l0.505,0.498
								c0.541,0.53,0.523,1.161,0.049,2.52l-8.771,25.608L-5.087,12.1l2.424-7.005H-14.318z M-37.292,29.541l-2.717,7.438h19.558
								l2.543-7.004h-13.547l15.388-5.217l0.954-2.506L-37.292,29.541z"/>
						</g>
						<g opacity="0.55">
							
								<radialGradient id="SVGID_39_" cx="-37.7881" cy="13.6079" r="104.8199" gradientTransform="matrix(1 0 0 0.3023 0 9.4937)" gradientUnits="userSpaceOnUse">
								<stop  offset="0" style="stop-color:#909393"/>
								<stop  offset="0.1895" style="stop-color:#A8AAAA"/>
								<stop  offset="0.5877" style="stop-color:#E5E6E6"/>
								<stop  offset="0.7442" style="stop-color:#FFFFFF"/>
							</radialGradient>
							<path fill="url(#SVGID_39_)" d="M122.008,21.417c0.819,1.225,1.593,3.617,0.314,7.802c-0.87,2.888-1.932,4.851-3.47,6.245
								c-1.105,0.998-2.226,1.629-4.441,1.995l3.823,10.394h-8.139l-3.055-10.165h-2.74l-3.462,10.165h-8.106l8.868-25.606
								c0.47-1.358,0.495-1.991-0.047-2.52l-0.512-0.499l0.252-0.762h12.687C118.496,18.466,120.881,19.727,122.008,21.417z
								 M114.681,29.123c0.351-0.896,0.596-1.859,0.583-2.393c-0.01-0.831-0.588-1.558-1.98-1.558H108.6l-2.093,6.071h3.87
								c0.992,0,2.021-0.061,2.521-0.265C113.617,30.685,114.179,30.383,114.681,29.123z M96.062-6.746L93.519,0.25h13.548
								l-15.39,5.224l-0.95,2.507l22.181-7.292l2.711-7.435H96.062z M76.848,18.446l-0.294,0.86l0.51,0.498
								c0.541,0.528,0.517,1.161,0.044,2.525l-8.794,25.516h19.735l2.389-6.835H78.916l1.693-4.948h10.196l2.243-6.142H82.722
								l1.6-4.694h11.193l2.456-6.78H76.848z M88.083-9.048c0.097,4.88-2.856,13.746-6.079,17.167
								c-2.566,2.76-5.732,3.988-11.279,3.988H57.776l8.769-25.608c0.476-1.358,0.492-1.99-0.049-2.52l-0.505-0.498l0.247-0.764
								h11.758C84.771-17.283,87.994-14.031,88.083-9.048z M78.821-2.075c1.133-3.223,1.435-4.72,1.417-5.812
								c-0.034-1.696-1.243-2.423-3.433-2.423h-3.15L68.344,5.095h2.613c2.79,0,4.009-0.433,4.919-1.395
								C77.017,2.474,77.817,0.815,78.821-2.075z M65.991,18.466l-10.75,21.116h-0.229L54.47,18.466h-8.999l-0.349,0.762
								l0.771,0.464c0.745,0.522,0.95,1.063,1.047,2.523l1.219,25.638h10.028L74.36,18.466H65.991z M55.217-17.283L49.85-1.313
								l-3.064-15.971H36.393l-0.253,0.764l0.504,0.498c0.548,0.53,0.523,1.161,0.053,2.52l-8.757,25.595h7.371l6.425-19.019
								l3.764,19.019h7.376l10.048-29.388L55.217-17.283z M43.566,26.531c0.06,4.88-2.914,14.112-6.138,17.533
								c-2.602,2.761-5.765,4.249-11.306,4.249h-0.998c-6.774,0-9.997-3.449-10.057-8.432c-0.06-4.882,2.982-14.113,6.204-17.536
								c2.603-2.758,5.758-4.247,11.305-4.247h0.932C40.285,18.099,43.505,21.553,43.566,26.531z M33.973,33.672
								c1.166-3.222,1.466-4.881,1.449-5.98c0-1.69-1.215-2.591-3.408-2.591c-2.79,0-4.004,0.699-4.91,1.665
								c-1.174,1.225-1.968,3.083-2.977,5.976c-1.167,3.221-1.466,4.879-1.449,5.979c0,1.69,1.215,2.592,3.408,2.592
								c2.789,0,4.004-0.703,4.918-1.667C32.177,38.421,32.968,36.563,33.973,33.672z M24.3-17.283l1.679,29.376h-7.742l-0.09-6.499
								h-8.83L5.62,12.093h-8.537l13.855-23.202c2.254-3.588,2.508-4.448,1.9-5.05l-0.373-0.36l0.246-0.764H24.3z M18.026-0.285
								l-0.139-8.878h-0.271l-5.008,8.878H18.026z M13.381,21.417c0.822,1.225,1.596,3.617,0.315,7.802
								c-0.876,2.888-1.928,4.851-3.466,6.245c-1.107,0.998-2.225,1.629-4.444,1.995l3.818,10.394H1.471l-3.052-10.165l-2.741-0.007
								l-3.461,10.172h-8.104l8.86-25.606c0.475-1.358,0.499-1.991-0.049-2.52l-0.506-0.499l0.254-0.762H5.354
								C9.869,18.466,12.255,19.727,13.381,21.417z M6.057,29.123c0.35-0.896,0.597-1.859,0.585-2.393
								c-0.014-0.831-0.594-1.558-1.991-1.558h-4.676l-2.103,6.071h3.864c1.009,0,2.038-0.061,2.531-0.265
								C4.995,30.685,5.553,30.383,6.057,29.123z M-14.318,5.095l7.699-22.378h-10.063l-0.245,0.764l0.505,0.498
								c0.541,0.53,0.523,1.161,0.049,2.52l-8.771,25.608L-5.087,12.1l2.424-7.005H-14.318z M-37.292,29.541l-2.717,7.438h19.558
								l2.543-7.004h-13.547l15.388-5.217l0.954-2.506L-37.292,29.541z"/>
						</g>
						<g opacity="0.55">
							
								<radialGradient id="SVGID_40_" cx="26.8555" cy="-27.8418" r="47.9181" gradientTransform="matrix(0.987 -0.1607 0.0678 0.4164 2.2363 -11.9343)" gradientUnits="userSpaceOnUse">
								<stop  offset="0" style="stop-color:#7D8180"/>
								<stop  offset="0.2213" style="stop-color:#959897"/>
								<stop  offset="0.6858" style="stop-color:#D2D4D3"/>
								<stop  offset="1" style="stop-color:#FFFFFF"/>
							</radialGradient>
							<path fill="url(#SVGID_40_)" d="M122.008,21.417c0.819,1.225,1.593,3.617,0.314,7.802c-0.87,2.888-1.932,4.851-3.47,6.245
								c-1.105,0.998-2.226,1.629-4.441,1.995l3.823,10.394h-8.139l-3.055-10.165h-2.74l-3.462,10.165h-8.106l8.868-25.606
								c0.47-1.358,0.495-1.991-0.047-2.52l-0.512-0.499l0.252-0.762h12.687C118.496,18.466,120.881,19.727,122.008,21.417z
								 M114.681,29.123c0.351-0.896,0.596-1.859,0.583-2.393c-0.01-0.831-0.588-1.558-1.98-1.558H108.6l-2.093,6.071h3.87
								c0.992,0,2.021-0.061,2.521-0.265C113.617,30.685,114.179,30.383,114.681,29.123z M96.062-6.746L93.519,0.25h13.548
								l-15.39,5.224l-0.95,2.507l22.181-7.292l2.711-7.435H96.062z M76.848,18.446l-0.294,0.86l0.51,0.498
								c0.541,0.528,0.517,1.161,0.044,2.525l-8.794,25.516h19.735l2.389-6.835H78.916l1.693-4.948h10.196l2.243-6.142H82.722
								l1.6-4.694h11.193l2.456-6.78H76.848z M88.083-9.048c0.097,4.88-2.856,13.746-6.079,17.167
								c-2.566,2.76-5.732,3.988-11.279,3.988H57.776l8.769-25.608c0.476-1.358,0.492-1.99-0.049-2.52l-0.505-0.498l0.247-0.764
								h11.758C84.771-17.283,87.994-14.031,88.083-9.048z M78.821-2.075c1.133-3.223,1.435-4.72,1.417-5.812
								c-0.034-1.696-1.243-2.423-3.433-2.423h-3.15L68.344,5.095h2.613c2.79,0,4.009-0.433,4.919-1.395
								C77.017,2.474,77.817,0.815,78.821-2.075z M65.991,18.466l-10.75,21.116h-0.229L54.47,18.466h-8.999l-0.349,0.762
								l0.771,0.464c0.745,0.522,0.95,1.063,1.047,2.523l1.219,25.638h10.028L74.36,18.466H65.991z M55.217-17.283L49.85-1.313
								l-3.064-15.971H36.393l-0.253,0.764l0.504,0.498c0.548,0.53,0.523,1.161,0.053,2.52l-8.757,25.595h7.371l6.425-19.019
								l3.764,19.019h7.376l10.048-29.388L55.217-17.283z M43.566,26.531c0.06,4.88-2.914,14.112-6.138,17.533
								c-2.602,2.761-5.765,4.249-11.306,4.249h-0.998c-6.774,0-9.997-3.449-10.057-8.432c-0.06-4.882,2.982-14.113,6.204-17.536
								c2.603-2.758,5.758-4.247,11.305-4.247h0.932C40.285,18.099,43.505,21.553,43.566,26.531z M33.973,33.672
								c1.166-3.222,1.466-4.881,1.449-5.98c0-1.69-1.215-2.591-3.408-2.591c-2.79,0-4.004,0.699-4.91,1.665
								c-1.174,1.225-1.968,3.083-2.977,5.976c-1.167,3.221-1.466,4.879-1.449,5.979c0,1.69,1.215,2.592,3.408,2.592
								c2.789,0,4.004-0.703,4.918-1.667C32.177,38.421,32.968,36.563,33.973,33.672z M24.3-17.283l1.679,29.376h-7.742l-0.09-6.499
								h-8.83L5.62,12.093h-8.537l13.855-23.202c2.254-3.588,2.508-4.448,1.9-5.05l-0.373-0.36l0.246-0.764H24.3z M18.026-0.285
								l-0.139-8.878h-0.271l-5.008,8.878H18.026z M13.381,21.417c0.822,1.225,1.596,3.617,0.315,7.802
								c-0.876,2.888-1.928,4.851-3.466,6.245c-1.107,0.998-2.225,1.629-4.444,1.995l3.818,10.394H1.471l-3.052-10.165l-2.741-0.007
								l-3.461,10.172h-8.104l8.86-25.606c0.475-1.358,0.499-1.991-0.049-2.52l-0.506-0.499l0.254-0.762H5.354
								C9.869,18.466,12.255,19.727,13.381,21.417z M6.057,29.123c0.35-0.896,0.597-1.859,0.585-2.393
								c-0.014-0.831-0.594-1.558-1.991-1.558h-4.676l-2.103,6.071h3.864c1.009,0,2.038-0.061,2.531-0.265
								C4.995,30.685,5.553,30.383,6.057,29.123z M-14.318,5.095l7.699-22.378h-10.063l-0.245,0.764l0.505,0.498
								c0.541,0.53,0.523,1.161,0.049,2.52l-8.771,25.608L-5.087,12.1l2.424-7.005H-14.318z M-37.292,29.541l-2.717,7.438h19.558
								l2.543-7.004h-13.547l15.388-5.217l0.954-2.506L-37.292,29.541z"/>
						</g>
						<g opacity="0.7">
							
								<radialGradient id="SVGID_41_" cx="94.1631" cy="44.0293" r="63.4356" gradientTransform="matrix(0.6317 -0.7752 0.2638 0.2149 23.0682 107.5641)" gradientUnits="userSpaceOnUse">
								<stop  offset="0" style="stop-color:#FFFFFF"/>
								<stop  offset="0.9591" style="stop-color:#000000"/>
							</radialGradient>
							<path fill="url(#SVGID_41_)" d="M122.008,21.417c0.819,1.225,1.593,3.617,0.314,7.802c-0.87,2.888-1.932,4.851-3.47,6.245
								c-1.105,0.998-2.226,1.629-4.441,1.995l3.823,10.394h-8.139l-3.055-10.165h-2.74l-3.462,10.165h-8.106l8.868-25.606
								c0.47-1.358,0.495-1.991-0.047-2.52l-0.512-0.499l0.252-0.762h12.687C118.496,18.466,120.881,19.727,122.008,21.417z
								 M114.681,29.123c0.351-0.896,0.596-1.859,0.583-2.393c-0.01-0.831-0.588-1.558-1.98-1.558H108.6l-2.093,6.071h3.87
								c0.992,0,2.021-0.061,2.521-0.265C113.617,30.685,114.179,30.383,114.681,29.123z M96.062-6.746L93.519,0.25h13.548
								l-15.39,5.224l-0.95,2.507l22.181-7.292l2.711-7.435H96.062z M76.848,18.446l-0.294,0.86l0.51,0.498
								c0.541,0.528,0.517,1.161,0.044,2.525l-8.794,25.516h19.735l2.389-6.835H78.916l1.693-4.948h10.196l2.243-6.142H82.722
								l1.6-4.694h11.193l2.456-6.78H76.848z M88.083-9.048c0.097,4.88-2.856,13.746-6.079,17.167
								c-2.566,2.76-5.732,3.988-11.279,3.988H57.776l8.769-25.608c0.476-1.358,0.492-1.99-0.049-2.52l-0.505-0.498l0.247-0.764
								h11.758C84.771-17.283,87.994-14.031,88.083-9.048z M78.821-2.075c1.133-3.223,1.435-4.72,1.417-5.812
								c-0.034-1.696-1.243-2.423-3.433-2.423h-3.15L68.344,5.095h2.613c2.79,0,4.009-0.433,4.919-1.395
								C77.017,2.474,77.817,0.815,78.821-2.075z M65.991,18.466l-10.75,21.116h-0.229L54.47,18.466h-8.999l-0.349,0.762
								l0.771,0.464c0.745,0.522,0.95,1.063,1.047,2.523l1.219,25.638h10.028L74.36,18.466H65.991z M55.217-17.283L49.85-1.313
								l-3.064-15.971H36.393l-0.253,0.764l0.504,0.498c0.548,0.53,0.523,1.161,0.053,2.52l-8.757,25.595h7.371l6.425-19.019
								l3.764,19.019h7.376l10.048-29.388L55.217-17.283z M43.566,26.531c0.06,4.88-2.914,14.112-6.138,17.533
								c-2.602,2.761-5.765,4.249-11.306,4.249h-0.998c-6.774,0-9.997-3.449-10.057-8.432c-0.06-4.882,2.982-14.113,6.204-17.536
								c2.603-2.758,5.758-4.247,11.305-4.247h0.932C40.285,18.099,43.505,21.553,43.566,26.531z M33.973,33.672
								c1.166-3.222,1.466-4.881,1.449-5.98c0-1.69-1.215-2.591-3.408-2.591c-2.79,0-4.004,0.699-4.91,1.665
								c-1.174,1.225-1.968,3.083-2.977,5.976c-1.167,3.221-1.466,4.879-1.449,5.979c0,1.69,1.215,2.592,3.408,2.592
								c2.789,0,4.004-0.703,4.918-1.667C32.177,38.421,32.968,36.563,33.973,33.672z M24.3-17.283l1.679,29.376h-7.742l-0.09-6.499
								h-8.83L5.62,12.093h-8.537l13.855-23.202c2.254-3.588,2.508-4.448,1.9-5.05l-0.373-0.36l0.246-0.764H24.3z M18.026-0.285
								l-0.139-8.878h-0.271l-5.008,8.878H18.026z M13.381,21.417c0.822,1.225,1.596,3.617,0.315,7.802
								c-0.876,2.888-1.928,4.851-3.466,6.245c-1.107,0.998-2.225,1.629-4.444,1.995l3.818,10.394H1.471l-3.052-10.165l-2.741-0.007
								l-3.461,10.172h-8.104l8.86-25.606c0.475-1.358,0.499-1.991-0.049-2.52l-0.506-0.499l0.254-0.762H5.354
								C9.869,18.466,12.255,19.727,13.381,21.417z M6.057,29.123c0.35-0.896,0.597-1.859,0.585-2.393
								c-0.014-0.831-0.594-1.558-1.991-1.558h-4.676l-2.103,6.071h3.864c1.009,0,2.038-0.061,2.531-0.265
								C4.995,30.685,5.553,30.383,6.057,29.123z M-14.318,5.095l7.699-22.378h-10.063l-0.245,0.764l0.505,0.498
								c0.541,0.53,0.523,1.161,0.049,2.52l-8.771,25.608L-5.087,12.1l2.424-7.005H-14.318z M-37.292,29.541l-2.717,7.438h19.558
								l2.543-7.004h-13.547l15.388-5.217l0.954-2.506L-37.292,29.541z"/>
						</g>
						<g>
							
								<radialGradient id="SVGID_42_" cx="99.1533" cy="66.5127" r="40.0914" gradientTransform="matrix(-0.2384 -0.9712 1.9473 -0.4781 -6.7223 194.6046)" gradientUnits="userSpaceOnUse">
								<stop  offset="0.3406" style="stop-color:#909393"/>
								<stop  offset="0.9418" style="stop-color:#FFFFFF"/>
							</radialGradient>
							<path fill="url(#SVGID_42_)" d="M122.008,21.417c0.819,1.225,1.593,3.617,0.314,7.802c-0.87,2.888-1.932,4.851-3.47,6.245
								c-1.105,0.998-2.226,1.629-4.441,1.995l3.823,10.394h-8.139l-3.055-10.165h-2.74l-3.462,10.165h-8.106l8.868-25.606
								c0.47-1.358,0.495-1.991-0.047-2.52l-0.512-0.499l0.252-0.762h12.687C118.496,18.466,120.881,19.727,122.008,21.417z
								 M114.681,29.123c0.351-0.896,0.596-1.859,0.583-2.393c-0.01-0.831-0.588-1.558-1.98-1.558H108.6l-2.093,6.071h3.87
								c0.992,0,2.021-0.061,2.521-0.265C113.617,30.685,114.179,30.383,114.681,29.123z M96.062-6.746L93.519,0.25h13.548
								l-15.39,5.224l-0.95,2.507l22.181-7.292l2.711-7.435H96.062z M76.848,18.446l-0.294,0.86l0.51,0.498
								c0.541,0.528,0.517,1.161,0.044,2.525l-8.794,25.516h19.735l2.389-6.835H78.916l1.693-4.948h10.196l2.243-6.142H82.722
								l1.6-4.694h11.193l2.456-6.78H76.848z M88.083-9.048c0.097,4.88-2.856,13.746-6.079,17.167
								c-2.566,2.76-5.732,3.988-11.279,3.988H57.776l8.769-25.608c0.476-1.358,0.492-1.99-0.049-2.52l-0.505-0.498l0.247-0.764
								h11.758C84.771-17.283,87.994-14.031,88.083-9.048z M78.821-2.075c1.133-3.223,1.435-4.72,1.417-5.812
								c-0.034-1.696-1.243-2.423-3.433-2.423h-3.15L68.344,5.095h2.613c2.79,0,4.009-0.433,4.919-1.395
								C77.017,2.474,77.817,0.815,78.821-2.075z M65.991,18.466l-10.75,21.116h-0.229L54.47,18.466h-8.999l-0.349,0.762
								l0.771,0.464c0.745,0.522,0.95,1.063,1.047,2.523l1.219,25.638h10.028L74.36,18.466H65.991z M55.217-17.283L49.85-1.313
								l-3.064-15.971H36.393l-0.253,0.764l0.504,0.498c0.548,0.53,0.523,1.161,0.053,2.52l-8.757,25.595h7.371l6.425-19.019
								l3.764,19.019h7.376l10.048-29.388L55.217-17.283z M43.566,26.531c0.06,4.88-2.914,14.112-6.138,17.533
								c-2.602,2.761-5.765,4.249-11.306,4.249h-0.998c-6.774,0-9.997-3.449-10.057-8.432c-0.06-4.882,2.982-14.113,6.204-17.536
								c2.603-2.758,5.758-4.247,11.305-4.247h0.932C40.285,18.099,43.505,21.553,43.566,26.531z M33.973,33.672
								c1.166-3.222,1.466-4.881,1.449-5.98c0-1.69-1.215-2.591-3.408-2.591c-2.79,0-4.004,0.699-4.91,1.665
								c-1.174,1.225-1.968,3.083-2.977,5.976c-1.167,3.221-1.466,4.879-1.449,5.979c0,1.69,1.215,2.592,3.408,2.592
								c2.789,0,4.004-0.703,4.918-1.667C32.177,38.421,32.968,36.563,33.973,33.672z M24.3-17.283l1.679,29.376h-7.742l-0.09-6.499
								h-8.83L5.62,12.093h-8.537l13.855-23.202c2.254-3.588,2.508-4.448,1.9-5.05l-0.373-0.36l0.246-0.764H24.3z M18.026-0.285
								l-0.139-8.878h-0.271l-5.008,8.878H18.026z M13.381,21.417c0.822,1.225,1.596,3.617,0.315,7.802
								c-0.876,2.888-1.928,4.851-3.466,6.245c-1.107,0.998-2.225,1.629-4.444,1.995l3.818,10.394H1.471l-3.052-10.165l-2.741-0.007
								l-3.461,10.172h-8.104l8.86-25.606c0.475-1.358,0.499-1.991-0.049-2.52l-0.506-0.499l0.254-0.762H5.354
								C9.869,18.466,12.255,19.727,13.381,21.417z M6.057,29.123c0.35-0.896,0.597-1.859,0.585-2.393
								c-0.014-0.831-0.594-1.558-1.991-1.558h-4.676l-2.103,6.071h3.864c1.009,0,2.038-0.061,2.531-0.265
								C4.995,30.685,5.553,30.383,6.057,29.123z M-14.318,5.095l7.699-22.378h-10.063l-0.245,0.764l0.505,0.498
								c0.541,0.53,0.523,1.161,0.049,2.52l-8.771,25.608L-5.087,12.1l2.424-7.005H-14.318z M-37.292,29.541l-2.717,7.438h19.558
								l2.543-7.004h-13.547l15.388-5.217l0.954-2.506L-37.292,29.541z"/>
						</g>
						<g>
							
								<radialGradient id="SVGID_43_" cx="-13.0244" cy="67.2725" r="40.0914" gradientTransform="matrix(0.3015 -0.9535 1.9118 0.6046 -137.7059 14.1822)" gradientUnits="userSpaceOnUse">
								<stop  offset="0.3406" style="stop-color:#909393"/>
								<stop  offset="0.9418" style="stop-color:#FFFFFF"/>
							</radialGradient>
							<path fill="url(#SVGID_43_)" d="M122.008,21.417c0.819,1.225,1.593,3.617,0.314,7.802c-0.87,2.888-1.932,4.851-3.47,6.245
								c-1.105,0.998-2.226,1.629-4.441,1.995l3.823,10.394h-8.139l-3.055-10.165h-2.74l-3.462,10.165h-8.106l8.868-25.606
								c0.47-1.358,0.495-1.991-0.047-2.52l-0.512-0.499l0.252-0.762h12.687C118.496,18.466,120.881,19.727,122.008,21.417z
								 M114.681,29.123c0.351-0.896,0.596-1.859,0.583-2.393c-0.01-0.831-0.588-1.558-1.98-1.558H108.6l-2.093,6.071h3.87
								c0.992,0,2.021-0.061,2.521-0.265C113.617,30.685,114.179,30.383,114.681,29.123z M96.062-6.746L93.519,0.25h13.548
								l-15.39,5.224l-0.95,2.507l22.181-7.292l2.711-7.435H96.062z M76.848,18.446l-0.294,0.86l0.51,0.498
								c0.541,0.528,0.517,1.161,0.044,2.525l-8.794,25.516h19.735l2.389-6.835H78.916l1.693-4.948h10.196l2.243-6.142H82.722
								l1.6-4.694h11.193l2.456-6.78H76.848z M88.083-9.048c0.097,4.88-2.856,13.746-6.079,17.167
								c-2.566,2.76-5.732,3.988-11.279,3.988H57.776l8.769-25.608c0.476-1.358,0.492-1.99-0.049-2.52l-0.505-0.498l0.247-0.764
								h11.758C84.771-17.283,87.994-14.031,88.083-9.048z M78.821-2.075c1.133-3.223,1.435-4.72,1.417-5.812
								c-0.034-1.696-1.243-2.423-3.433-2.423h-3.15L68.344,5.095h2.613c2.79,0,4.009-0.433,4.919-1.395
								C77.017,2.474,77.817,0.815,78.821-2.075z M65.991,18.466l-10.75,21.116h-0.229L54.47,18.466h-8.999l-0.349,0.762
								l0.771,0.464c0.745,0.522,0.95,1.063,1.047,2.523l1.219,25.638h10.028L74.36,18.466H65.991z M55.217-17.283L49.85-1.313
								l-3.064-15.971H36.393l-0.253,0.764l0.504,0.498c0.548,0.53,0.523,1.161,0.053,2.52l-8.757,25.595h7.371l6.425-19.019
								l3.764,19.019h7.376l10.048-29.388L55.217-17.283z M43.566,26.531c0.06,4.88-2.914,14.112-6.138,17.533
								c-2.602,2.761-5.765,4.249-11.306,4.249h-0.998c-6.774,0-9.997-3.449-10.057-8.432c-0.06-4.882,2.982-14.113,6.204-17.536
								c2.603-2.758,5.758-4.247,11.305-4.247h0.932C40.285,18.099,43.505,21.553,43.566,26.531z M33.973,33.672
								c1.166-3.222,1.466-4.881,1.449-5.98c0-1.69-1.215-2.591-3.408-2.591c-2.79,0-4.004,0.699-4.91,1.665
								c-1.174,1.225-1.968,3.083-2.977,5.976c-1.167,3.221-1.466,4.879-1.449,5.979c0,1.69,1.215,2.592,3.408,2.592
								c2.789,0,4.004-0.703,4.918-1.667C32.177,38.421,32.968,36.563,33.973,33.672z M24.3-17.283l1.679,29.376h-7.742l-0.09-6.499
								h-8.83L5.62,12.093h-8.537l13.855-23.202c2.254-3.588,2.508-4.448,1.9-5.05l-0.373-0.36l0.246-0.764H24.3z M18.026-0.285
								l-0.139-8.878h-0.271l-5.008,8.878H18.026z M13.381,21.417c0.822,1.225,1.596,3.617,0.315,7.802
								c-0.876,2.888-1.928,4.851-3.466,6.245c-1.107,0.998-2.225,1.629-4.444,1.995l3.818,10.394H1.471l-3.052-10.165l-2.741-0.007
								l-3.461,10.172h-8.104l8.86-25.606c0.475-1.358,0.499-1.991-0.049-2.52l-0.506-0.499l0.254-0.762H5.354
								C9.869,18.466,12.255,19.727,13.381,21.417z M6.057,29.123c0.35-0.896,0.597-1.859,0.585-2.393
								c-0.014-0.831-0.594-1.558-1.991-1.558h-4.676l-2.103,6.071h3.864c1.009,0,2.038-0.061,2.531-0.265
								C4.995,30.685,5.553,30.383,6.057,29.123z M-14.318,5.095l7.699-22.378h-10.063l-0.245,0.764l0.505,0.498
								c0.541,0.53,0.523,1.161,0.049,2.52l-8.771,25.608L-5.087,12.1l2.424-7.005H-14.318z M-37.292,29.541l-2.717,7.438h19.558
								l2.543-7.004h-13.547l15.388-5.217l0.954-2.506L-37.292,29.541z"/>
						</g>
					</g>
					<linearGradient id="SVGID_44_" gradientUnits="userSpaceOnUse" x1="113.1963" y1="22.5166" x2="117.8171" y2="28.565">
						<stop  offset="0" style="stop-color:#FFFFFF"/>
						<stop  offset="1" style="stop-color:#000000"/>
					</linearGradient>
					<path fill="url(#SVGID_44_)" d="M122.364,21.183c0.896,1.34,1.687,3.852,0.366,8.161c-0.92,3.029-2.025,5.013-3.589,6.438
						c-1.033,0.932-2.116,1.597-4.154,2l-0.576-0.323c2.216-0.366,3.336-0.997,4.441-1.995c1.538-1.395,2.6-3.357,3.47-6.245
						c1.278-4.185,0.505-6.577-0.314-7.802c-1.127-1.69-3.512-2.951-8.027-2.951h-12.687l-0.312-0.428h12.998
						C118.15,18.038,120.975,19.097,122.364,21.183z"/>
					<polygon fill="#16181D" points="114.987,37.782 118.843,48.278 118.234,47.853 114.411,37.459 					"/>
					<polygon fill="#16181D" points="118.843,48.278 109.781,48.278 110.096,47.853 118.234,47.853 					"/>
					<polygon fill="#16181D" points="116.227,-7.172 113.233,1.026 112.907,0.689 115.618,-6.746 					"/>
					<polygon fill="#FFFFFF" points="116.227,-7.172 115.618,-6.746 96.062,-6.746 95.76,-7.172 					"/>
					<linearGradient id="SVGID_45_" gradientUnits="userSpaceOnUse" x1="111.1953" y1="29.9121" x2="110.1933" y2="26.5561">
						<stop  offset="0" style="stop-color:#FFFFFF"/>
						<stop  offset="1" style="stop-color:#000000"/>
					</linearGradient>
					<path fill="url(#SVGID_45_)" d="M115.264,26.73c0.013,0.533-0.232,1.496-0.583,2.393c-0.502,1.26-1.063,1.562-1.783,1.856
						c-0.499,0.204-1.528,0.265-2.521,0.265h-3.87l0.602-0.422h3.269c1.131,0,1.991-0.088,2.357-0.233
						c0.675-0.283,1.11-0.531,1.556-1.629c0.339-0.872,0.559-1.767,0.554-2.219c-0.018-0.74-0.571-1.141-1.561-1.141h-4.385
						l-0.299-0.428h4.684C114.676,25.173,115.254,25.899,115.264,26.73z"/>
					<polygon fill="#16181D" points="112.907,0.689 113.233,1.026 90.007,8.666 90.727,7.981 					"/>
					<polygon fill="#FFFFFF" points="107.041,37.688 110.096,47.853 109.781,48.278 106.729,38.112 					"/>
					<polygon fill="#16181D" points="108.6,25.173 108.898,25.601 107.108,30.822 106.507,31.244 					"/>
					<polygon fill="#FFFFFF" points="107.066,0.25 91.677,5.475 91.345,5.137 104.481,0.677 					"/>
					<polygon fill="#16181D" points="107.066,0.25 104.481,0.677 92.91,0.677 93.519,0.25 					"/>
					<polygon fill="#16181D" points="107.041,37.688 106.729,38.112 104.607,38.112 104.301,37.688 					"/>
					<polygon fill="#16181D" points="104.301,37.688 104.607,38.112 101.144,48.278 100.839,47.853 					"/>
					<linearGradient id="SVGID_46_" gradientUnits="userSpaceOnUse" x1="97.0479" y1="18.4229" x2="97.0479" y2="26.6458">
						<stop  offset="0" style="stop-color:#808080"/>
						<stop  offset="1" style="stop-color:#FFFFFF"/>
					</linearGradient>
					<path fill="url(#SVGID_46_)" d="M101.554,19.727c0.542,0.528,0.517,1.161,0.047,2.52l-8.868,25.606l-0.594,0.426l9.062-26.173
						c0.467-1.362,0.396-1.74,0.052-2.077l-0.695-0.686l0.485-0.115L101.554,19.727z"/>
					<polygon fill="#FFFFFF" points="100.982,18.038 101.294,18.466 101.042,19.228 100.557,19.343 					"/>
					<polygon fill="#16181D" points="100.839,47.853 101.144,48.278 92.139,48.278 92.732,47.853 					"/>
					<polygon fill="#16181D" points="98.578,18.021 95.813,25.654 95.515,25.227 97.971,18.446 					"/>
					<polygon fill="#FFFFFF" points="98.578,18.021 97.971,18.446 76.848,18.446 76.547,18.021 					"/>
					<polygon fill="#FFFFFF" points="95.76,-7.172 96.062,-6.746 93.519,0.25 92.91,0.677 					"/>
					<polygon fill="#16181D" points="95.515,25.227 95.813,25.654 84.626,25.654 84.321,25.227 					"/>
					<polygon fill="#16181D" points="93.657,29.494 91.107,36.49 90.806,36.063 93.049,29.921 					"/>
					<polygon fill="#FFFFFF" points="93.657,29.494 93.049,29.921 82.722,29.921 83.315,29.494 					"/>
					<polygon fill="#FFFFFF" points="91.345,5.137 91.677,5.475 90.727,7.981 90.007,8.666 					"/>
					<polygon fill="#16181D" points="90.806,36.063 91.107,36.49 80.916,36.49 80.609,36.063 					"/>
					<polygon fill="#16181D" points="91.041,40.584 88.348,48.267 88.049,47.846 90.438,41.011 					"/>
					<polygon fill="#FFFFFF" points="91.041,40.584 90.438,41.011 78.916,41.011 79.512,40.584 					"/>
					<linearGradient id="SVGID_47_" gradientUnits="userSpaceOnUse" x1="65.4111" y1="-14.5723" x2="74.2768" y2="3.5723">
						<stop  offset="0.1043" style="stop-color:#FFFFFF"/>
						<stop  offset="1" style="stop-color:#000000"/>
					</linearGradient>
					<path fill="url(#SVGID_47_)" d="M88.511-9.061C88.6-4.253,85.764,4.751,82.318,8.413c-2.73,2.922-6.089,4.119-11.594,4.119
						H57.18l0.597-0.425h12.948c5.547,0,8.713-1.228,11.279-3.988c3.223-3.42,6.176-12.286,6.079-17.167
						c-0.089-4.983-3.312-8.235-10.087-8.235H66.238l-0.307-0.425h12.064C84.668-17.708,88.402-14.639,88.511-9.061z"/>
					<polygon fill="#16181D" points="88.049,47.846 88.348,48.267 67.71,48.267 68.313,47.846 					"/>
					<polygon fill="#16181D" points="84.321,25.227 84.626,25.654 83.315,29.494 82.722,29.921 					"/>
					<polygon fill="#16181D" points="80.609,36.063 80.916,36.49 79.512,40.584 78.916,41.011 					"/>
					<linearGradient id="SVGID_48_" gradientUnits="userSpaceOnUse" x1="76.1885" y1="0.0054" x2="71.9671" y2="-4.216">
						<stop  offset="0" style="stop-color:#FFFFFF"/>
						<stop  offset="1" style="stop-color:#000000"/>
					</linearGradient>
					<path fill="url(#SVGID_48_)" d="M80.238-7.887c0.018,1.092-0.284,2.589-1.417,5.812c-1.004,2.891-1.805,4.549-2.945,5.775
						c-0.91,0.962-2.129,1.395-4.919,1.395h-2.613l0.593-0.427h2.021c2.861,0,3.854-0.463,4.612-1.264
						c1.039-1.117,1.808-2.644,2.847-5.619c1.017-2.874,1.42-4.515,1.397-5.668c-0.021-0.933-0.381-2.002-3.008-2.002h-2.844
						l-0.307-0.427h3.15C78.995-10.311,80.204-9.583,80.238-7.887z"/>
					<linearGradient id="SVGID_49_" gradientUnits="userSpaceOnUse" x1="73.3262" y1="18.9482" x2="72.8984" y2="27.979">
						<stop  offset="0" style="stop-color:#808080"/>
						<stop  offset="1" style="stop-color:#FFFFFF"/>
					</linearGradient>
					<path fill="url(#SVGID_49_)" d="M77.063,19.805c0.541,0.528,0.517,1.161,0.044,2.525l-8.794,25.516l-0.604,0.421l8.995-26.075
						c0.472-1.364,0.402-1.742,0.057-2.079l-0.695-0.693l0.487-0.112L77.063,19.805z"/>
					<polygon fill="#FFFFFF" points="76.547,18.021 76.848,18.446 76.554,19.307 76.066,19.419 					"/>
					<polygon fill="#16181D" points="75.08,18.038 58.437,48.278 58.187,47.853 74.36,18.466 					"/>
					<polygon fill="#FFFFFF" points="75.08,18.038 74.36,18.466 65.991,18.466 65.734,18.038 					"/>
					<polygon fill="#16181D" points="73.655,-10.311 73.962,-9.884 68.937,4.668 68.344,5.095 					"/>
					<linearGradient id="SVGID_50_" gradientUnits="userSpaceOnUse" x1="62.041" y1="-16.3716" x2="62.041" y2="-5.7918">
						<stop  offset="0" style="stop-color:#808080"/>
						<stop  offset="1" style="stop-color:#FFFFFF"/>
					</linearGradient>
					<path fill="url(#SVGID_50_)" d="M66.496-16.021c0.541,0.53,0.524,1.161,0.049,2.52l-8.769,25.608l-0.597,0.425l8.963-26.172
						c0.47-1.352,0.396-1.749,0.059-2.08l-0.697-0.685l0.487-0.114L66.496-16.021z"/>
					<polygon fill="#FFFFFF" points="65.932,-17.708 66.238,-17.283 65.991,-16.519 65.504,-16.405 					"/>
					<polygon fill="#FFFFFF" points="65.734,18.038 65.991,18.466 55.241,39.582 55.402,38.324 					"/>
					<polygon fill="#16181D" points="63.519,-17.721 53.174,12.519 52.875,12.093 62.923,-17.295 					"/>
					<polygon fill="#FFFFFF" points="63.519,-17.721 62.923,-17.295 55.217,-17.283 54.912,-17.708 					"/>
					<polygon fill="#16181D" points="58.187,47.853 58.437,48.278 47.755,48.278 48.158,47.853 					"/>
					<polygon fill="#16181D" points="54.885,18.038 55.402,38.324 55.012,39.582 54.47,18.466 					"/>
					<polygon fill="#16181D" points="55.402,38.324 55.241,39.582 55.012,39.582 					"/>
					<polygon fill="#FFFFFF" points="54.885,18.038 54.47,18.466 45.471,18.466 45.195,18.038 					"/>
					<polygon fill="#FFFFFF" points="54.912,-17.708 55.217,-17.283 49.85,-1.313 49.959,-2.983 					"/>
					<polygon fill="#16181D" points="52.875,12.093 53.174,12.519 45.149,12.519 45.499,12.093 					"/>
					<polygon fill="#16181D" points="47.14,-17.708 49.959,-2.983 49.85,-1.313 46.785,-17.283 					"/>
					<linearGradient id="SVGID_51_" gradientUnits="userSpaceOnUse" x1="46.3667" y1="18.708" x2="46.3667" y2="28.4748">
						<stop  offset="0" style="stop-color:#808080"/>
						<stop  offset="1" style="stop-color:#FFFFFF"/>
					</linearGradient>
					<path fill="url(#SVGID_51_)" d="M46.939,22.215l1.219,25.638l-0.403,0.426L46.51,22.233c-0.087-1.43-0.287-1.791-0.863-2.195
						l-1.071-0.64l0.547-0.171l0.771,0.464C46.638,20.214,46.843,20.754,46.939,22.215z"/>
					<polygon fill="#FFFFFF" points="47.14,-17.708 46.785,-17.283 36.393,-17.283 36.079,-17.708 					"/>
					<polygon fill="#FFFFFF" points="45.195,18.038 45.471,18.466 45.122,19.228 44.575,19.398 					"/>
					<polygon fill="#FFFFFF" points="41.735,-6.926 45.499,12.093 45.149,12.519 41.626,-5.273 					"/>
					<linearGradient id="SVGID_52_" gradientUnits="userSpaceOnUse" x1="16.8105" y1="20.7012" x2="34.7497" y2="38.6404">
						<stop  offset="0.4049" style="stop-color:#FFFFFF"/>
						<stop  offset="1" style="stop-color:#000000"/>
					</linearGradient>
					<path fill="url(#SVGID_52_)" d="M43.993,26.524c0.06,4.869-2.873,14.239-6.252,17.836c-2.902,3.07-6.378,4.382-11.618,4.382
						h-0.998c-6.595,0-10.411-3.228-10.483-8.856c-0.06-4.836,2.902-14.2,6.318-17.833c2.901-3.072,6.377-4.382,11.617-4.382h0.932
						C40.097,17.67,43.92,20.899,43.993,26.524z M37.429,44.064c3.224-3.421,6.197-12.653,6.138-17.533
						c-0.062-4.979-3.281-8.433-10.058-8.433h-0.932c-5.547,0-8.702,1.489-11.305,4.247C18.051,25.769,15.009,35,15.068,39.882
						c0.06,4.982,3.282,8.432,10.057,8.432h0.998C31.664,48.313,34.827,46.825,37.429,44.064z"/>
					<polygon fill="#16181D" points="41.735,-6.926 41.626,-5.273 35.617,12.519 35.311,12.093 					"/>
					<linearGradient id="SVGID_53_" gradientUnits="userSpaceOnUse" x1="32.1958" y1="-16.6567" x2="32.1958" y2="-7.3801">
						<stop  offset="0" style="stop-color:#808080"/>
						<stop  offset="1" style="stop-color:#FFFFFF"/>
					</linearGradient>
					<path fill="url(#SVGID_53_)" d="M36.644-16.021c0.548,0.53,0.523,1.161,0.053,2.52l-8.757,25.595l-0.6,0.426l8.955-26.16
						c0.468-1.364,0.397-1.743,0.056-2.08l-0.704-0.685l0.493-0.114L36.644-16.021z"/>
					<polygon fill="#FFFFFF" points="36.079,-17.708 36.393,-17.283 36.14,-16.519 35.646,-16.405 					"/>
					<linearGradient id="SVGID_54_" gradientUnits="userSpaceOnUse" x1="33.7329" y1="37.8896" x2="23.4884" y2="27.6451">
						<stop  offset="0" style="stop-color:#FFFFFF"/>
						<stop  offset="1" style="stop-color:#000000"/>
					</linearGradient>
					<path fill="url(#SVGID_54_)" d="M35.422,27.691c0.017,1.1-0.283,2.759-1.449,5.98c-1.005,2.891-1.796,4.749-2.969,5.974
						c-0.914,0.964-2.129,1.667-4.918,1.667c-2.193,0-3.408-0.901-3.408-2.592c-0.017-1.101,0.282-2.759,1.449-5.979
						c1.009-2.893,1.803-4.751,2.977-5.976c0.906-0.966,2.12-1.665,4.91-1.665C34.207,25.101,35.422,26.001,35.422,27.691z
						 M33.575,33.529c0.993-2.743,1.443-4.594,1.421-5.826c0-0.723-0.237-1.238-0.712-1.601c-0.504-0.381-1.267-0.577-2.271-0.577
						c-2.621,0-3.74,0.614-4.604,1.526c-1.124,1.18-1.906,3.031-2.88,5.832c-0.99,2.743-1.44,4.595-1.426,5.826
						c0,1.449,1.005,2.175,2.982,2.175c2.621,0,3.738-0.613,4.604-1.525C31.815,38.176,32.595,36.327,33.575,33.529z"/>
					<polygon fill="#16181D" points="35.311,12.093 35.617,12.519 27.34,12.519 27.939,12.093 					"/>
					<polygon fill="#16181D" points="24.703,-17.708 26.429,12.519 25.979,12.093 24.3,-17.283 					"/>
					<polygon fill="#16181D" points="26.429,12.519 17.823,12.519 18.236,12.093 25.979,12.093 					"/>
					<polygon fill="#FFFFFF" points="24.703,-17.708 24.3,-17.283 12.712,-17.283 12.406,-17.708 					"/>
					<polygon fill="#FFFFFF" points="18.146,5.594 18.236,12.093 17.823,12.519 17.725,6.02 					"/>
					<polygon fill="#16181D" points="18.146,5.594 17.725,6.02 9.563,6.02 9.316,5.594 					"/>
					<linearGradient id="SVGID_55_" gradientUnits="userSpaceOnUse" x1="17.7529" y1="-9.0996" x2="17.7529" y2="-3.6793">
						<stop  offset="0" style="stop-color:#808080"/>
						<stop  offset="1" style="stop-color:#FFFFFF"/>
					</linearGradient>
					<polygon fill="url(#SVGID_55_)" points="17.888,-9.163 18.026,-0.285 17.594,-0.711 17.479,-8.038 					"/>
					<polygon fill="#FFFFFF" points="18.026,-0.285 12.609,-0.285 13.337,-0.711 17.594,-0.711 					"/>
					<polygon fill="#16181D" points="17.888,-9.163 17.479,-8.038 17.617,-9.163 					"/>
					<polygon fill="#16181D" points="17.617,-9.163 17.479,-8.038 13.337,-0.711 12.609,-0.285 					"/>
					<linearGradient id="SVGID_56_" gradientUnits="userSpaceOnUse" x1="0.3667" y1="15.7314" x2="11.7121" y2="32.1484">
						<stop  offset="0" style="stop-color:#FFFFFF"/>
						<stop  offset="1" style="stop-color:#000000"/>
					</linearGradient>
					<path fill="url(#SVGID_56_)" d="M13.734,21.183c0.902,1.34,1.694,3.847,0.372,8.161c-0.92,3.029-2.024,5.013-3.589,6.438
						c-1.039,0.932-2.121,1.597-4.151,2l-0.58-0.323c2.22-0.366,3.337-0.997,4.444-1.995c1.538-1.395,2.59-3.357,3.466-6.245
						c1.28-4.185,0.507-6.577-0.315-7.802c-1.126-1.69-3.512-2.951-8.026-2.951H-7.328l-0.313-0.428H5.354
						C9.525,18.038,12.346,19.097,13.734,21.183z"/>
					<linearGradient id="SVGID_57_" gradientUnits="userSpaceOnUse" x1="4.728" y1="-17.0371" x2="4.728" y2="-9.5728">
						<stop  offset="0" style="stop-color:#808080"/>
						<stop  offset="1" style="stop-color:#FFFFFF"/>
					</linearGradient>
					<path fill="url(#SVGID_57_)" d="M12.839-16.159c0.607,0.602,0.354,1.461-1.9,5.05L-2.917,12.093l-0.75,0.426l14.246-23.845
						c2.126-3.397,2.325-4.166,1.959-4.526l-0.564-0.553l0.492-0.114L12.839-16.159z"/>
					<polygon fill="#FFFFFF" points="12.406,-17.708 12.712,-17.283 12.466,-16.519 11.974,-16.405 					"/>
					<polygon fill="#16181D" points="6.366,37.782 10.217,48.278 9.604,47.853 5.786,37.459 					"/>
					<polygon fill="#16181D" points="10.217,48.278 1.154,48.278 1.471,47.853 9.604,47.853 					"/>
					<polygon fill="#16181D" points="9.316,5.594 9.563,6.02 5.866,12.519 5.62,12.093 					"/>
					<linearGradient id="SVGID_58_" gradientUnits="userSpaceOnUse" x1="3.6572" y1="30.71" x2="-0.5875" y2="24.7561">
						<stop  offset="0" style="stop-color:#FFFFFF"/>
						<stop  offset="1" style="stop-color:#000000"/>
					</linearGradient>
					<path fill="url(#SVGID_58_)" d="M6.642,26.73c0.012,0.533-0.235,1.496-0.585,2.393c-0.504,1.26-1.062,1.562-1.789,1.856
						c-0.493,0.204-1.522,0.265-2.531,0.265h-3.864l0.6-0.422h3.265c1.141,0,2.008-0.088,2.375-0.233
						c0.666-0.283,1.112-0.531,1.55-1.629c0.338-0.854,0.566-1.773,0.554-2.219c-0.013-0.74-0.565-1.141-1.564-1.141H0.276
						l-0.302-0.428H4.65C6.048,25.173,6.628,25.899,6.642,26.73z"/>
					<polygon fill="#16181D" points="5.62,12.093 5.866,12.519 -3.667,12.519 -2.917,12.093 					"/>
					<polygon fill="#FFFFFF" points="-1.581,37.688 1.471,47.853 1.154,48.278 -1.9,38.112 					"/>
					<polygon fill="#16181D" points="-0.025,25.173 0.276,25.601 -1.528,30.822 -2.128,31.244 					"/>
					<polygon fill="#16181D" points="-1.581,37.688 -1.9,38.112 -4.016,38.109 -4.322,37.681 					"/>
					<polygon fill="#16181D" points="-2.069,4.668 -4.786,12.524 -5.087,12.1 -2.663,5.095 					"/>
					<polygon fill="#FFFFFF" points="-2.069,4.668 -2.663,5.095 -14.318,5.095 -13.725,4.668 					"/>
					<polygon fill="#16181D" points="-4.322,37.681 -4.016,38.109 -7.479,48.278 -7.783,47.853 					"/>
					<polygon fill="#16181D" points="-5.087,12.1 -4.786,12.524 -25.745,12.532 -25.145,12.106 					"/>
					<polygon fill="#16181D" points="-6.022,-17.708 -13.725,4.668 -14.318,5.095 -6.619,-17.283 					"/>
					<polygon fill="#FFFFFF" points="-6.022,-17.708 -6.619,-17.283 -16.683,-17.283 -16.987,-17.708 					"/>
					<linearGradient id="SVGID_59_" gradientUnits="userSpaceOnUse" x1="-11.5747" y1="18.8506" x2="-11.5747" y2="28.454">
						<stop  offset="0" style="stop-color:#808080"/>
						<stop  offset="1" style="stop-color:#FFFFFF"/>
					</linearGradient>
					<path fill="url(#SVGID_59_)" d="M-7.076,19.727c0.548,0.528,0.523,1.161,0.049,2.52l-8.86,25.606l-0.594,0.426l9.052-26.173
						c0.475-1.362,0.402-1.74,0.06-2.077l-0.698-0.686l0.486-0.115L-7.076,19.727z"/>
					<polygon fill="#FFFFFF" points="-7.641,18.038 -7.328,18.466 -7.582,19.228 -8.068,19.343 					"/>
					<polygon fill="#16181D" points="-7.783,47.853 -7.479,48.278 -16.481,48.278 -15.888,47.853 					"/>
					<polygon fill="#16181D" points="-14.404,21.568 -15.743,25.101 -16.067,24.758 -15.113,22.252 					"/>
					<polygon fill="#FFFFFF" points="-14.404,21.568 -15.113,22.252 -37.292,29.541 -37.623,29.2 					"/>
					<polygon fill="#16181D" points="-16.067,24.758 -15.743,25.101 -28.871,29.547 -31.455,29.975 					"/>
					<linearGradient id="SVGID_60_" gradientUnits="userSpaceOnUse" x1="-20.8813" y1="-16.519" x2="-20.8813" y2="-8.6553">
						<stop  offset="0" style="stop-color:#808080"/>
						<stop  offset="1" style="stop-color:#FFFFFF"/>
					</linearGradient>
					<path fill="url(#SVGID_60_)" d="M-16.423-16.021c0.541,0.53,0.523,1.161,0.049,2.52l-8.771,25.608l-0.601,0.425l8.967-26.172
						c0.472-1.352,0.393-1.749,0.057-2.08l-0.693-0.685l0.487-0.114L-16.423-16.021z"/>
					<polygon fill="#FFFFFF" points="-16.987,-17.708 -16.683,-17.283 -16.928,-16.519 -17.415,-16.405 					"/>
					<polygon fill="#16181D" points="-17.3,29.547 -20.15,37.404 -20.451,36.979 -17.908,29.975 					"/>
					<polygon fill="#FFFFFF" points="-17.3,29.547 -17.908,29.975 -31.455,29.975 -28.871,29.547 					"/>
					<polygon fill="#16181D" points="-20.451,36.979 -20.15,37.404 -40.615,37.399 -40.009,36.979 					"/>
					<polygon fill="#FFFFFF" points="-37.623,29.2 -37.292,29.541 -40.009,36.979 -40.615,37.399 					"/>
				</g>
			</g>
			<path fill="#FFFFFF" d="M-37.468,58.084c1.393,0.717,2.814,1.412,4.262,2.092C-34.653,59.502-36.075,58.801-37.468,58.084z"/>
			<g opacity="0.7">
				
					<image overflow="visible" width="1977" height="1025" xlink:href="1E314363.png"  transform="matrix(0.1415 0 0 0.1415 -93.0635 -63.335)">
				</image>
			</g>
			<g>
				
					<radialGradient id="SVGID_61_" cx="-18.2646" cy="-13.3403" r="271.8197" gradientTransform="matrix(1 0 0 0.38 0 -8.2708)" gradientUnits="userSpaceOnUse">
					<stop  offset="0" style="stop-color:#FFFFFF"/>
					<stop  offset="0.0925" style="stop-color:#F8F8F8"/>
					<stop  offset="0.2234" style="stop-color:#E6E6E6"/>
					<stop  offset="0.3764" style="stop-color:#C8C8C8"/>
					<stop  offset="0.4017" style="stop-color:#C2C2C2"/>
					<stop  offset="0.4717" style="stop-color:#D2D3D2"/>
					<stop  offset="0.5256" style="stop-color:#D9DAD9"/>
					<stop  offset="0.5966" style="stop-color:#D3D3D3"/>
					<stop  offset="0.6423" style="stop-color:#CCCCCC"/>
					<stop  offset="0.7495" style="stop-color:#CFCFCF"/>
					<stop  offset="0.7624" style="stop-color:#BEBEBE"/>
					<stop  offset="0.7925" style="stop-color:#9D9D9D"/>
					<stop  offset="0.8214" style="stop-color:#868686"/>
					<stop  offset="0.8483" style="stop-color:#787878"/>
					<stop  offset="0.8712" style="stop-color:#737373"/>
					<stop  offset="0.9008" style="stop-color:#848484"/>
					<stop  offset="0.9595" style="stop-color:#B2B2B2"/>
					<stop  offset="0.9758" style="stop-color:#BFBFBF"/>
				</radialGradient>
				<path fill="url(#SVGID_61_)" d="M158.874,15.152c-0.116-1.323-0.339-2.618-0.653-3.879c-0.057-0.216-0.113-0.439-0.173-0.655
					c-0.119-0.44-0.253-0.875-0.391-1.302c-0.137-0.411-0.28-0.815-0.436-1.221c-4.769-12.445-18.206-21.84-29.236-27.538
					C103.65-32.027,73.368-36.834,46.213-36.834c-27.158,0-57.429,4.82-81.761,17.391c-13.667,7.062-31.008,19.787-31.008,36.959
					c0,14.12,11.745,25.249,23.512,32.687c0,0,0,0,0.006,0c0.394,0.245,0.788,0.49,1.176,0.729c0.394,0.239,0.786,0.474,1.182,0.708
					c0.403,0.239,0.804,0.472,1.208,0.7c0.439,0.258,0.883,0.501,1.323,0.747c0.879,0.486,1.745,0.953,2.602,1.393
					c24.332,12.566,54.609,17.379,81.761,17.379c27.148,0,57.438-4.809,81.772-17.379c13.664-7.068,31.005-19.803,31.005-36.964
					c0-0.539-0.018-1.07-0.053-1.6C158.923,15.661,158.906,15.401,158.874,15.152z M156.591,17.514
					c0,26.911-49.597,51.632-110.378,51.632c-60.78,0-110.377-24.721-110.377-51.632c0-27.024,49.597-51.633,110.377-51.633
					C106.994-34.12,156.591-9.511,156.591,17.514z"/>
				<g>
					
						<radialGradient id="SVGID_62_" cx="146.3955" cy="-26.6426" r="69.7807" gradientTransform="matrix(0.6878 -0.7259 0.5244 0.4968 59.6797 92.8666)" gradientUnits="userSpaceOnUse">
						<stop  offset="0" style="stop-color:#999999"/>
						<stop  offset="0.0299" style="stop-color:#9F9F9F"/>
						<stop  offset="0.2485" style="stop-color:#C8C8C8"/>
						<stop  offset="0.4469" style="stop-color:#E6E6E6"/>
						<stop  offset="0.6167" style="stop-color:#F9F9F9"/>
						<stop  offset="0.7381" style="stop-color:#FFFFFF"/>
					</radialGradient>
					<path fill="url(#SVGID_62_)" d="M158.874,15.152c-0.116-1.323-0.339-2.618-0.653-3.879c-0.057-0.216-0.113-0.439-0.173-0.655
						c-0.119-0.44-0.253-0.875-0.391-1.302c-0.137-0.411-0.28-0.815-0.436-1.221c-4.769-12.445-18.206-21.84-29.236-27.538
						C103.65-32.027,73.368-36.834,46.213-36.834c-27.158,0-57.429,4.82-81.761,17.391c-13.667,7.062-31.008,19.787-31.008,36.959
						c0,14.12,11.745,25.249,23.512,32.687c0,0,0,0,0.006,0c0.394,0.245,0.788,0.49,1.176,0.729
						c0.394,0.239,0.786,0.474,1.182,0.708c0.403,0.239,0.804,0.472,1.208,0.7c0.439,0.258,0.883,0.501,1.323,0.747
						c0.879,0.486,1.745,0.953,2.602,1.393c24.332,12.566,54.609,17.379,81.761,17.379c27.148,0,57.438-4.809,81.772-17.379
						c13.664-7.068,31.005-19.803,31.005-36.964c0-0.539-0.018-1.07-0.053-1.6C158.923,15.661,158.906,15.401,158.874,15.152z
						 M156.591,17.514c0,26.911-49.597,51.632-110.378,51.632c-60.78,0-110.377-24.721-110.377-51.632
						c0-27.024,49.597-51.633,110.377-51.633C106.994-34.12,156.591-9.511,156.591,17.514z"/>
				</g>
				<g>
					
						<radialGradient id="SVGID_63_" cx="-21.9043" cy="-64.647" r="119.57" gradientTransform="matrix(0.7807 0.6249 -0.3901 0.4873 -30.0212 -19.4546)" gradientUnits="userSpaceOnUse">
						<stop  offset="0" style="stop-color:#FFFFFF"/>
						<stop  offset="0.723" style="stop-color:#000000"/>
					</radialGradient>
					<path fill="url(#SVGID_63_)" d="M158.874,15.152c-0.116-1.323-0.339-2.618-0.653-3.879c-0.057-0.216-0.113-0.439-0.173-0.655
						c-0.119-0.44-0.253-0.875-0.391-1.302c-0.137-0.411-0.28-0.815-0.436-1.221c-4.769-12.445-18.206-21.84-29.236-27.538
						C103.65-32.027,73.368-36.834,46.213-36.834c-27.158,0-57.429,4.82-81.761,17.391c-13.667,7.062-31.008,19.787-31.008,36.959
						c0,14.12,11.745,25.249,23.512,32.687c0,0,0,0,0.006,0c0.394,0.245,0.788,0.49,1.176,0.729
						c0.394,0.239,0.786,0.474,1.182,0.708c0.403,0.239,0.804,0.472,1.208,0.7c0.439,0.258,0.883,0.501,1.323,0.747
						c0.879,0.486,1.745,0.953,2.602,1.393c24.332,12.566,54.609,17.379,81.761,17.379c27.148,0,57.438-4.809,81.772-17.379
						c13.664-7.068,31.005-19.803,31.005-36.964c0-0.539-0.018-1.07-0.053-1.6C158.923,15.661,158.906,15.401,158.874,15.152z
						 M156.591,17.514c0,26.911-49.597,51.632-110.378,51.632c-60.78,0-110.377-24.721-110.377-51.632
						c0-27.024,49.597-51.633,110.377-51.633C106.994-34.12,156.591-9.511,156.591,17.514z"/>
				</g>
				<g>
					
						<radialGradient id="SVGID_64_" cx="107.7441" cy="81.0381" r="123.413" gradientTransform="matrix(0.7807 0.6249 -0.5233 0.6538 66.0373 -39.2734)" gradientUnits="userSpaceOnUse">
						<stop  offset="0" style="stop-color:#FFFFFF"/>
						<stop  offset="0.723" style="stop-color:#000000"/>
					</radialGradient>
					<path fill="url(#SVGID_64_)" d="M158.874,15.152c-0.116-1.323-0.339-2.618-0.653-3.879c-0.057-0.216-0.113-0.439-0.173-0.655
						c-0.119-0.44-0.253-0.875-0.391-1.302c-0.137-0.411-0.28-0.815-0.436-1.221c-4.769-12.445-18.206-21.84-29.236-27.538
						C103.65-32.027,73.368-36.834,46.213-36.834c-27.158,0-57.429,4.82-81.761,17.391c-13.667,7.062-31.008,19.787-31.008,36.959
						c0,14.12,11.745,25.249,23.512,32.687c0,0,0,0,0.006,0c0.394,0.245,0.788,0.49,1.176,0.729
						c0.394,0.239,0.786,0.474,1.182,0.708c0.403,0.239,0.804,0.472,1.208,0.7c0.439,0.258,0.883,0.501,1.323,0.747
						c0.879,0.486,1.745,0.953,2.602,1.393c24.332,12.566,54.609,17.379,81.761,17.379c27.148,0,57.438-4.809,81.772-17.379
						c13.664-7.068,31.005-19.803,31.005-36.964c0-0.539-0.018-1.07-0.053-1.6C158.923,15.661,158.906,15.401,158.874,15.152z
						 M156.591,17.514c0,26.911-49.597,51.632-110.378,51.632c-60.78,0-110.377-24.721-110.377-51.632
						c0-27.024,49.597-51.633,110.377-51.633C106.994-34.12,156.591-9.511,156.591,17.514z"/>
				</g>
			</g>
			<g>
				
					<radialGradient id="SVGID_65_" cx="-24.5166" cy="-19.5659" r="303.6676" gradientTransform="matrix(1 0 0 0.38 0 -12.1304)" gradientUnits="userSpaceOnUse">
					<stop  offset="0" style="stop-color:#F2F2F2"/>
					<stop  offset="0.1078" style="stop-color:#ECECEC"/>
					<stop  offset="0.2597" style="stop-color:#D9D9D9"/>
					<stop  offset="0.4017" style="stop-color:#C2C2C2"/>
					<stop  offset="0.4243" style="stop-color:#CBCBCB"/>
					<stop  offset="0.4844" style="stop-color:#DEDEDE"/>
					<stop  offset="0.5256" style="stop-color:#E6E6E6"/>
					<stop  offset="0.5734" style="stop-color:#DFDFDF"/>
					<stop  offset="0.6409" style="stop-color:#CCCCCC"/>
					<stop  offset="0.6423" style="stop-color:#CCCCCC"/>
					<stop  offset="0.7495" style="stop-color:#CFCFCF"/>
					<stop  offset="0.7766" style="stop-color:#B7B7B7"/>
					<stop  offset="0.8112" style="stop-color:#9F9F9F"/>
					<stop  offset="0.8436" style="stop-color:#919191"/>
					<stop  offset="0.8712" style="stop-color:#8C8C8C"/>
					<stop  offset="0.913" style="stop-color:#9E9E9E"/>
					<stop  offset="0.9758" style="stop-color:#BFBFBF"/>
				</radialGradient>
				<path fill="url(#SVGID_65_)" d="M133.013-29.157c-25.927-13.405-57.849-18.618-86.8-18.618c-28.954,0-60.868,5.219-86.8,18.618
					C-58.318-19.998-77.49-4.363-77.49,17.48c0,21.838,19.172,37.479,36.903,46.647c25.932,13.386,57.846,18.605,86.8,18.605
					c28.951,0,60.875-5.208,86.8-18.605c17.742-9.168,36.913-24.809,36.913-46.647C169.926-4.363,150.755-19.998,133.013-29.157z
					 M163.048,19.596c-0.086,1.181-0.242,2.351-0.467,3.513c-2.558,13.038-13.936,25.291-32.687,34.978
					c-22.272,11.51-51.99,17.847-83.682,17.847c-29.701,0-57.674-5.573-79.411-15.748l-0.007-0.006
					c-1.448-0.678-2.869-1.375-4.261-2.093C-58.882,47.013-70.69,32.594-70.69,17.48c0-15.118,11.809-29.531,33.225-40.602
					c22.286-11.512,52.013-17.843,83.694-17.843c31.693,0,61.394,6.332,83.666,17.843c21.429,11.071,33.23,25.484,33.23,40.602
					c0,0.474-0.013,0.942-0.032,1.414C163.083,19.127,163.063,19.362,163.048,19.596z"/>
				<g>
					
						<radialGradient id="SVGID_66_" cx="156.1104" cy="-35.5371" r="83.6729" gradientTransform="matrix(0.6878 -0.7259 0.5244 0.4968 67.3773 95.4435)" gradientUnits="userSpaceOnUse">
						<stop  offset="0" style="stop-color:#808080"/>
						<stop  offset="0.1263" style="stop-color:#9F9F9F"/>
						<stop  offset="0.315" style="stop-color:#C8C8C8"/>
						<stop  offset="0.4865" style="stop-color:#E6E6E6"/>
						<stop  offset="0.6332" style="stop-color:#F9F9F9"/>
						<stop  offset="0.7381" style="stop-color:#FFFFFF"/>
					</radialGradient>
					<path fill="url(#SVGID_66_)" d="M133.013-29.157c-25.927-13.405-57.849-18.618-86.8-18.618c-28.954,0-60.868,5.219-86.8,18.618
						C-58.318-19.998-77.49-4.363-77.49,17.48c0,21.838,19.172,37.479,36.903,46.647c25.932,13.386,57.846,18.605,86.8,18.605
						c28.951,0,60.875-5.208,86.8-18.605c17.742-9.168,36.913-24.809,36.913-46.647C169.926-4.363,150.755-19.998,133.013-29.157z
						 M163.048,19.596c-0.086,1.181-0.242,2.351-0.467,3.513c-2.558,13.038-13.936,25.291-32.687,34.978
						c-22.272,11.51-51.99,17.847-83.682,17.847c-29.701,0-57.674-5.573-79.411-15.748l-0.007-0.006
						c-1.448-0.678-2.869-1.375-4.261-2.093C-58.882,47.013-70.69,32.594-70.69,17.48c0-15.118,11.809-29.531,33.225-40.602
						c22.286-11.512,52.013-17.843,83.694-17.843c31.693,0,61.394,6.332,83.666,17.843c21.429,11.071,33.23,25.484,33.23,40.602
						c0,0.474-0.013,0.942-0.032,1.414C163.083,19.127,163.063,19.362,163.048,19.596z"/>
				</g>
				<g>
					
						<radialGradient id="SVGID_67_" cx="113.7109" cy="93.7529" r="135.7949" gradientTransform="matrix(0.7807 0.6249 -0.5233 0.6538 73.9997 -38.5999)" gradientUnits="userSpaceOnUse">
						<stop  offset="0" style="stop-color:#FFFFFF"/>
						<stop  offset="0.723" style="stop-color:#000000"/>
					</radialGradient>
					<path fill="url(#SVGID_67_)" d="M133.013-29.157c-25.927-13.405-57.849-18.618-86.8-18.618c-28.954,0-60.868,5.219-86.8,18.618
						C-58.318-19.998-77.49-4.363-77.49,17.48c0,21.838,19.172,37.479,36.903,46.647c25.932,13.386,57.846,18.605,86.8,18.605
						c28.951,0,60.875-5.208,86.8-18.605c17.742-9.168,36.913-24.809,36.913-46.647C169.926-4.363,150.755-19.998,133.013-29.157z
						 M163.048,19.596c-0.086,1.181-0.242,2.351-0.467,3.513c-2.558,13.038-13.936,25.291-32.687,34.978
						c-22.272,11.51-51.99,17.847-83.682,17.847c-29.701,0-57.674-5.573-79.411-15.748l-0.007-0.006
						c-1.448-0.678-2.869-1.375-4.261-2.093C-58.882,47.013-70.69,32.594-70.69,17.48c0-15.118,11.809-29.531,33.225-40.602
						c22.286-11.512,52.013-17.843,83.694-17.843c31.693,0,61.394,6.332,83.666,17.843c21.429,11.071,33.23,25.484,33.23,40.602
						c0,0.474-0.013,0.942-0.032,1.414C163.083,19.127,163.063,19.362,163.048,19.596z"/>
				</g>
			</g>
			<path fill="#FFFFFF" d="M162.578,23.107c-2.545,13.117-13.918,25.666-32.679,35.364c-22.274,11.51-51.993,17.846-83.684,17.846
				c-29.706,0-57.679-5.908-79.415-16.136c21.736,10.181,49.709,15.749,79.408,15.749c31.692,0,61.411-6.338,83.686-17.847
				C148.643,48.398,160.021,36.146,162.578,23.107z"/>
			<g>
				
					<radialGradient id="SVGID_68_" cx="-16.8989" cy="28.7354" r="246.2927" gradientTransform="matrix(1 0 0 0.38 0 17.8153)" gradientUnits="userSpaceOnUse">
					<stop  offset="0" style="stop-color:#FFFFFF"/>
					<stop  offset="0.0925" style="stop-color:#F8F8F8"/>
					<stop  offset="0.2234" style="stop-color:#E6E6E6"/>
					<stop  offset="0.3764" style="stop-color:#C8C8C8"/>
					<stop  offset="0.4017" style="stop-color:#C2C2C2"/>
					<stop  offset="0.4717" style="stop-color:#D2D3D2"/>
					<stop  offset="0.5256" style="stop-color:#D9DAD9"/>
					<stop  offset="0.5966" style="stop-color:#D3D3D3"/>
					<stop  offset="0.6423" style="stop-color:#CCCCCC"/>
					<stop  offset="0.7495" style="stop-color:#CFCFCF"/>
					<stop  offset="0.7624" style="stop-color:#BEBEBE"/>
					<stop  offset="0.7925" style="stop-color:#9D9D9D"/>
					<stop  offset="0.8214" style="stop-color:#868686"/>
					<stop  offset="0.8483" style="stop-color:#787878"/>
					<stop  offset="0.8712" style="stop-color:#737373"/>
					<stop  offset="0.9008" style="stop-color:#848484"/>
					<stop  offset="0.9595" style="stop-color:#B2B2B2"/>
					<stop  offset="0.9758" style="stop-color:#BFBFBF"/>
				</radialGradient>
				<path fill="url(#SVGID_68_)" d="M156.591,17.514c0,26.911-49.597,51.916-110.378,51.916c-60.78,0-110.377-25.005-110.377-51.916
					c0,26.911,49.597,51.632,110.377,51.632C106.994,69.146,156.591,44.425,156.591,17.514z"/>
				
					<radialGradient id="SVGID_69_" cx="144.2637" cy="22.3818" r="34.1764" gradientTransform="matrix(0.6878 -0.7259 0.5244 0.4968 33.3054 115.9858)" gradientUnits="userSpaceOnUse">
					<stop  offset="0" style="stop-color:#999999"/>
					<stop  offset="0.0299" style="stop-color:#9F9F9F"/>
					<stop  offset="0.2485" style="stop-color:#C8C8C8"/>
					<stop  offset="0.4469" style="stop-color:#E6E6E6"/>
					<stop  offset="0.6167" style="stop-color:#F9F9F9"/>
					<stop  offset="0.7381" style="stop-color:#FFFFFF"/>
				</radialGradient>
				<path fill="url(#SVGID_69_)" d="M156.591,17.514c0,26.911-49.597,51.916-110.378,51.916c-60.78,0-110.377-25.005-110.377-51.916
					c0,26.911,49.597,51.632,110.377,51.632C106.994,69.146,156.591,44.425,156.591,17.514z"/>
				
					<radialGradient id="SVGID_70_" cx="-20.4609" cy="4.229" r="99.5495" gradientTransform="matrix(0.7807 0.6249 -0.3901 0.4873 -2.8375 14.9543)" gradientUnits="userSpaceOnUse">
					<stop  offset="0" style="stop-color:#FFFFFF"/>
					<stop  offset="0.723" style="stop-color:#000000"/>
				</radialGradient>
				<path fill="url(#SVGID_70_)" d="M156.591,17.514c0,26.911-49.597,51.916-110.378,51.916c-60.78,0-110.377-25.005-110.377-51.916
					c0,26.911,49.597,51.632,110.377,51.632C106.994,69.146,156.591,44.425,156.591,17.514z"/>
				<path fill="#FFFFFF" d="M156.591,17.514c0,26.911-49.597,51.916-110.378,51.916c-60.78,0-110.377-25.005-110.377-51.916
					c0,26.911,49.597,51.632,110.377,51.632C106.994,69.146,156.591,44.425,156.591,17.514z"/>
			</g>
			<g>
				
					<radialGradient id="SVGID_71_" cx="-18.5503" cy="-25.0869" r="250.558" gradientTransform="matrix(1 0 0 0.38 0 -15.5533)" gradientUnits="userSpaceOnUse">
					<stop  offset="0" style="stop-color:#FFFFFF"/>
					<stop  offset="0.0925" style="stop-color:#F8F8F8"/>
					<stop  offset="0.2234" style="stop-color:#E6E6E6"/>
					<stop  offset="0.3764" style="stop-color:#C8C8C8"/>
					<stop  offset="0.4017" style="stop-color:#C2C2C2"/>
					<stop  offset="0.4717" style="stop-color:#D2D3D2"/>
					<stop  offset="0.5256" style="stop-color:#D9DAD9"/>
					<stop  offset="0.5966" style="stop-color:#D3D3D3"/>
					<stop  offset="0.6423" style="stop-color:#CCCCCC"/>
					<stop  offset="0.7495" style="stop-color:#CFCFCF"/>
					<stop  offset="0.7624" style="stop-color:#BEBEBE"/>
					<stop  offset="0.7925" style="stop-color:#9D9D9D"/>
					<stop  offset="0.8214" style="stop-color:#868686"/>
					<stop  offset="0.8483" style="stop-color:#787878"/>
					<stop  offset="0.8712" style="stop-color:#737373"/>
					<stop  offset="0.9008" style="stop-color:#848484"/>
					<stop  offset="0.9595" style="stop-color:#B2B2B2"/>
					<stop  offset="0.9758" style="stop-color:#BFBFBF"/>
				</radialGradient>
				<path fill="url(#SVGID_71_)" d="M157.657,9.315c-0.137-0.411-0.28-0.815-0.436-1.221c-4.769-12.445-18.172-21.901-29.236-27.538
					c-23.956-12.205-54.617-17.042-81.772-17.042c-27.158,0-57.429,4.716-81.761,17.287c-13.667,7.063-31.008,19.542-31.008,36.715
					c0-17.173,17.341-29.898,31.008-36.959c24.332-12.571,54.603-17.391,81.761-17.391c27.155,0,57.438,4.808,81.772,17.391
					c11.03,5.698,24.468,15.093,29.236,27.538C157.377,8.5,157.521,8.905,157.657,9.315z"/>
				
					<radialGradient id="SVGID_72_" cx="145.1377" cy="-31.7383" r="35.7116" gradientTransform="matrix(0.6878 -0.7259 0.5244 0.4968 61.9592 89.3896)" gradientUnits="userSpaceOnUse">
					<stop  offset="0" style="stop-color:#999999"/>
					<stop  offset="0.0299" style="stop-color:#9F9F9F"/>
					<stop  offset="0.2485" style="stop-color:#C8C8C8"/>
					<stop  offset="0.4469" style="stop-color:#E6E6E6"/>
					<stop  offset="0.6167" style="stop-color:#F9F9F9"/>
					<stop  offset="0.7381" style="stop-color:#FFFFFF"/>
				</radialGradient>
				<path fill="url(#SVGID_72_)" d="M157.657,9.315c-0.137-0.411-0.28-0.815-0.436-1.221c-4.769-12.445-18.172-21.901-29.236-27.538
					c-23.956-12.205-54.617-17.042-81.772-17.042c-27.158,0-57.429,4.716-81.761,17.287c-13.667,7.063-31.008,19.542-31.008,36.715
					c0-17.173,17.341-29.898,31.008-36.959c24.332-12.571,54.603-17.391,81.761-17.391c27.155,0,57.438,4.808,81.772,17.391
					c11.03,5.698,24.468,15.093,29.236,27.538C157.377,8.5,157.521,8.905,157.657,9.315z"/>
				
					<radialGradient id="SVGID_73_" cx="-22.168" cy="-50.7417" r="101.4851" gradientTransform="matrix(0.7807 0.6249 -0.3901 0.4873 -24.6548 -12.1609)" gradientUnits="userSpaceOnUse">
					<stop  offset="0" style="stop-color:#FFFFFF"/>
					<stop  offset="0.723" style="stop-color:#000000"/>
				</radialGradient>
				<path fill="url(#SVGID_73_)" d="M157.657,9.315c-0.137-0.411-0.28-0.815-0.436-1.221c-4.769-12.445-18.172-21.901-29.236-27.538
					c-23.956-12.205-54.617-17.042-81.772-17.042c-27.158,0-57.429,4.716-81.761,17.287c-13.667,7.063-31.008,19.542-31.008,36.715
					c0-17.173,17.341-29.898,31.008-36.959c24.332-12.571,54.603-17.391,81.761-17.391c27.155,0,57.438,4.808,81.772,17.391
					c11.03,5.698,24.468,15.093,29.236,27.538C157.377,8.5,157.521,8.905,157.657,9.315z"/>
				<path fill="#FFFFFF" d="M157.657,9.315c-0.137-0.411-0.28-0.815-0.436-1.221c-4.769-12.445-18.172-21.901-29.236-27.538
					c-23.956-12.205-54.617-17.042-81.772-17.042c-27.158,0-57.429,4.716-81.761,17.287c-13.667,7.063-31.008,19.542-31.008,36.715
					c0-17.173,17.341-29.898,31.008-36.959c24.332-12.571,54.603-17.391,81.761-17.391c27.155,0,57.438,4.808,81.772,17.391
					c11.03,5.698,24.468,15.093,29.236,27.538C157.377,8.5,157.521,8.905,157.657,9.315z"/>
			</g>
		</g>
	</g>
</g>
</svg>
