<?xml version="1.0" encoding="utf-8"?>
<!-- Generator: Adobe Illustrator 16.0.0, SVG Export Plug-In . SVG Version: 6.00 Build 0)  -->
<!DOCTYPE svg PUBLIC "-//W3C//DTD SVG 1.1//EN" "http://www.w3.org/Graphics/SVG/1.1/DTD/svg11.dtd">
<svg version="1.1" id="Слой_1" xmlns="http://www.w3.org/2000/svg" xmlns:xlink="http://www.w3.org/1999/xlink" x="0px" y="0px"
	 width="89px" height="44px" viewBox="34.87 55.953 89 44" enable-background="new 34.87 55.953 89 44" xml:space="preserve">
<g>
	<path fill-rule="evenodd" clip-rule="evenodd" fill="#231F20" d="M48.458,92.544c0.761,0.046,1.107,0.433,1.107,1.002
		c0,0.501-0.275,0.962-0.983,1.002c-0.715,0.037-2.384,0.043-3.129,0c-0.028-0.661-0.028-1.329,0-2.004
		C46.296,92.515,47.753,92.5,48.458,92.544 M48.592,96.077c1.052,0.03,1.577,0.476,1.577,1.162c0,0.716-0.466,1.093-1.536,1.146
		c-0.986,0.047-2.105,0.047-3.17,0c-0.041-0.783-0.041-1.506,0-2.309C46.485,96.051,47.666,96.051,48.592,96.077 M43.727,99.872
		c0.06-2.886,0.06-5.81,0-8.767c1.488,0.039,3.191,0.039,4.757,0c1.795,0,2.729,1.094,2.729,2.19c0,0.812-0.382,1.555-0.968,1.891
		c1.006,0.298,1.587,1.173,1.587,2.211c0,1.674-1.219,2.475-2.74,2.475H43.727z"/>
	<path fill-rule="evenodd" clip-rule="evenodd" fill="#231F20" d="M92.976,98.343c-0.02,0.503-0.02,1.013,0,1.529
		c-2.413-0.039-4.824-0.039-7.237,0c0.05-2.922,0.049-5.844-0.001-8.767c0.558,0.02,1.114,0.02,1.671,0
		c-0.048,2.413-0.048,4.824,0,7.237C89.263,98.379,91.119,98.379,92.976,98.343"/>
	<path fill-rule="evenodd" clip-rule="evenodd" fill="#231F20" d="M66.172,91.102c1.642,1.959,3.34,3.918,5.094,5.875
		c0.042-1.955,0.041-3.912-0.001-5.868c0.491,0.021,0.99,0.021,1.495,0c-0.043,2.888-0.043,5.81,0,8.768
		c-0.425-0.021-0.85-0.021-1.276,0c-1.71-2.047-3.494-4.118-5.351-6.214c-0.038,2.07-0.04,4.142-0.001,6.214
		c-0.48-0.021-0.979-0.021-1.495,0c0.038-2.923,0.038-5.846,0-8.768C65.149,91.128,65.66,91.125,66.172,91.102"/>
	<path fill-rule="evenodd" clip-rule="evenodd" fill="#231F20" d="M61.907,92.635c-1.903-0.043-3.827-0.043-5.775,0
		c-0.044,0.661-0.044,1.322,0,1.984c1.302,0.038,2.62,0.038,3.953,0c-0.021,0.508-0.021,1.019,0,1.526
		c-1.302-0.039-2.62-0.039-3.953,0c-0.039,0.732-0.039,1.465,0,2.197c1.958,0.039,3.917,0.039,5.874,0
		c-0.019,0.51-0.019,1.02,0,1.529c-2.513-0.043-5.029-0.043-7.542,0c0.045-2.922,0.045-5.846,0-8.767
		c2.509,0.041,4.99,0.041,7.443,0C61.886,91.616,61.886,92.125,61.907,92.635"/>
	<path fill-rule="evenodd" clip-rule="evenodd" fill="#231F20" d="M109.284,99.869c0.041-1.239,0.041-2.497,0-3.767
		c-1.288-1.665-2.631-3.329-4.029-4.994c0.684,0.021,1.37,0.021,2.056,0c0.882,1.132,1.817,2.263,2.807,3.395
		c0.984-1.132,1.921-2.263,2.807-3.395c0.686,0.021,1.37,0.021,2.056,0c-1.394,1.665-2.736,3.329-4.031,4.994
		c-0.039,1.255-0.039,2.513,0,3.767C110.396,99.851,109.839,99.851,109.284,99.869"/>
	<path fill-rule="evenodd" clip-rule="evenodd" fill="#231F20" d="M102.787,92.635c-1.903-0.043-3.828-0.043-5.774,0
		c-0.043,0.661-0.043,1.322,0,1.984c1.302,0.038,2.62,0.038,3.952,0c-0.021,0.508-0.021,1.019,0,1.526
		c-1.3-0.039-2.62-0.039-3.952,0c-0.04,0.732-0.04,1.465,0,2.197c1.957,0.039,3.916,0.039,5.873,0c-0.02,0.51-0.02,1.02,0,1.529
		c-2.514-0.043-5.029-0.043-7.543,0c0.045-2.922,0.045-5.846,0-8.767c2.51,0.041,4.992,0.041,7.444,0
		C102.768,91.616,102.768,92.125,102.787,92.635"/>
	<path fill-rule="evenodd" clip-rule="evenodd" fill="#231F20" d="M78.546,99.872c0.042-2.385,0.042-4.797,0-7.237
		c-1.04-0.045-2.091-0.045-3.155,0c0.019-0.504,0.019-1.015,0-1.529c2.659,0.043,5.319,0.043,7.979,0
		c-0.02,0.504-0.02,1.015,0,1.529c-1.052-0.039-2.104-0.039-3.157,0c-0.041,2.414-0.041,4.824,0,7.237
		C79.666,99.854,79.108,99.854,78.546,99.872"/>
	<path fill-rule="evenodd" clip-rule="evenodd" fill="#231F20" d="M35.396,58.575c0,0,0.652-0.764,0.839-0.977
		c0.188-0.212,0.326-0.377,0.452-0.501c0.126-0.125,0.271-0.156,0.389-0.144c0.12,0.012,1.398,0.15,1.742,0.188
		c0.345,0.037,1.856,0.107,2.456,0.107c0.603,0,2.186,0.003,2.52,0.003s2.849-0.142,3.408-0.184c0.56-0.042,3.771-0.083,4.548-0.095
		c0.777-0.013,4.374,0.125,5.264,0.175c0.89,0.05,3.333,0.175,4.148,0.15c0.813-0.025,4.662-0.188,5.425-0.188
		c0.764,0,3.17,0.151,3.708,0.238c0.54,0.088,1.167,0.288,1.167,0.288s1.027-0.414,1.554-0.588c0.526-0.177,1.904-0.564,2.957-0.726
		c1.052-0.165,2.181-0.29,3.295-0.29c1.116,0,2.708,0.125,3.797,0.365c1.09,0.237,2.343,0.612,2.819,0.801
		c0.478,0.189,1.492,0.651,1.492,0.651s0.74-0.226,1.365-0.363c0.627-0.138,1.591-0.289,2.142-0.325
		c0.552-0.039,0.991-0.089,1.669-0.075c0.675,0.012,2.293,0.175,2.743,0.225c0.451,0.049,1.516,0.175,2.618,0.163
		c0.74-0.007,3.121-0.113,3.811-0.151s4.823-0.225,5.676-0.237c0.853-0.014,4.586,0.212,5.339,0.25
		c0.752,0.039,2.328,0.113,2.818,0.101c0.489-0.014,2.132-0.088,2.958-0.175c0.826-0.087,2.6-0.234,2.901-0.252
		c0.332-0.017,0.475-0.017,0.531,0.021c0.058,0.038,0.578,0.538,0.79,0.776c0.214,0.238,0.426,0.533,0.507,0.627
		c0.083,0.094,0.118,0.132,0.095,0.18c-0.024,0.051-0.176,0.314-0.231,0.383c-0.058,0.069-0.107,0.101-0.176,0.138
		c-0.068,0.039-0.801,0.407-1.041,0.508c-0.237,0.1-0.864,0.362-0.864,0.362s0.184,0.426,0.25,0.614
		c0.069,0.188,0.17,0.57,0.17,0.69c0,0.119,0.013,0.387-0.018,0.406c-0.032,0.02-0.402,0.232-0.546,0.295
		c-0.144,0.062-0.689,0.288-0.927,0.352c-0.238,0.061-0.682,0.18-0.682,0.18s0.03,0.337,0.018,0.544
		c-0.015,0.207-0.015,0.446-0.063,0.659c-0.044,0.186-0.188,0.432-0.277,0.545c-0.088,0.113-0.281,0.22-0.418,0.288
		c-0.117,0.058-0.584,0.201-0.815,0.245c-0.231,0.043-0.551,0.094-0.689,0.107c-0.138,0.012-0.251,0.012-0.251,0.012
		s-0.013,0.408-0.031,0.59c-0.018,0.181-0.08,0.501-0.123,0.638c-0.045,0.139-0.171,0.382-0.304,0.495
		c-0.13,0.113-0.225,0.182-0.449,0.232s-0.521,0.119-0.805,0.151c-0.279,0.031-0.818,0.093-1,0.106
		c-0.183,0.013-0.371,0.019-0.371,0.019s-0.137,0.507-0.192,0.664c-0.058,0.156-0.227,0.495-0.345,0.664
		c-0.119,0.17-0.327,0.408-0.433,0.502c-0.108,0.094-0.276,0.213-0.357,0.237c-0.081,0.026-0.475,0.044-0.665,0.044
		c-0.187,0-0.757,0-1.039-0.018c-0.282-0.02-0.589-0.05-0.783-0.069c-0.163-0.015-0.294-0.05-0.294-0.05s-0.063,0.389-0.083,0.489
		c-0.018,0.1-0.088,0.344-0.161,0.526c-0.076,0.18-0.169,0.319-0.252,0.4c-0.075,0.075-0.152,0.164-0.388,0.213
		c-0.239,0.051-0.465,0.063-0.607,0.069c-0.145,0.006-1.061,0.031-1.303,0.031c-0.246,0-0.715-0.005-0.886-0.012
		c-0.169-0.005-0.431,0-0.431,0s-0.068,0.288-0.12,0.452c-0.049,0.163-0.156,0.433-0.218,0.551
		c-0.063,0.119-0.149,0.271-0.251,0.369c-0.113,0.107-0.158,0.177-0.365,0.201c-0.206,0.024-0.463,0.043-0.713,0.038
		c-0.251-0.007-0.802-0.038-1.059-0.076s-0.783-0.139-0.935-0.182c-0.15-0.043-0.307-0.112-0.307-0.112s-0.094,0.288-0.169,0.419
		c-0.075,0.132-0.237,0.391-0.345,0.476c-0.131,0.107-0.276,0.289-0.521,0.32c-0.244,0.032-0.488-0.012-0.695-0.043
		c-0.206-0.032-0.657-0.131-0.851-0.183c-0.196-0.049-0.687-0.194-0.796-0.224c-0.114-0.032-0.251-0.089-0.251-0.089
		s-0.133,0.265-0.227,0.382c-0.086,0.113-0.242,0.295-0.362,0.389c-0.12,0.094-0.332,0.232-0.433,0.245
		c-0.1,0.012-0.263,0-0.479-0.031c-0.211-0.033-0.468-0.108-0.686-0.176c-0.221-0.069-0.402-0.151-0.402-0.151
		s-0.237,0.69-0.3,0.846c-0.064,0.157-0.37,0.796-0.484,1.009c-0.094,0.182-0.602,1.008-0.758,1.234
		c-0.187,0.276-0.939,1.222-1.121,1.403c-0.181,0.182-0.438,0.458-0.602,0.627c-0.161,0.169-0.853,0.783-1.223,1.078
		c-0.37,0.294-1.039,0.783-1.559,1.103c-0.521,0.318-1.466,0.827-1.88,1.015c-0.413,0.188-0.891,0.383-0.891,0.383
		s-0.188,0.356-0.286,0.583c-0.101,0.225-0.284,0.568-0.328,0.631c-0.043,0.063-0.125,0.082-0.218,0.051
		c-0.096-0.03-0.547-0.2-0.715-0.263c-0.169-0.063-0.545-0.22-0.545-0.22s-0.251,0.369-0.34,0.508
		c-0.088,0.138-0.331,0.508-0.374,0.55c-0.045,0.045-0.139,0.027-0.194,0.008s-0.545-0.288-0.646-0.345
		c-0.101-0.056-0.521-0.301-0.521-0.301s-0.237,0.288-0.362,0.457c-0.102,0.137-0.446,0.533-0.478,0.564s-0.081,0.025-0.155-0.006
		c-0.076-0.031-0.22-0.152-0.383-0.271c-0.162-0.119-0.439-0.339-0.527-0.394c-0.088-0.057-0.169-0.132-0.169-0.132
		s-0.313,0.307-0.426,0.413c-0.111,0.106-0.388,0.376-0.426,0.414c-0.037,0.036-0.106,0.101-0.106,0.101s-0.057,0.043-0.132,0.006
		c-0.075-0.038-0.394-0.339-0.533-0.471c-0.113-0.107-0.438-0.432-0.438-0.432s-0.394,0.287-0.526,0.382
		c-0.133,0.093-0.482,0.37-0.545,0.401c-0.062,0.03-0.151,0.019-0.201-0.05c-0.049-0.07-0.426-0.503-0.495-0.59
		c-0.069-0.088-0.307-0.37-0.307-0.37s-0.463,0.252-0.651,0.346c-0.188,0.095-0.471,0.28-0.521,0.3
		c-0.051,0.021-0.163,0.021-0.2-0.044c-0.037-0.063-0.281-0.413-0.376-0.551c-0.107-0.156-0.326-0.495-0.326-0.495
		s-0.426,0.156-0.576,0.22c-0.149,0.063-0.601,0.238-0.683,0.256c-0.082,0.02-0.2-0.002-0.232-0.062
		c-0.043-0.082-0.351-0.672-0.414-0.814c-0.063-0.146-0.163-0.358-0.163-0.358s-0.505-0.2-0.833-0.351
		c-0.357-0.163-1.121-0.538-1.442-0.714c-0.318-0.174-0.852-0.494-1.17-0.715c-0.32-0.22-1.053-0.758-1.341-1.008
		c-0.289-0.25-1.266-1.222-1.498-1.485c-0.232-0.262-0.602-0.708-0.916-1.133c-0.313-0.427-0.539-0.822-0.757-1.235
		c-0.22-0.413-0.389-0.757-0.59-1.253c-0.2-0.495-0.369-0.953-0.418-1.121c-0.052-0.169-0.063-0.239-0.063-0.239
		s-0.57,0.188-0.971,0.282c-0.401,0.094-0.853,0.226-1.26,0.201c-0.407-0.025-0.482-0.089-0.583-0.169
		c-0.1-0.081-0.226-0.227-0.365-0.42c-0.137-0.193-0.268-0.451-0.268-0.451s-0.627,0.156-0.871,0.213
		c-0.243,0.057-0.821,0.17-1.166,0.214c-0.344,0.044-0.746,0.087-0.946,0.063c-0.2-0.026-0.342-0.104-0.521-0.257
		c-0.187-0.163-0.25-0.262-0.343-0.395c-0.073-0.102-0.256-0.458-0.296-0.544c-0.036-0.088-0.062-0.201-0.062-0.201
		s-0.719,0.013-0.908,0.013c-0.189,0-1.179-0.005-1.379-0.013c-0.201-0.005-0.739-0.044-0.959-0.088
		c-0.218-0.044-0.355-0.082-0.563-0.358c-0.207-0.274-0.263-0.405-0.345-0.624c-0.082-0.22-0.145-0.465-0.145-0.465
		s-0.633-0.006-0.972-0.043c-0.337-0.039-1.041-0.119-1.422-0.182c-0.383-0.062-0.964-0.163-1.122-0.219
		c-0.156-0.056-0.244-0.188-0.381-0.338c-0.139-0.151-0.277-0.351-0.401-0.538c-0.126-0.189-0.382-0.572-0.408-0.626
		c-0.024-0.057-0.062-0.12-0.062-0.12s-0.652-0.063-0.939-0.101c-0.29-0.037-0.709-0.106-0.903-0.144
		c-0.194-0.039-0.701-0.133-0.814-0.188c-0.112-0.057-0.207-0.101-0.307-0.3c-0.101-0.201-0.168-0.599-0.251-0.941
		c-0.086-0.356-0.144-0.645-0.144-0.645s-0.526-0.138-0.946-0.25c-0.419-0.113-0.538-0.152-0.828-0.238
		c-0.287-0.089-0.564-0.195-0.726-0.302c-0.163-0.106-0.158-0.307-0.175-0.419c-0.019-0.113-0.064-0.59-0.076-0.727
		c-0.013-0.138-0.007-0.438-0.007-0.438s-1.046-0.483-1.315-0.602c-0.27-0.119-0.909-0.426-1.041-0.488
		c-0.131-0.063-0.112-0.201-0.093-0.307c0.018-0.106,0.107-0.532,0.151-0.74c0.043-0.207,0.112-0.545,0.125-0.589
		c0.012-0.044,0.017-0.087,0.017-0.087s-1.009-0.507-1.259-0.64c-0.25-0.132-0.958-0.488-1.052-0.545
		c-0.094-0.056-0.131-0.169-0.176-0.325C35.415,58.663,35.396,58.575,35.396,58.575"/>
	<path fill-rule="evenodd" clip-rule="evenodd" fill="#FFFFFF" d="M68.689,64.884c0.102-1.157,1.556-2.451,1.345-3.628
		c-0.166-0.932-1.318-1.722-2.476-1.902c-0.664-0.104-2.852-0.268-3.329-0.283c-0.589-0.02-2.174-0.05-2.669-0.058
		c-0.496-0.005-1.806-0.013-2.192-0.025c-0.39-0.012-0.871-0.019-1.492-0.126c-0.627-0.106-1.073-0.238-1.691-0.425
		c-0.621-0.188-1.114-0.338-1.603-0.444c-0.49-0.107-1.11-0.207-1.536-0.245c-0.427-0.038-1.266-0.1-1.899-0.112
		c-0.633-0.013-2.193,0-2.695,0.005c-0.501,0.007-2.054,0.062-2.462,0.062c-0.407,0-0.847-0.005-1.04,0.007
		c-0.194,0.012-0.151,0.107-0.238,0.119c-0.089,0.014-0.563,0-0.833,0s-0.471-0.012-0.565-0.019
		c-0.094-0.005-0.231-0.005-0.231-0.005s-0.018,0.087,0.076,0.112c0.094,0.025,0.332,0.044,0.412,0.05
		c0.082,0.007,0.721,0.05,0.945,0.063c0.228,0.012,0.615,0.012,0.86,0.031c0.244,0.02,0.682,0.02,0.971,0.025
		c0.288,0.006,1.453,0,1.879,0.012c0.426,0.013,1.229,0.013,1.623,0.026c0.396,0.012,1.329,0.049,2.063,0.138
		c0.732,0.087,1.328,0.174,2.066,0.351c0.706,0.167,1.542,0.431,1.949,0.557c0.408,0.125,0.972,0.276,1.265,0.338
		c0.295,0.063,0.559,0.082,0.634,0.146c0.075,0.061,0.075,0.13,0.031,0.226c-0.044,0.093-0.082,0.125-0.112,0.212
		c-0.033,0.087-0.063,0.156-0.063,0.156h-0.263c0,0,0.05-0.05,0.057-0.106c0.005-0.057-0.149-0.151-0.313-0.182
		c-0.163-0.032-0.908-0.101-1.102-0.125c-0.196-0.026-0.935-0.094-1.336-0.089c-0.4,0.008-1.967-0.012-2.369,0
		c-0.4,0.014-1.866-0.018-2.236-0.005c-0.37,0.013-1.659,0-2.011-0.006c-0.351-0.006-1.166-0.006-1.491-0.006
		c-0.326,0-1.428,0-1.817-0.006c-0.388-0.006-1.717-0.038-1.974-0.031c-0.258,0.007-0.984-0.019-1.347-0.024
		c-0.364-0.006-1.611-0.044-1.949-0.044c-0.337,0-0.763-0.026-0.896-0.062c-0.131-0.04-0.846-0.409-1.133-0.552
		c-0.289-0.146-0.834-0.425-0.985-0.501c-0.15-0.075-0.294-0.177-0.339-0.195c-0.043-0.018-0.244,0.176-0.299,0.25
		c-0.057,0.076-0.158,0-0.158,0s0.689-0.765,0.828-0.926c0.137-0.164,0.307-0.383,0.381-0.407c0.076-0.026,0.376-0.026,0.559-0.007
		c0.181,0.019,1.339,0.119,1.566,0.137c0.225,0.019,1.209,0.05,1.472,0.064c0.264,0.012,1.51,0.019,1.923,0.031
		c0.414,0.012,1.711,0.043,2.099,0.023c0.389-0.018,1.465-0.119,1.798-0.137c0.332-0.019,1.379-0.094,1.866-0.106
		c0.489-0.013,1.491-0.005,1.811-0.025c0.32-0.02,1.585-0.031,2.024-0.031c0.438,0,1.673,0.051,2.092,0.063
		c0.421,0.012,2.218,0.106,2.688,0.131c0.469,0.025,2.801,0.106,3.314,0.119c0.514,0.013,1.278,0.039,1.686,0.013
		c0.407-0.025,2.361-0.112,2.957-0.131c0.595-0.019,2.155-0.043,2.789-0.024c0.632,0.018,2.155,0.17,2.669,0.232
		c0.514,0.062,1.021,0.194,1.166,0.2c0.144,0.006,0.375,0.018,0.457,0.094c0.082,0.075,0.157,0.243,0.313,0.337
		c0.155,0.094,0.375,0.131,0.451,0.232c0.076,0.101,0.082,0.308,0.125,0.395c0.045,0.088,0.226,0.375,0.251,0.571
		c0.025,0.194,0,0.532-0.125,0.745c-0.126,0.213-0.333,0.471-0.564,0.708c-0.232,0.239-0.582,0.497-0.889,0.759
		c-0.308,0.263-0.828,0.67-1.096,1.04c-0.271,0.369-0.438,0.622-0.497,0.989c-0.055,0.371-0.024,0.59-0.043,0.653
		c-0.02,0.063-0.075,0.218-0.164,0.313c-0.087,0.094-0.468,0.54-0.607,0.721c-0.138,0.182-0.37,0.521-0.426,0.607
		c-0.057,0.087-0.107,0.181-0.107,0.181l-0.087-0.149c0,0,0.192-0.231,0.21-0.288C68.686,65.602,68.651,65.334,68.689,64.884"/>
	<path fill-rule="evenodd" clip-rule="evenodd" fill="#FFFFFF" d="M38.278,60.542l0.043-0.232c0,0,0.64-0.005,0.833,0.006
		c0.195,0.013,1.36,0.05,1.768,0.05c0.407,0,1.673,0.038,1.979,0.026c0.307-0.014,2.017,0.024,2.388,0.024
		c0.37,0,2.161,0.006,2.531,0.013c0.37,0.005,2.418,0.018,2.737,0.018c0.32,0,2.006,0,2.401,0.007
		c0.394,0.005,2.086-0.013,2.468-0.013c0.381,0,1.36,0.018,1.573,0.013c0.214-0.007,0.382-0.025,0.427-0.038
		c0.043-0.013,0.18-0.069,0.262-0.031c0.083,0.038,0.119,0.132,0.157,0.181c0.038,0.05,0.113,0.108,0.156,0.138
		c0.043,0.032,0.132,0.076,0.188,0.151c0.056,0.076,0.056,0.076,0.145,0.144c0.087,0.069,0.106,0.101,0.075,0.139
		c-0.03,0.038-0.164,0.206-0.219,0.293c-0.056,0.088-0.075,0.182-0.106,0.207c-0.033,0.027-0.219,0.045-0.219,0.045
		s0.112-0.082,0.094-0.157c-0.021-0.074-0.151-0.244-0.419-0.263c-0.271-0.019-0.941,0.044-1.242,0.075
		c-0.301,0.032-2.294,0.207-2.645,0.239c-0.35,0.03-3.112,0.226-3.583,0.263c-0.47,0.038-2.656,0.169-3.076,0.2
		c-0.419,0.031-2.055,0.114-2.563,0.144c-0.508,0.031-1.68,0.082-2.125,0.101c-0.443,0.021-1.327,0.038-1.491,0.026
		c-0.162-0.013-0.382-0.107-0.495-0.156c-0.113-0.05-0.82-0.37-1.021-0.458c-0.2-0.088-0.552-0.231-0.614-0.313
		c-0.064-0.082-0.031-0.213-0.031-0.313c0-0.101-0.007-0.231-0.12-0.326C38.422,60.648,38.278,60.542,38.278,60.542"/>
	<path fill-rule="evenodd" clip-rule="evenodd" fill="#FFFFFF" d="M40.477,63.249v-0.175c0,0,0.295,0,0.451-0.025
		c0.158-0.025,0.778-0.025,1.19-0.044c0.413-0.02,2.03-0.089,2.538-0.118c0.52-0.033,2.827-0.157,3.258-0.189
		c0.433-0.031,3.477-0.239,3.902-0.275c0.427-0.038,2.94-0.238,3.335-0.269c0.394-0.033,1.71-0.17,2.18-0.208
		c0.47-0.038,0.539-0.1,0.614-0.106c0.076-0.005,0.131-0.05,0.207,0.038c0.075,0.087,0.232,0.264,0.326,0.326
		c0.094,0.063,0.388,0.25,0.395,0.344c0.005,0.095-0.082,0.213-0.127,0.301c-0.043,0.089-0.043,0.264-0.043,0.264l-0.301,0.056
		c0,0,0.024-0.068,0.032-0.112c0.005-0.043-0.045-0.163-0.169-0.213c-0.126-0.05-0.333-0.088-0.54-0.044
		c-0.206,0.044-1.146,0.207-1.53,0.269c-0.382,0.064-2.6,0.433-3.138,0.521c-0.539,0.088-2.669,0.414-3.177,0.482
		c-0.507,0.069-2.474,0.327-3.162,0.394c-0.69,0.07-1.517,0.151-1.98,0.176c-0.463,0.025-0.934,0.069-1.272,0.031
		c-0.338-0.038-1.083-0.27-1.41-0.35c-0.325-0.083-0.813-0.226-0.896-0.308c-0.081-0.082-0.125-0.168-0.15-0.269
		c-0.024-0.101-0.182-0.313-0.264-0.351C40.666,63.355,40.477,63.249,40.477,63.249"/>
	<path fill-rule="evenodd" clip-rule="evenodd" fill="#FFFFFF" d="M43.253,65.461c0,0,0.125,0.019,0.263,0s0.257-0.082,0.42-0.088
		c0.162-0.006,0.651-0.025,0.92-0.038c0.271-0.013,1.059-0.087,1.335-0.113c0.274-0.025,1.585-0.156,2.011-0.213
		c0.427-0.057,2.762-0.388,3.151-0.443c0.389-0.058,2.343-0.352,2.876-0.446c0.532-0.093,2.318-0.407,2.775-0.495
		s1.009-0.175,1.217-0.218c0.206-0.046,0.345-0.139,0.458-0.107c0.112,0.03,0.23,0.119,0.374,0.186
		c0.145,0.07,0.365,0.139,0.483,0.182c0.119,0.045,0.232,0.107,0.245,0.151c0.012,0.045,0,0.22-0.05,0.306
		c-0.049,0.089-0.081,0.158-0.1,0.258c-0.02,0.101-0.025,0.183-0.025,0.183l-0.282,0.1c0,0,0.043-0.126,0-0.188
		c-0.045-0.064-0.201-0.175-0.282-0.164c-0.082,0.013-0.207,0.019-0.338,0.063c-0.131,0.044-1.823,0.552-2.094,0.627l-2.017,0.557
		c-0.25,0.07-1.842,0.47-2.292,0.563c-0.452,0.095-2.118,0.433-2.531,0.509c-0.414,0.075-1.98,0.275-2.381,0.3
		c-0.401,0.025-0.471,0.037-0.79,0.019c-0.32-0.019-0.921-0.095-1.303-0.151c-0.383-0.056-0.795-0.138-0.94-0.168
		c-0.145-0.032-0.282-0.057-0.345-0.226c-0.063-0.17-0.056-0.295-0.162-0.414c-0.107-0.118-0.238-0.239-0.326-0.276
		s-0.226-0.036-0.245-0.081C43.246,65.561,43.253,65.461,43.253,65.461"/>
	<path fill-rule="evenodd" clip-rule="evenodd" fill="#FFFFFF" d="M46.625,67.748c0,0,1.14-0.119,1.396-0.157
		c0.258-0.038,2.011-0.288,2.432-0.375c0.419-0.089,2.229-0.482,2.556-0.558c0.326-0.075,2.307-0.59,2.7-0.697
		c0.395-0.106,1.723-0.481,2.08-0.594c0.356-0.112,1.417-0.432,1.536-0.483c0.118-0.049,0.237-0.138,0.357-0.125
		c0.119,0.012,0.463,0.119,0.588,0.156c0.125,0.038,0.451,0.094,0.509,0.151c0.055,0.056,0.08,0.106,0.067,0.194
		c-0.012,0.089-0.007,0.551,0,0.602c0.006,0.051,0.127,0.151,0.127,0.151l-0.301,0.119c-0.063,0.026-0.201,0.075-0.201,0.075
		s0.031-0.132,0.013-0.169c-0.019-0.036-0.189-0.139-0.239-0.15c-0.056-0.014-0.106,0-0.238,0.044s-0.47,0.195-0.638,0.27
		c-0.17,0.075-1.172,0.47-1.472,0.588c-0.302,0.119-1.516,0.583-1.906,0.721c-0.389,0.137-2.155,0.745-2.481,0.846
		c-0.326,0.101-1.486,0.426-1.761,0.495c-0.275,0.068-0.408,0.126-0.634,0.138c-0.224,0.013-1.103-0.063-1.466-0.113
		c-0.363-0.05-1.385-0.201-1.522-0.245c-0.137-0.043-0.226-0.1-0.307-0.193c-0.082-0.094-0.15-0.163-0.288-0.239
		c-0.138-0.074-0.3-0.156-0.413-0.2c-0.112-0.043-0.164-0.062-0.239-0.093c-0.075-0.032-0.156-0.04-0.2-0.07
		C46.636,67.804,46.625,67.748,46.625,67.748"/>
	<path fill-rule="evenodd" clip-rule="evenodd" fill="#FFFFFF" d="M51.342,69.72c0,0,0.368-0.087,0.476-0.137
		c0.105-0.05,0.701-0.231,0.89-0.282c0.188-0.049,0.858-0.231,1.139-0.326c0.283-0.094,1.598-0.544,1.856-0.632
		c0.256-0.088,1.823-0.677,2.13-0.795c0.307-0.119,2.049-0.833,2.299-0.934c0.251-0.1,0.501-0.207,0.588-0.265
		c0.089-0.055,0.37-0.192,0.503-0.225c0.13-0.031,0.394-0.074,0.512-0.067c0.121,0.006,0.208-0.006,0.257,0.049
		c0.05,0.058,0.07,0.132,0.063,0.227c-0.007,0.093,0.026,0.331,0.132,0.413c0.107,0.082,0.27,0.157,0.452,0.2
		c0.182,0.043,0.355,0.07,0.418,0.076c0.063,0.006,0.107,0,0.107,0s-0.355,0.212-0.444,0.258l-0.463,0.23
		c0,0-0.031-0.093-0.075-0.112c-0.045-0.019-0.212-0.019-0.352-0.007c-0.139,0.012-0.276,0.063-0.4,0.138
		c-0.127,0.075-1.33,0.714-1.566,0.839c-0.24,0.125-2.082,1.084-2.332,1.199c-0.25,0.111-1.434,0.694-1.63,0.781
		c-0.194,0.089-0.307,0.166-0.489,0.183c-0.181,0.019-0.594,0.026-0.964,0.031c-0.369,0.006-1.095-0.013-1.321-0.024
		c-0.226-0.012-0.551-0.021-0.728-0.088c-0.175-0.07-0.2-0.164-0.307-0.288c-0.106-0.126-0.313-0.244-0.407-0.276
		c-0.095-0.031-0.24-0.042-0.301-0.026C51.359,69.865,51.342,69.72,51.342,69.72"/>
	<path fill-rule="evenodd" clip-rule="evenodd" fill="#FFFFFF" d="M55.628,71.236c0,0,1.435-0.721,1.653-0.813
		c0.221-0.094,2.363-1.191,2.638-1.341c0.276-0.151,1.842-1.008,2.181-1.196c0.338-0.188,0.808-0.44,0.884-0.489
		c0.074-0.05,0.132-0.125,0.226-0.158c0.093-0.031,0.156-0.043,0.156-0.043s0.132,0.177,0.206,0.271
		c0.076,0.092,0.246,0.262,0.434,0.288c0.187,0.025,0.282,0.031,0.4,0.017c0.118-0.012,0.326-0.055,0.326-0.055
		s-0.52,0.502-0.613,0.575c-0.095,0.076-1.235,1.009-1.46,1.21c-0.226,0.201-1.053,0.845-1.242,0.996
		c-0.187,0.151-0.789,0.596-0.919,0.665c-0.133,0.069-0.465,0.194-0.672,0.251c-0.207,0.056-1.159,0.256-1.503,0.325
		c-0.345,0.069-1.084,0.196-1.228,0.201c-0.146,0.006-0.351,0.006-0.477-0.126c-0.125-0.131-0.194-0.325-0.357-0.406
		c-0.164-0.083-0.275-0.135-0.389-0.121C55.646,71.318,55.628,71.236,55.628,71.236"/>
	<path fill-rule="evenodd" clip-rule="evenodd" fill="#FFFFFF" d="M59.793,72.077c0,0,0.777-0.57,0.947-0.709
		c0.168-0.137,0.871-0.688,1.06-0.838c0.188-0.151,1.013-0.821,1.265-1.027c0.25-0.208,1.002-0.847,1.198-1.021
		c0.193-0.175,0.581-0.551,0.581-0.551s0.027,0.151,0.094,0.207c0.069,0.057,0.165,0.176,0.326,0.244
		c0.164,0.069,0.389,0.082,0.552,0.075c0.163-0.006,0.318-0.024,0.381-0.024c0.064,0,0.164,0.031,0.171,0.138
		c0.004,0.106,0.011,0.182,0.011,0.231c0,0.051,0.025,0.094,0.025,0.094l-1.154,1.279c-0.225,0.25-0.877,0.952-1.083,1.164
		c-0.208,0.213-0.733,0.783-0.795,0.834c-0.063,0.05-0.248,0.01-0.358-0.057c-0.143-0.088-0.275-0.019-0.451,0.025
		c-0.176,0.043-0.488,0.138-0.695,0.188c-0.18,0.043-0.683,0.157-0.814,0.157c-0.131,0-0.276-0.012-0.357-0.101
		c-0.081-0.088-0.262-0.283-0.357-0.326c-0.094-0.044-0.206-0.076-0.256-0.044C60.032,72.045,59.831,72.165,59.793,72.077"/>
	<path fill-rule="evenodd" clip-rule="evenodd" fill="#FFFFFF" d="M63.584,72.328c0,0,0.751-0.796,0.921-0.971
		c0.169-0.176,1.078-1.159,1.272-1.372c0.193-0.213,0.526-0.609,0.607-0.709c0.083-0.1,0.144-0.169,0.183-0.169
		c0.038,0,0.25-0.012,0.419-0.044c0.17-0.031,0.427-0.087,0.489-0.069c0.063,0.019,0.063,0.069,0.07,0.121
		c0.006,0.048,0.012,0.594,0.018,0.77c0.006,0.177,0.006,0.558-0.031,0.696c-0.038,0.138-0.452,0.946-0.546,1.166
		c-0.093,0.219-0.363,0.708-0.4,0.802c-0.038,0.093-0.062,0.119-0.094,0.15c-0.03,0.032-0.102-0.08-0.2-0.2
		c-0.138-0.169-0.281-0.146-0.426-0.107c-0.144,0.037-0.952,0.25-1.096,0.281c-0.145,0.032-0.395,0.102-0.527,0.075
		c-0.131-0.024-0.194-0.112-0.256-0.218c-0.063-0.106-0.143-0.177-0.232-0.177C63.653,72.352,63.584,72.328,63.584,72.328"/>
	<path fill-rule="evenodd" clip-rule="evenodd" fill="#FFFFFF" d="M67.25,71.764c0,0,0.188-0.444,0.231-0.527
		c0.044-0.082,0.106-0.212,0.106-0.212s0.05,0.232,0.094,0.338c0.045,0.107,0.153,0.222,0.189,0.344
		c0.026,0.093,0.212,0.572,0.244,0.646c0.03,0.076,0.087,0.195,0.068,0.264c-0.018,0.069-0.011,0.125,0.014,0.188
		c0.024,0.063,0.047,0.121,0.005,0.137c-0.063,0.026-0.194,0.121-0.237,0.139c-0.045,0.019-0.151,0.012-0.214-0.08
		c-0.038-0.059-0.195-0.07-0.319-0.17c-0.125-0.101-0.113-0.163-0.107-0.265c0.005-0.098,0.062-0.476,0.032-0.557
		C67.325,71.927,67.25,71.764,67.25,71.764"/>
	<path fill-rule="evenodd" clip-rule="evenodd" fill="#FFFFFF" d="M63.44,73.292c0,0,0.232,0.294,0.383,0.288
		c0.15-0.006,0.199-0.044,0.262-0.063c0.063-0.019,0.201-0.024,0.258,0.005c0.057,0.031,0.138,0.132,0.132,0.226
		c-0.007,0.094,0.05,0.293,0.118,0.445c0.083,0.182,0.402,0.833,0.59,1.14c0.188,0.307,0.732,1.084,0.964,1.366
		c0.232,0.283,1.004,1.122,1.203,1.296c0.199,0.177,1.217,1.022,1.58,1.266c0.363,0.244,1.227,0.804,1.753,1.065
		c0.526,0.265,1.178,0.57,1.347,0.634c0.169,0.063,0.282,0.081,0.313,0.131c0.032,0.051,0.088,0.101,0.088,0.101l-0.192,0.319
		l-0.17,0.27l-0.143-0.068c0,0,0.105-0.089,0.068-0.163c-0.039-0.075-0.083-0.151-0.201-0.214c-0.119-0.063-0.633-0.282-0.859-0.388
		c-0.225-0.106-1.214-0.646-1.564-0.871c-0.352-0.227-1.217-0.82-1.625-1.153c-0.407-0.331-1.29-1.196-1.584-1.522
		c-0.293-0.326-0.909-1.134-1.097-1.423c-0.187-0.287-0.719-1.252-0.832-1.51c-0.113-0.256-0.176-0.427-0.282-0.526
		c-0.107-0.1-0.138-0.118-0.182-0.125C63.723,73.813,63.61,73.8,63.61,73.8s-0.032-0.075-0.089-0.245
		C63.478,73.423,63.44,73.292,63.44,73.292"/>
	<path fill-rule="evenodd" clip-rule="evenodd" fill="#FFFFFF" d="M64.53,73.48c0,0,0.213-0.012,0.383-0.081
		c0.168-0.069,0.633-0.201,0.82-0.251c0.188-0.05,0.407-0.144,0.502-0.169c0.093-0.024,0.163-0.056,0.218-0.043
		c0.058,0.013,0.089,0.043,0.15,0.131c0.063,0.089,0.139,0.274,0.219,0.338c0.095,0.075,0.221,0.188,0.395,0.17
		c0.177-0.019,0.352-0.038,0.497-0.1c0.143-0.063,0.414-0.239,0.475-0.271c0.063-0.03,0.152-0.1,0.183-0.067
		c0.031,0.032,0.075,0.088,0.118,0.1c0.045,0.013,0.107,0.069,0.132,0.113c0.024,0.044,0.413,0.621,0.626,0.876
		c0.213,0.256,0.52,0.596,0.732,0.802c0.213,0.208,0.833,0.746,1.078,0.92c0.245,0.177,0.959,0.653,1.279,0.822
		c0.319,0.168,0.708,0.375,1.022,0.507c0.312,0.132,0.644,0.263,0.732,0.306c0.086,0.045,0.119,0.088,0.181,0.139
		c0.063,0.05,0.1,0.113,0.075,0.175c-0.025,0.062-0.357,0.583-0.501,0.847c-0.145,0.263-0.408,0.683-0.514,0.871
		c-0.107,0.188-0.388,0.646-0.47,0.795c-0.083,0.151-0.295,0.495-0.307,0.532c-0.013,0.037-0.068,0.032-0.088,0
		c-0.018-0.031,0.075-0.132,0.075-0.256c0-0.125-0.075-0.302-0.145-0.37c-0.068-0.069-0.275-0.169-0.388-0.22
		c-0.113-0.051-0.664-0.313-0.939-0.457c-0.275-0.145-0.833-0.464-1.197-0.702c-0.363-0.238-0.852-0.564-1.166-0.82
		c-0.313-0.257-0.759-0.639-1.033-0.908c-0.276-0.271-0.734-0.777-1.022-1.154c-0.288-0.375-0.657-0.883-0.858-1.24
		c-0.199-0.358-0.408-0.803-0.475-0.878c-0.07-0.074-0.17-0.193-0.314-0.237c-0.144-0.044-0.226-0.075-0.288-0.083
		c-0.063-0.005-0.174-0.005-0.188-0.056C64.518,73.511,64.53,73.48,64.53,73.48"/>
	<path fill-rule="evenodd" clip-rule="evenodd" fill="#FFFFFF" d="M58.165,59.721c0,0,1.171-0.005,1.517,0
		c0.344,0.006,1.34,0.006,1.447,0.006c0.106,0,0.244,0.044,0.301,0.05l0.105,0.013c0,0,0.05,0.111,0.013,0.15
		c-0.038,0.036-0.081,0.163-0.112,0.237c-0.032,0.075-0.006,0.157-0.05,0.169c-0.044,0.013-0.245,0.038-0.245,0.038
		s0.033-0.094-0.023-0.132c-0.059-0.037-0.201-0.088-0.321-0.081c-0.12,0.005-0.714,0.063-0.902,0.081
		c-0.188,0.019-0.721,0.089-0.828,0.107c-0.106,0.018-0.226,0-0.306-0.031c-0.082-0.032-0.37-0.151-0.452-0.213
		c-0.081-0.063-0.119-0.088-0.15-0.094l-0.12-0.025l0.057-0.15C58.115,59.796,58.165,59.721,58.165,59.721"/>
	<path fill-rule="evenodd" clip-rule="evenodd" fill="#FFFFFF" d="M58.51,61.381c0,0,0.111-0.176,0.149-0.2
		c0.039-0.025,0.32-0.113,0.433-0.143c0.114-0.032,0.646-0.158,0.885-0.212c0.237-0.059,0.694-0.139,0.908-0.196
		c0.212-0.057,0.413-0.126,0.478-0.126c0.061,0,0.168,0.032,0.237,0.082c0.069,0.05,0.208,0.151,0.276,0.207
		c0.069,0.056,0.138,0.151,0.118,0.2c-0.017,0.051-0.049,0.089-0.087,0.138c-0.037,0.05-0.025,0.074-0.037,0.132
		c-0.015,0.056-0.015,0.15-0.015,0.15s-0.187,0.057-0.219,0.063c-0.031,0.006-0.081,0.02-0.081,0.02s0.05-0.132,0.013-0.157
		c-0.038-0.025-0.175-0.126-0.313-0.139c-0.138-0.012-0.531,0.107-0.665,0.151c-0.131,0.043-0.625,0.175-0.813,0.232
		c-0.189,0.056-0.357,0.138-0.508,0.125c-0.15-0.013-0.282-0.075-0.414-0.137c-0.131-0.064-0.163-0.089-0.207-0.113
		C58.604,61.432,58.51,61.381,58.51,61.381"/>
	<path fill-rule="evenodd" clip-rule="evenodd" fill="#FFFFFF" d="M59.017,62.71c0,0,0.012-0.107,0.069-0.15
		c0.056-0.045,0.207-0.082,0.281-0.12c0.075-0.038,0.307-0.113,0.551-0.2c0.245-0.087,0.702-0.226,0.897-0.282
		c0.195-0.058,0.614-0.188,0.72-0.231c0.107-0.044,0.239-0.126,0.345-0.119c0.106,0.005,0.307,0.048,0.42,0.092
		c0.113,0.045,0.231,0.094,0.25,0.169c0.018,0.076-0.025,0.188-0.068,0.25c-0.045,0.064-0.056,0.12-0.069,0.17
		C62.4,62.34,62.4,62.434,62.4,62.434s-0.069,0.057-0.151,0.076l-0.131,0.03c0,0,0.013-0.087-0.043-0.149
		c-0.057-0.064-0.213-0.125-0.319-0.095c-0.108,0.031-0.516,0.195-0.672,0.264c-0.156,0.069-0.601,0.275-0.751,0.337
		c-0.15,0.063-0.256,0.12-0.414,0.095c-0.156-0.026-0.287-0.039-0.406-0.095c-0.12-0.056-0.276-0.138-0.332-0.157
		C59.123,62.724,59.017,62.71,59.017,62.71"/>
	<path fill-rule="evenodd" clip-rule="evenodd" fill="#FFFFFF" d="M59.994,63.793l0.533-0.256c0.182-0.087,0.872-0.4,1.084-0.501
		c0.213-0.1,0.558-0.27,0.633-0.301c0.076-0.032,0.156-0.088,0.244-0.094c0.088-0.006,0.288,0.038,0.4,0.063
		c0.113,0.025,0.271,0.043,0.308,0.112c0.038,0.069,0.058,0.215,0.038,0.258c-0.019,0.044-0.062,0.188-0.055,0.244
		c0.005,0.057,0.023,0.194,0.023,0.194l-0.162,0.087c-0.083,0.045-0.188,0.095-0.188,0.095s-0.024-0.095-0.094-0.156
		c-0.069-0.063-0.201-0.094-0.301-0.063c-0.067,0.021-0.477,0.258-0.626,0.35c-0.15,0.094-0.534,0.333-0.595,0.371
		c-0.063,0.038-0.118,0.131-0.308,0.107c-0.188-0.025-0.276-0.045-0.37-0.088s-0.288-0.182-0.338-0.219
		c-0.049-0.038-0.238-0.088-0.238-0.138S59.994,63.793,59.994,63.793"/>
	<path fill-rule="evenodd" clip-rule="evenodd" fill="#FFFFFF" d="M60.978,65.097c0,0,0.54-0.356,0.771-0.496
		c0.231-0.137,0.795-0.463,1.016-0.582c0.219-0.12,0.432-0.277,0.544-0.295c0.113-0.019,0.394-0.012,0.54-0.012
		c0.143,0,0.243,0,0.256,0.075c0.013,0.074-0.013,0.138-0.019,0.2c-0.005,0.063,0,0.237,0,0.237L63,65.079
		c-0.174,0.137-0.588,0.507-0.613,0.514c-0.025,0.005-0.162-0.107-0.332-0.169c-0.169-0.062-0.262-0.076-0.332-0.088
		c-0.068-0.013-0.175-0.062-0.281-0.113c-0.107-0.05-0.138-0.068-0.213-0.082c-0.075-0.013-0.232,0.044-0.232,0.044L60.978,65.097z"
		/>
	<path fill-rule="evenodd" clip-rule="evenodd" fill="#FFFFFF" d="M62.287,66.037c0,0,0.269-0.244,0.458-0.407
		c0.188-0.162,0.763-0.627,0.916-0.752c0.149-0.124,0.532-0.419,0.588-0.462c0.056-0.045,0.118-0.051,0.188-0.051
		c0.069,0,0.238-0.05,0.313-0.05c0.076,0,0.207-0.005,0.22,0.094c0.012,0.102,0.063,0.295,0.056,0.37
		c-0.007,0.075,0,0.163,0.023,0.206c0.026,0.045,0.05,0.071,0.05,0.071s-0.062,0.082-0.168,0.181
		c-0.106,0.099-0.433,0.407-0.577,0.545c-0.145,0.137-0.438,0.42-0.545,0.532c-0.106,0.113-0.275,0.27-0.275,0.27
		s-0.044-0.164-0.138-0.245c-0.094-0.082-0.327-0.125-0.464-0.132c-0.138-0.005-0.313-0.138-0.383-0.156
		c-0.067-0.019-0.15,0.024-0.15,0.024S62.313,66.1,62.287,66.037"/>
	<path fill-rule="evenodd" clip-rule="evenodd" fill="#FFFFFF" d="M63.653,66.839l0.739-0.739c0.145-0.145,0.627-0.595,0.74-0.709
		c0.112-0.112,0.207-0.226,0.332-0.281c0.125-0.058,0.277-0.132,0.345-0.106c0.07,0.024,0.12,0.119,0.152,0.218
		c0.03,0.101,0.124,0.239,0.299,0.295c0.176,0.056,0.282,0.074,0.365,0.068c0.083-0.006,0.125-0.013,0.125-0.013
		s-0.177,0.181-0.27,0.276c-0.094,0.093-0.369,0.363-0.534,0.514c-0.162,0.151-0.582,0.57-0.701,0.683
		c-0.118,0.111-0.288,0.256-0.288,0.256s-0.001-0.118-0.087-0.199c-0.12-0.115-0.269-0.094-0.407-0.088
		c-0.139,0.005-0.227-0.032-0.308-0.102c-0.081-0.068-0.145-0.138-0.188-0.144c-0.045-0.007-0.144,0.044-0.171,0.057
		C63.772,66.839,63.653,66.839,63.653,66.839"/>
	<path fill-rule="evenodd" clip-rule="evenodd" fill="#FFFFFF" d="M65.132,67.503c0,0,0.408-0.382,0.609-0.583
		c0.2-0.201,0.587-0.578,0.757-0.746c0.169-0.169,0.477-0.458,0.477-0.458s0.063,0.094,0.206,0.107
		c0.145,0.013,0.283,0.039,0.39,0.044c0.106,0.007,0.288,0.007,0.344-0.051c0.057-0.055,0.132-0.074,0.132-0.074
		s-0.089,0.125-0.195,0.263c-0.107,0.137-0.406,0.558-0.576,0.815c-0.168,0.256-0.551,0.813-0.614,0.919
		c-0.063,0.107-0.207,0.333-0.25,0.396c-0.043,0.063-0.102,0.137-0.102,0.137s0.014-0.119-0.087-0.293
		c-0.1-0.176-0.156-0.182-0.244-0.209c-0.088-0.023-0.12,0.014-0.25-0.055c-0.133-0.069-0.201-0.201-0.283-0.22
		c-0.083-0.017-0.078-0.03-0.145,0C65.195,67.546,65.132,67.503,65.132,67.503"/>
	<path fill-rule="evenodd" clip-rule="evenodd" fill="#FFFFFF" d="M68.151,66.043c0,0,0.05,0.082,0.101,0.144
		c0.049,0.062,0.12,0.132,0.106,0.182c-0.012,0.049-0.237,0.501-0.288,0.619c-0.049,0.12-0.213,0.652-0.25,0.809
		c-0.038,0.157-0.094,0.389-0.146,0.507c-0.049,0.119-0.099,0.182-0.105,0.231l-0.021,0.151c0,0-0.092,0.063-0.136,0.076
		L67.274,68.8v-0.119c0-0.051-0.075-0.145-0.124-0.232c-0.051-0.087-0.095-0.187-0.04-0.356c0.057-0.168,0.125-0.37,0.189-0.508
		c0.062-0.139,0.106-0.288,0.206-0.52c0.102-0.231,0.182-0.413,0.301-0.588c0.12-0.176,0.176-0.271,0.226-0.339
		C68.083,66.068,68.151,66.043,68.151,66.043"/>
	<path fill-rule="evenodd" clip-rule="evenodd" fill="#FFFFFF" d="M61.806,59.796c0,0,0.488-0.024,0.846-0.031
		c0.356-0.006,0.808,0,1.045,0.038c0.239,0.037,0.634,0.057,0.783,0.05c0.151-0.007,0.377-0.025,0.741-0.013
		c0.362,0.013,1.015,0.032,1.447,0.094c0.432,0.063,0.827,0.151,1.177,0.27c0.351,0.118,0.997,0.394,1.204,0.639
		c0.207,0.244,0.356,0.445,0.331,0.758c-0.024,0.313-0.15,0.645-0.25,0.839c-0.1,0.195-0.345,0.614-0.388,0.688
		c-0.043,0.077-0.421,0.427-0.57,0.596c-0.152,0.169-0.64,0.696-0.834,0.928c-0.193,0.231-0.343,0.417-0.407,0.482
		c-0.088,0.087-0.15,0.181-0.15,0.181h-0.063c0,0,0.076-0.1,0.057-0.207c-0.021-0.106-0.106-0.27-0.195-0.319
		c-0.088-0.051-0.112-0.063-0.175-0.045c-0.063,0.02-0.113,0.045-0.156,0.057c-0.045,0.013-0.082,0.019-0.082,0.019
		s0.218-0.243,0.318-0.35c0.101-0.108,0.377-0.358,0.47-0.452c0.094-0.094,0.182-0.151,0.22-0.151c0.038,0,0.2,0.057,0.306,0.012
		c0.106-0.043,0.301-0.243,0.313-0.382c0.013-0.137-0.057-0.276-0.149-0.344c-0.094-0.07-0.232-0.126-0.32-0.119
		c-0.089,0.006-0.207,0.025-0.294,0.075c-0.059,0.033-0.125,0.044-0.125,0.044s0.006-0.07,0.019-0.176
		c0.011-0.107-0.043-0.213-0.102-0.301c-0.056-0.088-0.169-0.156-0.306-0.175c-0.138-0.019-0.201,0.019-0.25-0.019
		c-0.051-0.038-0.012-0.119-0.057-0.22c-0.043-0.1-0.113-0.244-0.243-0.295c-0.133-0.048-0.245-0.079-0.308-0.079
		c-0.062,0-0.062-0.039-0.062-0.119c0-0.106-0.026-0.327-0.088-0.382c-0.063-0.058-0.208-0.165-0.294-0.182
		c-0.088-0.02-0.151-0.031-0.151-0.076c0-0.044,0.056-0.151,0.056-0.25s-0.019-0.25-0.137-0.332
		c-0.119-0.083-0.251-0.125-0.301-0.207c-0.05-0.082-0.137-0.169-0.162-0.176c-0.027-0.006-0.133-0.006-0.208,0
		c-0.076,0.007-0.258,0.045-0.389,0.064c-0.131,0.018-0.2,0.049-0.271,0.03c-0.068-0.019-0.213-0.075-0.313-0.075
		c-0.1,0-0.343,0.013-0.506,0.031c-0.163,0.019-0.331,0.038-0.463,0.031c-0.132-0.006-0.228-0.049-0.333-0.093
		c-0.106-0.045-0.137-0.062-0.2-0.101c-0.062-0.037-0.093-0.068-0.093-0.068s0.006-0.058,0.018-0.094
		C61.774,59.853,61.806,59.796,61.806,59.796"/>
	<path fill-rule="evenodd" clip-rule="evenodd" fill="#FFFFFF" d="M62.125,60.949c0,0,0.352-0.149,0.595-0.225
		c0.256-0.083,0.713-0.195,0.919-0.238c0.208-0.045,0.358-0.106,0.438-0.082c0.083,0.024,0.182,0.024,0.241,0.019l0.111-0.012
		c0,0,0.049,0.061,0.019,0.081c-0.032,0.019-0.037,0.043-0.106,0.119c-0.069,0.076-0.125,0.156-0.207,0.188
		c-0.083,0.032-0.271,0.075-0.484,0.131s-0.552,0.163-0.669,0.195c-0.119,0.03-0.15,0.062-0.338,0.03
		c-0.188-0.03-0.245-0.049-0.326-0.069c-0.082-0.019-0.088,0-0.132,0.02c-0.045,0.019-0.069,0-0.069,0V61.02
		C62.118,60.987,62.125,60.949,62.125,60.949"/>
	<path fill-rule="evenodd" clip-rule="evenodd" fill="#FFFFFF" d="M62.738,61.845c0,0,0.339-0.182,0.62-0.301
		c0.283-0.119,0.853-0.326,0.972-0.357c0.119-0.032,0.25-0.068,0.32-0.032c0.067,0.039,0.125,0.082,0.107,0.138
		c-0.02,0.056-0.113,0.194-0.182,0.232c-0.069,0.037-0.47,0.257-0.623,0.319c-0.149,0.063-0.481,0.237-0.581,0.245
		c-0.101,0.006-0.208-0.019-0.307-0.05c-0.101-0.031-0.137-0.05-0.188-0.057c-0.049-0.006-0.156,0-0.156,0s0.013-0.032,0.013-0.062
		C62.732,61.889,62.738,61.845,62.738,61.845"/>
	<path fill-rule="evenodd" clip-rule="evenodd" fill="#FFFFFF" d="M63.372,62.792c0,0,0.377-0.219,0.502-0.295
		c0.124-0.074,0.532-0.268,0.707-0.362c0.177-0.094,0.363-0.176,0.465-0.17c0.1,0.007,0.187,0.051,0.2,0.1
		c0.013,0.051,0,0.158-0.044,0.239c-0.044,0.082-0.073,0.149-0.213,0.282c-0.155,0.147-0.27,0.219-0.364,0.302
		c-0.093,0.081-0.237,0.199-0.313,0.212c-0.076,0.013-0.194-0.057-0.258-0.07c-0.062-0.012-0.25-0.087-0.293-0.111
		c-0.044-0.026-0.121-0.057-0.176-0.05c-0.057,0.005-0.219,0.043-0.219,0.043L63.372,62.792z"/>
	<path fill-rule="evenodd" clip-rule="evenodd" fill="#FFFFFF" d="M64.368,63.606c0,0,0.224-0.207,0.382-0.332
		c0.155-0.125,0.444-0.32,0.581-0.42c0.138-0.1,0.244-0.175,0.289-0.181s0.089,0.012,0.12,0.044
		c0.031,0.031,0.118,0.031,0.143,0.107c0.027,0.074,0,0.137,0.027,0.18c0.023,0.046,0.086,0.033,0.099,0.07
		c0.013,0.037,0,0.113,0,0.113s-0.313,0.245-0.427,0.351c-0.113,0.106-0.294,0.282-0.338,0.306
		c-0.043,0.027-0.207-0.067-0.307-0.111c-0.101-0.044-0.332-0.113-0.419-0.12C64.43,63.606,64.368,63.606,64.368,63.606"/>
	<path fill-rule="evenodd" clip-rule="evenodd" fill="#FFFFFF" d="M65.25,64.195c0,0,0.27-0.25,0.402-0.369
		c0.131-0.121,0.269-0.245,0.368-0.34c0.102-0.093,0.314-0.244,0.314-0.244s0.094,0.006,0.082,0.063
		c-0.013,0.057,0.055,0.069,0.1,0.069c0.044,0,0.15-0.026,0.182-0.013c0.031,0.013,0.081,0.031,0.081,0.1
		c0,0.069,0.006,0.131,0.033,0.137c0.024,0.007,0.086-0.006,0.093,0.021c0.006,0.024,0.013,0.067,0.013,0.067
		s-0.352,0.351-0.501,0.489c-0.151,0.137-0.383,0.381-0.414,0.42c-0.031,0.037-0.049,0.062-0.049,0.062s-0.052-0.137-0.176-0.25
		c-0.125-0.113-0.176-0.149-0.294-0.182C65.364,64.195,65.25,64.195,65.25,64.195"/>
	<path fill-rule="evenodd" clip-rule="evenodd" fill="#FFFFFF" d="M67.306,65.072c0,0,0.208-0.257,0.389-0.451l0.438-0.471
		c0.076-0.082,0.126-0.156,0.126-0.156s-0.119,0.282-0.144,0.408c-0.026,0.125-0.057,0.363-0.057,0.47
		c0,0.106-0.043,0.225-0.069,0.355c-0.026,0.134-0.026,0.252-0.026,0.252s-0.087,0.05-0.149,0.081
		c-0.064,0.032-0.139,0.082-0.139,0.082s-0.013-0.187-0.086-0.288c-0.075-0.1-0.107-0.126-0.169-0.163
		c-0.063-0.038-0.163-0.05-0.163-0.05L67.306,65.072z"/>
	<path fill-rule="evenodd" clip-rule="evenodd" fill="#FFFFFF" d="M71.881,57.748c0,0,0.355-0.131,0.581-0.225
		c0.227-0.094,1.376-0.49,1.73-0.583c0.434-0.112,1.441-0.356,2.049-0.451s1.83-0.227,3.007-0.227c1.008,0,1.936,0.083,2.425,0.139
		c0.489,0.057,1.473,0.232,1.874,0.332c0.399,0.101,1.069,0.269,1.446,0.395c0.377,0.125,0.965,0.325,1.191,0.426
		c0.224,0.1,0.369,0.13,0.406,0.17c0.037,0.036,0.044,0.094,0.162,0.15c0.12,0.057,0.295,0.119,0.295,0.119
		s-0.063,0.056-0.156,0.094c-0.094,0.038-0.213,0.1-0.308,0.138c-0.093,0.037-0.187,0.093-0.187,0.093s0-0.132-0.05-0.175
		c-0.052-0.045-0.339-0.195-0.64-0.307c-0.278-0.105-0.709-0.258-1.123-0.376c-0.414-0.119-1.151-0.332-1.647-0.419
		c-0.494-0.088-1.026-0.183-1.509-0.233c-0.483-0.049-1.591-0.137-2.168-0.132c-0.577,0.006-1.672,0.069-2.225,0.137
		c-0.545,0.07-1.447,0.208-1.973,0.339c-0.527,0.134-1.229,0.308-1.504,0.402c-0.277,0.094-0.608,0.232-0.714,0.237
		c-0.108,0.006-0.332-0.024-0.408-0.024c-0.074,0-0.15,0-0.195,0.013c-0.043,0.012-0.163,0.074-0.213,0.05
		C71.98,57.803,71.881,57.748,71.881,57.748"/>
	<path fill-rule="evenodd" clip-rule="evenodd" fill="#FFFFFF" d="M89.079,64.934c0,0-0.133-0.138-0.201-0.213
		c-0.067-0.076-0.101-0.419-0.183-0.608c-0.081-0.189-0.375-0.583-0.552-0.765c-0.174-0.18-0.495-0.509-1.163-0.939
		c-0.615-0.394-1.254-0.746-1.937-1.002c-0.684-0.258-1.159-0.452-1.98-0.633c-0.821-0.182-1.886-0.371-3.045-0.408
		c-1.159-0.038-2.16,0.056-2.838,0.145c-0.671,0.087-1.629,0.263-2.507,0.558c-0.876,0.294-1.096,0.4-1.37,0.532
		c-0.278,0.131-0.941,0.462-1.186,0.627c-0.244,0.163-0.631,0.432-0.87,0.583c-0.238,0.15-0.284,0.273-0.426,0.238
		c-0.206-0.05-0.263-0.238-0.263-0.238s0.176-0.213,0.346-0.382c0.168-0.169,0.569-0.507,0.82-0.715
		c0.251-0.207,0.74-0.625,0.82-0.701c0.083-0.076,0.302-0.337,0.302-0.337s0.067,0.149,0.194,0.111
		c0.126-0.037,0.325-0.188,0.445-0.375c0.119-0.189,0.325-0.627,0.276-0.991c-0.05-0.363-0.1-0.626-0.2-0.696
		c-0.101-0.068-0.271-0.188-0.395-0.199c-0.126-0.014-0.17,0.005-0.232-0.019c-0.063-0.026-0.151-0.101-0.151-0.101
		s0.301-0.112,0.432-0.168c0.133-0.057,0.72-0.271,1.116-0.376c0.395-0.107,0.813-0.213,1.314-0.313
		c0.503-0.1,1.242-0.219,1.83-0.275c0.59-0.057,1.354-0.113,1.806-0.107c0.45,0.005,1.496,0.064,1.922,0.112
		c0.428,0.051,1.253,0.157,1.749,0.27c0.493,0.112,1.422,0.338,1.829,0.482c0.408,0.146,0.896,0.294,0.946,0.343
		c0.051,0.051,0.107,0.108,0.181,0.139c0.075,0.032,0.152,0.083,0.152,0.083s-0.202,0.222-0.339,0.456
		c-0.402,0.685,0.077,1.55,0.716,2.023c0.826,0.613,2.334,1.55,2.597,2.948C89.094,64.35,89.079,64.934,89.079,64.934"/>
	<path fill-rule="evenodd" clip-rule="evenodd" fill="#FFFFFF" d="M89.638,64.183c-0.052-0.484-0.343-0.977-0.563-1.298
		c-0.223-0.322-0.363-0.654-0.614-1.077c-0.25-0.423-0.949-0.839-1.398-1.156c-0.344-0.243-0.787-0.775-0.787-1.199
		c0-0.201-0.101-0.504-0.342-0.368c0.041-0.103,0.14-0.204,0.259-0.303c0.23-0.195,0.65-0.459,1.045-0.602
		c0.395-0.145,1.341-0.401,1.73-0.489c0.386-0.086,1.484-0.269,1.936-0.308c0.45-0.036,1.24-0.074,1.616-0.074
		c0.407,0,1.19,0.04,1.771,0.1c0.614,0.062,1.455,0.188,2.006,0.219c0.552,0.031,1.498,0.056,1.911,0.044
		c0.414-0.013,1.172-0.044,1.585-0.05c0.413-0.005,1.923-0.057,2.426-0.088c0.499-0.031,1.86-0.111,2.369-0.137
		c0.508-0.025,2.06-0.057,2.505-0.057s2.368,0.088,2.856,0.114c0.49,0.023,1.691,0.093,2.137,0.118
		c0.445,0.026,1.083,0.05,1.454,0.069c0.368,0.019,1.466-0.013,1.704-0.013c0.237,0,1.072-0.006,1.528-0.023
		c0.458-0.021,1.674-0.114,2.117-0.151c0.445-0.039,1.586-0.157,1.948-0.184c0.364-0.024,0.728-0.079,0.886-0.055
		c0.156,0.025,0.337,0.144,0.388,0.2c0.05,0.056,0.262,0.289,0.418,0.458c0.158,0.169,0.314,0.356,0.34,0.42
		c0.024,0.062,0.125,0.2,0.105,0.25c-0.018,0.051-0.037,0.145-0.093,0.176s-0.313,0.143-0.313,0.143s-0.013-0.118-0.101-0.156
		c-0.088-0.038-0.239-0.087-0.353-0.048c-0.111,0.037-0.476,0.193-0.688,0.287c-0.214,0.095-0.563,0.258-0.728,0.277
		c-0.161,0.017-0.801,0.043-1.227,0.048c-0.429,0.006-1.675,0.014-2.214,0.032c-0.538,0.019-2.361,0.031-2.743,0.038
		c-0.383,0.005-2.057,0.024-2.588,0.024c-0.533,0-2.023,0.032-2.507,0.026c-0.482-0.007-2.619,0.031-3.088,0.024
		c-0.471-0.007-1.807,0.007-2.162,0.013c-0.357,0.007-0.841,0.025-1.304,0.056c-0.463,0.032-1.115,0.101-1.302,0.113
		c-0.188,0.012-0.44-0.019-0.526-0.05c-0.088-0.031-0.095-0.044-0.152-0.05c-0.054-0.006-0.212-0.03-0.212-0.03l-0.036-0.083
		c0,0,0.205-0.038,0.374-0.075c0.17-0.039,0.312-0.114,0.613-0.176s1.06-0.207,1.437-0.271c0.376-0.062,2.074-0.362,2.563-0.425
		c0.488-0.062,1.76-0.207,2.203-0.237c0.447-0.031,1.713-0.132,2.158-0.157c0.444-0.025,1.446-0.069,1.697-0.063
		c0.252,0.007,1.108,0.024,1.445,0.043c0.34,0.02,0.521,0.02,0.521,0.02l0.063-0.219c0,0-0.355-0.019-0.659-0.038
		c-0.298-0.019-1.075-0.032-1.34-0.032c-0.262,0-1.215,0.005-1.578,0.025c-0.347,0.018-0.858-0.041-1.273-0.056
		c-0.501-0.019-1.634-0.007-2.097,0.03c-0.465,0.037-1.774,0.163-2.188,0.213s-1.835,0.257-2.486,0.376
		c-0.652,0.119-1.667,0.318-2.145,0.407c-0.476,0.087-1.083,0.213-1.629,0.27c-0.546,0.056-1.646,0.075-2.049,0.069
		c-0.401-0.007-1.585-0.033-2.18-0.026c-0.596,0.007-1.596,0.007-2.18,0.076c-0.584,0.069-1.079,0.182-1.379,0.283
		c-0.302,0.1-0.608,0.213-0.813,0.363c-0.208,0.15-0.302,0.313-0.295,0.37c0.006,0.057,0.023,0.093,0.023,0.093l0.156,0.05
		c0,0-0.148,0.12-0.236,0.195c-0.089,0.075-0.182,0.25-0.214,0.401c-0.03,0.15-0.081,0.513-0.086,0.664
		c-0.008,0.151-0.027,0.213,0.024,0.333c0.049,0.119,0.287,0.544,0.381,0.727c0.096,0.18,0.345,0.583,0.413,0.701
		c0.07,0.119,0.201,0.288,0.295,0.432c0.095,0.146,0.256,0.489,0.276,0.602c0.02,0.113,0.02,0.276,0.02,0.439v0.814
		c0,0.131-0.013,0.238-0.04,0.269c-0.022,0.031-0.101,0.094-0.105,0.164c-0.006,0.068-0.049,0.226-0.068,0.308
		c-0.018,0.08-0.082,0.249-0.082,0.249s-0.1-0.2-0.106-0.224c-0.005-0.024,0.043-0.188,0.025-0.427
		C90.081,65.704,89.719,64.948,89.638,64.183"/>
	<path fill-rule="evenodd" clip-rule="evenodd" fill="#FFFFFF" d="M89.41,60.831c0,0,0.097-0.159,0.357-0.333
		c0.226-0.151,0.596-0.314,0.82-0.382c0.227-0.069,1.054-0.257,1.43-0.287c0.377-0.033,1.386-0.04,1.716-0.045
		c0.333-0.006,0.967,0.012,1.179,0.005c0.213-0.005,0.513,0,0.739,0c0.225,0,0.657-0.005,0.796-0.005c0.138,0,0.4-0.013,0.476,0.005
		c0.075,0.019,0.214,0.045,0.233,0.102c0.017,0.056,0.036,0.105,0,0.168c-0.039,0.062-0.032,0.145-0.032,0.168v0.059
		c0,0-0.045,0.024-0.09,0.056c-0.043,0.031-0.25,0.15-0.25,0.15s0-0.044-0.037-0.125c-0.036-0.081-0.156-0.151-0.244-0.169
		c-0.087-0.018-0.406-0.037-0.546-0.043c-0.137-0.005-0.469-0.012-0.602-0.026c-0.13-0.012-0.194-0.031-0.257-0.031
		c-0.062,0-0.111,0.006-0.162,0.044c-0.052,0.038-0.068,0.074-0.099,0.081c-0.032,0.005-0.095-0.006-0.12-0.006
		s-0.068,0.037,0.013,0.113c0.118,0.112,0.294,0.132,0.45,0.156c0.158,0.026,0.376,0.062,0.539,0.094
		c0.163,0.031,0.383,0.069,0.526,0.102c0.144,0.03,0.281,0.037,0.332,0.043c0.05,0.005,0.138,0.043,0.133,0.094
		c-0.007,0.048-0.02,0.094-0.039,0.137c-0.021,0.044-0.021,0.126-0.012,0.164c0.006,0.037-0.009,0.075-0.044,0.1
		c-0.038,0.025-0.194,0.081-0.234,0.101c-0.035,0.019-0.104,0.013-0.104,0.013s0.018-0.1,0-0.125
		c-0.02-0.026-0.075-0.082-0.194-0.119c-0.12-0.038-0.433-0.12-0.583-0.151c-0.149-0.032-0.408-0.1-0.577-0.131
		c-0.168-0.03-0.281-0.082-0.332-0.039c-0.05,0.044-0.063,0.082-0.093,0.088c-0.031,0.006-0.083-0.018-0.113,0.012
		c-0.032,0.032-0.075,0.07-0.045,0.107c0.032,0.039,0.146,0.108,0.259,0.146c0.112,0.037,0.482,0.144,0.645,0.194
		c0.163,0.05,0.445,0.163,0.594,0.194c0.151,0.032,0.31,0.081,0.34,0.164c0.032,0.082,0.025,0.162-0.03,0.213
		c-0.058,0.05-0.07,0.118-0.083,0.15c-0.013,0.032-0.032,0.113-0.032,0.113s-0.144,0.094-0.174,0.107L95.72,62.31
		c0,0,0.05-0.064,0.006-0.169c-0.044-0.107-0.169-0.169-0.331-0.251c-0.163-0.081-0.495-0.2-0.621-0.244s-0.531-0.207-0.625-0.238
		c-0.095-0.031-0.201-0.068-0.289-0.05c-0.088,0.019-0.133,0.07-0.105,0.113c0.022,0.043,0.093,0.064,0.093,0.113
		c0,0.05,0,0.093-0.026,0.106c-0.023,0.012-0.031,0.018-0.031,0.018s0.214,0.145,0.359,0.213c0.142,0.07,0.499,0.259,0.595,0.307
		c0.095,0.051,0.388,0.188,0.456,0.239c0.069,0.049,0.214,0.132,0.188,0.2c-0.023,0.069-0.049,0.182-0.063,0.219
		c-0.012,0.039,0.015,0.069-0.05,0.094c-0.063,0.024-0.295,0.087-0.295,0.087s-0.005-0.057-0.02-0.087
		c-0.011-0.032-0.056-0.088-0.18-0.162c-0.125-0.077-0.57-0.339-0.682-0.396c-0.115-0.058-0.397-0.208-0.458-0.263
		c-0.063-0.056-0.221-0.188-0.276-0.22c-0.056-0.032-0.171-0.087-0.244-0.013c-0.06,0.061-0.089,0.182-0.053,0.225
		c0.04,0.045,0.122,0.12,0.122,0.12s-0.075,0.057-0.063,0.088c0.011,0.032,0.212,0.175,0.362,0.282
		c0.151,0.106,0.544,0.377,0.645,0.444c0.101,0.069,0.313,0.201,0.383,0.265c0.07,0.062,0.088,0.119,0.038,0.174
		c-0.051,0.058-0.068,0.113-0.068,0.113s0.005,0.075,0.005,0.105c0,0.033-0.013,0.069-0.013,0.069s-0.032,0.031-0.112,0.044
		c-0.081,0.013-0.2,0.019-0.2,0.019s-0.024-0.038-0.018-0.094c0.006-0.057-0.049-0.094-0.133-0.169
		c-0.107-0.094-0.407-0.302-0.557-0.408c-0.15-0.107-0.445-0.301-0.516-0.375c-0.068-0.076-0.193-0.257-0.262-0.314
		c-0.07-0.057-0.163-0.119-0.244-0.087c-0.083,0.03-0.169,0.094-0.182,0.169c-0.013,0.075-0.026,0.131,0.023,0.169
		c0.05,0.037,0.118,0.082,0.118,0.106c0,0.025-0.08,0.045-0.061,0.088c0.018,0.043,0.282,0.239,0.4,0.338s0.526,0.42,0.627,0.507
		c0.101,0.089,0.287,0.263,0.313,0.339c0.023,0.075,0.013,0.231-0.02,0.275c-0.03,0.044-0.118,0.062-0.199,0.075
		c-0.083,0.014-0.19,0.025-0.19,0.025s0.04-0.094,0.02-0.132c-0.02-0.038-0.193-0.151-0.326-0.258
		c-0.13-0.106-0.524-0.438-0.676-0.563c-0.15-0.125-0.3-0.276-0.35-0.382c-0.053-0.107-0.139-0.25-0.265-0.25
		c-0.125,0-0.251,0.018-0.326,0.119c-0.075,0.1-0.075,0.208-0.019,0.25c0.058,0.045,0.156,0.107,0.126,0.125l-0.113,0.069
		c0,0,0.119,0.071,0.27,0.201c0.176,0.15,0.476,0.395,0.589,0.502c0.113,0.106,0.345,0.326,0.388,0.363
		c0.045,0.037,0.108,0.149,0.101,0.231c-0.005,0.082-0.018,0.188-0.045,0.232c-0.022,0.044,0.01,0.075-0.056,0.107
		c-0.063,0.031-0.181,0.031-0.224,0.031c-0.045,0-0.083-0.013-0.083-0.013s0.107-0.082,0.103-0.12
		c-0.008-0.036-0.139-0.169-0.227-0.244c-0.088-0.076-0.514-0.439-0.672-0.583c-0.156-0.145-0.382-0.37-0.433-0.507
		c-0.048-0.137-0.048-0.314-0.131-0.426c-0.081-0.112-0.262-0.25-0.345-0.37c-0.083-0.118-0.351-0.532-0.476-0.789
		c-0.126-0.256-0.257-0.452-0.287-0.67c-0.031-0.22-0.008-0.35-0.045-0.42c-0.038-0.069-0.126-0.176-0.169-0.176
		C89.554,60.849,89.41,60.831,89.41,60.831"/>
	<path fill-rule="evenodd" clip-rule="evenodd" fill="#FFFFFF" d="M90.419,63.951c0,0,0.345,0.395,0.431,0.47
		c0.09,0.075,0.271,0.188,0.327,0.219c0.058,0.031,0.27,0.244,0.327,0.313c0.056,0.068,0.193,0.201,0.187,0.282
		c-0.006,0.082-0.068,0.301-0.118,0.35c-0.051,0.051-0.126,0.113-0.189,0.121c-0.061,0.004-0.174-0.014-0.174-0.014
		s0.139-0.037,0.139-0.094s-0.025-0.107-0.126-0.207s-0.139-0.138-0.246-0.282c-0.105-0.144-0.192-0.294-0.192-0.294l-0.075,0.024
		l-0.075,0.006c0,0-0.025-0.238-0.058-0.369c-0.03-0.131-0.073-0.246-0.094-0.308C90.457,64.088,90.419,63.951,90.419,63.951"/>
	<path fill-rule="evenodd" clip-rule="evenodd" fill="#FFFFFF" d="M90.381,66.796c0,0,0.089-0.208,0.101-0.289
		c0.011-0.081,0.056-0.226,0.063-0.263l0.02-0.1c0,0,0.161,0.213,0.212,0.274c0.05,0.064,0.219,0.196,0.282,0.283
		c0.063,0.088,0.345,0.451,0.463,0.615c0.12,0.162,0.458,0.613,0.519,0.701c0.065,0.087,0.254,0.357,0.239,0.432
		c-0.011,0.075-0.025,0.169-0.062,0.245c-0.037,0.075-0.075,0.156-0.112,0.163c-0.038,0.005-0.222,0.012-0.222,0.012
		s0.051-0.068,0.051-0.112s-0.081-0.174-0.192-0.238c-0.113-0.062-0.332-0.182-0.382-0.238c-0.051-0.057-0.205-0.464-0.275-0.609
		c-0.09-0.174-0.238-0.462-0.334-0.594c-0.093-0.132-0.156-0.27-0.193-0.281c-0.038-0.013-0.021,0.018-0.076,0.023
		C90.425,66.827,90.381,66.796,90.381,66.796"/>
	<path fill-rule="evenodd" clip-rule="evenodd" fill="#FFFFFF" d="M90.67,65.856c0,0,0.23,0.081,0.363,0.081
		c0.131,0,0.233,0.006,0.264-0.005c0.03-0.013,0.088-0.113,0.22-0.145c0.131-0.032,0.255-0.013,0.382,0.082
		c0.126,0.094,0.753,0.721,0.844,0.809c0.096,0.088,0.503,0.481,0.627,0.601c0.126,0.119,0.327,0.319,0.364,0.401
		c0.038,0.082,0.056,0.151,0.025,0.194s-0.075,0.075-0.095,0.132c-0.017,0.057-0.031,0.182-0.063,0.219
		c-0.03,0.039-0.073,0.082-0.161,0.082s-0.176-0.013-0.176-0.013s0.101-0.057,0.101-0.118c0-0.063-0.031-0.146-0.119-0.195
		c-0.088-0.05-0.181-0.101-0.314-0.17c-0.131-0.068-0.236-0.163-0.332-0.27c-0.093-0.106-0.313-0.401-0.418-0.52
		c-0.107-0.119-0.364-0.45-0.483-0.564c-0.118-0.111-0.238-0.218-0.388-0.25c-0.15-0.031-0.188-0.038-0.221-0.038
		c-0.03,0-0.094,0.102-0.081,0.125c0.013,0.024-0.061-0.038-0.124-0.119C90.819,66.093,90.67,65.856,90.67,65.856"/>
	<path fill-rule="evenodd" clip-rule="evenodd" fill="#FFFFFF" d="M91.861,65.568c0,0,0.018-0.044,0.022-0.107
		c0.008-0.064,0.021-0.145,0.053-0.138c0.03,0.006,0.187,0.081,0.293,0.081c0.107,0,0.122-0.018,0.122-0.018
		s0.054-0.095,0.185-0.121c0.133-0.024,0.176-0.03,0.219-0.03c0.045,0,0.108-0.013,0.246,0.043c0.137,0.057,0.521,0.37,0.663,0.483
		c0.146,0.113,0.729,0.57,0.891,0.701c0.163,0.131,0.35,0.257,0.402,0.307c0.048,0.051,0.211,0.207,0.174,0.276
		c-0.038,0.067-0.118,0.149-0.139,0.225c-0.018,0.075-0.024,0.182-0.035,0.225c-0.013,0.044-0.103,0.063-0.146,0.057
		c-0.044-0.005-0.169-0.013-0.169-0.013s0.069-0.049,0.088-0.1c0.018-0.051-0.019-0.106-0.088-0.157
		c-0.07-0.05-0.182-0.126-0.314-0.188c-0.131-0.062-0.33-0.231-0.494-0.363c-0.163-0.131-0.589-0.526-0.684-0.614
		c-0.094-0.088-0.388-0.337-0.464-0.369c-0.075-0.032-0.292-0.07-0.375-0.088c-0.082-0.019-0.201-0.045-0.201-0.045
		s-0.054,0.082-0.081,0.082c-0.05,0-0.043-0.005-0.043-0.005s0.006,0-0.039-0.038C91.904,65.616,91.861,65.568,91.861,65.568"/>
	<path fill-rule="evenodd" clip-rule="evenodd" fill="#FFFFFF" d="M92.906,64.934l0.007-0.112c0,0,0.081-0.031,0.188-0.031
		c0.106,0,0.207,0.005,0.325-0.04c0.118-0.043,0.118-0.03,0.201-0.081c0.079-0.049,0.118-0.062,0.201-0.113
		c0.079-0.049,0.061-0.118,0.111-0.125c0.05-0.006,0.201-0.025,0.244,0c0.043,0.025,0.362,0.283,0.551,0.394
		c0.188,0.113,0.758,0.464,0.972,0.596c0.212,0.132,0.531,0.306,0.64,0.4c0.105,0.094,0.176,0.146,0.169,0.232
		c-0.006,0.087-0.076,0.15-0.111,0.219c-0.04,0.068-0.033,0.132-0.058,0.188c-0.025,0.057-0.043,0.113-0.043,0.113l-0.265,0.057
		c0,0,0.068-0.064,0.058-0.131c-0.013-0.07-0.058-0.138-0.171-0.201c-0.112-0.063-0.262-0.07-0.388-0.113
		c-0.124-0.044-0.345-0.194-0.476-0.295c-0.133-0.1-0.463-0.356-0.621-0.463c-0.156-0.107-0.383-0.289-0.494-0.339
		c-0.113-0.05-0.319-0.093-0.439-0.1c-0.119-0.007-0.263,0.007-0.288,0c-0.024-0.007-0.063,0.132-0.112,0.088
		c-0.051-0.044-0.07-0.05-0.132-0.088C92.913,64.953,92.906,64.934,92.906,64.934"/>
	<path fill-rule="evenodd" clip-rule="evenodd" fill="#FFFFFF" d="M94.479,64.069c0,0,0.169-0.012,0.207-0.087
		c0.037-0.076,0.025-0.239,0.037-0.314c0.013-0.075,0.006-0.119,0.038-0.125c0.032-0.005,0.113,0.05,0.194,0.058
		c0.082,0.005,0.183,0,0.313,0.067c0.132,0.07,0.695,0.364,0.991,0.489c0.293,0.126,0.882,0.433,1.063,0.501
		c0.182,0.069,0.483,0.182,0.528,0.263c0.043,0.083,0.066,0.169,0.018,0.25c-0.051,0.082-0.088,0.125-0.07,0.182
		c0.02,0.057,0.07,0.125,0.025,0.156c-0.043,0.031-0.149,0.038-0.219,0.063c-0.068,0.025-0.144,0.025-0.144,0.025
		s0.064-0.043,0.05-0.113c-0.013-0.067-0.075-0.163-0.206-0.194c-0.133-0.031-0.282-0.038-0.402-0.069
		c-0.119-0.031-0.225-0.081-0.408-0.188c-0.181-0.106-0.549-0.326-0.745-0.426c-0.193-0.101-0.551-0.288-0.677-0.37
		c-0.124-0.082-0.169-0.119-0.231-0.138c-0.062-0.019-0.144-0.024-0.187-0.012C94.61,64.101,94.479,64.069,94.479,64.069"/>
	<path fill-rule="evenodd" clip-rule="evenodd" fill="#FFFFFF" d="M95.533,63.055c0,0,0.03-0.101,0.048-0.213
		c0.021-0.113-0.005-0.169,0.032-0.182c0.038-0.013,0.101,0.019,0.18,0.013c0.083-0.007,0.166-0.013,0.222,0.02
		c0.056,0.032,0.332,0.138,0.47,0.186c0.137,0.051,0.852,0.308,1.09,0.396c0.237,0.088,0.67,0.244,0.858,0.313
		c0.188,0.07,0.314,0.088,0.383,0.15c0.068,0.063,0.131,0.151,0.124,0.275c-0.004,0.126,0.02,0.164-0.03,0.226
		c-0.051,0.063-0.063,0.075-0.068,0.113c-0.006,0.037,0.043,0.107,0.013,0.145c-0.031,0.038-0.083,0.044-0.196,0.062
		c-0.111,0.019-0.167,0.032-0.167,0.032s0.094-0.101,0.006-0.182c-0.088-0.081-0.119-0.132-0.32-0.206
		c-0.201-0.076-0.521-0.208-0.664-0.265c-0.144-0.055-0.765-0.339-0.939-0.4c-0.176-0.063-0.533-0.2-0.658-0.27
		c-0.124-0.068-0.175-0.094-0.214-0.145C95.664,63.074,95.533,63.055,95.533,63.055"/>
	<path fill-rule="evenodd" clip-rule="evenodd" fill="#FFFFFF" d="M96.309,62.014c0,0-0.013-0.306,0.03-0.319
		c0.045-0.012,0.171,0.026,0.227,0.019c0.056-0.005,0.212-0.005,0.357,0.032c0.144,0.038,0.94,0.239,1.253,0.306
		c0.313,0.068,0.733,0.17,0.997,0.213c0.262,0.045,0.438,0.045,0.494,0.139c0.057,0.094,0.05,0.293,0.044,0.401
		c-0.007,0.105,0.025,0.332,0.006,0.363c-0.018,0.031-0.149,0.088-0.244,0.125c-0.094,0.036-0.133,0.055-0.133,0.055
		s0.045-0.113-0.019-0.193c-0.061-0.082-0.307-0.181-0.468-0.226c-0.164-0.044-0.635-0.199-0.891-0.275
		c-0.257-0.075-0.683-0.22-0.826-0.258c-0.146-0.038-0.314-0.081-0.413-0.144c-0.103-0.063-0.208-0.176-0.252-0.201
		C96.427,62.028,96.309,62.014,96.309,62.014"/>
	<path fill-rule="evenodd" clip-rule="evenodd" fill="#FFFFFF" d="M96.885,60.88l-0.005-0.119c0,0,0.142-0.137,0.182-0.137
		c0.037,0,0.138-0.021,0.294-0.007s0.826,0.093,1.09,0.137c0.264,0.043,0.966,0.139,1.166,0.164c0.2,0.025,0.508,0.005,0.606,0.032
		c0.171,0.043,0.144,0.194,0.158,0.3c0.013,0.108,0.03,0.27,0.018,0.313c-0.013,0.044-0.105,0.133-0.206,0.208
		c-0.101,0.075-0.201,0.132-0.257,0.164c-0.058,0.03,0.018-0.131-0.043-0.195c-0.04-0.039-0.139-0.087-0.297-0.119
		c-0.156-0.031-0.407-0.089-0.557-0.12c-0.15-0.031-0.727-0.143-0.96-0.188c-0.23-0.043-0.494-0.07-0.65-0.145
		c-0.156-0.075-0.257-0.2-0.343-0.238C96.991,60.893,96.885,60.88,96.885,60.88"/>
	<path fill-rule="evenodd" clip-rule="evenodd" fill="#FFFFFF" d="M97.343,60.053c0,0-0.043-0.125-0.043-0.157
		c0-0.024,0.013-0.062,0.013-0.062s0.257,0.012,0.431-0.019c0.175-0.032,0.695-0.112,1.027-0.164c0.332-0.049,0.959-0.162,1.165-0.2
		c0.207-0.037,0.458-0.082,0.546-0.043c0.088,0.038,0.151,0.125,0.162,0.213c0.014,0.087,0.082,0.281,0.107,0.363
		c0.025,0.082,0.09,0.207,0.075,0.245c-0.013,0.038-0.12,0.168-0.193,0.238c-0.075,0.069-0.259,0.244-0.259,0.244
		s0.027-0.144-0.03-0.231c-0.056-0.089-0.169-0.195-0.313-0.239s-0.734-0.087-0.941-0.081c-0.206,0.005-0.713,0.013-0.951,0.005
		c-0.239-0.005-0.456-0.048-0.559-0.094c-0.099-0.043-0.07-0.03-0.111-0.043C97.394,60.004,97.343,60.053,97.343,60.053"/>
	<path fill-rule="evenodd" clip-rule="evenodd" fill="#FFFFFF" d="M100.726,60.73c0,0,0.244-0.264,0.308-0.338
		c0.063-0.076,0.125-0.17,0.169-0.182c0.045-0.013,0.206,0.009,0.307-0.026c0.133-0.044,0.979-0.036,1.203-0.044
		c0.227-0.005,1.785-0.005,2.124-0.005c0.34,0,2.543-0.032,2.907-0.026c0.364,0.007,1.961,0,2.368-0.012
		c0.408-0.012,2.376,0,2.847-0.019c0.469-0.018,2.918-0.032,3.325-0.045c0.407-0.012,2.3-0.043,2.646-0.049
		c0.343-0.005,1.026-0.018,1.238-0.031c0.214-0.014,0.408-0.039,0.49-0.026c0.081,0.012,0.094,0.094,0.119,0.146
		c0.022,0.048,0.144,0.431,0.2,0.6c0.055,0.17,0.1,0.395,0.106,0.501c0.005,0.107,0.043,0.239,0.02,0.264
		c-0.026,0.026-0.251,0.157-0.296,0.168c-0.043,0.013-0.101,0.025-0.101,0.025s0.045-0.075,0.013-0.138
		c-0.031-0.061-0.164-0.155-0.244-0.167c-0.081-0.015-0.201,0.012-0.363,0.074c-0.163,0.063-0.639,0.199-0.908,0.257
		c-0.27,0.056-0.388,0.094-0.846,0.107s-1.518,0.005-1.968-0.013c-0.451-0.02-1.792-0.057-2.425-0.089
		c-0.634-0.031-2.197-0.111-2.745-0.138c-0.544-0.024-2.225-0.124-2.624-0.15c-0.401-0.024-2.36-0.143-2.771-0.175
		c-0.405-0.031-2.454-0.156-2.786-0.188c-0.334-0.032-1.047-0.082-1.267-0.094c-0.219-0.013-0.525-0.038-0.639-0.069
		c-0.113-0.03-0.113-0.074-0.201-0.094C100.845,60.737,100.726,60.73,100.726,60.73"/>
	<path fill-rule="evenodd" clip-rule="evenodd" fill="#FFFFFF" d="M99.893,62.291c0,0,0.289-0.177,0.413-0.276
		c0.126-0.1,0.27-0.193,0.302-0.282c0.032-0.088,0.032-0.138,0.032-0.138s0.882,0.025,1.083,0.044
		c0.199,0.018,1.171,0.082,1.429,0.1c0.256,0.019,1.815,0.131,2.305,0.162c0.49,0.033,2.683,0.182,3.12,0.208
		c0.44,0.025,2.188,0.132,2.618,0.157c0.433,0.025,2.106,0.107,2.652,0.131c0.544,0.025,2.449,0.076,2.776,0.082
		c0.324,0.006,1.39,0.018,1.578,0.006c0.187-0.013,0.418-0.032,0.544-0.032s0.27,0.013,0.274,0.145
		c0.009,0.131-0.018,0.683-0.073,0.864c-0.058,0.182-0.184,0.483-0.276,0.564c-0.094,0.083-0.237,0.158-0.237,0.158
		s0.056-0.119,0.018-0.188c-0.035-0.069-0.168-0.17-0.262-0.163c-0.095,0.005-0.652,0.144-0.929,0.175
		c-0.274,0.032-0.732,0.082-1.077,0.076c-0.345-0.005-1.14-0.038-1.542-0.069c-0.399-0.03-1.491-0.112-2.035-0.168
		c-0.546-0.057-2.03-0.221-2.718-0.301c-0.691-0.083-2.082-0.257-2.57-0.319c-0.488-0.063-2.081-0.277-2.507-0.338
		c-0.425-0.063-1.565-0.213-1.878-0.264c-0.314-0.049-1.298-0.194-1.58-0.231c-0.282-0.037-0.458-0.076-0.584-0.076
		c-0.125,0-0.219-0.013-0.38,0c-0.164,0.012-0.139,0.012-0.214,0.012c-0.07,0-0.096-0.005-0.169-0.012
		C99.931,62.31,99.893,62.291,99.893,62.291"/>
	<path fill-rule="evenodd" clip-rule="evenodd" fill="#FFFFFF" d="M99.141,63.706c0,0,0.238-0.075,0.37-0.137
		c0.133-0.063,0.345-0.119,0.407-0.226c0.063-0.106,0.075-0.132,0.068-0.2c-0.006-0.069-0.023-0.133-0.023-0.133
		s0.413,0.026,0.574,0.039c0.164,0.013,0.946,0.131,1.19,0.163c0.246,0.032,1.442,0.219,1.768,0.264
		c0.326,0.043,2.539,0.351,2.97,0.407c0.433,0.055,2.325,0.301,2.676,0.338c0.35,0.037,2.481,0.276,2.813,0.307
		c0.332,0.03,1.528,0.144,1.941,0.174c0.414,0.033,1.298,0.083,1.679,0.089c0.384,0.006,0.659-0.006,0.758,0.025
		c0.101,0.031,0.178,0.1,0.158,0.169c-0.019,0.069-0.101,0.67-0.137,0.789c-0.038,0.12-0.101,0.352-0.158,0.433
		c-0.056,0.081-0.101,0.175-0.194,0.226c-0.095,0.05-0.131,0.062-0.131,0.062s0.068-0.131,0.03-0.207
		c-0.037-0.074-0.174-0.206-0.257-0.213c-0.08-0.006-0.395,0.051-0.601,0.083c-0.207,0.031-0.588,0.075-0.848,0.094
		c-0.255,0.017-0.58,0.043-0.744,0.036c-0.163-0.006-0.47-0.036-0.739-0.074c-0.27-0.04-1.259-0.176-1.61-0.233
		c-0.351-0.056-1.504-0.256-1.984-0.344c-0.485-0.088-2.194-0.433-2.526-0.508c-0.333-0.074-1.605-0.35-1.924-0.427
		c-0.319-0.073-1.711-0.399-2.03-0.481c-0.32-0.082-1.209-0.288-1.447-0.345c-0.237-0.057-0.726-0.175-0.858-0.2
		c-0.131-0.025-0.282-0.063-0.396-0.032c-0.113,0.032-0.345,0.1-0.418,0.126c-0.075,0.025-0.088,0.037-0.201,0.019
		C99.205,63.77,99.141,63.706,99.141,63.706"/>
	<path fill-rule="evenodd" clip-rule="evenodd" fill="#FFFFFF" d="M98.063,64.915c0,0,0.231-0.012,0.337-0.037
		c0.108-0.025,0.377-0.082,0.496-0.119c0.118-0.039,0.163-0.059,0.176-0.12c0.013-0.061-0.013-0.232,0.007-0.3
		c0.019-0.069,0.049-0.151,0.049-0.151s0.257,0.057,0.364,0.063c0.106,0.007,0.471,0.082,0.62,0.119
		c0.15,0.038,1.867,0.47,2.137,0.54c0.269,0.068,2.229,0.544,2.567,0.614c0.339,0.068,1.936,0.419,2.295,0.494
		c0.357,0.075,2.731,0.514,3.126,0.576c0.394,0.063,1.747,0.276,2.066,0.308c0.32,0.031,0.783,0.081,0.879,0.107
		c0.093,0.025,0.181,0.062,0.161,0.175c-0.025,0.156-0.156,0.471-0.231,0.621c-0.074,0.149-0.194,0.42-0.325,0.571
		s-0.219,0.269-0.307,0.325s-0.119,0.074-0.119,0.074s0.076-0.111,0.056-0.187c-0.02-0.074-0.131-0.175-0.244-0.195
		c-0.113-0.017-0.357-0.005-0.602-0.005s-0.959-0.031-1.585-0.125c-0.625-0.093-1.586-0.25-2.23-0.401s-1.567-0.369-2.225-0.558
		c-0.657-0.188-1.74-0.495-2.426-0.725c-0.683-0.234-1.559-0.521-1.939-0.659c-0.385-0.137-1.505-0.532-1.681-0.602
		c-0.176-0.068-0.295-0.094-0.426-0.106c-0.131-0.013-0.295,0.018-0.433,0c-0.139-0.019-0.308-0.064-0.383-0.088
		c-0.075-0.024-0.131-0.043-0.163-0.102C98.051,64.964,98.063,64.915,98.063,64.915"/>
	<path fill-rule="evenodd" clip-rule="evenodd" fill="#FFFFFF" d="M96.76,66.018c0,0,0.42-0.1,0.634-0.181
		c0.18-0.068,0.413-0.169,0.614-0.15c0.199,0.018,0.632,0.164,0.876,0.256c0.244,0.094,1.115,0.401,1.349,0.489
		c0.231,0.089,2.223,0.758,2.542,0.858c0.318,0.1,2.049,0.615,2.412,0.715c0.362,0.102,2.03,0.527,2.426,0.607
		c0.394,0.083,1.045,0.2,1.248,0.24c0.199,0.037,0.388,0.086,0.403,0.181c0.021,0.094,0.008,0.245-0.03,0.319
		c-0.036,0.076-0.101,0.32-0.156,0.471c-0.058,0.15-0.131,0.344-0.212,0.433c-0.082,0.087-0.264,0.125-0.264,0.125
		s0.094-0.063,0.083-0.158c-0.015-0.093-0.045-0.138-0.121-0.188c-0.075-0.051-0.118-0.094-0.224-0.1
		c-0.108-0.006-0.385,0.024-0.597,0.037c-0.214,0.012-0.946,0.012-1.233,0.012c-0.289,0-0.576,0.019-0.79-0.005
		c-0.214-0.025-0.476-0.069-0.809-0.164c-0.332-0.092-1.152-0.394-1.517-0.538c-0.363-0.146-1.445-0.627-1.735-0.758
		c-0.289-0.133-1.366-0.666-1.724-0.846c-0.355-0.183-0.863-0.435-1.14-0.584c-0.275-0.15-0.871-0.476-1.027-0.551
		c-0.156-0.075-0.325-0.131-0.458-0.157c-0.131-0.025-0.319-0.1-0.375-0.125c-0.056-0.026-0.194-0.062-0.194-0.062L96.76,66.018z"/>
	<path fill-rule="evenodd" clip-rule="evenodd" fill="#FFFFFF" d="M95.375,66.964c0,0,0.445-0.1,0.559-0.143
		c0.111-0.045,0.357-0.102,0.45-0.083c0.094,0.019,0.421,0.175,0.614,0.282c0.194,0.107,1.053,0.564,1.329,0.708
		c0.274,0.146,1.409,0.727,1.666,0.852c0.257,0.125,1.09,0.54,1.39,0.671c0.302,0.132,1.342,0.594,1.636,0.714
		c0.273,0.11,0.71,0.27,0.959,0.358c0.252,0.086,0.571,0.18,0.721,0.224c0.15,0.044,0.413,0.113,0.433,0.182
		c0.02,0.07,0.02,0.169-0.032,0.275c-0.049,0.107-0.167,0.439-0.225,0.545c-0.058,0.107-0.151,0.314-0.231,0.39
		c-0.083,0.075-0.121,0.113-0.171,0.125c-0.049,0.013-0.054,0.006-0.054,0.006s0.093-0.112,0.093-0.156s-0.057-0.195-0.133-0.245
		c-0.073-0.049-0.176-0.101-0.257-0.101c-0.08,0-0.337,0-0.581-0.024c-0.246-0.024-0.646-0.075-0.939-0.137
		c-0.295-0.064-0.496-0.094-0.74-0.201s-0.784-0.389-1.064-0.551c-0.283-0.164-1.178-0.715-1.46-0.903
		c-0.268-0.178-1.553-1.096-1.749-1.233c-0.193-0.138-0.657-0.476-0.846-0.62c-0.188-0.145-0.458-0.358-0.563-0.408
		c-0.106-0.05-0.42-0.164-0.528-0.207c-0.105-0.043-0.225-0.081-0.255-0.15C95.364,67.064,95.375,66.964,95.375,66.964"/>
	<path fill-rule="evenodd" clip-rule="evenodd" fill="#FFFFFF" d="M94.009,67.792c0,0,0.246,0.013,0.352-0.012
		c0.106-0.025,0.33-0.088,0.4-0.088s0.199-0.025,0.325,0.031c0.126,0.058,0.445,0.24,0.61,0.371
		c0.162,0.132,0.844,0.658,1.058,0.814c0.212,0.156,1.241,0.884,1.445,1.027c0.209,0.144,1.141,0.764,1.392,0.915
		c0.254,0.151,0.715,0.433,0.939,0.564c0.228,0.132,0.478,0.257,0.546,0.326c0.07,0.07,0.156,0.138,0.09,0.295
		c-0.072,0.155-0.27,0.476-0.321,0.551c-0.049,0.076-0.188,0.213-0.255,0.261c-0.07,0.051-0.103,0.064-0.103,0.064
		s0.107-0.119,0.088-0.201c-0.018-0.081-0.068-0.199-0.194-0.269c-0.124-0.068-0.375-0.094-0.563-0.138
		c-0.187-0.043-0.884-0.214-1.151-0.287c-0.271-0.076-0.497-0.139-0.666-0.264c-0.169-0.125-0.612-0.539-0.826-0.733
		c-0.212-0.193-0.666-0.621-0.921-0.852c-0.257-0.232-0.784-0.727-0.972-0.908c-0.188-0.181-0.702-0.633-0.792-0.732
		c-0.086-0.102-0.298-0.301-0.36-0.365c-0.064-0.062-0.113-0.057-0.151-0.12c-0.037-0.061-0.018-0.155-0.005-0.181
		C93.985,67.835,94.009,67.792,94.009,67.792"/>
	<path fill-rule="evenodd" clip-rule="evenodd" fill="#FFFFFF" d="M92.438,68.837l0.056-0.188c0.018-0.062,0.018-0.1,0.018-0.1
		s0.221,0.012,0.396-0.013c0.176-0.025,0.271-0.068,0.42-0.056c0.15,0.013,0.219,0.045,0.295,0.194
		c0.075,0.151,0.301,0.395,0.457,0.547c0.156,0.149,0.916,0.85,1.147,1.071c0.23,0.218,0.965,0.914,1.224,1.146
		c0.255,0.232,0.604,0.539,0.698,0.633c0.095,0.094,0.314,0.307,0.366,0.37c0.049,0.062,0.036,0.188-0.021,0.281
		c-0.056,0.094-0.175,0.288-0.263,0.37c-0.088,0.083-0.276,0.214-0.276,0.214s0.07-0.137,0.053-0.201
		c-0.021-0.064-0.158-0.187-0.259-0.225c-0.101-0.036-0.532-0.151-0.721-0.207c-0.188-0.058-0.602-0.219-0.714-0.307
		c-0.113-0.087-0.607-0.683-0.721-0.821c-0.113-0.137-0.546-0.701-0.694-0.896c-0.151-0.195-0.483-0.658-0.666-0.889
		c-0.18-0.233-0.462-0.603-0.537-0.678c-0.075-0.075-0.088-0.113-0.156-0.163C92.468,68.868,92.438,68.837,92.438,68.837"/>
	<path fill-rule="evenodd" clip-rule="evenodd" fill="#FFFFFF" d="M90.902,69.039c0,0,0.274,0.037,0.431,0.037
		c0.158,0,0.302-0.018,0.372-0.006c0.066,0.013,0.156,0.006,0.224,0.088c0.068,0.082,0.108,0.226,0.139,0.307
		s0.531,0.789,0.614,0.902c0.081,0.112,0.438,0.589,0.596,0.796c0.156,0.207,0.582,0.751,0.706,0.915
		c0.126,0.162,0.377,0.418,0.439,0.513c0.063,0.094,0.225,0.327,0.25,0.376c0.027,0.05-0.038,0.118-0.073,0.168
		c-0.04,0.05-0.113,0.139-0.188,0.213c-0.078,0.076-0.189,0.157-0.22,0.17c-0.03,0.012,0.013-0.088,0.019-0.145
		c0.005-0.057-0.031-0.127-0.124-0.2c-0.133-0.1-0.321-0.177-0.465-0.231c-0.145-0.057-0.447-0.148-0.65-0.233
		c-0.194-0.081-0.3-0.138-0.377-0.225c-0.101-0.114-0.308-0.496-0.426-0.708c-0.12-0.213-0.471-0.872-0.559-1.046
		c-0.088-0.177-0.133-0.283-0.144-0.39c-0.013-0.106-0.02-0.494-0.056-0.594c-0.039-0.1-0.152-0.276-0.219-0.331
		c-0.07-0.057-0.096-0.064-0.126-0.083c-0.032-0.018-0.139-0.05-0.139-0.05s-0.012-0.138-0.012-0.168
		C90.915,69.082,90.902,69.039,90.902,69.039"/>
	<path fill-rule="evenodd" clip-rule="evenodd" fill="#FFFFFF" d="M90.807,71.099c0,0,0.176,0.295,0.239,0.395
		c0.063,0.101,0.226,0.314,0.307,0.477c0.081,0.162,0.332,0.576,0.402,0.713c0.066,0.138,0.156,0.263,0.144,0.407
		c-0.015,0.145-0.133,0.314-0.169,0.383c-0.039,0.07-0.045,0.145-0.133,0.212c-0.088,0.07-0.226,0.094-0.226,0.094
		s0.088-0.088,0.095-0.168c0.006-0.081-0.063-0.201-0.105-0.258c-0.045-0.055-0.146-0.156-0.257-0.213
		c-0.113-0.056-0.34-0.175-0.365-0.244c-0.024-0.068-0.032-0.144,0.025-0.282c0.075-0.182,0.063-0.364,0.032-0.506
		c-0.032-0.146-0.058-0.189-0.082-0.24c-0.023-0.049-0.081-0.081-0.081-0.081s0.088-0.319,0.105-0.4L90.807,71.099z"/>
	<path fill-rule="evenodd" clip-rule="evenodd" fill="#FFFFFF" d="M84.142,77.766c0,0,0.419-0.155,0.614-0.244
		c0.194-0.087,0.57-0.25,0.813-0.364c0.258-0.119,0.928-0.488,1.216-0.67c0.288-0.182,0.657-0.438,0.958-0.689
		c0.302-0.25,0.783-0.695,0.979-0.883c0.194-0.187,0.652-0.727,0.789-0.927c0.138-0.201,0.375-0.577,0.375-0.577l0.528,0.264
		c0.226,0.112,0.47,0.219,0.632,0.245c0.163,0.024,0.27,0.044,0.431,0.031c0.165-0.014,0.229-0.044,0.314-0.145
		c0.09-0.1,0.188-0.276,0.227-0.37c0.037-0.093,0.095-0.219,0.095-0.219s0.199,0.093,0.325,0.138l0.606,0.214
		c0.164,0.056,0.4,0.1,0.494,0.168c0.095,0.068,0.12,0.119,0.113,0.187c-0.006,0.07-0.074,0.239-0.137,0.363
		c-0.063,0.126-0.302,0.627-0.395,0.796c-0.096,0.17-0.477,0.789-0.67,1.065c-0.194,0.275-0.815,1.052-1.047,1.272
		c-0.232,0.22-0.514,0.507-0.683,0.595c-0.171,0.088-0.438,0.139-0.621,0.25l-0.952,0.595c-0.249,0.158-0.608,0.37-0.863,0.502
		c-0.259,0.132-0.898,0.451-1.091,0.545c-0.195,0.095-0.46,0.207-0.583,0.265c-0.126,0.056-0.227,0.106-0.326,0.1
		s-0.168-0.075-0.212-0.157c-0.045-0.081-0.352-0.608-0.466-0.814c-0.111-0.207-0.542-0.94-0.625-1.071
		c-0.089-0.138-0.125-0.207-0.32-0.282c-0.127-0.049-0.17-0.069-0.231-0.069c-0.063,0-0.104,0.009-0.194-0.019
		C84.171,77.841,84.142,77.766,84.142,77.766"/>
	<path fill-rule="evenodd" clip-rule="evenodd" fill="#FFFFFF" d="M82.706,78.173c0,0,0.344-0.088,0.514-0.144
		c0.169-0.057,0.357-0.125,0.477-0.151c0.118-0.025,0.17-0.03,0.231,0.033c0.063,0.062,0.119,0.18,0.151,0.268
		c0.031,0.087,0.382,0.696,0.5,0.904c0.119,0.204,0.452,0.782,0.553,0.963c0.101,0.183,0.457,0.759,0.532,0.885
		c0.074,0.123,0.163,0.293,0.225,0.395c0.062,0.1,0.163,0.331,0.207,0.426c0.044,0.094,0.083,0.169,0.051,0.249
		c-0.03,0.083-0.239,0.453-0.282,0.547c-0.044,0.094-0.238,0.438-0.238,0.438s-0.02-0.283-0.068-0.421
		c-0.052-0.138-0.107-0.226-0.207-0.294c-0.101-0.068-0.295-0.113-0.37-0.169c-0.074-0.057-0.145-0.106-0.237-0.295
		c-0.095-0.187-0.348-0.867-0.433-1.083c-0.095-0.237-0.407-1.028-0.514-1.291c-0.107-0.264-0.282-0.714-0.363-0.82
		c-0.082-0.106-0.295-0.263-0.363-0.27c-0.069-0.005-0.163-0.026-0.188-0.019c-0.026,0.005-0.106,0.014-0.106,0.014L82.706,78.173z"
		/>
	<path fill-rule="evenodd" clip-rule="evenodd" fill="#FFFFFF" d="M93.93,73.863c0,0,0.154,0.013,0.229-0.025
		c0.075-0.038,0.259-0.176,0.377-0.288c0.119-0.112,0.257-0.263,0.302-0.338c0.043-0.076,0.062-0.093,0.062-0.093
		s0.063,0.018,0.063,0.062c0,0.045-0.124,0.457-0.163,0.564c-0.038,0.108-0.167,0.458-0.257,0.646
		c-0.088,0.188-0.37,0.733-0.471,0.914c-0.099,0.182-0.557,0.903-0.745,1.159c-0.188,0.258-0.758,0.959-0.932,1.154
		c-0.177,0.195-0.873,0.871-1.042,1.034c-0.17,0.162-1.396,0.971-1.634,1.115c-0.24,0.144-1.021,0.601-1.205,0.701
		c-0.182,0.101-0.731,0.364-0.919,0.458c-0.188,0.095-0.678,0.325-0.797,0.351s-0.257,0-0.363-0.012
		c-0.106-0.014-0.157-0.014-0.194-0.014c-0.038,0-0.176,0.019-0.176,0.019l-0.056-0.093c0,0,0.457-0.183,0.688-0.294
		c0.232-0.113,1.229-0.578,1.51-0.74c0.281-0.163,0.872-0.495,1.172-0.695c0.301-0.201,1.022-0.727,1.284-0.959
		c0.264-0.231,1.017-0.965,1.147-1.128c0.131-0.163,0.732-0.719,0.869-0.864c0.14-0.145,0.388-0.372,0.553-0.615
		c0.184-0.271,0.58-0.916,0.665-1.108c0.08-0.189,0.174-0.339,0.156-0.419c-0.019-0.082-0.025-0.157-0.051-0.17
		c-0.025-0.012-0.163-0.051-0.163-0.051l0.058-0.168C93.915,73.907,93.93,73.863,93.93,73.863"/>
	<path fill-rule="evenodd" clip-rule="evenodd" fill="#FFFFFF" d="M81.346,78.43c0,0,0.146,0.007,0.277-0.038
		c0.131-0.044,0.432-0.169,0.558-0.182c0.126-0.012,0.313-0.012,0.344,0.039s0.076,0.175,0.132,0.332
		c0.056,0.157,0.426,1.097,0.515,1.348c0.087,0.25,0.501,1.247,0.576,1.452c0.075,0.208,0.268,0.665,0.294,0.76
		s0.112,0.344,0.094,0.419s-0.167,0.308-0.257,0.438c-0.089,0.132-0.395,0.546-0.395,0.546s-0.019-0.164,0.014-0.213
		c0.03-0.051,0.061-0.156,0.044-0.214c-0.02-0.058-0.089-0.23-0.183-0.307c-0.094-0.075-0.271-0.138-0.365-0.225
		c-0.092-0.09-0.137-0.114-0.205-0.39c-0.069-0.275-0.245-1.014-0.3-1.233c-0.058-0.22-0.283-1.259-0.338-1.467
		c-0.058-0.206-0.108-0.481-0.188-0.589c-0.082-0.107-0.251-0.257-0.321-0.27c-0.068-0.013-0.148-0.007-0.175-0.007
		c-0.025,0-0.07,0.007-0.07,0.007L81.346,78.43z"/>
	<path fill-rule="evenodd" clip-rule="evenodd" fill="#FFFFFF" d="M80.044,78.549c0,0,0.244-0.025,0.338-0.048
		c0.094-0.028,0.351-0.083,0.502-0.083c0.149,0,0.294,0.038,0.319,0.131c0.024,0.094,0.063,0.364,0.081,0.483
		c0.019,0.118,0.288,1.271,0.319,1.44s0.346,1.409,0.376,1.592c0.031,0.182,0.139,0.615,0.131,0.715
		c-0.005,0.1,0.008,0.187-0.013,0.219c-0.019,0.031-0.205,0.275-0.301,0.369c-0.093,0.094-0.425,0.515-0.425,0.515
		s-0.031-0.119,0.013-0.178c0.044-0.056,0.138-0.136,0.126-0.23c-0.014-0.094-0.102-0.27-0.182-0.345
		c-0.083-0.075-0.263-0.17-0.346-0.257c-0.081-0.087-0.125-0.156-0.145-0.363c-0.019-0.208-0.101-1.297-0.125-1.654
		c-0.025-0.357-0.101-1.353-0.125-1.503c-0.025-0.15-0.05-0.295-0.15-0.395c-0.101-0.101-0.201-0.151-0.264-0.17
		s-0.126-0.025-0.126-0.025L80.044,78.549z"/>
	<path fill-rule="evenodd" clip-rule="evenodd" fill="#FFFFFF" d="M78.691,78.562c0,0,0.249,0.007,0.307-0.013
		c0.056-0.018,0.3-0.05,0.475-0.043c0.176,0.007,0.365,0.05,0.377,0.144c0.012,0.095,0.019,0.4,0.024,0.589
		c0.006,0.188,0.082,1.159,0.088,1.316c0.006,0.156,0.088,1.24,0.106,1.503s0.057,0.771,0.05,0.87
		c-0.006,0.102-0.006,0.227-0.006,0.227s-0.289,0.301-0.381,0.383c-0.094,0.081-0.434,0.368-0.434,0.368s0.051-0.143,0.101-0.206
		c0.05-0.063,0.094-0.162,0.057-0.226c-0.038-0.063-0.294-0.332-0.376-0.396c-0.081-0.061-0.187-0.199-0.201-0.332
		c-0.012-0.131,0.05-1.002,0.09-1.366c0.037-0.361,0.086-1.184,0.111-1.465c0.026-0.283,0.062-0.62,0.014-0.739
		c-0.051-0.119-0.144-0.263-0.22-0.301c-0.075-0.037-0.188-0.057-0.188-0.057L78.691,78.562z"/>
	<path fill-rule="evenodd" clip-rule="evenodd" fill="#FFFFFF" d="M77.35,78.48c0,0,0.181,0,0.269-0.007
		c0.087-0.006,0.169-0.025,0.313-0.018c0.146,0.005,0.258,0,0.365,0.036c0.106,0.037,0.188,0.095,0.176,0.271
		c-0.013,0.175-0.057,0.796-0.075,0.971c-0.019,0.175-0.125,1.441-0.125,1.56c0,0.119-0.04,0.672-0.051,0.853
		c-0.009,0.14-0.063,0.482-0.076,0.614c-0.012,0.131-0.08,0.351-0.08,0.376c0,0.024-0.02,0.067-0.02,0.067s-0.231,0.188-0.313,0.227
		c-0.082,0.038-0.082-0.044-0.132-0.094c-0.05-0.051-0.119-0.056-0.239-0.113c-0.119-0.056-0.3-0.231-0.382-0.356
		c-0.08-0.125-0.107-0.251-0.057-0.457c0.05-0.207,0.226-0.922,0.283-1.178c0.056-0.257,0.225-0.971,0.281-1.224
		c0.057-0.25,0.158-0.646,0.158-0.782c0-0.138-0.045-0.269-0.119-0.339c-0.076-0.068-0.089-0.081-0.139-0.1
		s-0.101-0.032-0.101-0.032L77.35,78.48z"/>
	<path fill-rule="evenodd" clip-rule="evenodd" fill="#FFFFFF" d="M75.989,78.255c0,0,0.183,0.019,0.27,0.019
		c0.088,0,0.239-0.019,0.407,0.018c0.169,0.039,0.371,0.069,0.396,0.146c0.025,0.074,0.062,0.157,0.018,0.32
		c-0.043,0.161-0.337,1.384-0.387,1.591c-0.05,0.207-0.276,1.177-0.313,1.341c-0.039,0.163-0.164,0.721-0.201,0.845
		c-0.038,0.125-0.112,0.364-0.125,0.391c-0.012,0.022-0.194,0.118-0.239,0.136c-0.043,0.021-0.106,0.051-0.106,0.051
		s0.069-0.1,0.045-0.164c-0.025-0.063-0.095-0.13-0.188-0.13c-0.094,0-0.2,0.074-0.276,0.05c-0.075-0.025-0.194-0.075-0.282-0.283
		c-0.088-0.205-0.094-0.237-0.063-0.394c0.031-0.157,0.42-1.083,0.501-1.303c0.083-0.219,0.434-1.129,0.521-1.347
		c0.087-0.221,0.208-0.509,0.201-0.595c-0.006-0.089-0.075-0.233-0.118-0.276c-0.045-0.045-0.107-0.07-0.134-0.064
		c-0.024,0.008-0.056-0.018-0.056-0.018L75.989,78.255z"/>
	<path fill-rule="evenodd" clip-rule="evenodd" fill="#FFFFFF" d="M74.655,77.89c0,0,0.131,0.044,0.263,0.044
		c0.133,0,0.27-0.005,0.42,0.039c0.15,0.043,0.351,0.163,0.382,0.245c0.032,0.082-0.044,0.238-0.132,0.432S75.094,79.928,75,80.16
		c-0.094,0.229-0.508,1.271-0.564,1.416c-0.057,0.144-0.238,0.582-0.294,0.694c-0.056,0.113-0.1,0.225-0.1,0.225l-0.232,0.071
		c0,0,0.063-0.096,0.024-0.151c-0.037-0.057-0.155-0.176-0.225-0.181c-0.067-0.007-0.162,0.012-0.244,0.043
		c-0.099,0.037-0.219,0.037-0.262-0.043c-0.044-0.082-0.17-0.314-0.182-0.37c-0.012-0.056-0.057-0.139,0.006-0.257
		c0.063-0.119,0.47-0.871,0.558-1.01c0.088-0.137,0.563-0.939,0.671-1.134c0.106-0.193,0.37-0.639,0.419-0.739
		c0.05-0.101,0.082-0.182,0.045-0.257c-0.039-0.076-0.039-0.113-0.083-0.132c-0.044-0.019-0.118-0.031-0.118-0.031L74.655,77.89z"/>
	<path fill-rule="evenodd" clip-rule="evenodd" fill="#231F20" d="M79.487,75.147h-0.106c-1.371,0-2.923-0.383-2.923-2.593
		c0-2.217,1.526-2.654,2.975-2.667c1.384,0.012,2.853,0.519,2.853,2.667C82.285,74.498,80.925,75.147,79.487,75.147"/>
	<path fill-rule="evenodd" clip-rule="evenodd" fill="#FFFFFF" d="M79.208,78.308c-6.542,0-11.488-4.032-11.488-8.609
		c0-4.58,4.946-8.611,11.488-8.611c6.542,0,11.489,4.031,11.489,8.611C90.697,74.276,85.75,78.308,79.208,78.308"/>
	<path fill-rule="evenodd" clip-rule="evenodd" fill="#231F20" d="M79.192,64.18c1.582,0.013,2.648,0.655,2.648,2.406
		c0,1.83-1.114,2.419-2.648,2.429c-1.463-0.009-2.65-0.533-2.65-2.429C76.542,64.903,77.745,64.191,79.192,64.18"/>
	<path fill-rule="evenodd" clip-rule="evenodd" fill="#231F20" d="M83.667,69.26c1.576-0.894,1.899-1.798,1.779-2.858
		c-0.215-1.915-2.837-3.283-6.309-3.24c-4.182,0.047-6.712,2.143-6.712,2.69s0.829,0.687,0.829,0.981l0,5.759
		c0.009,0.358-0.779,0.756-0.779,1.153c0,0.412,2.694,2.398,7.148,2.372c3.916-0.022,6.164-1.663,6.184-3.627
		c0.013-1.063-0.606-2.494-2.141-3.205V69.26z"/>
	<path fill-rule="evenodd" clip-rule="evenodd" fill="#231F20" d="M79.211,61.487c6.614,0,11.113,4.125,11.113,8.235
		c0,4.111-4.499,8.237-11.113,8.237c-6.612,0-11.108-4.125-11.108-8.237C68.103,65.613,72.599,61.487,79.211,61.487"/>
	<path fill-rule="evenodd" clip-rule="evenodd" fill="#FFFFFF" d="M79.192,64.18c1.582,0.013,2.647,0.655,2.647,2.406
		c0,1.83-1.113,2.419-2.647,2.429c-1.463-0.009-2.65-0.533-2.65-2.429C76.542,64.903,77.745,64.191,79.192,64.18 M83.667,69.26
		c1.576-0.893,1.899-1.798,1.779-2.858c-0.215-1.915-2.838-3.282-6.311-3.242c-4.18,0.05-6.71,2.145-6.71,2.692
		s0.829,0.688,0.829,0.981l0,5.761c0.009,0.356-0.779,0.755-0.779,1.151c0,0.413,2.694,2.398,7.148,2.372
		c3.916-0.021,6.164-1.663,6.184-3.627c0.012-1.062-0.606-2.494-2.141-3.205V69.26z M79.487,75.147h-0.106
		c-1.371,0-2.923-0.383-2.923-2.593c0-2.217,1.526-2.654,2.975-2.667c1.384,0.012,2.853,0.519,2.853,2.667
		C82.285,74.498,80.925,75.147,79.487,75.147"/>
</g>
</svg>
