<?xml version="1.0" encoding="utf-8"?>
<!-- Generator: Adobe Illustrator 16.0.0, SVG Export Plug-In . SVG Version: 6.00 Build 0)  -->
<!DOCTYPE svg PUBLIC "-//W3C//DTD SVG 1.1//EN" "http://www.w3.org/Graphics/SVG/1.1/DTD/svg11.dtd">
<svg version="1.1" id="Слой_1" xmlns="http://www.w3.org/2000/svg" xmlns:xlink="http://www.w3.org/1999/xlink" x="0px" y="0px"
	 width="22px" height="22px" viewBox="0 0 22 22" enable-background="new 0 0 22 22" xml:space="preserve">
<g>
	<path fill="#255CA8" d="M9.096,13.955C9.415,13.79,9.673,13.57,9.867,13.3c0.254-0.353,0.383-0.736,0.383-1.139
		c0-0.733-0.232-1.316-0.69-1.733c-0.454-0.414-1.069-0.623-1.831-0.623c-0.741,0-1.363,0.221-1.85,0.655
		c-0.491,0.44-0.73,0.999-0.71,1.66l0.049,0.153H6.06v-0.125c0-0.464,0.151-0.826,0.462-1.107s0.717-0.424,1.207-0.424
		c0.532,0,0.936,0.138,1.199,0.409c0.268,0.278,0.397,0.642,0.397,1.112c0,0.426-0.138,0.765-0.422,1.037
		c-0.284,0.269-0.711,0.405-1.27,0.405H6.727v0.813h0.907c0.603,0,1.068,0.127,1.384,0.378c0.313,0.248,0.464,0.624,0.464,1.15
		c0,0.519-0.146,0.903-0.448,1.177c-0.301,0.274-0.731,0.413-1.277,0.413c-0.537,0-0.981-0.152-1.319-0.452
		c-0.338-0.303-0.502-0.682-0.502-1.158v-0.125H5.09l-0.028,0.087l-0.017,0.07c-0.02,0.746,0.246,1.34,0.79,1.765
		c0.536,0.415,1.183,0.625,1.922,0.625c0.767,0,1.405-0.217,1.896-0.645c0.497-0.43,0.749-1.027,0.749-1.777
		c0-0.49-0.136-0.921-0.405-1.279C9.783,14.333,9.48,14.109,9.096,13.955z"/>
	<path fill="#255CA8" d="M14.322,9.805c-0.849,0-1.523,0.299-2.004,0.89c-0.475,0.583-0.715,1.416-0.715,2.475v1.794
		c0,1.058,0.243,1.889,0.723,2.471c0.486,0.59,1.161,0.889,2.007,0.889c0.849,0,1.522-0.298,2.004-0.886
		c0.475-0.583,0.715-1.415,0.715-2.474V13.17c0-1.059-0.243-1.892-0.722-2.475C15.848,10.104,15.172,9.805,14.322,9.805z
		 M14.333,17.512c-0.583,0-1.019-0.205-1.332-0.626c-0.313-0.428-0.472-1.042-0.472-1.826v-2.002c0-0.794,0.156-1.408,0.464-1.826
		c0.305-0.413,0.739-0.614,1.329-0.614c0.589,0,1.025,0.201,1.334,0.614c0.312,0.419,0.47,1.034,0.47,1.826v2.002
		c0,0.788-0.157,1.404-0.467,1.83C15.35,17.309,14.916,17.512,14.333,17.512z"/>
	<path fill="#255CA8" d="M21.377,0.275H0.719c-0.229,0-0.415,0.184-0.415,0.41v6.74V21.38c0,0.23,0.182,0.41,0.415,0.41h20.658
		c0.229,0,0.415-0.184,0.415-0.41V7.425v-6.74C21.792,0.459,21.605,0.275,21.377,0.275z M1.134,7.835h3.907v0.872
		c0,0.226,0.186,0.41,0.415,0.41s0.416-0.184,0.416-0.41V7.835h10.445v0.872c0,0.226,0.187,0.41,0.416,0.41
		c0.229,0,0.415-0.184,0.415-0.41V7.835h3.813v13.136H1.134V7.835z M20.961,7.015h-3.813V6.048c0-0.226-0.187-0.41-0.415-0.41
		c-0.229,0-0.416,0.184-0.416,0.41v0.967H5.871V6.048c0-0.226-0.187-0.41-0.416-0.41s-0.415,0.184-0.415,0.41v0.967H1.134v-5.92
		h19.827V7.015z"/>
</g>
</svg>
