<?xml version="1.0" encoding="utf-8"?>
<!-- Generator: Adobe Illustrator 16.0.0, SVG Export Plug-In . SVG Version: 6.00 Build 0)  -->
<!DOCTYPE svg PUBLIC "-//W3C//DTD SVG 1.1//EN" "http://www.w3.org/Graphics/SVG/1.1/DTD/svg11.dtd">
<svg version="1.1" id="Layer_3" xmlns="http://www.w3.org/2000/svg" xmlns:xlink="http://www.w3.org/1999/xlink" x="0px" y="0px"
	 width="34px" height="33px" viewBox="0 0 34 33" enable-background="new 0 0 34 33" xml:space="preserve">
<g>
	<g>
		<path d="M10.607,23.602c-0.181,0-0.363-0.069-0.501-0.208c-0.277-0.277-0.277-0.726,0-1.003l12.388-12.387
			c0.277-0.277,0.726-0.277,1.003,0c0.277,0.277,0.277,0.726,0,1.003L11.109,23.394C10.971,23.532,10.789,23.602,10.607,23.602
			L10.607,23.602z"/>
	</g>
	<g>
		<path d="M22.841,17.979c-0.208,0-0.417-0.01-0.627-0.028c-0.391-0.036-0.678-0.381-0.643-0.77
			c0.034-0.392,0.382-0.684,0.771-0.643c1.604,0.151,3.197-0.42,4.334-1.558l3.528-3.529c2.139-2.136,2.139-5.614,0-7.755
			l-0.396-0.4c-2.141-2.135-5.62-2.137-7.755,0.001l-3.527,3.525c-1.136,1.14-1.706,2.722-1.56,4.339
			c0.035,0.39-0.252,0.735-0.643,0.771c-0.384,0.03-0.736-0.252-0.771-0.643c-0.183-2.037,0.535-4.03,1.969-5.469l3.529-3.526
			c2.685-2.688,7.063-2.691,9.762-0.001l0.397,0.402c2.69,2.693,2.69,7.072-0.001,9.76l-3.528,3.529
			C26.391,17.27,24.654,17.979,22.841,17.979L22.841,17.979z"/>
	</g>
	<g>
		<path d="M8.076,32.724c-1.767,0-3.534-0.672-4.882-2.016l-0.399-0.403c-1.302-1.301-2.021-3.032-2.021-4.876
			s0.719-3.576,2.024-4.88l3.522-3.527c1.44-1.437,3.437-2.154,5.471-1.973c0.39,0.035,0.678,0.38,0.643,0.77
			c-0.036,0.391-0.388,0.678-0.771,0.644c-1.607-0.142-3.2,0.425-4.34,1.562l-3.522,3.528c-1.038,1.036-1.609,2.411-1.609,3.876
			c0,1.464,0.571,2.841,1.609,3.874L4.2,29.707c2.139,2.134,5.617,2.131,7.752-0.004l3.531-3.528
			c1.135-1.138,1.703-2.718,1.558-4.336c-0.035-0.391,0.252-0.736,0.644-0.771c0.385-0.043,0.733,0.251,0.77,0.644
			c0.183,2.038-0.533,4.03-1.967,5.467l-3.531,3.527C11.611,32.052,9.844,32.724,8.076,32.724L8.076,32.724z"/>
	</g>
</g>
</svg>
