<?xml version="1.0" encoding="utf-8"?>
<!-- Generator: Adobe Illustrator 16.0.0, SVG Export Plug-In . SVG Version: 6.00 Build 0)  -->
<!DOCTYPE svg PUBLIC "-//W3C//DTD SVG 1.1//EN" "http://www.w3.org/Graphics/SVG/1.1/DTD/svg11.dtd">
<svg version="1.1" id="Слой_1" xmlns="http://www.w3.org/2000/svg" xmlns:xlink="http://www.w3.org/1999/xlink" x="0px" y="0px"
	 width="24px" height="24px" viewBox="0 0 24 24" enable-background="new 0 0 24 24" xml:space="preserve">
<g>
	<g>
		<path fill="#3582C1" d="M12,23.506c6.355,0,11.506-5.15,11.506-11.506c0-6.356-5.15-11.506-11.506-11.506
			C5.644,0.494,0.494,5.645,0.494,12C0.494,18.355,5.644,23.506,12,23.506"/>
	</g>
</g>
<g>
	<path fill-rule="evenodd" clip-rule="evenodd" fill="#FFFFFF" d="M11.968,15.83c-1.609,0-3.219,0.001-4.829,0
		c-0.645-0.001-0.927-0.282-0.928-0.932c-0.003-1.43-0.002-2.859,0-4.289c0.001-0.492,0.078-0.537,0.501-0.311
		c1.493,0.798,2.991,1.587,4.477,2.397C11.744,13,12.257,13,12.813,12.697c1.484-0.811,2.983-1.6,4.476-2.398
		c0.419-0.224,0.501-0.181,0.502,0.282c0.002,1.451,0.002,2.901-0.002,4.352c-0.002,0.61-0.289,0.896-0.895,0.897
		C15.251,15.832,13.61,15.83,11.968,15.83z"/>
	<path fill-rule="evenodd" clip-rule="evenodd" fill="#FFFFFF" d="M12,8.175c1.716,0,3.432-0.002,5.149,0.002
		c0.212,0,0.49-0.072,0.574,0.208c0.088,0.297-0.147,0.473-0.368,0.599c-0.698,0.399-1.405,0.782-2.111,1.169
		c-0.835,0.459-1.674,0.91-2.505,1.375c-0.497,0.279-0.976,0.279-1.475,0.002c-1.472-0.816-2.951-1.619-4.423-2.434
		C6.668,9,6.493,8.882,6.369,8.733c-0.229-0.274-0.122-0.508,0.23-0.551C6.703,8.169,6.81,8.175,6.916,8.175
		C8.611,8.175,10.306,8.175,12,8.175z"/>
</g>
</svg>
