<?xml version="1.0" encoding="utf-8"?>
<!-- Generator: Adobe Illustrator 16.0.0, SVG Export Plug-In . SVG Version: 6.00 Build 0)  -->
<!DOCTYPE svg PUBLIC "-//W3C//DTD SVG 1.1//EN" "http://www.w3.org/Graphics/SVG/1.1/DTD/svg11.dtd">
<svg version="1.1" id="Слой_1" xmlns="http://www.w3.org/2000/svg" xmlns:xlink="http://www.w3.org/1999/xlink" x="0px" y="0px"
	 width="24px" height="24px" viewBox="0 0 24 24" enable-background="new 0 0 24 24" xml:space="preserve">
<g>
	
		<linearGradient id="SVGID_1_" gradientUnits="userSpaceOnUse" x1="-204.186" y1="805.9199" x2="-181.1738" y2="805.9199" gradientTransform="matrix(1 0 0 1 204.6797 -793.9199)">
		<stop  offset="0" style="stop-color:#6C84B0"/>
		<stop  offset="1" style="stop-color:#4F659D"/>
	</linearGradient>
	<path fill="url(#SVGID_1_)" d="M12,23.506c6.356,0,11.506-5.15,11.506-11.506S18.355,0.494,12,0.494
		C5.644,0.494,0.494,5.645,0.494,12S5.644,23.506,12,23.506"/>
	<path fill="#FFFFFF" d="M9.3,10.105h1.157V8.98c0-0.496,0.013-1.262,0.373-1.734c0.378-0.501,0.899-0.844,1.796-0.844
		c1.457,0,2.072,0.209,2.072,0.209l-0.287,1.715c0,0-0.48-0.139-0.934-0.139c-0.447,0-0.854,0.16-0.854,0.61v1.308h1.846
		l-0.129,1.674h-1.715v5.815h-2.17v-5.815H9.3V10.105z"/>
</g>
</svg>
