<?xml version="1.0" encoding="utf-8"?>
<!-- Generator: Adobe Illustrator 16.0.0, SVG Export Plug-In . SVG Version: 6.00 Build 0)  -->
<!DOCTYPE svg PUBLIC "-//W3C//DTD SVG 1.1//EN" "http://www.w3.org/Graphics/SVG/1.1/DTD/svg11.dtd">
<svg version="1.1" id="Слой_1" xmlns="http://www.w3.org/2000/svg" xmlns:xlink="http://www.w3.org/1999/xlink" x="0px" y="0px"
	 width="24px" height="24px" viewBox="0 0 24 24" enable-background="new 0 0 24 24" xml:space="preserve">
<g>
	<g>
		<g>
			<path fill="#007BB6" d="M12,23.506c6.356,0,11.506-5.15,11.506-11.506S18.355,0.494,12,0.494C5.644,0.494,0.494,5.645,0.494,12
				S5.644,23.506,12,23.506"/>
		</g>
	</g>
	<g>
		<path fill="#FFFFFF" d="M15.344,15.984c0-0.041,0-0.072,0-0.104c0-1.044-0.002-2.089,0-3.133c0-0.279-0.018-0.557-0.109-0.822
			c-0.156-0.449-0.529-0.674-1.006-0.646c-0.521,0.03-0.91,0.438-1.014,0.862c-0.031,0.138-0.033,0.285-0.033,0.43
			c-0.002,1.104-0.002,2.209-0.002,3.313c0,0.104,0,0.104-0.104,0.104c-0.619,0-1.238,0-1.856,0c-0.031,0-0.063,0-0.096,0
			c0-2.066,0-4.125,0-6.193c0.029,0,0.059,0,0.086,0c0.625,0,1.249,0.001,1.874-0.002c0.076,0,0.1,0.021,0.098,0.097
			c-0.006,0.221-0.002,0.44-0.002,0.661c0,0.028,0,0.056,0,0.083c0.006,0.001,0.012,0.004,0.016,0.004
			c0.059-0.076,0.113-0.152,0.174-0.227c0.348-0.434,0.799-0.684,1.354-0.743c0.494-0.053,0.975,0.006,1.424,0.228
			c0.313,0.154,0.564,0.379,0.762,0.666c0.363,0.527,0.486,1.129,0.49,1.752c0.012,1.205,0.006,2.408,0.006,3.612
			c0,0.019-0.004,0.036-0.006,0.058C16.715,15.984,16.033,15.984,15.344,15.984z"/>
		<path fill="#FFFFFF" d="M9.974,15.989c-0.037,0-0.063,0-0.088,0c-0.623,0-1.244-0.001-1.867,0.002
			c-0.08,0.001-0.1-0.021-0.1-0.101c0.002-1.998,0.002-3.994,0.002-5.992c0-0.104,0-0.104,0.102-0.104
			c0.619,0,1.238,0.001,1.858-0.001c0.073,0,0.099,0.015,0.099,0.095c-0.002,2.006-0.002,4.014-0.002,6.021
			C9.978,15.934,9.974,15.956,9.974,15.989z"/>
		<path fill="#FFFFFF" d="M8.943,8.951C8.535,8.941,8.187,8.811,7.959,8.45C7.607,7.889,7.822,7.027,8.644,6.848
			C9,6.77,9.347,6.798,9.656,7.007c0.355,0.241,0.494,0.593,0.447,1.009S9.824,8.723,9.427,8.864
			C9.275,8.918,9.109,8.936,8.949,8.97C8.947,8.964,8.945,8.958,8.943,8.951z"/>
	</g>
</g>
</svg>
