<?xml version="1.0" encoding="utf-8"?>
<!-- Generator: Adobe Illustrator 16.0.0, SVG Export Plug-In . SVG Version: 6.00 Build 0)  -->
<!DOCTYPE svg PUBLIC "-//W3C//DTD SVG 1.1//EN" "http://www.w3.org/Graphics/SVG/1.1/DTD/svg11.dtd">
<svg version="1.1" id="Слой_1" xmlns="http://www.w3.org/2000/svg" xmlns:xlink="http://www.w3.org/1999/xlink" x="0px" y="0px"
	 width="35px" height="41.673px" viewBox="0 0 35 41.673" enable-background="new 0 0 35 41.673" xml:space="preserve">
<g>
	<g>
		<g>
			<g>
				<path fill="#0A6AB2" d="M17.5,41.3c-0.203,0-0.406-0.07-0.569-0.209C16.253,40.514,0.359,26.856,0.359,17.573
					c0-9.452,7.689-17.141,17.142-17.141s17.142,7.689,17.142,17.141c0,9.283-15.895,22.94-16.572,23.518
					C17.906,41.23,17.703,41.3,17.5,41.3L17.5,41.3z"/>
			</g>
		</g>
	</g>
	<polygon fill="#FFFFFF" points="21.777,13.471 21.777,22.864 19.376,13.471 16.94,13.471 16.289,13.471 14.008,13.471 
		14.008,22.376 10.857,10.039 7.768,10.039 11.792,25.796 14.008,25.796 14.881,25.796 16.94,25.796 16.94,16.024 19.438,25.796 
		21.777,25.796 22.525,25.796 24.709,25.796 24.709,13.471 	"/>
</g>
</svg>
