<?xml version="1.0" encoding="utf-8"?>
<!-- Generator: Adobe Illustrator 16.0.0, SVG Export Plug-In . SVG Version: 6.00 Build 0)  -->
<!DOCTYPE svg PUBLIC "-//W3C//DTD SVG 1.1//EN" "http://www.w3.org/Graphics/SVG/1.1/DTD/svg11.dtd">
<svg version="1.1" id="Слой_1" xmlns="http://www.w3.org/2000/svg" xmlns:xlink="http://www.w3.org/1999/xlink" x="0px" y="0px"
	 width="47px" height="47px" viewBox="0 0 47 47" enable-background="new 0 0 47 47" xml:space="preserve">
<g>
	<linearGradient id="SVGID_1_" gradientUnits="userSpaceOnUse" x1="0.9106" y1="23.5" x2="46.0898" y2="23.5">
		<stop  offset="0" style="stop-color:#6C84B0"/>
		<stop  offset="1" style="stop-color:#4F659D"/>
	</linearGradient>
	<path fill="url(#SVGID_1_)" d="M23.5,46.089c12.477,0,22.59-10.114,22.59-22.589c0-12.475-10.113-22.589-22.59-22.589
		C11.023,0.911,0.911,11.025,0.911,23.5C0.911,35.975,11.023,46.089,23.5,46.089"/>
	<path fill="#FFFFFF" d="M18.2,19.78h2.271v-2.207c0-0.973,0.024-2.475,0.732-3.404c0.743-0.984,1.767-1.655,3.526-1.655
		c2.863,0,4.07,0.409,4.07,0.409l-0.566,3.366c0,0-0.945-0.273-1.83-0.273c-0.881,0-1.674,0.315-1.674,1.2v2.565h3.621l-0.252,3.287
		H24.73v11.418h-4.26V23.067H18.2V19.78z"/>
</g>
</svg>
