<?xml version="1.0" encoding="utf-8"?>
<!-- Generator: Adobe Illustrator 16.0.0, SVG Export Plug-In . SVG Version: 6.00 Build 0)  -->
<!DOCTYPE svg PUBLIC "-//W3C//DTD SVG 1.1//EN" "http://www.w3.org/Graphics/SVG/1.1/DTD/svg11.dtd">
<svg version="1.1" id="Слой_1" xmlns="http://www.w3.org/2000/svg" xmlns:xlink="http://www.w3.org/1999/xlink" x="0px" y="0px"
	 width="24px" height="24px" viewBox="0 0 24 24" enable-background="new 0 0 24 24" xml:space="preserve">
<g>
	<g>
		<g>
			<path fill="#28A9E6" d="M12,23.506c6.355,0,11.506-5.15,11.506-11.506S18.355,0.494,12,0.494S0.494,5.645,0.494,12
				S5.645,23.506,12,23.506"/>
		</g>
	</g>
</g>
<g>
	<path fill-rule="evenodd" clip-rule="evenodd" fill="#FFFFFF" d="M9.266,15.135c-1.383-0.074-2.295-1.058-2.547-1.934
		c0.198,0.008,0.395,0.029,0.59,0.022c0.197-0.008,0.394-0.041,0.593-0.076c-1.362-0.424-2.094-1.333-2.175-2.761
		c0.391,0.171,0.782,0.308,1.245,0.312c-0.605-0.439-0.996-0.991-1.153-1.694C5.661,8.299,5.765,7.63,6.12,6.987
		c1.511,1.774,3.417,2.752,5.749,2.914c-0.018-0.179-0.042-0.339-0.049-0.5c-0.041-0.866,0.257-1.602,0.891-2.189
		c0.697-0.645,1.531-0.857,2.457-0.684c0.535,0.1,1.002,0.353,1.387,0.743c0.057,0.058,0.107,0.074,0.191,0.055
		c0.547-0.124,1.066-0.32,1.557-0.594c0.02-0.01,0.039-0.02,0.059-0.029c0.006-0.003,0.014,0,0.037,0
		c-0.213,0.631-0.604,1.113-1.145,1.485c0.525-0.041,1.018-0.196,1.525-0.405c-0.334,0.489-0.703,0.9-1.141,1.246
		c-0.012,0.009-0.021,0.02-0.035,0.026c-0.184,0.098-0.215,0.25-0.211,0.45c0.025,1.069-0.193,2.094-0.592,3.084
		c-0.311,0.772-0.727,1.481-1.252,2.125c-0.426,0.524-0.914,0.985-1.465,1.382c-0.611,0.439-1.273,0.778-1.982,1.019
		c-0.62,0.209-1.259,0.337-1.912,0.387c-0.788,0.061-1.573,0.029-2.348-0.134c-0.653-0.139-1.286-0.347-1.883-0.654
		c-0.249-0.129-0.494-0.265-0.738-0.412C6.723,16.424,8.074,16.055,9.266,15.135z"/>
</g>
</svg>
