<?xml version="1.0" encoding="utf-8"?>
<!-- Generator: Adobe Illustrator 16.0.0, SVG Export Plug-In . SVG Version: 6.00 Build 0)  -->
<!DOCTYPE svg PUBLIC "-//W3C//DTD SVG 1.1//EN" "http://www.w3.org/Graphics/SVG/1.1/DTD/svg11.dtd">
<svg version="1.1" id="Слой_1" xmlns="http://www.w3.org/2000/svg" xmlns:xlink="http://www.w3.org/1999/xlink" x="0px" y="0px"
	 width="15.708px" height="16px" viewBox="0 0 15.708 16" enable-background="new 0 0 15.708 16" xml:space="preserve">
<g>
	<path fill="#255ca8" d="M3.268,7.15c0-2.12,1.724-3.844,3.843-3.844V2.62c-2.498,0-4.529,2.033-4.529,4.53H3.268z"/>
	<path fill="#255ca8" d="M15.405,14.862l-3.519-3.519c1.099-1.239,1.7-2.815,1.7-4.467c-0.001-3.722-3.03-6.75-6.75-6.75
		c-3.72,0.001-6.749,3.03-6.75,6.752c0.001,3.721,3.028,6.747,6.748,6.747c1.515,0,2.989-0.517,4.179-1.458l3.542,3.542
		c0.114,0.113,0.265,0.175,0.425,0.175s0.311-0.062,0.424-0.175C15.638,15.477,15.638,15.096,15.405,14.862z M6.836,1.327
		c3.06,0,5.549,2.49,5.55,5.55c0,3.06-2.49,5.548-5.551,5.548c-3.058,0-5.547-2.488-5.548-5.546
		C1.288,3.818,3.777,1.328,6.836,1.327z"/>
</g>
</svg>
