<?xml version="1.0" encoding="utf-8"?>
<!-- Generator: Adobe Illustrator 16.0.0, SVG Export Plug-In . SVG Version: 6.00 Build 0)  -->
<!DOCTYPE svg PUBLIC "-//W3C//DTD SVG 1.1//EN" "http://www.w3.org/Graphics/SVG/1.1/DTD/svg11.dtd">
<svg version="1.1" id="Слой_1" xmlns="http://www.w3.org/2000/svg" xmlns:xlink="http://www.w3.org/1999/xlink" x="0px" y="0px"
	 width="82.667px" height="34.667px" viewBox="0 0 82.667 34.667" enable-background="new 0 0 82.667 34.667" xml:space="preserve">
<g>
	<path fill="#6183C0" d="M17.56,1.377C8.774,1.383,1.694,8.418,1.598,17.144C1.5,26.094,8.677,33.284,17.536,33.29
		c8.888,0.008,15.947-7.164,15.979-15.943C33.513,8.543,26.364,1.372,17.56,1.377z M21.964,13.834
		c-0.106,1.002-0.197,2.006-0.28,3.011c-0.044,0.538-0.031,0.54-0.574,0.54c-0.666,0-1.332,0.013-1.996-0.006
		c-0.242-0.008-0.285,0.074-0.282,0.295c0.01,1.482,0.005,2.966,0.005,4.447c0,1.482-0.005,2.965,0.005,4.445
		c0.002,0.236-0.069,0.293-0.297,0.289c-1.081-0.012-2.163-0.012-3.244,0c-0.237,0.004-0.288-0.072-0.288-0.297
		c0.008-2.965,0.001-5.928,0.012-8.893c0-0.236-0.065-0.295-0.295-0.287c-0.463,0.018-0.929-0.002-1.394,0.01
		c-0.173,0.004-0.212-0.053-0.211-0.217c0.007-1.131,0.007-2.26,0-3.389c-0.001-0.16,0.048-0.203,0.204-0.199
		c0.496,0.008,0.994-0.004,1.49,0.006c0.148,0.002,0.188-0.043,0.188-0.189c-0.006-0.586-0.025-1.172,0.007-1.754
		c0.069-1.217,0.462-2.291,1.488-3.039c0.642-0.469,1.384-0.668,2.164-0.686c1.024-0.021,2.051-0.002,3.075-0.006
		c0.151-0.002,0.188,0.049,0.188,0.192c-0.005,0.961-0.007,1.923,0.001,2.884c0.001,0.168-0.063,0.194-0.209,0.192
		c-0.625-0.006-1.25-0.004-1.875-0.002c-0.55,0-0.855,0.291-0.863,0.834c-0.008,0.457,0.004,0.914-0.006,1.371
		c-0.003,0.157,0.051,0.202,0.205,0.2c0.85-0.006,1.698,0.002,2.547-0.008C21.924,13.581,21.987,13.618,21.964,13.834z"/>
	<g>
		<path fill="#231F20" d="M40.792,20.758l0.36-0.411c0.647,0.647,1.412,0.971,2.291,0.971c0.582,0,1.057-0.155,1.426-0.474
			c0.369-0.313,0.555-0.729,0.555-1.243c0-0.449-0.154-0.828-0.461-1.142c-0.307-0.311-0.68-0.561-1.114-0.746
			c-0.437-0.188-0.872-0.379-1.308-0.571c-0.436-0.195-0.809-0.466-1.114-0.812c-0.308-0.344-0.461-0.766-0.461-1.264
			c0-0.672,0.251-1.215,0.753-1.625s1.127-0.617,1.874-0.617c0.905,0,1.64,0.271,2.204,0.811l-0.299,0.462
			c-0.232-0.232-0.525-0.416-0.879-0.55c-0.353-0.133-0.703-0.198-1.051-0.198c-0.564,0-1.047,0.153-1.444,0.461
			c-0.398,0.308-0.599,0.715-0.599,1.221c0,0.425,0.153,0.783,0.461,1.076c0.307,0.295,0.679,0.531,1.114,0.711
			c0.437,0.179,0.872,0.367,1.308,0.565c0.436,0.199,0.808,0.478,1.115,0.834c0.307,0.357,0.459,0.798,0.459,1.32
			c0,0.672-0.229,1.226-0.69,1.656c-0.46,0.432-1.082,0.646-1.861,0.646C42.395,21.84,41.514,21.48,40.792,20.758z"/>
		<path fill="#231F20" d="M48.935,21.692v-8.717h0.535v4.096H55v-4.096h0.536v8.717H55v-4.123H49.47v4.123H48.935z"/>
		<path fill="#231F20" d="M58.138,21.692l3.263-8.717h0.572l3.264,8.717h-0.574l-1.133-3.013h-3.698l-1.121,3.014L58.138,21.692
			L58.138,21.692z M60.018,18.181h3.325l-1.319-3.537L61.7,13.599h-0.025c-0.125,0.446-0.232,0.797-0.324,1.045L60.018,18.181z"/>
		<path fill="#231F20" d="M67.838,21.692v-8.717h2.553c0.697,0,1.221,0.088,1.568,0.262c0.374,0.182,0.669,0.457,0.885,0.822
			s0.323,0.787,0.323,1.27c0,0.613-0.161,1.139-0.485,1.574c-0.324,0.438-0.742,0.713-1.258,0.828v0.025
			c0.059,0.065,0.125,0.17,0.199,0.311l1.955,3.625h-0.635l-2.067-3.861h-2.503v3.861H67.838z M68.374,17.333h2.365
			c0.564,0,1.018-0.184,1.357-0.553s0.51-0.854,0.51-1.451c0-0.383-0.091-0.723-0.272-1.021c-0.183-0.298-0.433-0.521-0.747-0.66
			c-0.258-0.114-0.664-0.174-1.221-0.174h-1.992V17.333z"/>
		<path fill="#231F20" d="M76.331,21.692v-8.717h4.77v0.498h-4.232v3.574h3.474v0.498h-3.474v3.647h4.47v0.498L76.331,21.692
			L76.331,21.692z"/>
	</g>
</g>
</svg>
