<?xml version="1.0" encoding="utf-8"?>
<!-- Generator: Adobe Illustrator 16.0.0, SVG Export Plug-In . SVG Version: 6.00 Build 0)  -->
<!DOCTYPE svg PUBLIC "-//W3C//DTD SVG 1.1//EN" "http://www.w3.org/Graphics/SVG/1.1/DTD/svg11.dtd">
<svg version="1.1" id="Слой_1" xmlns="http://www.w3.org/2000/svg" xmlns:xlink="http://www.w3.org/1999/xlink" x="0px" y="0px"
	 width="129.333px" height="34.667px" viewBox="0 0 129.333 34.667" enable-background="new 0 0 129.333 34.667"
	 xml:space="preserve">
<g>
	<path fill="#6183C0" d="M16.863,1.377C8.077,1.383,0.997,8.418,0.901,17.144c-0.098,8.95,7.079,16.14,15.938,16.146
		c8.888,0.008,15.947-7.164,15.979-15.943C32.816,8.543,25.667,1.372,16.863,1.377z M21.267,13.834
		c-0.106,1.002-0.197,2.006-0.28,3.011c-0.044,0.538-0.031,0.54-0.574,0.54c-0.666,0-1.332,0.013-1.996-0.006
		c-0.242-0.008-0.285,0.074-0.282,0.295c0.01,1.482,0.005,2.966,0.005,4.447c0,1.482-0.005,2.965,0.005,4.445
		c0.002,0.236-0.069,0.293-0.297,0.289c-1.081-0.012-2.163-0.012-3.244,0c-0.237,0.004-0.288-0.072-0.288-0.297
		c0.008-2.965,0.001-5.928,0.012-8.893c0-0.236-0.065-0.295-0.295-0.287c-0.463,0.018-0.929-0.002-1.394,0.01
		c-0.173,0.004-0.212-0.053-0.211-0.217c0.007-1.131,0.007-2.26,0-3.389c-0.001-0.16,0.048-0.203,0.204-0.199
		c0.496,0.008,0.994-0.004,1.49,0.006c0.148,0.002,0.188-0.043,0.188-0.189c-0.006-0.586-0.025-1.172,0.007-1.754
		c0.069-1.217,0.462-2.291,1.488-3.039c0.642-0.469,1.384-0.668,2.164-0.686c1.024-0.021,2.051-0.002,3.075-0.006
		c0.151-0.002,0.188,0.049,0.188,0.192c-0.005,0.961-0.007,1.923,0.001,2.884c0.001,0.168-0.063,0.194-0.209,0.192
		c-0.625-0.006-1.25-0.004-1.875-0.002c-0.55,0-0.855,0.291-0.863,0.834c-0.008,0.457,0.004,0.914-0.006,1.371
		c-0.003,0.157,0.051,0.202,0.205,0.2c0.85-0.006,1.698,0.002,2.547-0.008C21.227,13.581,21.29,13.618,21.267,13.834z"/>
	<g enable-background="new    ">
		<path d="M40.884,22.236v-8.987h6.677v8.987h-0.552V13.76h-5.573v8.476H40.884z"/>
		<path d="M50.386,17.678c0-1.284,0.442-2.369,1.329-3.256c0.886-0.887,1.957-1.328,3.217-1.328c1.259,0,2.331,0.441,3.217,1.328
			c0.887,0.887,1.329,1.972,1.329,3.256c0,1.318-0.442,2.434-1.329,3.345c-0.886,0.912-1.958,1.368-3.217,1.368
			c-1.26,0-2.331-0.456-3.217-1.368C50.829,20.111,50.386,18.997,50.386,17.678z M50.963,17.678c0,1.173,0.386,2.164,1.156,2.973
			c0.771,0.809,1.709,1.215,2.813,1.215s2.042-0.406,2.813-1.215c0.77-0.809,1.155-1.8,1.155-2.973c0-1.146-0.385-2.11-1.155-2.891
			c-0.771-0.777-1.709-1.168-2.813-1.168s-2.042,0.391-2.813,1.168C51.349,15.567,50.963,16.53,50.963,17.678z"/>
		<path d="M60.646,21.723h0.899c0.351-0.445,0.64-0.948,0.867-1.51c0.227-0.561,0.39-1.164,0.487-1.811
			c0.099-0.646,0.163-1.225,0.193-1.732c0.03-0.51,0.045-1.1,0.045-1.767v-1.655h4.647v8.475h1.002v2.313h-0.539v-1.799H61.2v1.799
			h-0.553L60.646,21.723L60.646,21.723z M62.174,21.723h5.059V13.76h-3.557v1.132c0,1.438-0.104,2.731-0.309,3.884
			C63.163,19.926,62.764,20.909,62.174,21.723z"/>
		<path d="M71.418,22.236v-8.987h0.553v8.987H71.418z"/>
		<path d="M74.154,21.799c0.445-0.059,0.82-0.268,1.124-0.623c0.305-0.354,0.535-0.859,0.693-1.514
			c0.158-0.656,0.268-1.365,0.326-2.133c0.061-0.766,0.091-1.684,0.091-2.754v-1.527h4.647v8.987h-0.552V13.76h-3.558v1.016
			c0,0.77-0.014,1.444-0.038,2.021c-0.025,0.578-0.073,1.162-0.142,1.752c-0.069,0.592-0.168,1.095-0.295,1.51
			c-0.13,0.416-0.293,0.794-0.494,1.137c-0.201,0.344-0.453,0.607-0.752,0.797c-0.3,0.188-0.65,0.303-1.054,0.346v-0.539H74.154z"/>
		<path d="M84.478,22.236v-8.987h0.552v7.049l-0.063,1.131h0.025c0.324-0.506,0.586-0.895,0.782-1.17l5.072-7.01h0.514v8.987h-0.553
			v-7.05l0.063-1.13h-0.024c-0.3,0.479-0.548,0.856-0.745,1.13l-5.109,7.05H84.478z"/>
		<path d="M97.011,22.236V13.76h-3.353v-0.514h7.256v0.514h-3.353v8.476H97.011z"/>
		<path d="M103.211,22.236v-8.987h0.553v7.049l-0.063,1.131h0.024c0.325-0.506,0.586-0.895,0.783-1.17l5.071-7.01h0.515v8.987
			h-0.554v-7.05l0.064-1.13h-0.025c-0.299,0.479-0.547,0.856-0.744,1.13l-5.11,7.05H103.211z"/>
		<path d="M112.933,17.678c0-1.311,0.419-2.401,1.259-3.274c0.84-0.872,1.904-1.31,3.197-1.31c1.335,0,2.404,0.377,3.21,1.13
			l-0.334,0.411c-0.359-0.317-0.796-0.565-1.31-0.745c-0.515-0.181-1.033-0.271-1.555-0.271c-1.139,0-2.072,0.383-2.8,1.149
			s-1.091,1.735-1.091,2.907c0,1.191,0.365,2.187,1.098,2.986c0.73,0.801,1.676,1.2,2.831,1.2c1.198,0,2.213-0.407,3.043-1.22
			l0.347,0.385c-0.94,0.907-2.07,1.361-3.39,1.361c-1.327,0-2.409-0.454-3.248-1.361C113.352,20.122,112.933,19.004,112.933,17.678z
			"/>
		<path d="M122.512,22.236l2.247-3.698l0.204-0.32v-0.025c-0.625-0.154-1.098-0.449-1.418-0.886s-0.481-0.979-0.481-1.632
			c0-0.495,0.11-0.934,0.334-1.311c0.224-0.376,0.526-0.658,0.912-0.847c0.358-0.181,0.897-0.271,1.618-0.271h2.504v8.988h-0.553
			v-3.98h-2.299l-2.414,3.98L122.512,22.236L122.512,22.236z M125.568,17.743h2.312V13.76h-1.926c-0.574,0-0.992,0.062-1.259,0.182
			c-0.325,0.146-0.582,0.372-0.771,0.682c-0.189,0.309-0.282,0.658-0.282,1.053c0,0.615,0.176,1.115,0.526,1.496
			C124.518,17.553,124.986,17.743,125.568,17.743z"/>
	</g>
</g>
</svg>
