<?xml version="1.0" encoding="utf-8"?>
<!-- Generator: Adobe Illustrator 16.0.0, SVG Export Plug-In . SVG Version: 6.00 Build 0)  -->
<!DOCTYPE svg PUBLIC "-//W3C//DTD SVG 1.1//EN" "http://www.w3.org/Graphics/SVG/1.1/DTD/svg11.dtd">
<svg version="1.1" id="Слой_1" xmlns="http://www.w3.org/2000/svg" xmlns:xlink="http://www.w3.org/1999/xlink" x="0px" y="0px"
	 width="85.445px" height="56px" viewBox="-43.282 -19.271 85.445 56" enable-background="new -43.282 -19.271 85.445 56"
	 xml:space="preserve">
<g>
	<g>
		<g>
			<path fill-rule="evenodd" clip-rule="evenodd" fill="#255CA8" d="M-30.927,2.164c-1.993,1.191-4.108,2.223-5.957,3.608
				c-4.2,3.148-4.437,7.191-0.289,10.366c2.528,1.937,5.568,3.386,8.589,4.466c6.706,2.398,13.701,3.434,21.052,3.555
				c0.085-1.872,0.163-3.565,0.262-5.738c3.56,3.091,6.797,5.901,10.32,8.959c-3.4,2.998-6.621,5.835-10.445,9.205
				c0-1.742-0.12-2.855,0.027-3.931c0.281-2.056-0.688-2.491-2.544-2.604c-8.559-0.524-16.911-2.097-24.574-6.123
				c-2.321-1.22-4.554-2.877-6.333-4.794c-3.256-3.509-3.161-7.926,0.375-11.154c2.707-2.472,5.981-4.325,9.004-6.454
				C-31.268,1.737-31.098,1.95-30.927,2.164z"/>
		</g>
		<g>
			<path fill-rule="evenodd" clip-rule="evenodd" fill="#255CA8" d="M5.506,30.314c0-1.714,0.082-2.869-0.02-4.007
				c-0.136-1.521,0.276-2.185,1.984-2.354c6.731-0.67,13.402-1.762,19.637-4.557c1.884-0.846,3.736-1.904,5.348-3.185
				c3.953-3.139,3.867-7.123-0.044-10.294c-0.485-0.394-0.985-0.772-1.309-1.329c3.36,1.712,6.346,3.91,7.123,7.881
				c0.749,3.819-1.388,6.582-4.187,8.781c-5.04,3.965-11.023,5.827-17.159,7.176C13.317,29.212,9.675,29.636,5.506,30.314z"/>
		</g>
	</g>
	<g>
		<path fill="#255CA8" d="M-29.31,3.971l2.875-4.621c1.506,1.46,3.182,2.19,5.031,2.19c1.072,0,1.922-0.233,2.551-0.702
			c0.626-0.467,0.94-1.043,0.94-1.728c0-1.802-1.518-2.705-4.552-2.705h-1.712l-1.266-2.909l3.217-3.868
			c0.343-0.411,0.69-0.81,1.044-1.198c0.354-0.388,0.621-0.662,0.804-0.821l0.273-0.275v-0.068
			c-0.525,0.115-1.301,0.171-2.327,0.171h-5.854v-5.134h15.437v3.731l-4.964,5.716c1.803,0.388,3.24,1.232,4.313,2.533
			c1.073,1.3,1.609,2.819,1.609,4.552c0,2.282-0.793,4.245-2.379,5.888c-1.587,1.643-3.816,2.464-6.691,2.464
			C-24.405,7.189-27.188,6.117-29.31,3.971z"/>
		<path fill="#255CA8" d="M-9.561-4.517c0-1.688,0.257-3.332,0.771-4.929c0.514-1.598,1.243-3.046,2.19-4.347
			c0.947-1.301,2.179-2.345,3.697-3.132c1.518-0.788,3.188-1.181,5.015-1.181c2.123,0,3.925,0.354,5.407,1.061L5.909-11.91
			c-0.298-0.159-0.799-0.32-1.507-0.479c-0.707-0.16-1.322-0.24-1.847-0.24c-2.625,0-4.381,1.347-5.271,4.04h0.069
			c0.296-0.206,0.787-0.399,1.472-0.583c0.685-0.183,1.313-0.273,1.883-0.273c2.418,0,4.358,0.838,5.819,2.516
			c1.459,1.677,2.189,3.634,2.189,5.87c0,2.213-0.759,4.142-2.276,5.785C4.922,6.367,2.898,7.189,0.364,7.189
			c-2.692,0-5.02-1.016-6.981-3.047C-8.58,2.112-9.561-0.774-9.561-4.517z M0.364,1.712c0.731,0,1.324-0.268,1.781-0.804
			c0.456-0.536,0.684-1.181,0.684-1.934c0-0.981-0.308-1.825-0.924-2.533C1.288-4.266,0.364-4.62-0.868-4.62
			c-1.688,0-2.533,0.491-2.533,1.472c0,1.369,0.399,2.522,1.198,3.457C-1.404,1.245-0.548,1.712,0.364,1.712z"/>
		<path fill="#255CA8" d="M24.512,6.213c-1.221,0.651-2.676,0.976-4.365,0.976c-1.687,0-3.143-0.325-4.363-0.976
			c-1.22-0.65-2.174-1.568-2.857-2.755c-0.684-1.187-1.187-2.521-1.506-4.004C11.1-2.03,10.942-3.684,10.942-5.51
			c0-1.825,0.158-3.474,0.479-4.946c0.319-1.472,0.822-2.795,1.506-3.97c0.684-1.174,1.638-2.082,2.857-2.721
			c1.221-0.639,2.677-0.958,4.363-0.958c1.689,0,3.145,0.319,4.365,0.958c1.221,0.639,2.174,1.547,2.858,2.721
			c0.684,1.175,1.186,2.499,1.505,3.97c0.319,1.472,0.48,3.121,0.48,4.946c0,1.826-0.161,3.479-0.48,4.963
			c-0.319,1.483-0.821,2.818-1.505,4.004C26.686,4.645,25.733,5.563,24.512,6.213z M20.147,1.712c2.032,0,3.047-2.407,3.047-7.222
			c0-4.746-1.015-7.12-3.047-7.12c-2.03,0-3.045,2.374-3.045,7.12C17.102-0.695,18.116,1.712,20.147,1.712z"/>
		<path fill="#255CA8" d="M39.238-4.949C38.526-4.57,37.677-4.38,36.694-4.38c-0.985,0-1.833-0.189-2.546-0.569
			c-0.711-0.379-1.266-0.915-1.666-1.606c-0.398-0.691-0.69-1.47-0.877-2.334c-0.188-0.865-0.28-1.83-0.28-2.894
			c0-1.064,0.093-2.025,0.28-2.883c0.187-0.858,0.479-1.63,0.877-2.315c0.4-0.685,0.955-1.214,1.666-1.586
			c0.713-0.372,1.561-0.559,2.546-0.559c0.983,0,1.832,0.187,2.544,0.559c0.711,0.373,1.268,0.902,1.666,1.586
			c0.399,0.685,0.691,1.457,0.878,2.315c0.186,0.858,0.28,1.819,0.28,2.883c0,1.064-0.095,2.029-0.28,2.894
			c-0.187,0.865-0.479,1.643-0.878,2.334C40.505-5.864,39.948-5.328,39.238-4.949z M36.694-7.573c1.184,0,1.775-1.404,1.775-4.211
			c0-2.767-0.592-4.15-1.775-4.15c-1.185,0-1.776,1.384-1.776,4.15C34.917-8.977,35.509-7.573,36.694-7.573z"/>
	</g>
</g>
</svg>
