<?xml version="1.0" encoding="utf-8"?>
<!-- Generator: Adobe Illustrator 16.0.0, SVG Export Plug-In . SVG Version: 6.00 Build 0)  -->
<!DOCTYPE svg PUBLIC "-//W3C//DTD SVG 1.1//EN" "http://www.w3.org/Graphics/SVG/1.1/DTD/svg11.dtd">
<svg version="1.1" id="Слой_1" xmlns="http://www.w3.org/2000/svg" xmlns:xlink="http://www.w3.org/1999/xlink" x="0px" y="0px"
	 width="16px" height="16px" viewBox="15.5 15.5 16 16" enable-background="new 15.5 15.5 16 16" xml:space="preserve">
<g>
	<path fill="#255DA7" d="M23.5,15.583c-4.372,0-7.916,3.544-7.916,7.917c0,4.372,3.544,7.917,7.916,7.917s7.916-3.545,7.916-7.917
		C31.416,19.127,27.872,15.583,23.5,15.583z M24.451,28.082h-2.232v-1.969h2.232V28.082z M26.274,22.357
		c-0.174,0.289-0.523,0.643-1.055,1.059c-0.37,0.293-0.604,0.528-0.698,0.705c-0.098,0.178-0.146,0.409-0.146,0.694H22.29v-0.208
		c0-0.354,0.041-0.643,0.121-0.864c0.08-0.222,0.2-0.424,0.359-0.607s0.517-0.504,1.073-0.965c0.295-0.242,0.444-0.463,0.444-0.664
		c0-0.201-0.061-0.357-0.179-0.469c-0.119-0.111-0.299-0.167-0.54-0.167c-0.261,0-0.476,0.086-0.646,0.258
		c-0.17,0.171-0.279,0.472-0.326,0.9l-2.13-0.263c0.073-0.783,0.357-1.413,0.854-1.891s1.256-0.716,2.28-0.716
		c0.798,0,1.442,0.166,1.933,0.499c0.664,0.451,0.999,1.05,0.999,1.801C26.533,21.769,26.446,22.068,26.274,22.357z"/>
</g>
</svg>
